  0
SECTION
  2
HEADER
  9
$EXTMAX
 10
0.0
 20
0.0
  9
$EXTMIN
 10
297.0
 20
297.0
  0
ENDSEC
  0
SECTION
  2
TABLES
  0
TABLE
  2
LAYER
  0
LAYER
  2
BARS
 70
64
 62
1
  6
CONTINUOUS
  0
LAYER
  2
FACES
 70
64
 62
5
  6
CONTINUOUS
  0
ENDTAB
  0
ENDSEC
  0
SECTION
  2
ENTITIES
  0
3DFACE
  8
FACES
 10
0
 20
0
 30
0
 11
1.15
 21
0
 31
0
 12
1.15
 22
1
 32
0
 13
0
 23
1
 33
0
  0
3DFACE
  8
FACES
 10
1.15
 20
0
 30
0
 11
0
 21
0
 31
0
 12
0
 22
0
 32
1
 13
1.15
 23
0
 33
1
  0
3DFACE
  8
FACES
 10
0
 20
0
 30
0
 11
0
 21
1
 31
0
 12
0
 22
1
 32
1
 13
0
 23
0
 33
1
  0
3DFACE
  8
FACES
 10
1.15
 20
0
 30
0
 11
2.15
 21
0
 31
0
 12
2.15
 22
1
 32
0
 13
1.15
 23
1
 33
0
  0
3DFACE
  8
FACES
 10
2.15
 20
0
 30
0
 11
1.15
 21
0
 31
0
 12
1.15
 22
0
 32
1
 13
2.15
 23
0
 33
1
  0
3DFACE
  8
FACES
 10
2.15
 20
0
 30
0
 11
3.15
 21
0
 31
0
 12
3.15
 22
1
 32
0
 13
2.15
 23
1
 33
0
  0
3DFACE
  8
FACES
 10
3.15
 20
0
 30
0
 11
2.15
 21
0
 31
0
 12
2.15
 22
0
 32
1
 13
3.15
 23
0
 33
1
  0
3DFACE
  8
FACES
 10
3.15
 20
0
 30
0
 11
4.15
 21
0
 31
0
 12
4.15
 22
1
 32
0
 13
3.15
 23
1
 33
0
  0
3DFACE
  8
FACES
 10
4.15
 20
0
 30
0
 11
3.15
 21
0
 31
0
 12
3.15
 22
0
 32
1
 13
4.15
 23
0
 33
1
  0
3DFACE
  8
FACES
 10
4.15
 20
0
 30
0
 11
5.15
 21
0
 31
0
 12
5.15
 22
1
 32
0
 13
4.15
 23
1
 33
0
  0
3DFACE
  8
FACES
 10
5.15
 20
0
 30
0
 11
4.15
 21
0
 31
0
 12
4.15
 22
0
 32
1
 13
5.15
 23
0
 33
1
  0
3DFACE
  8
FACES
 10
5.15
 20
0
 30
0
 11
6.15
 21
0
 31
0
 12
6.15
 22
1
 32
0
 13
5.15
 23
1
 33
0
  0
3DFACE
  8
FACES
 10
6.15
 20
0
 30
0
 11
5.15
 21
0
 31
0
 12
5.15
 22
0
 32
1
 13
6.15
 23
0
 33
1
  0
3DFACE
  8
FACES
 10
6.15
 20
0
 30
0
 11
7.15
 21
0
 31
0
 12
7.15
 22
1
 32
0
 13
6.15
 23
1
 33
0
  0
3DFACE
  8
FACES
 10
7.15
 20
0
 30
0
 11
6.15
 21
0
 31
0
 12
6.15
 22
0
 32
1
 13
7.15
 23
0
 33
1
  0
3DFACE
  8
FACES
 10
7.15
 20
0
 30
0
 11
8.15
 21
0
 31
0
 12
8.15
 22
1
 32
0
 13
7.15
 23
1
 33
0
  0
3DFACE
  8
FACES
 10
8.15
 20
0
 30
0
 11
7.15
 21
0
 31
0
 12
7.15
 22
0
 32
1
 13
8.15
 23
0
 33
1
  0
3DFACE
  8
FACES
 10
8.15
 20
0
 30
0
 11
9.15
 21
0
 31
0
 12
9.15
 22
1
 32
0
 13
8.15
 23
1
 33
0
  0
3DFACE
  8
FACES
 10
9.15
 20
0
 30
0
 11
8.15
 21
0
 31
0
 12
8.15
 22
0
 32
1
 13
9.15
 23
0
 33
1
  0
3DFACE
  8
FACES
 10
9.15
 20
0
 30
0
 11
10.15
 21
0
 31
0
 12
10.15
 22
1
 32
0
 13
9.15
 23
1
 33
0
  0
3DFACE
  8
FACES
 10
10.15
 20
0
 30
0
 11
9.15
 21
0
 31
0
 12
9.15
 22
0
 32
1
 13
10.15
 23
0
 33
1
  0
3DFACE
  8
FACES
 10
10.15
 20
0
 30
0
 11
11.15
 21
0
 31
0
 12
11.15
 22
1
 32
0
 13
10.15
 23
1
 33
0
  0
3DFACE
  8
FACES
 10
11.15
 20
0
 30
0
 11
10.15
 21
0
 31
0
 12
10.15
 22
0
 32
1
 13
11.15
 23
0
 33
1
  0
3DFACE
  8
FACES
 10
11.15
 20
0
 30
0
 11
12.15
 21
0
 31
0
 12
12.15
 22
1
 32
0
 13
11.15
 23
1
 33
0
  0
3DFACE
  8
FACES
 10
12.15
 20
0
 30
0
 11
11.15
 21
0
 31
0
 12
11.15
 22
0
 32
1
 13
12.15
 23
0
 33
1
  0
3DFACE
  8
FACES
 10
12.15
 20
0
 30
0
 11
13.15
 21
0
 31
0
 12
13.15
 22
1
 32
0
 13
12.15
 23
1
 33
0
  0
3DFACE
  8
FACES
 10
13.15
 20
0
 30
0
 11
12.15
 21
0
 31
0
 12
12.15
 22
0
 32
1
 13
13.15
 23
0
 33
1
  0
3DFACE
  8
FACES
 10
13.15
 20
0
 30
0
 11
14.15
 21
0
 31
0
 12
14.15
 22
1
 32
0
 13
13.15
 23
1
 33
0
  0
3DFACE
  8
FACES
 10
14.15
 20
0
 30
0
 11
13.15
 21
0
 31
0
 12
13.15
 22
0
 32
1
 13
14.15
 23
0
 33
1
  0
3DFACE
  8
FACES
 10
14.15
 20
0
 30
0
 11
15.15
 21
0
 31
0
 12
15.15
 22
1
 32
0
 13
14.15
 23
1
 33
0
  0
3DFACE
  8
FACES
 10
15.15
 20
0
 30
0
 11
14.15
 21
0
 31
0
 12
14.15
 22
0
 32
1
 13
15.15
 23
0
 33
1
  0
3DFACE
  8
FACES
 10
15.15
 20
0
 30
0
 11
16.15
 21
0
 31
0
 12
16.15
 22
1
 32
0
 13
15.15
 23
1
 33
0
  0
3DFACE
  8
FACES
 10
16.15
 20
0
 30
0
 11
15.15
 21
0
 31
0
 12
15.15
 22
0
 32
1
 13
16.15
 23
0
 33
1
  0
3DFACE
  8
FACES
 10
16.15
 20
0
 30
0
 11
17.15
 21
0
 31
0
 12
17.15
 22
1
 32
0
 13
16.15
 23
1
 33
0
  0
3DFACE
  8
FACES
 10
17.15
 20
0
 30
0
 11
16.15
 21
0
 31
0
 12
16.15
 22
0
 32
1
 13
17.15
 23
0
 33
1
  0
3DFACE
  8
FACES
 10
17.15
 20
0
 30
0
 11
18.15
 21
0
 31
0
 12
18.15
 22
1
 32
0
 13
17.15
 23
1
 33
0
  0
3DFACE
  8
FACES
 10
18.15
 20
0
 30
0
 11
17.15
 21
0
 31
0
 12
17.15
 22
0
 32
1
 13
18.15
 23
0
 33
1
  0
3DFACE
  8
FACES
 10
18.15
 20
0
 30
0
 11
19.15
 21
0
 31
0
 12
19.15
 22
1
 32
0
 13
18.15
 23
1
 33
0
  0
3DFACE
  8
FACES
 10
19.15
 20
0
 30
0
 11
18.15
 21
0
 31
0
 12
18.15
 22
0
 32
1
 13
19.15
 23
0
 33
1
  0
3DFACE
  8
FACES
 10
19.15
 20
0
 30
0
 11
20.15
 21
0
 31
0
 12
20.15
 22
1
 32
0
 13
19.15
 23
1
 33
0
  0
3DFACE
  8
FACES
 10
20.15
 20
0
 30
0
 11
19.15
 21
0
 31
0
 12
19.15
 22
0
 32
1
 13
20.15
 23
0
 33
1
  0
3DFACE
  8
FACES
 10
20.15
 20
0
 30
0
 11
21.15
 21
0
 31
0
 12
21.15
 22
1
 32
0
 13
20.15
 23
1
 33
0
  0
3DFACE
  8
FACES
 10
21.15
 20
0
 30
0
 11
20.15
 21
0
 31
0
 12
20.15
 22
0
 32
1
 13
21.15
 23
0
 33
1
  0
3DFACE
  8
FACES
 10
21.15
 20
0
 30
0
 11
22.15
 21
0
 31
0
 12
22.15
 22
1
 32
0
 13
21.15
 23
1
 33
0
  0
3DFACE
  8
FACES
 10
22.15
 20
0
 30
0
 11
21.15
 21
0
 31
0
 12
21.15
 22
0
 32
1
 13
22.15
 23
0
 33
1
  0
3DFACE
  8
FACES
 10
22.15
 20
0
 30
0
 11
23.15
 21
0
 31
0
 12
23.15
 22
1
 32
0
 13
22.15
 23
1
 33
0
  0
3DFACE
  8
FACES
 10
23.15
 20
0
 30
0
 11
22.15
 21
0
 31
0
 12
22.15
 22
0
 32
1
 13
23.15
 23
0
 33
1
  0
3DFACE
  8
FACES
 10
23.15
 20
0
 30
0
 11
24.15
 21
0
 31
0
 12
24.15
 22
1
 32
0
 13
23.15
 23
1
 33
0
  0
3DFACE
  8
FACES
 10
24.15
 20
0
 30
0
 11
23.15
 21
0
 31
0
 12
23.15
 22
0
 32
1
 13
24.15
 23
0
 33
1
  0
3DFACE
  8
FACES
 10
24.15
 20
0
 30
0
 11
25.15
 21
0
 31
0
 12
25.15
 22
1
 32
0
 13
24.15
 23
1
 33
0
  0
3DFACE
  8
FACES
 10
25.15
 20
0
 30
0
 11
24.15
 21
0
 31
0
 12
24.15
 22
0
 32
1
 13
25.15
 23
0
 33
1
  0
3DFACE
  8
FACES
 10
25.15
 20
1
 30
0
 11
25.15
 21
0
 31
0
 12
25.15
 22
0
 32
1
 13
25.15
 23
1
 33
1
  0
3DFACE
  8
FACES
 10
0
 20
1
 30
0
 11
1.15
 21
1
 31
0
 12
1.15
 22
2
 32
0
 13
0
 23
2
 33
0
  0
3DFACE
  8
FACES
 10
0
 20
1
 30
0
 11
0
 21
2
 31
0
 12
0
 22
2
 32
1
 13
0
 23
1
 33
1
  0
3DFACE
  8
FACES
 10
1.15
 20
1
 30
0
 11
2.15
 21
1
 31
0
 12
2.15
 22
2
 32
0
 13
1.15
 23
2
 33
0
  0
3DFACE
  8
FACES
 10
2.15
 20
1
 30
0
 11
3.15
 21
1
 31
0
 12
3.15
 22
2
 32
0
 13
2.15
 23
2
 33
0
  0
3DFACE
  8
FACES
 10
3.15
 20
1
 30
0
 11
4.15
 21
1
 31
0
 12
4.15
 22
2
 32
0
 13
3.15
 23
2
 33
0
  0
3DFACE
  8
FACES
 10
4.15
 20
1
 30
0
 11
5.15
 21
1
 31
0
 12
5.15
 22
2
 32
0
 13
4.15
 23
2
 33
0
  0
3DFACE
  8
FACES
 10
5.15
 20
1
 30
0
 11
6.15
 21
1
 31
0
 12
6.15
 22
2
 32
0
 13
5.15
 23
2
 33
0
  0
3DFACE
  8
FACES
 10
6.15
 20
1
 30
0
 11
7.15
 21
1
 31
0
 12
7.15
 22
2
 32
0
 13
6.15
 23
2
 33
0
  0
3DFACE
  8
FACES
 10
7.15
 20
1
 30
0
 11
8.15
 21
1
 31
0
 12
8.15
 22
2
 32
0
 13
7.15
 23
2
 33
0
  0
3DFACE
  8
FACES
 10
8.15
 20
1
 30
0
 11
9.15
 21
1
 31
0
 12
9.15
 22
2
 32
0
 13
8.15
 23
2
 33
0
  0
3DFACE
  8
FACES
 10
9.15
 20
1
 30
0
 11
10.15
 21
1
 31
0
 12
10.15
 22
2
 32
0
 13
9.15
 23
2
 33
0
  0
3DFACE
  8
FACES
 10
10.15
 20
1
 30
0
 11
11.15
 21
1
 31
0
 12
11.15
 22
2
 32
0
 13
10.15
 23
2
 33
0
  0
3DFACE
  8
FACES
 10
11.15
 20
1
 30
0
 11
12.15
 21
1
 31
0
 12
12.15
 22
2
 32
0
 13
11.15
 23
2
 33
0
  0
3DFACE
  8
FACES
 10
12.15
 20
1
 30
0
 11
13.15
 21
1
 31
0
 12
13.15
 22
2
 32
0
 13
12.15
 23
2
 33
0
  0
3DFACE
  8
FACES
 10
13.15
 20
1
 30
0
 11
14.15
 21
1
 31
0
 12
14.15
 22
2
 32
0
 13
13.15
 23
2
 33
0
  0
3DFACE
  8
FACES
 10
14.15
 20
1
 30
0
 11
15.15
 21
1
 31
0
 12
15.15
 22
2
 32
0
 13
14.15
 23
2
 33
0
  0
3DFACE
  8
FACES
 10
15.15
 20
1
 30
0
 11
16.15
 21
1
 31
0
 12
16.15
 22
2
 32
0
 13
15.15
 23
2
 33
0
  0
3DFACE
  8
FACES
 10
16.15
 20
1
 30
0
 11
17.15
 21
1
 31
0
 12
17.15
 22
2
 32
0
 13
16.15
 23
2
 33
0
  0
3DFACE
  8
FACES
 10
17.15
 20
1
 30
0
 11
18.15
 21
1
 31
0
 12
18.15
 22
2
 32
0
 13
17.15
 23
2
 33
0
  0
3DFACE
  8
FACES
 10
18.15
 20
1
 30
0
 11
19.15
 21
1
 31
0
 12
19.15
 22
2
 32
0
 13
18.15
 23
2
 33
0
  0
3DFACE
  8
FACES
 10
19.15
 20
1
 30
0
 11
20.15
 21
1
 31
0
 12
20.15
 22
2
 32
0
 13
19.15
 23
2
 33
0
  0
3DFACE
  8
FACES
 10
20.15
 20
1
 30
0
 11
21.15
 21
1
 31
0
 12
21.15
 22
2
 32
0
 13
20.15
 23
2
 33
0
  0
3DFACE
  8
FACES
 10
21.15
 20
1
 30
0
 11
22.15
 21
1
 31
0
 12
22.15
 22
2
 32
0
 13
21.15
 23
2
 33
0
  0
3DFACE
  8
FACES
 10
22.15
 20
1
 30
0
 11
23.15
 21
1
 31
0
 12
23.15
 22
2
 32
0
 13
22.15
 23
2
 33
0
  0
3DFACE
  8
FACES
 10
23.15
 20
1
 30
0
 11
24.15
 21
1
 31
0
 12
24.15
 22
2
 32
0
 13
23.15
 23
2
 33
0
  0
3DFACE
  8
FACES
 10
24.15
 20
1
 30
0
 11
25.15
 21
1
 31
0
 12
25.15
 22
2
 32
0
 13
24.15
 23
2
 33
0
  0
3DFACE
  8
FACES
 10
25.15
 20
2
 30
0
 11
25.15
 21
1
 31
0
 12
25.15
 22
1
 32
1
 13
25.15
 23
2
 33
1
  0
3DFACE
  8
FACES
 10
0
 20
2
 30
0
 11
1.15
 21
2
 31
0
 12
1.15
 22
3
 32
0
 13
0
 23
3
 33
0
  0
3DFACE
  8
FACES
 10
0
 20
2
 30
0
 11
0
 21
3
 31
0
 12
0
 22
3
 32
1
 13
0
 23
2
 33
1
  0
3DFACE
  8
FACES
 10
1.15
 20
2
 30
0
 11
2.15
 21
2
 31
0
 12
2.15
 22
3
 32
0
 13
1.15
 23
3
 33
0
  0
3DFACE
  8
FACES
 10
2.15
 20
2
 30
0
 11
3.15
 21
2
 31
0
 12
3.15
 22
3
 32
0
 13
2.15
 23
3
 33
0
  0
3DFACE
  8
FACES
 10
3.15
 20
2
 30
0
 11
4.15
 21
2
 31
0
 12
4.15
 22
3
 32
0
 13
3.15
 23
3
 33
0
  0
3DFACE
  8
FACES
 10
4.15
 20
2
 30
0
 11
5.15
 21
2
 31
0
 12
5.15
 22
3
 32
0
 13
4.15
 23
3
 33
0
  0
3DFACE
  8
FACES
 10
5.15
 20
2
 30
0
 11
6.15
 21
2
 31
0
 12
6.15
 22
3
 32
0
 13
5.15
 23
3
 33
0
  0
3DFACE
  8
FACES
 10
6.15
 20
2
 30
0
 11
7.15
 21
2
 31
0
 12
7.15
 22
3
 32
0
 13
6.15
 23
3
 33
0
  0
3DFACE
  8
FACES
 10
7.15
 20
2
 30
0
 11
8.15
 21
2
 31
0
 12
8.15
 22
3
 32
0
 13
7.15
 23
3
 33
0
  0
3DFACE
  8
FACES
 10
8.15
 20
2
 30
0
 11
9.15
 21
2
 31
0
 12
9.15
 22
3
 32
0
 13
8.15
 23
3
 33
0
  0
3DFACE
  8
FACES
 10
9.15
 20
2
 30
0
 11
10.15
 21
2
 31
0
 12
10.15
 22
3
 32
0
 13
9.15
 23
3
 33
0
  0
3DFACE
  8
FACES
 10
10.15
 20
2
 30
0
 11
11.15
 21
2
 31
0
 12
11.15
 22
3
 32
0
 13
10.15
 23
3
 33
0
  0
3DFACE
  8
FACES
 10
11.15
 20
2
 30
0
 11
12.15
 21
2
 31
0
 12
12.15
 22
3
 32
0
 13
11.15
 23
3
 33
0
  0
3DFACE
  8
FACES
 10
12.15
 20
2
 30
0
 11
13.15
 21
2
 31
0
 12
13.15
 22
3
 32
0
 13
12.15
 23
3
 33
0
  0
3DFACE
  8
FACES
 10
13.15
 20
2
 30
0
 11
14.15
 21
2
 31
0
 12
14.15
 22
3
 32
0
 13
13.15
 23
3
 33
0
  0
3DFACE
  8
FACES
 10
14.15
 20
2
 30
0
 11
15.15
 21
2
 31
0
 12
15.15
 22
3
 32
0
 13
14.15
 23
3
 33
0
  0
3DFACE
  8
FACES
 10
15.15
 20
2
 30
0
 11
16.15
 21
2
 31
0
 12
16.15
 22
3
 32
0
 13
15.15
 23
3
 33
0
  0
3DFACE
  8
FACES
 10
16.15
 20
2
 30
0
 11
17.15
 21
2
 31
0
 12
17.15
 22
3
 32
0
 13
16.15
 23
3
 33
0
  0
3DFACE
  8
FACES
 10
17.15
 20
2
 30
0
 11
18.15
 21
2
 31
0
 12
18.15
 22
3
 32
0
 13
17.15
 23
3
 33
0
  0
3DFACE
  8
FACES
 10
18.15
 20
2
 30
0
 11
19.15
 21
2
 31
0
 12
19.15
 22
3
 32
0
 13
18.15
 23
3
 33
0
  0
3DFACE
  8
FACES
 10
19.15
 20
2
 30
0
 11
20.15
 21
2
 31
0
 12
20.15
 22
3
 32
0
 13
19.15
 23
3
 33
0
  0
3DFACE
  8
FACES
 10
20.15
 20
2
 30
0
 11
21.15
 21
2
 31
0
 12
21.15
 22
3
 32
0
 13
20.15
 23
3
 33
0
  0
3DFACE
  8
FACES
 10
21.15
 20
2
 30
0
 11
22.15
 21
2
 31
0
 12
22.15
 22
3
 32
0
 13
21.15
 23
3
 33
0
  0
3DFACE
  8
FACES
 10
22.15
 20
2
 30
0
 11
23.15
 21
2
 31
0
 12
23.15
 22
3
 32
0
 13
22.15
 23
3
 33
0
  0
3DFACE
  8
FACES
 10
23.15
 20
2
 30
0
 11
24.15
 21
2
 31
0
 12
24.15
 22
3
 32
0
 13
23.15
 23
3
 33
0
  0
3DFACE
  8
FACES
 10
24.15
 20
2
 30
0
 11
25.15
 21
2
 31
0
 12
25.15
 22
3
 32
0
 13
24.15
 23
3
 33
0
  0
3DFACE
  8
FACES
 10
25.15
 20
3
 30
0
 11
25.15
 21
2
 31
0
 12
25.15
 22
2
 32
1
 13
25.15
 23
3
 33
1
  0
3DFACE
  8
FACES
 10
0
 20
3
 30
0
 11
1.15
 21
3
 31
0
 12
1.15
 22
4
 32
0
 13
0
 23
4
 33
0
  0
3DFACE
  8
FACES
 10
0
 20
3
 30
0
 11
0
 21
4
 31
0
 12
0
 22
4
 32
1
 13
0
 23
3
 33
1
  0
3DFACE
  8
FACES
 10
1.15
 20
3
 30
0
 11
2.15
 21
3
 31
0
 12
2.15
 22
4
 32
0
 13
1.15
 23
4
 33
0
  0
3DFACE
  8
FACES
 10
2.15
 20
3
 30
0
 11
3.15
 21
3
 31
0
 12
3.15
 22
4
 32
0
 13
2.15
 23
4
 33
0
  0
3DFACE
  8
FACES
 10
3.15
 20
3
 30
0
 11
4.15
 21
3
 31
0
 12
4.15
 22
4
 32
0
 13
3.15
 23
4
 33
0
  0
3DFACE
  8
FACES
 10
4.15
 20
3
 30
0
 11
5.15
 21
3
 31
0
 12
5.15
 22
4
 32
0
 13
4.15
 23
4
 33
0
  0
3DFACE
  8
FACES
 10
5.15
 20
3
 30
0
 11
6.15
 21
3
 31
0
 12
6.15
 22
4
 32
0
 13
5.15
 23
4
 33
0
  0
3DFACE
  8
FACES
 10
6.15
 20
3
 30
0
 11
7.15
 21
3
 31
0
 12
7.15
 22
4
 32
0
 13
6.15
 23
4
 33
0
  0
3DFACE
  8
FACES
 10
7.15
 20
3
 30
0
 11
8.15
 21
3
 31
0
 12
8.15
 22
4
 32
0
 13
7.15
 23
4
 33
0
  0
3DFACE
  8
FACES
 10
8.15
 20
3
 30
0
 11
9.15
 21
3
 31
0
 12
9.15
 22
4
 32
0
 13
8.15
 23
4
 33
0
  0
3DFACE
  8
FACES
 10
9.15
 20
3
 30
0
 11
10.15
 21
3
 31
0
 12
10.15
 22
4
 32
0
 13
9.15
 23
4
 33
0
  0
3DFACE
  8
FACES
 10
10.15
 20
3
 30
0
 11
11.15
 21
3
 31
0
 12
11.15
 22
4
 32
0
 13
10.15
 23
4
 33
0
  0
3DFACE
  8
FACES
 10
11.15
 20
3
 30
0
 11
12.15
 21
3
 31
0
 12
12.15
 22
4
 32
0
 13
11.15
 23
4
 33
0
  0
3DFACE
  8
FACES
 10
12.15
 20
3
 30
0
 11
13.15
 21
3
 31
0
 12
13.15
 22
4
 32
0
 13
12.15
 23
4
 33
0
  0
3DFACE
  8
FACES
 10
13.15
 20
3
 30
0
 11
14.15
 21
3
 31
0
 12
14.15
 22
4
 32
0
 13
13.15
 23
4
 33
0
  0
3DFACE
  8
FACES
 10
14.15
 20
3
 30
0
 11
15.15
 21
3
 31
0
 12
15.15
 22
4
 32
0
 13
14.15
 23
4
 33
0
  0
3DFACE
  8
FACES
 10
15.15
 20
3
 30
0
 11
16.15
 21
3
 31
0
 12
16.15
 22
4
 32
0
 13
15.15
 23
4
 33
0
  0
3DFACE
  8
FACES
 10
16.15
 20
3
 30
0
 11
17.15
 21
3
 31
0
 12
17.15
 22
4
 32
0
 13
16.15
 23
4
 33
0
  0
3DFACE
  8
FACES
 10
17.15
 20
3
 30
0
 11
18.15
 21
3
 31
0
 12
18.15
 22
4
 32
0
 13
17.15
 23
4
 33
0
  0
3DFACE
  8
FACES
 10
18.15
 20
3
 30
0
 11
19.15
 21
3
 31
0
 12
19.15
 22
4
 32
0
 13
18.15
 23
4
 33
0
  0
3DFACE
  8
FACES
 10
19.15
 20
3
 30
0
 11
20.15
 21
3
 31
0
 12
20.15
 22
4
 32
0
 13
19.15
 23
4
 33
0
  0
3DFACE
  8
FACES
 10
20.15
 20
3
 30
0
 11
21.15
 21
3
 31
0
 12
21.15
 22
4
 32
0
 13
20.15
 23
4
 33
0
  0
3DFACE
  8
FACES
 10
21.15
 20
3
 30
0
 11
22.15
 21
3
 31
0
 12
22.15
 22
4
 32
0
 13
21.15
 23
4
 33
0
  0
3DFACE
  8
FACES
 10
22.15
 20
3
 30
0
 11
23.15
 21
3
 31
0
 12
23.15
 22
4
 32
0
 13
22.15
 23
4
 33
0
  0
3DFACE
  8
FACES
 10
23.15
 20
3
 30
0
 11
24.15
 21
3
 31
0
 12
24.15
 22
4
 32
0
 13
23.15
 23
4
 33
0
  0
3DFACE
  8
FACES
 10
24.15
 20
3
 30
0
 11
25.15
 21
3
 31
0
 12
25.15
 22
4
 32
0
 13
24.15
 23
4
 33
0
  0
3DFACE
  8
FACES
 10
25.15
 20
4
 30
0
 11
25.15
 21
3
 31
0
 12
25.15
 22
3
 32
1
 13
25.15
 23
4
 33
1
  0
3DFACE
  8
FACES
 10
0
 20
4
 30
0
 11
1.15
 21
4
 31
0
 12
1.15
 22
5
 32
0
 13
0
 23
5
 33
0
  0
3DFACE
  8
FACES
 10
0
 20
4
 30
0
 11
0
 21
5
 31
0
 12
0
 22
5
 32
1
 13
0
 23
4
 33
1
  0
3DFACE
  8
FACES
 10
1.15
 20
4
 30
0
 11
2.15
 21
4
 31
0
 12
2.15
 22
5
 32
0
 13
1.15
 23
5
 33
0
  0
3DFACE
  8
FACES
 10
2.15
 20
4
 30
0
 11
3.15
 21
4
 31
0
 12
3.15
 22
5
 32
0
 13
2.15
 23
5
 33
0
  0
3DFACE
  8
FACES
 10
3.15
 20
4
 30
0
 11
4.15
 21
4
 31
0
 12
4.15
 22
5
 32
0
 13
3.15
 23
5
 33
0
  0
3DFACE
  8
FACES
 10
4.15
 20
4
 30
0
 11
5.15
 21
4
 31
0
 12
5.15
 22
5
 32
0
 13
4.15
 23
5
 33
0
  0
3DFACE
  8
FACES
 10
5.15
 20
4
 30
0
 11
6.15
 21
4
 31
0
 12
6.15
 22
5
 32
0
 13
5.15
 23
5
 33
0
  0
3DFACE
  8
FACES
 10
6.15
 20
4
 30
0
 11
7.15
 21
4
 31
0
 12
7.15
 22
5
 32
0
 13
6.15
 23
5
 33
0
  0
3DFACE
  8
FACES
 10
7.15
 20
4
 30
0
 11
8.15
 21
4
 31
0
 12
8.15
 22
5
 32
0
 13
7.15
 23
5
 33
0
  0
3DFACE
  8
FACES
 10
8.15
 20
4
 30
0
 11
9.15
 21
4
 31
0
 12
9.15
 22
5
 32
0
 13
8.15
 23
5
 33
0
  0
3DFACE
  8
FACES
 10
9.15
 20
4
 30
0
 11
10.15
 21
4
 31
0
 12
10.15
 22
5
 32
0
 13
9.15
 23
5
 33
0
  0
3DFACE
  8
FACES
 10
10.15
 20
4
 30
0
 11
11.15
 21
4
 31
0
 12
11.15
 22
5
 32
0
 13
10.15
 23
5
 33
0
  0
3DFACE
  8
FACES
 10
11.15
 20
4
 30
0
 11
12.15
 21
4
 31
0
 12
12.15
 22
5
 32
0
 13
11.15
 23
5
 33
0
  0
3DFACE
  8
FACES
 10
12.15
 20
4
 30
0
 11
13.15
 21
4
 31
0
 12
13.15
 22
5
 32
0
 13
12.15
 23
5
 33
0
  0
3DFACE
  8
FACES
 10
13.15
 20
4
 30
0
 11
14.15
 21
4
 31
0
 12
14.15
 22
5
 32
0
 13
13.15
 23
5
 33
0
  0
3DFACE
  8
FACES
 10
14.15
 20
4
 30
0
 11
15.15
 21
4
 31
0
 12
15.15
 22
5
 32
0
 13
14.15
 23
5
 33
0
  0
3DFACE
  8
FACES
 10
15.15
 20
4
 30
0
 11
16.15
 21
4
 31
0
 12
16.15
 22
5
 32
0
 13
15.15
 23
5
 33
0
  0
3DFACE
  8
FACES
 10
16.15
 20
4
 30
0
 11
17.15
 21
4
 31
0
 12
17.15
 22
5
 32
0
 13
16.15
 23
5
 33
0
  0
3DFACE
  8
FACES
 10
17.15
 20
4
 30
0
 11
18.15
 21
4
 31
0
 12
18.15
 22
5
 32
0
 13
17.15
 23
5
 33
0
  0
3DFACE
  8
FACES
 10
18.15
 20
4
 30
0
 11
19.15
 21
4
 31
0
 12
19.15
 22
5
 32
0
 13
18.15
 23
5
 33
0
  0
3DFACE
  8
FACES
 10
19.15
 20
4
 30
0
 11
20.15
 21
4
 31
0
 12
20.15
 22
5
 32
0
 13
19.15
 23
5
 33
0
  0
3DFACE
  8
FACES
 10
20.15
 20
4
 30
0
 11
21.15
 21
4
 31
0
 12
21.15
 22
5
 32
0
 13
20.15
 23
5
 33
0
  0
3DFACE
  8
FACES
 10
21.15
 20
4
 30
0
 11
22.15
 21
4
 31
0
 12
22.15
 22
5
 32
0
 13
21.15
 23
5
 33
0
  0
3DFACE
  8
FACES
 10
22.15
 20
4
 30
0
 11
23.15
 21
4
 31
0
 12
23.15
 22
5
 32
0
 13
22.15
 23
5
 33
0
  0
3DFACE
  8
FACES
 10
23.15
 20
4
 30
0
 11
24.15
 21
4
 31
0
 12
24.15
 22
5
 32
0
 13
23.15
 23
5
 33
0
  0
3DFACE
  8
FACES
 10
24.15
 20
4
 30
0
 11
25.15
 21
4
 31
0
 12
25.15
 22
5
 32
0
 13
24.15
 23
5
 33
0
  0
3DFACE
  8
FACES
 10
25.15
 20
5
 30
0
 11
25.15
 21
4
 31
0
 12
25.15
 22
4
 32
1
 13
25.15
 23
5
 33
1
  0
3DFACE
  8
FACES
 10
0
 20
5
 30
0
 11
1.15
 21
5
 31
0
 12
1.15
 22
6
 32
0
 13
0
 23
6
 33
0
  0
3DFACE
  8
FACES
 10
0
 20
5
 30
0
 11
0
 21
6
 31
0
 12
0
 22
6
 32
1
 13
0
 23
5
 33
1
  0
3DFACE
  8
FACES
 10
1.15
 20
5
 30
0
 11
2.15
 21
5
 31
0
 12
2.15
 22
6
 32
0
 13
1.15
 23
6
 33
0
  0
3DFACE
  8
FACES
 10
2.15
 20
5
 30
0
 11
3.15
 21
5
 31
0
 12
3.15
 22
6
 32
0
 13
2.15
 23
6
 33
0
  0
3DFACE
  8
FACES
 10
3.15
 20
5
 30
0
 11
4.15
 21
5
 31
0
 12
4.15
 22
6
 32
0
 13
3.15
 23
6
 33
0
  0
3DFACE
  8
FACES
 10
4.15
 20
5
 30
0
 11
5.15
 21
5
 31
0
 12
5.15
 22
6
 32
0
 13
4.15
 23
6
 33
0
  0
3DFACE
  8
FACES
 10
5.15
 20
5
 30
0
 11
6.15
 21
5
 31
0
 12
6.15
 22
6
 32
0
 13
5.15
 23
6
 33
0
  0
3DFACE
  8
FACES
 10
6.15
 20
5
 30
0
 11
7.15
 21
5
 31
0
 12
7.15
 22
6
 32
0
 13
6.15
 23
6
 33
0
  0
3DFACE
  8
FACES
 10
7.15
 20
5
 30
0
 11
8.15
 21
5
 31
0
 12
8.15
 22
6
 32
0
 13
7.15
 23
6
 33
0
  0
3DFACE
  8
FACES
 10
8.15
 20
5
 30
0
 11
9.15
 21
5
 31
0
 12
9.15
 22
6
 32
0
 13
8.15
 23
6
 33
0
  0
3DFACE
  8
FACES
 10
9.15
 20
5
 30
0
 11
10.15
 21
5
 31
0
 12
10.15
 22
6
 32
0
 13
9.15
 23
6
 33
0
  0
3DFACE
  8
FACES
 10
10.15
 20
5
 30
0
 11
11.15
 21
5
 31
0
 12
11.15
 22
6
 32
0
 13
10.15
 23
6
 33
0
  0
3DFACE
  8
FACES
 10
11.15
 20
5
 30
0
 11
12.15
 21
5
 31
0
 12
12.15
 22
6
 32
0
 13
11.15
 23
6
 33
0
  0
3DFACE
  8
FACES
 10
12.15
 20
5
 30
0
 11
13.15
 21
5
 31
0
 12
13.15
 22
6
 32
0
 13
12.15
 23
6
 33
0
  0
3DFACE
  8
FACES
 10
13.15
 20
5
 30
0
 11
14.15
 21
5
 31
0
 12
14.15
 22
6
 32
0
 13
13.15
 23
6
 33
0
  0
3DFACE
  8
FACES
 10
14.15
 20
5
 30
0
 11
15.15
 21
5
 31
0
 12
15.15
 22
6
 32
0
 13
14.15
 23
6
 33
0
  0
3DFACE
  8
FACES
 10
15.15
 20
5
 30
0
 11
16.15
 21
5
 31
0
 12
16.15
 22
6
 32
0
 13
15.15
 23
6
 33
0
  0
3DFACE
  8
FACES
 10
16.15
 20
5
 30
0
 11
17.15
 21
5
 31
0
 12
17.15
 22
6
 32
0
 13
16.15
 23
6
 33
0
  0
3DFACE
  8
FACES
 10
17.15
 20
5
 30
0
 11
18.15
 21
5
 31
0
 12
18.15
 22
6
 32
0
 13
17.15
 23
6
 33
0
  0
3DFACE
  8
FACES
 10
18.15
 20
5
 30
0
 11
19.15
 21
5
 31
0
 12
19.15
 22
6
 32
0
 13
18.15
 23
6
 33
0
  0
3DFACE
  8
FACES
 10
19.15
 20
5
 30
0
 11
20.15
 21
5
 31
0
 12
20.15
 22
6
 32
0
 13
19.15
 23
6
 33
0
  0
3DFACE
  8
FACES
 10
20.15
 20
5
 30
0
 11
21.15
 21
5
 31
0
 12
21.15
 22
6
 32
0
 13
20.15
 23
6
 33
0
  0
3DFACE
  8
FACES
 10
21.15
 20
5
 30
0
 11
22.15
 21
5
 31
0
 12
22.15
 22
6
 32
0
 13
21.15
 23
6
 33
0
  0
3DFACE
  8
FACES
 10
22.15
 20
5
 30
0
 11
23.15
 21
5
 31
0
 12
23.15
 22
6
 32
0
 13
22.15
 23
6
 33
0
  0
3DFACE
  8
FACES
 10
23.15
 20
5
 30
0
 11
24.15
 21
5
 31
0
 12
24.15
 22
6
 32
0
 13
23.15
 23
6
 33
0
  0
3DFACE
  8
FACES
 10
24.15
 20
5
 30
0
 11
25.15
 21
5
 31
0
 12
25.15
 22
6
 32
0
 13
24.15
 23
6
 33
0
  0
3DFACE
  8
FACES
 10
25.15
 20
6
 30
0
 11
25.15
 21
5
 31
0
 12
25.15
 22
5
 32
1
 13
25.15
 23
6
 33
1
  0
3DFACE
  8
FACES
 10
0
 20
6
 30
0
 11
1.15
 21
6
 31
0
 12
1.15
 22
7
 32
0
 13
0
 23
7
 33
0
  0
3DFACE
  8
FACES
 10
0
 20
6
 30
0
 11
0
 21
7
 31
0
 12
0
 22
7
 32
1
 13
0
 23
6
 33
1
  0
3DFACE
  8
FACES
 10
1.15
 20
6
 30
0
 11
2.15
 21
6
 31
0
 12
2.15
 22
7
 32
0
 13
1.15
 23
7
 33
0
  0
3DFACE
  8
FACES
 10
2.15
 20
6
 30
0
 11
3.15
 21
6
 31
0
 12
3.15
 22
7
 32
0
 13
2.15
 23
7
 33
0
  0
3DFACE
  8
FACES
 10
3.15
 20
6
 30
0
 11
4.15
 21
6
 31
0
 12
4.15
 22
7
 32
0
 13
3.15
 23
7
 33
0
  0
3DFACE
  8
FACES
 10
4.15
 20
6
 30
0
 11
5.15
 21
6
 31
0
 12
5.15
 22
7
 32
0
 13
4.15
 23
7
 33
0
  0
3DFACE
  8
FACES
 10
5.15
 20
6
 30
0
 11
6.15
 21
6
 31
0
 12
6.15
 22
7
 32
0
 13
5.15
 23
7
 33
0
  0
3DFACE
  8
FACES
 10
6.15
 20
6
 30
0
 11
7.15
 21
6
 31
0
 12
7.15
 22
7
 32
0
 13
6.15
 23
7
 33
0
  0
3DFACE
  8
FACES
 10
7.15
 20
6
 30
0
 11
8.15
 21
6
 31
0
 12
8.15
 22
7
 32
0
 13
7.15
 23
7
 33
0
  0
3DFACE
  8
FACES
 10
8.15
 20
6
 30
0
 11
9.15
 21
6
 31
0
 12
9.15
 22
7
 32
0
 13
8.15
 23
7
 33
0
  0
3DFACE
  8
FACES
 10
9.15
 20
6
 30
0
 11
10.15
 21
6
 31
0
 12
10.15
 22
7
 32
0
 13
9.15
 23
7
 33
0
  0
3DFACE
  8
FACES
 10
10.15
 20
6
 30
0
 11
11.15
 21
6
 31
0
 12
11.15
 22
7
 32
0
 13
10.15
 23
7
 33
0
  0
3DFACE
  8
FACES
 10
11.15
 20
6
 30
0
 11
12.15
 21
6
 31
0
 12
12.15
 22
7
 32
0
 13
11.15
 23
7
 33
0
  0
3DFACE
  8
FACES
 10
12.15
 20
6
 30
0
 11
13.15
 21
6
 31
0
 12
13.15
 22
7
 32
0
 13
12.15
 23
7
 33
0
  0
3DFACE
  8
FACES
 10
13.15
 20
6
 30
0
 11
14.15
 21
6
 31
0
 12
14.15
 22
7
 32
0
 13
13.15
 23
7
 33
0
  0
3DFACE
  8
FACES
 10
14.15
 20
6
 30
0
 11
15.15
 21
6
 31
0
 12
15.15
 22
7
 32
0
 13
14.15
 23
7
 33
0
  0
3DFACE
  8
FACES
 10
15.15
 20
6
 30
0
 11
16.15
 21
6
 31
0
 12
16.15
 22
7
 32
0
 13
15.15
 23
7
 33
0
  0
3DFACE
  8
FACES
 10
16.15
 20
6
 30
0
 11
17.15
 21
6
 31
0
 12
17.15
 22
7
 32
0
 13
16.15
 23
7
 33
0
  0
3DFACE
  8
FACES
 10
17.15
 20
6
 30
0
 11
18.15
 21
6
 31
0
 12
18.15
 22
7
 32
0
 13
17.15
 23
7
 33
0
  0
3DFACE
  8
FACES
 10
18.15
 20
6
 30
0
 11
19.15
 21
6
 31
0
 12
19.15
 22
7
 32
0
 13
18.15
 23
7
 33
0
  0
3DFACE
  8
FACES
 10
19.15
 20
6
 30
0
 11
20.15
 21
6
 31
0
 12
20.15
 22
7
 32
0
 13
19.15
 23
7
 33
0
  0
3DFACE
  8
FACES
 10
20.15
 20
6
 30
0
 11
21.15
 21
6
 31
0
 12
21.15
 22
7
 32
0
 13
20.15
 23
7
 33
0
  0
3DFACE
  8
FACES
 10
21.15
 20
6
 30
0
 11
22.15
 21
6
 31
0
 12
22.15
 22
7
 32
0
 13
21.15
 23
7
 33
0
  0
3DFACE
  8
FACES
 10
22.15
 20
6
 30
0
 11
23.15
 21
6
 31
0
 12
23.15
 22
7
 32
0
 13
22.15
 23
7
 33
0
  0
3DFACE
  8
FACES
 10
23.15
 20
6
 30
0
 11
24.15
 21
6
 31
0
 12
24.15
 22
7
 32
0
 13
23.15
 23
7
 33
0
  0
3DFACE
  8
FACES
 10
24.15
 20
6
 30
0
 11
25.15
 21
6
 31
0
 12
25.15
 22
7
 32
0
 13
24.15
 23
7
 33
0
  0
3DFACE
  8
FACES
 10
25.15
 20
7
 30
0
 11
25.15
 21
6
 31
0
 12
25.15
 22
6
 32
1
 13
25.15
 23
7
 33
1
  0
3DFACE
  8
FACES
 10
0
 20
7
 30
0
 11
1.15
 21
7
 31
0
 12
1.15
 22
8
 32
0
 13
0
 23
8
 33
0
  0
3DFACE
  8
FACES
 10
0
 20
7
 30
0
 11
0
 21
8
 31
0
 12
0
 22
8
 32
1
 13
0
 23
7
 33
1
  0
3DFACE
  8
FACES
 10
1.15
 20
7
 30
0
 11
2.15
 21
7
 31
0
 12
2.15
 22
8
 32
0
 13
1.15
 23
8
 33
0
  0
3DFACE
  8
FACES
 10
2.15
 20
7
 30
0
 11
3.15
 21
7
 31
0
 12
3.15
 22
8
 32
0
 13
2.15
 23
8
 33
0
  0
3DFACE
  8
FACES
 10
3.15
 20
7
 30
0
 11
4.15
 21
7
 31
0
 12
4.15
 22
8
 32
0
 13
3.15
 23
8
 33
0
  0
3DFACE
  8
FACES
 10
4.15
 20
7
 30
0
 11
5.15
 21
7
 31
0
 12
5.15
 22
8
 32
0
 13
4.15
 23
8
 33
0
  0
3DFACE
  8
FACES
 10
5.15
 20
7
 30
0
 11
6.15
 21
7
 31
0
 12
6.15
 22
8
 32
0
 13
5.15
 23
8
 33
0
  0
3DFACE
  8
FACES
 10
6.15
 20
7
 30
0
 11
7.15
 21
7
 31
0
 12
7.15
 22
8
 32
0
 13
6.15
 23
8
 33
0
  0
3DFACE
  8
FACES
 10
7.15
 20
7
 30
0
 11
8.15
 21
7
 31
0
 12
8.15
 22
8
 32
0
 13
7.15
 23
8
 33
0
  0
3DFACE
  8
FACES
 10
8.15
 20
7
 30
0
 11
9.15
 21
7
 31
0
 12
9.15
 22
8
 32
0
 13
8.15
 23
8
 33
0
  0
3DFACE
  8
FACES
 10
9.15
 20
7
 30
0
 11
10.15
 21
7
 31
0
 12
10.15
 22
8
 32
0
 13
9.15
 23
8
 33
0
  0
3DFACE
  8
FACES
 10
10.15
 20
7
 30
0
 11
11.15
 21
7
 31
0
 12
11.15
 22
8
 32
0
 13
10.15
 23
8
 33
0
  0
3DFACE
  8
FACES
 10
11.15
 20
7
 30
0
 11
12.15
 21
7
 31
0
 12
12.15
 22
8
 32
0
 13
11.15
 23
8
 33
0
  0
3DFACE
  8
FACES
 10
12.15
 20
7
 30
0
 11
13.15
 21
7
 31
0
 12
13.15
 22
8
 32
0
 13
12.15
 23
8
 33
0
  0
3DFACE
  8
FACES
 10
13.15
 20
7
 30
0
 11
14.15
 21
7
 31
0
 12
14.15
 22
8
 32
0
 13
13.15
 23
8
 33
0
  0
3DFACE
  8
FACES
 10
14.15
 20
7
 30
0
 11
15.15
 21
7
 31
0
 12
15.15
 22
8
 32
0
 13
14.15
 23
8
 33
0
  0
3DFACE
  8
FACES
 10
15.15
 20
7
 30
0
 11
16.15
 21
7
 31
0
 12
16.15
 22
8
 32
0
 13
15.15
 23
8
 33
0
  0
3DFACE
  8
FACES
 10
16.15
 20
7
 30
0
 11
17.15
 21
7
 31
0
 12
17.15
 22
8
 32
0
 13
16.15
 23
8
 33
0
  0
3DFACE
  8
FACES
 10
17.15
 20
7
 30
0
 11
18.15
 21
7
 31
0
 12
18.15
 22
8
 32
0
 13
17.15
 23
8
 33
0
  0
3DFACE
  8
FACES
 10
18.15
 20
7
 30
0
 11
19.15
 21
7
 31
0
 12
19.15
 22
8
 32
0
 13
18.15
 23
8
 33
0
  0
3DFACE
  8
FACES
 10
19.15
 20
7
 30
0
 11
20.15
 21
7
 31
0
 12
20.15
 22
8
 32
0
 13
19.15
 23
8
 33
0
  0
3DFACE
  8
FACES
 10
20.15
 20
7
 30
0
 11
21.15
 21
7
 31
0
 12
21.15
 22
8
 32
0
 13
20.15
 23
8
 33
0
  0
3DFACE
  8
FACES
 10
21.15
 20
7
 30
0
 11
22.15
 21
7
 31
0
 12
22.15
 22
8
 32
0
 13
21.15
 23
8
 33
0
  0
3DFACE
  8
FACES
 10
22.15
 20
7
 30
0
 11
23.15
 21
7
 31
0
 12
23.15
 22
8
 32
0
 13
22.15
 23
8
 33
0
  0
3DFACE
  8
FACES
 10
23.15
 20
7
 30
0
 11
24.15
 21
7
 31
0
 12
24.15
 22
8
 32
0
 13
23.15
 23
8
 33
0
  0
3DFACE
  8
FACES
 10
24.15
 20
7
 30
0
 11
25.15
 21
7
 31
0
 12
25.15
 22
8
 32
0
 13
24.15
 23
8
 33
0
  0
3DFACE
  8
FACES
 10
25.15
 20
8
 30
0
 11
25.15
 21
7
 31
0
 12
25.15
 22
7
 32
1
 13
25.15
 23
8
 33
1
  0
3DFACE
  8
FACES
 10
0
 20
8
 30
0
 11
1.15
 21
8
 31
0
 12
1.15
 22
9
 32
0
 13
0
 23
9
 33
0
  0
3DFACE
  8
FACES
 10
0
 20
8
 30
0
 11
0
 21
9
 31
0
 12
0
 22
9
 32
1
 13
0
 23
8
 33
1
  0
3DFACE
  8
FACES
 10
1.15
 20
8
 30
0
 11
2.15
 21
8
 31
0
 12
2.15
 22
9
 32
0
 13
1.15
 23
9
 33
0
  0
3DFACE
  8
FACES
 10
2.15
 20
8
 30
0
 11
3.15
 21
8
 31
0
 12
3.15
 22
9
 32
0
 13
2.15
 23
9
 33
0
  0
3DFACE
  8
FACES
 10
3.15
 20
8
 30
0
 11
4.15
 21
8
 31
0
 12
4.15
 22
9
 32
0
 13
3.15
 23
9
 33
0
  0
3DFACE
  8
FACES
 10
4.15
 20
8
 30
0
 11
5.15
 21
8
 31
0
 12
5.15
 22
9
 32
0
 13
4.15
 23
9
 33
0
  0
3DFACE
  8
FACES
 10
5.15
 20
8
 30
0
 11
6.15
 21
8
 31
0
 12
6.15
 22
9
 32
0
 13
5.15
 23
9
 33
0
  0
3DFACE
  8
FACES
 10
6.15
 20
8
 30
0
 11
7.15
 21
8
 31
0
 12
7.15
 22
9
 32
0
 13
6.15
 23
9
 33
0
  0
3DFACE
  8
FACES
 10
7.15
 20
8
 30
0
 11
8.15
 21
8
 31
0
 12
8.15
 22
9
 32
0
 13
7.15
 23
9
 33
0
  0
3DFACE
  8
FACES
 10
8.15
 20
8
 30
0
 11
9.15
 21
8
 31
0
 12
9.15
 22
9
 32
0
 13
8.15
 23
9
 33
0
  0
3DFACE
  8
FACES
 10
9.15
 20
8
 30
0
 11
10.15
 21
8
 31
0
 12
10.15
 22
9
 32
0
 13
9.15
 23
9
 33
0
  0
3DFACE
  8
FACES
 10
10.15
 20
8
 30
0
 11
11.15
 21
8
 31
0
 12
11.15
 22
9
 32
0
 13
10.15
 23
9
 33
0
  0
3DFACE
  8
FACES
 10
11.15
 20
8
 30
0
 11
12.15
 21
8
 31
0
 12
12.15
 22
9
 32
0
 13
11.15
 23
9
 33
0
  0
3DFACE
  8
FACES
 10
12.15
 20
8
 30
0
 11
13.15
 21
8
 31
0
 12
13.15
 22
9
 32
0
 13
12.15
 23
9
 33
0
  0
3DFACE
  8
FACES
 10
13.15
 20
8
 30
0
 11
14.15
 21
8
 31
0
 12
14.15
 22
9
 32
0
 13
13.15
 23
9
 33
0
  0
3DFACE
  8
FACES
 10
14.15
 20
8
 30
0
 11
15.15
 21
8
 31
0
 12
15.15
 22
9
 32
0
 13
14.15
 23
9
 33
0
  0
3DFACE
  8
FACES
 10
15.15
 20
8
 30
0
 11
16.15
 21
8
 31
0
 12
16.15
 22
9
 32
0
 13
15.15
 23
9
 33
0
  0
3DFACE
  8
FACES
 10
16.15
 20
8
 30
0
 11
17.15
 21
8
 31
0
 12
17.15
 22
9
 32
0
 13
16.15
 23
9
 33
0
  0
3DFACE
  8
FACES
 10
17.15
 20
8
 30
0
 11
18.15
 21
8
 31
0
 12
18.15
 22
9
 32
0
 13
17.15
 23
9
 33
0
  0
3DFACE
  8
FACES
 10
18.15
 20
8
 30
0
 11
19.15
 21
8
 31
0
 12
19.15
 22
9
 32
0
 13
18.15
 23
9
 33
0
  0
3DFACE
  8
FACES
 10
19.15
 20
8
 30
0
 11
20.15
 21
8
 31
0
 12
20.15
 22
9
 32
0
 13
19.15
 23
9
 33
0
  0
3DFACE
  8
FACES
 10
20.15
 20
8
 30
0
 11
21.15
 21
8
 31
0
 12
21.15
 22
9
 32
0
 13
20.15
 23
9
 33
0
  0
3DFACE
  8
FACES
 10
21.15
 20
8
 30
0
 11
22.15
 21
8
 31
0
 12
22.15
 22
9
 32
0
 13
21.15
 23
9
 33
0
  0
3DFACE
  8
FACES
 10
22.15
 20
8
 30
0
 11
23.15
 21
8
 31
0
 12
23.15
 22
9
 32
0
 13
22.15
 23
9
 33
0
  0
3DFACE
  8
FACES
 10
23.15
 20
8
 30
0
 11
24.15
 21
8
 31
0
 12
24.15
 22
9
 32
0
 13
23.15
 23
9
 33
0
  0
3DFACE
  8
FACES
 10
24.15
 20
8
 30
0
 11
25.15
 21
8
 31
0
 12
25.15
 22
9
 32
0
 13
24.15
 23
9
 33
0
  0
3DFACE
  8
FACES
 10
25.15
 20
9
 30
0
 11
25.15
 21
8
 31
0
 12
25.15
 22
8
 32
1
 13
25.15
 23
9
 33
1
  0
3DFACE
  8
FACES
 10
0
 20
9
 30
0
 11
1.15
 21
9
 31
0
 12
1.15
 22
10
 32
0
 13
0
 23
10
 33
0
  0
3DFACE
  8
FACES
 10
0
 20
9
 30
0
 11
0
 21
10
 31
0
 12
0
 22
10
 32
1
 13
0
 23
9
 33
1
  0
3DFACE
  8
FACES
 10
1.15
 20
9
 30
0
 11
2.15
 21
9
 31
0
 12
2.15
 22
10
 32
0
 13
1.15
 23
10
 33
0
  0
3DFACE
  8
FACES
 10
2.15
 20
9
 30
0
 11
3.15
 21
9
 31
0
 12
3.15
 22
10
 32
0
 13
2.15
 23
10
 33
0
  0
3DFACE
  8
FACES
 10
3.15
 20
9
 30
0
 11
4.15
 21
9
 31
0
 12
4.15
 22
10
 32
0
 13
3.15
 23
10
 33
0
  0
3DFACE
  8
FACES
 10
4.15
 20
9
 30
0
 11
5.15
 21
9
 31
0
 12
5.15
 22
10
 32
0
 13
4.15
 23
10
 33
0
  0
3DFACE
  8
FACES
 10
5.15
 20
9
 30
0
 11
6.15
 21
9
 31
0
 12
6.15
 22
10
 32
0
 13
5.15
 23
10
 33
0
  0
3DFACE
  8
FACES
 10
6.15
 20
9
 30
0
 11
7.15
 21
9
 31
0
 12
7.15
 22
10
 32
0
 13
6.15
 23
10
 33
0
  0
3DFACE
  8
FACES
 10
7.15
 20
9
 30
0
 11
8.15
 21
9
 31
0
 12
8.15
 22
10
 32
0
 13
7.15
 23
10
 33
0
  0
3DFACE
  8
FACES
 10
8.15
 20
9
 30
0
 11
9.15
 21
9
 31
0
 12
9.15
 22
10
 32
0
 13
8.15
 23
10
 33
0
  0
3DFACE
  8
FACES
 10
9.15
 20
9
 30
0
 11
10.15
 21
9
 31
0
 12
10.15
 22
10
 32
0
 13
9.15
 23
10
 33
0
  0
3DFACE
  8
FACES
 10
10.15
 20
9
 30
0
 11
11.15
 21
9
 31
0
 12
11.15
 22
10
 32
0
 13
10.15
 23
10
 33
0
  0
3DFACE
  8
FACES
 10
11.15
 20
9
 30
0
 11
12.15
 21
9
 31
0
 12
12.15
 22
10
 32
0
 13
11.15
 23
10
 33
0
  0
3DFACE
  8
FACES
 10
12.15
 20
9
 30
0
 11
13.15
 21
9
 31
0
 12
13.15
 22
10
 32
0
 13
12.15
 23
10
 33
0
  0
3DFACE
  8
FACES
 10
13.15
 20
9
 30
0
 11
14.15
 21
9
 31
0
 12
14.15
 22
10
 32
0
 13
13.15
 23
10
 33
0
  0
3DFACE
  8
FACES
 10
14.15
 20
9
 30
0
 11
15.15
 21
9
 31
0
 12
15.15
 22
10
 32
0
 13
14.15
 23
10
 33
0
  0
3DFACE
  8
FACES
 10
15.15
 20
9
 30
0
 11
16.15
 21
9
 31
0
 12
16.15
 22
10
 32
0
 13
15.15
 23
10
 33
0
  0
3DFACE
  8
FACES
 10
16.15
 20
9
 30
0
 11
17.15
 21
9
 31
0
 12
17.15
 22
10
 32
0
 13
16.15
 23
10
 33
0
  0
3DFACE
  8
FACES
 10
17.15
 20
9
 30
0
 11
18.15
 21
9
 31
0
 12
18.15
 22
10
 32
0
 13
17.15
 23
10
 33
0
  0
3DFACE
  8
FACES
 10
18.15
 20
9
 30
0
 11
19.15
 21
9
 31
0
 12
19.15
 22
10
 32
0
 13
18.15
 23
10
 33
0
  0
3DFACE
  8
FACES
 10
19.15
 20
9
 30
0
 11
20.15
 21
9
 31
0
 12
20.15
 22
10
 32
0
 13
19.15
 23
10
 33
0
  0
3DFACE
  8
FACES
 10
20.15
 20
9
 30
0
 11
21.15
 21
9
 31
0
 12
21.15
 22
10
 32
0
 13
20.15
 23
10
 33
0
  0
3DFACE
  8
FACES
 10
21.15
 20
9
 30
0
 11
22.15
 21
9
 31
0
 12
22.15
 22
10
 32
0
 13
21.15
 23
10
 33
0
  0
3DFACE
  8
FACES
 10
22.15
 20
9
 30
0
 11
23.15
 21
9
 31
0
 12
23.15
 22
10
 32
0
 13
22.15
 23
10
 33
0
  0
3DFACE
  8
FACES
 10
23.15
 20
9
 30
0
 11
24.15
 21
9
 31
0
 12
24.15
 22
10
 32
0
 13
23.15
 23
10
 33
0
  0
3DFACE
  8
FACES
 10
24.15
 20
9
 30
0
 11
25.15
 21
9
 31
0
 12
25.15
 22
10
 32
0
 13
24.15
 23
10
 33
0
  0
3DFACE
  8
FACES
 10
25.15
 20
10
 30
0
 11
25.15
 21
9
 31
0
 12
25.15
 22
9
 32
1
 13
25.15
 23
10
 33
1
  0
3DFACE
  8
FACES
 10
0
 20
10
 30
0
 11
1.15
 21
10
 31
0
 12
1.15
 22
11
 32
0
 13
0
 23
11
 33
0
  0
3DFACE
  8
FACES
 10
0
 20
10
 30
0
 11
0
 21
11
 31
0
 12
0
 22
11
 32
1
 13
0
 23
10
 33
1
  0
3DFACE
  8
FACES
 10
1.15
 20
10
 30
0
 11
2.15
 21
10
 31
0
 12
2.15
 22
11
 32
0
 13
1.15
 23
11
 33
0
  0
3DFACE
  8
FACES
 10
2.15
 20
10
 30
0
 11
3.15
 21
10
 31
0
 12
3.15
 22
11
 32
0
 13
2.15
 23
11
 33
0
  0
3DFACE
  8
FACES
 10
3.15
 20
10
 30
0
 11
4.15
 21
10
 31
0
 12
4.15
 22
11
 32
0
 13
3.15
 23
11
 33
0
  0
3DFACE
  8
FACES
 10
4.15
 20
10
 30
0
 11
5.15
 21
10
 31
0
 12
5.15
 22
11
 32
0
 13
4.15
 23
11
 33
0
  0
3DFACE
  8
FACES
 10
5.15
 20
10
 30
0
 11
6.15
 21
10
 31
0
 12
6.15
 22
11
 32
0
 13
5.15
 23
11
 33
0
  0
3DFACE
  8
FACES
 10
6.15
 20
10
 30
0
 11
7.15
 21
10
 31
0
 12
7.15
 22
11
 32
0
 13
6.15
 23
11
 33
0
  0
3DFACE
  8
FACES
 10
7.15
 20
10
 30
0
 11
8.15
 21
10
 31
0
 12
8.15
 22
11
 32
0
 13
7.15
 23
11
 33
0
  0
3DFACE
  8
FACES
 10
8.15
 20
10
 30
0
 11
9.15
 21
10
 31
0
 12
9.15
 22
11
 32
0
 13
8.15
 23
11
 33
0
  0
3DFACE
  8
FACES
 10
9.15
 20
10
 30
0
 11
10.15
 21
10
 31
0
 12
10.15
 22
11
 32
0
 13
9.15
 23
11
 33
0
  0
3DFACE
  8
FACES
 10
10.15
 20
10
 30
0
 11
11.15
 21
10
 31
0
 12
11.15
 22
11
 32
0
 13
10.15
 23
11
 33
0
  0
3DFACE
  8
FACES
 10
11.15
 20
10
 30
0
 11
12.15
 21
10
 31
0
 12
12.15
 22
11
 32
0
 13
11.15
 23
11
 33
0
  0
3DFACE
  8
FACES
 10
12.15
 20
10
 30
0
 11
13.15
 21
10
 31
0
 12
13.15
 22
11
 32
0
 13
12.15
 23
11
 33
0
  0
3DFACE
  8
FACES
 10
13.15
 20
10
 30
0
 11
14.15
 21
10
 31
0
 12
14.15
 22
11
 32
0
 13
13.15
 23
11
 33
0
  0
3DFACE
  8
FACES
 10
14.15
 20
10
 30
0
 11
15.15
 21
10
 31
0
 12
15.15
 22
11
 32
0
 13
14.15
 23
11
 33
0
  0
3DFACE
  8
FACES
 10
15.15
 20
10
 30
0
 11
16.15
 21
10
 31
0
 12
16.15
 22
11
 32
0
 13
15.15
 23
11
 33
0
  0
3DFACE
  8
FACES
 10
16.15
 20
10
 30
0
 11
17.15
 21
10
 31
0
 12
17.15
 22
11
 32
0
 13
16.15
 23
11
 33
0
  0
3DFACE
  8
FACES
 10
17.15
 20
10
 30
0
 11
18.15
 21
10
 31
0
 12
18.15
 22
11
 32
0
 13
17.15
 23
11
 33
0
  0
3DFACE
  8
FACES
 10
18.15
 20
10
 30
0
 11
19.15
 21
10
 31
0
 12
19.15
 22
11
 32
0
 13
18.15
 23
11
 33
0
  0
3DFACE
  8
FACES
 10
19.15
 20
10
 30
0
 11
20.15
 21
10
 31
0
 12
20.15
 22
11
 32
0
 13
19.15
 23
11
 33
0
  0
3DFACE
  8
FACES
 10
20.15
 20
10
 30
0
 11
21.15
 21
10
 31
0
 12
21.15
 22
11
 32
0
 13
20.15
 23
11
 33
0
  0
3DFACE
  8
FACES
 10
21.15
 20
10
 30
0
 11
22.15
 21
10
 31
0
 12
22.15
 22
11
 32
0
 13
21.15
 23
11
 33
0
  0
3DFACE
  8
FACES
 10
22.15
 20
10
 30
0
 11
23.15
 21
10
 31
0
 12
23.15
 22
11
 32
0
 13
22.15
 23
11
 33
0
  0
3DFACE
  8
FACES
 10
23.15
 20
10
 30
0
 11
24.15
 21
10
 31
0
 12
24.15
 22
11
 32
0
 13
23.15
 23
11
 33
0
  0
3DFACE
  8
FACES
 10
24.15
 20
10
 30
0
 11
25.15
 21
10
 31
0
 12
25.15
 22
11
 32
0
 13
24.15
 23
11
 33
0
  0
3DFACE
  8
FACES
 10
25.15
 20
11
 30
0
 11
25.15
 21
10
 31
0
 12
25.15
 22
10
 32
1
 13
25.15
 23
11
 33
1
  0
3DFACE
  8
FACES
 10
0
 20
11
 30
0
 11
1.15
 21
11
 31
0
 12
1.15
 22
12
 32
0
 13
0
 23
12
 33
0
  0
3DFACE
  8
FACES
 10
0
 20
11
 30
0
 11
0
 21
12
 31
0
 12
0
 22
12
 32
1
 13
0
 23
11
 33
1
  0
3DFACE
  8
FACES
 10
1.15
 20
11
 30
0
 11
2.15
 21
11
 31
0
 12
2.15
 22
12
 32
0
 13
1.15
 23
12
 33
0
  0
3DFACE
  8
FACES
 10
2.15
 20
11
 30
0
 11
3.15
 21
11
 31
0
 12
3.15
 22
12
 32
0
 13
2.15
 23
12
 33
0
  0
3DFACE
  8
FACES
 10
3.15
 20
11
 30
0
 11
4.15
 21
11
 31
0
 12
4.15
 22
12
 32
0
 13
3.15
 23
12
 33
0
  0
3DFACE
  8
FACES
 10
4.15
 20
11
 30
0
 11
5.15
 21
11
 31
0
 12
5.15
 22
12
 32
0
 13
4.15
 23
12
 33
0
  0
3DFACE
  8
FACES
 10
5.15
 20
11
 30
0
 11
6.15
 21
11
 31
0
 12
6.15
 22
12
 32
0
 13
5.15
 23
12
 33
0
  0
3DFACE
  8
FACES
 10
6.15
 20
11
 30
0
 11
7.15
 21
11
 31
0
 12
7.15
 22
12
 32
0
 13
6.15
 23
12
 33
0
  0
3DFACE
  8
FACES
 10
7.15
 20
11
 30
0
 11
8.15
 21
11
 31
0
 12
8.15
 22
12
 32
0
 13
7.15
 23
12
 33
0
  0
3DFACE
  8
FACES
 10
8.15
 20
11
 30
0
 11
9.15
 21
11
 31
0
 12
9.15
 22
12
 32
0
 13
8.15
 23
12
 33
0
  0
3DFACE
  8
FACES
 10
9.15
 20
11
 30
0
 11
10.15
 21
11
 31
0
 12
10.15
 22
12
 32
0
 13
9.15
 23
12
 33
0
  0
3DFACE
  8
FACES
 10
10.15
 20
11
 30
0
 11
11.15
 21
11
 31
0
 12
11.15
 22
12
 32
0
 13
10.15
 23
12
 33
0
  0
3DFACE
  8
FACES
 10
11.15
 20
11
 30
0
 11
12.15
 21
11
 31
0
 12
12.15
 22
12
 32
0
 13
11.15
 23
12
 33
0
  0
3DFACE
  8
FACES
 10
12.15
 20
11
 30
0
 11
13.15
 21
11
 31
0
 12
13.15
 22
12
 32
0
 13
12.15
 23
12
 33
0
  0
3DFACE
  8
FACES
 10
13.15
 20
11
 30
0
 11
14.15
 21
11
 31
0
 12
14.15
 22
12
 32
0
 13
13.15
 23
12
 33
0
  0
3DFACE
  8
FACES
 10
14.15
 20
11
 30
0
 11
15.15
 21
11
 31
0
 12
15.15
 22
12
 32
0
 13
14.15
 23
12
 33
0
  0
3DFACE
  8
FACES
 10
15.15
 20
11
 30
0
 11
16.15
 21
11
 31
0
 12
16.15
 22
12
 32
0
 13
15.15
 23
12
 33
0
  0
3DFACE
  8
FACES
 10
16.15
 20
11
 30
0
 11
17.15
 21
11
 31
0
 12
17.15
 22
12
 32
0
 13
16.15
 23
12
 33
0
  0
3DFACE
  8
FACES
 10
17.15
 20
11
 30
0
 11
18.15
 21
11
 31
0
 12
18.15
 22
12
 32
0
 13
17.15
 23
12
 33
0
  0
3DFACE
  8
FACES
 10
18.15
 20
11
 30
0
 11
19.15
 21
11
 31
0
 12
19.15
 22
12
 32
0
 13
18.15
 23
12
 33
0
  0
3DFACE
  8
FACES
 10
19.15
 20
11
 30
0
 11
20.15
 21
11
 31
0
 12
20.15
 22
12
 32
0
 13
19.15
 23
12
 33
0
  0
3DFACE
  8
FACES
 10
20.15
 20
11
 30
0
 11
21.15
 21
11
 31
0
 12
21.15
 22
12
 32
0
 13
20.15
 23
12
 33
0
  0
3DFACE
  8
FACES
 10
21.15
 20
11
 30
0
 11
22.15
 21
11
 31
0
 12
22.15
 22
12
 32
0
 13
21.15
 23
12
 33
0
  0
3DFACE
  8
FACES
 10
22.15
 20
11
 30
0
 11
23.15
 21
11
 31
0
 12
23.15
 22
12
 32
0
 13
22.15
 23
12
 33
0
  0
3DFACE
  8
FACES
 10
23.15
 20
11
 30
0
 11
24.15
 21
11
 31
0
 12
24.15
 22
12
 32
0
 13
23.15
 23
12
 33
0
  0
3DFACE
  8
FACES
 10
24.15
 20
11
 30
0
 11
25.15
 21
11
 31
0
 12
25.15
 22
12
 32
0
 13
24.15
 23
12
 33
0
  0
3DFACE
  8
FACES
 10
25.15
 20
12
 30
0
 11
25.15
 21
11
 31
0
 12
25.15
 22
11
 32
1
 13
25.15
 23
12
 33
1
  0
3DFACE
  8
FACES
 10
0
 20
12
 30
0
 11
1.15
 21
12
 31
0
 12
1.15
 22
13
 32
0
 13
0
 23
13
 33
0
  0
3DFACE
  8
FACES
 10
0
 20
12
 30
0
 11
0
 21
13
 31
0
 12
0
 22
13
 32
1
 13
0
 23
12
 33
1
  0
3DFACE
  8
FACES
 10
1.15
 20
12
 30
0
 11
2.15
 21
12
 31
0
 12
2.15
 22
13
 32
0
 13
1.15
 23
13
 33
0
  0
3DFACE
  8
FACES
 10
2.15
 20
12
 30
0
 11
3.15
 21
12
 31
0
 12
3.15
 22
13
 32
0
 13
2.15
 23
13
 33
0
  0
3DFACE
  8
FACES
 10
3.15
 20
12
 30
0
 11
4.15
 21
12
 31
0
 12
4.15
 22
13
 32
0
 13
3.15
 23
13
 33
0
  0
3DFACE
  8
FACES
 10
4.15
 20
12
 30
0
 11
5.15
 21
12
 31
0
 12
5.15
 22
13
 32
0
 13
4.15
 23
13
 33
0
  0
3DFACE
  8
FACES
 10
5.15
 20
12
 30
0
 11
6.15
 21
12
 31
0
 12
6.15
 22
13
 32
0
 13
5.15
 23
13
 33
0
  0
3DFACE
  8
FACES
 10
6.15
 20
12
 30
0
 11
7.15
 21
12
 31
0
 12
7.15
 22
13
 32
0
 13
6.15
 23
13
 33
0
  0
3DFACE
  8
FACES
 10
7.15
 20
12
 30
0
 11
8.15
 21
12
 31
0
 12
8.15
 22
13
 32
0
 13
7.15
 23
13
 33
0
  0
3DFACE
  8
FACES
 10
8.15
 20
12
 30
0
 11
9.15
 21
12
 31
0
 12
9.15
 22
13
 32
0
 13
8.15
 23
13
 33
0
  0
3DFACE
  8
FACES
 10
9.15
 20
12
 30
0
 11
10.15
 21
12
 31
0
 12
10.15
 22
13
 32
0
 13
9.15
 23
13
 33
0
  0
3DFACE
  8
FACES
 10
10.15
 20
12
 30
0
 11
11.15
 21
12
 31
0
 12
11.15
 22
13
 32
0
 13
10.15
 23
13
 33
0
  0
3DFACE
  8
FACES
 10
11.15
 20
12
 30
0
 11
12.15
 21
12
 31
0
 12
12.15
 22
13
 32
0
 13
11.15
 23
13
 33
0
  0
3DFACE
  8
FACES
 10
12.15
 20
12
 30
0
 11
13.15
 21
12
 31
0
 12
13.15
 22
13
 32
0
 13
12.15
 23
13
 33
0
  0
3DFACE
  8
FACES
 10
13.15
 20
12
 30
0
 11
14.15
 21
12
 31
0
 12
14.15
 22
13
 32
0
 13
13.15
 23
13
 33
0
  0
3DFACE
  8
FACES
 10
14.15
 20
12
 30
0
 11
15.15
 21
12
 31
0
 12
15.15
 22
13
 32
0
 13
14.15
 23
13
 33
0
  0
3DFACE
  8
FACES
 10
15.15
 20
12
 30
0
 11
16.15
 21
12
 31
0
 12
16.15
 22
13
 32
0
 13
15.15
 23
13
 33
0
  0
3DFACE
  8
FACES
 10
16.15
 20
12
 30
0
 11
17.15
 21
12
 31
0
 12
17.15
 22
13
 32
0
 13
16.15
 23
13
 33
0
  0
3DFACE
  8
FACES
 10
17.15
 20
12
 30
0
 11
18.15
 21
12
 31
0
 12
18.15
 22
13
 32
0
 13
17.15
 23
13
 33
0
  0
3DFACE
  8
FACES
 10
18.15
 20
12
 30
0
 11
19.15
 21
12
 31
0
 12
19.15
 22
13
 32
0
 13
18.15
 23
13
 33
0
  0
3DFACE
  8
FACES
 10
19.15
 20
12
 30
0
 11
20.15
 21
12
 31
0
 12
20.15
 22
13
 32
0
 13
19.15
 23
13
 33
0
  0
3DFACE
  8
FACES
 10
20.15
 20
12
 30
0
 11
21.15
 21
12
 31
0
 12
21.15
 22
13
 32
0
 13
20.15
 23
13
 33
0
  0
3DFACE
  8
FACES
 10
21.15
 20
12
 30
0
 11
22.15
 21
12
 31
0
 12
22.15
 22
13
 32
0
 13
21.15
 23
13
 33
0
  0
3DFACE
  8
FACES
 10
22.15
 20
12
 30
0
 11
23.15
 21
12
 31
0
 12
23.15
 22
13
 32
0
 13
22.15
 23
13
 33
0
  0
3DFACE
  8
FACES
 10
23.15
 20
12
 30
0
 11
24.15
 21
12
 31
0
 12
24.15
 22
13
 32
0
 13
23.15
 23
13
 33
0
  0
3DFACE
  8
FACES
 10
24.15
 20
12
 30
0
 11
25.15
 21
12
 31
0
 12
25.15
 22
13
 32
0
 13
24.15
 23
13
 33
0
  0
3DFACE
  8
FACES
 10
25.15
 20
13
 30
0
 11
25.15
 21
12
 31
0
 12
25.15
 22
12
 32
1
 13
25.15
 23
13
 33
1
  0
3DFACE
  8
FACES
 10
0
 20
13
 30
0
 11
1.15
 21
13
 31
0
 12
1.15
 22
14
 32
0
 13
0
 23
14
 33
0
  0
3DFACE
  8
FACES
 10
0
 20
13
 30
0
 11
0
 21
14
 31
0
 12
0
 22
14
 32
1
 13
0
 23
13
 33
1
  0
3DFACE
  8
FACES
 10
1.15
 20
13
 30
0
 11
2.15
 21
13
 31
0
 12
2.15
 22
14
 32
0
 13
1.15
 23
14
 33
0
  0
3DFACE
  8
FACES
 10
2.15
 20
13
 30
0
 11
3.15
 21
13
 31
0
 12
3.15
 22
14
 32
0
 13
2.15
 23
14
 33
0
  0
3DFACE
  8
FACES
 10
3.15
 20
13
 30
0
 11
4.15
 21
13
 31
0
 12
4.15
 22
14
 32
0
 13
3.15
 23
14
 33
0
  0
3DFACE
  8
FACES
 10
4.15
 20
13
 30
0
 11
5.15
 21
13
 31
0
 12
5.15
 22
14
 32
0
 13
4.15
 23
14
 33
0
  0
3DFACE
  8
FACES
 10
5.15
 20
13
 30
0
 11
6.15
 21
13
 31
0
 12
6.15
 22
14
 32
0
 13
5.15
 23
14
 33
0
  0
3DFACE
  8
FACES
 10
6.15
 20
13
 30
0
 11
7.15
 21
13
 31
0
 12
7.15
 22
14
 32
0
 13
6.15
 23
14
 33
0
  0
3DFACE
  8
FACES
 10
7.15
 20
13
 30
0
 11
8.15
 21
13
 31
0
 12
8.15
 22
14
 32
0
 13
7.15
 23
14
 33
0
  0
3DFACE
  8
FACES
 10
8.15
 20
13
 30
0
 11
9.15
 21
13
 31
0
 12
9.15
 22
14
 32
0
 13
8.15
 23
14
 33
0
  0
3DFACE
  8
FACES
 10
9.15
 20
13
 30
0
 11
10.15
 21
13
 31
0
 12
10.15
 22
14
 32
0
 13
9.15
 23
14
 33
0
  0
3DFACE
  8
FACES
 10
10.15
 20
13
 30
0
 11
11.15
 21
13
 31
0
 12
11.15
 22
14
 32
0
 13
10.15
 23
14
 33
0
  0
3DFACE
  8
FACES
 10
11.15
 20
13
 30
0
 11
12.15
 21
13
 31
0
 12
12.15
 22
14
 32
0
 13
11.15
 23
14
 33
0
  0
3DFACE
  8
FACES
 10
12.15
 20
13
 30
0
 11
13.15
 21
13
 31
0
 12
13.15
 22
14
 32
0
 13
12.15
 23
14
 33
0
  0
3DFACE
  8
FACES
 10
13.15
 20
13
 30
0
 11
14.15
 21
13
 31
0
 12
14.15
 22
14
 32
0
 13
13.15
 23
14
 33
0
  0
3DFACE
  8
FACES
 10
14.15
 20
13
 30
0
 11
15.15
 21
13
 31
0
 12
15.15
 22
14
 32
0
 13
14.15
 23
14
 33
0
  0
3DFACE
  8
FACES
 10
15.15
 20
13
 30
0
 11
16.15
 21
13
 31
0
 12
16.15
 22
14
 32
0
 13
15.15
 23
14
 33
0
  0
3DFACE
  8
FACES
 10
16.15
 20
13
 30
0
 11
17.15
 21
13
 31
0
 12
17.15
 22
14
 32
0
 13
16.15
 23
14
 33
0
  0
3DFACE
  8
FACES
 10
17.15
 20
13
 30
0
 11
18.15
 21
13
 31
0
 12
18.15
 22
14
 32
0
 13
17.15
 23
14
 33
0
  0
3DFACE
  8
FACES
 10
18.15
 20
13
 30
0
 11
19.15
 21
13
 31
0
 12
19.15
 22
14
 32
0
 13
18.15
 23
14
 33
0
  0
3DFACE
  8
FACES
 10
19.15
 20
13
 30
0
 11
20.15
 21
13
 31
0
 12
20.15
 22
14
 32
0
 13
19.15
 23
14
 33
0
  0
3DFACE
  8
FACES
 10
20.15
 20
13
 30
0
 11
21.15
 21
13
 31
0
 12
21.15
 22
14
 32
0
 13
20.15
 23
14
 33
0
  0
3DFACE
  8
FACES
 10
21.15
 20
13
 30
0
 11
22.15
 21
13
 31
0
 12
22.15
 22
14
 32
0
 13
21.15
 23
14
 33
0
  0
3DFACE
  8
FACES
 10
22.15
 20
13
 30
0
 11
23.15
 21
13
 31
0
 12
23.15
 22
14
 32
0
 13
22.15
 23
14
 33
0
  0
3DFACE
  8
FACES
 10
23.15
 20
13
 30
0
 11
24.15
 21
13
 31
0
 12
24.15
 22
14
 32
0
 13
23.15
 23
14
 33
0
  0
3DFACE
  8
FACES
 10
24.15
 20
13
 30
0
 11
25.15
 21
13
 31
0
 12
25.15
 22
14
 32
0
 13
24.15
 23
14
 33
0
  0
3DFACE
  8
FACES
 10
25.15
 20
14
 30
0
 11
25.15
 21
13
 31
0
 12
25.15
 22
13
 32
1
 13
25.15
 23
14
 33
1
  0
3DFACE
  8
FACES
 10
0
 20
14
 30
0
 11
1.15
 21
14
 31
0
 12
1.15
 22
15
 32
0
 13
0
 23
15
 33
0
  0
3DFACE
  8
FACES
 10
0
 20
14
 30
0
 11
0
 21
15
 31
0
 12
0
 22
15
 32
1
 13
0
 23
14
 33
1
  0
3DFACE
  8
FACES
 10
1.15
 20
14
 30
0
 11
2.15
 21
14
 31
0
 12
2.15
 22
15
 32
0
 13
1.15
 23
15
 33
0
  0
3DFACE
  8
FACES
 10
2.15
 20
14
 30
0
 11
3.15
 21
14
 31
0
 12
3.15
 22
15
 32
0
 13
2.15
 23
15
 33
0
  0
3DFACE
  8
FACES
 10
3.15
 20
14
 30
0
 11
4.15
 21
14
 31
0
 12
4.15
 22
15
 32
0
 13
3.15
 23
15
 33
0
  0
3DFACE
  8
FACES
 10
4.15
 20
14
 30
0
 11
5.15
 21
14
 31
0
 12
5.15
 22
15
 32
0
 13
4.15
 23
15
 33
0
  0
3DFACE
  8
FACES
 10
5.15
 20
14
 30
0
 11
6.15
 21
14
 31
0
 12
6.15
 22
15
 32
0
 13
5.15
 23
15
 33
0
  0
3DFACE
  8
FACES
 10
6.15
 20
14
 30
0
 11
7.15
 21
14
 31
0
 12
7.15
 22
15
 32
0
 13
6.15
 23
15
 33
0
  0
3DFACE
  8
FACES
 10
7.15
 20
14
 30
0
 11
8.15
 21
14
 31
0
 12
8.15
 22
15
 32
0
 13
7.15
 23
15
 33
0
  0
3DFACE
  8
FACES
 10
8.15
 20
14
 30
0
 11
9.15
 21
14
 31
0
 12
9.15
 22
15
 32
0
 13
8.15
 23
15
 33
0
  0
3DFACE
  8
FACES
 10
9.15
 20
14
 30
0
 11
10.15
 21
14
 31
0
 12
10.15
 22
15
 32
0
 13
9.15
 23
15
 33
0
  0
3DFACE
  8
FACES
 10
10.15
 20
14
 30
0
 11
11.15
 21
14
 31
0
 12
11.15
 22
15
 32
0
 13
10.15
 23
15
 33
0
  0
3DFACE
  8
FACES
 10
11.15
 20
14
 30
0
 11
12.15
 21
14
 31
0
 12
12.15
 22
15
 32
0
 13
11.15
 23
15
 33
0
  0
3DFACE
  8
FACES
 10
12.15
 20
14
 30
0
 11
13.15
 21
14
 31
0
 12
13.15
 22
15
 32
0
 13
12.15
 23
15
 33
0
  0
3DFACE
  8
FACES
 10
13.15
 20
14
 30
0
 11
14.15
 21
14
 31
0
 12
14.15
 22
15
 32
0
 13
13.15
 23
15
 33
0
  0
3DFACE
  8
FACES
 10
14.15
 20
14
 30
0
 11
15.15
 21
14
 31
0
 12
15.15
 22
15
 32
0
 13
14.15
 23
15
 33
0
  0
3DFACE
  8
FACES
 10
15.15
 20
14
 30
0
 11
16.15
 21
14
 31
0
 12
16.15
 22
15
 32
0
 13
15.15
 23
15
 33
0
  0
3DFACE
  8
FACES
 10
16.15
 20
14
 30
0
 11
17.15
 21
14
 31
0
 12
17.15
 22
15
 32
0
 13
16.15
 23
15
 33
0
  0
3DFACE
  8
FACES
 10
17.15
 20
14
 30
0
 11
18.15
 21
14
 31
0
 12
18.15
 22
15
 32
0
 13
17.15
 23
15
 33
0
  0
3DFACE
  8
FACES
 10
18.15
 20
14
 30
0
 11
19.15
 21
14
 31
0
 12
19.15
 22
15
 32
0
 13
18.15
 23
15
 33
0
  0
3DFACE
  8
FACES
 10
19.15
 20
14
 30
0
 11
20.15
 21
14
 31
0
 12
20.15
 22
15
 32
0
 13
19.15
 23
15
 33
0
  0
3DFACE
  8
FACES
 10
20.15
 20
14
 30
0
 11
21.15
 21
14
 31
0
 12
21.15
 22
15
 32
0
 13
20.15
 23
15
 33
0
  0
3DFACE
  8
FACES
 10
21.15
 20
14
 30
0
 11
22.15
 21
14
 31
0
 12
22.15
 22
15
 32
0
 13
21.15
 23
15
 33
0
  0
3DFACE
  8
FACES
 10
22.15
 20
14
 30
0
 11
23.15
 21
14
 31
0
 12
23.15
 22
15
 32
0
 13
22.15
 23
15
 33
0
  0
3DFACE
  8
FACES
 10
23.15
 20
14
 30
0
 11
24.15
 21
14
 31
0
 12
24.15
 22
15
 32
0
 13
23.15
 23
15
 33
0
  0
3DFACE
  8
FACES
 10
24.15
 20
14
 30
0
 11
25.15
 21
14
 31
0
 12
25.15
 22
15
 32
0
 13
24.15
 23
15
 33
0
  0
3DFACE
  8
FACES
 10
25.15
 20
15
 30
0
 11
25.15
 21
14
 31
0
 12
25.15
 22
14
 32
1
 13
25.15
 23
15
 33
1
  0
3DFACE
  8
FACES
 10
0
 20
15
 30
0
 11
1.15
 21
15
 31
0
 12
1.15
 22
16
 32
0
 13
0
 23
16
 33
0
  0
3DFACE
  8
FACES
 10
0
 20
15
 30
0
 11
0
 21
16
 31
0
 12
0
 22
16
 32
1
 13
0
 23
15
 33
1
  0
3DFACE
  8
FACES
 10
1.15
 20
15
 30
0
 11
2.15
 21
15
 31
0
 12
2.15
 22
16
 32
0
 13
1.15
 23
16
 33
0
  0
3DFACE
  8
FACES
 10
2.15
 20
15
 30
0
 11
3.15
 21
15
 31
0
 12
3.15
 22
16
 32
0
 13
2.15
 23
16
 33
0
  0
3DFACE
  8
FACES
 10
3.15
 20
15
 30
0
 11
4.15
 21
15
 31
0
 12
4.15
 22
16
 32
0
 13
3.15
 23
16
 33
0
  0
3DFACE
  8
FACES
 10
4.15
 20
15
 30
0
 11
5.15
 21
15
 31
0
 12
5.15
 22
16
 32
0
 13
4.15
 23
16
 33
0
  0
3DFACE
  8
FACES
 10
5.15
 20
15
 30
0
 11
6.15
 21
15
 31
0
 12
6.15
 22
16
 32
0
 13
5.15
 23
16
 33
0
  0
3DFACE
  8
FACES
 10
6.15
 20
15
 30
0
 11
7.15
 21
15
 31
0
 12
7.15
 22
16
 32
0
 13
6.15
 23
16
 33
0
  0
3DFACE
  8
FACES
 10
7.15
 20
15
 30
0
 11
8.15
 21
15
 31
0
 12
8.15
 22
16
 32
0
 13
7.15
 23
16
 33
0
  0
3DFACE
  8
FACES
 10
8.15
 20
15
 30
0
 11
9.15
 21
15
 31
0
 12
9.15
 22
16
 32
0
 13
8.15
 23
16
 33
0
  0
3DFACE
  8
FACES
 10
9.15
 20
15
 30
0
 11
10.15
 21
15
 31
0
 12
10.15
 22
16
 32
0
 13
9.15
 23
16
 33
0
  0
3DFACE
  8
FACES
 10
10.15
 20
15
 30
0
 11
11.15
 21
15
 31
0
 12
11.15
 22
16
 32
0
 13
10.15
 23
16
 33
0
  0
3DFACE
  8
FACES
 10
11.15
 20
15
 30
0
 11
12.15
 21
15
 31
0
 12
12.15
 22
16
 32
0
 13
11.15
 23
16
 33
0
  0
3DFACE
  8
FACES
 10
12.15
 20
15
 30
0
 11
13.15
 21
15
 31
0
 12
13.15
 22
16
 32
0
 13
12.15
 23
16
 33
0
  0
3DFACE
  8
FACES
 10
13.15
 20
15
 30
0
 11
14.15
 21
15
 31
0
 12
14.15
 22
16
 32
0
 13
13.15
 23
16
 33
0
  0
3DFACE
  8
FACES
 10
14.15
 20
15
 30
0
 11
15.15
 21
15
 31
0
 12
15.15
 22
16
 32
0
 13
14.15
 23
16
 33
0
  0
3DFACE
  8
FACES
 10
15.15
 20
15
 30
0
 11
16.15
 21
15
 31
0
 12
16.15
 22
16
 32
0
 13
15.15
 23
16
 33
0
  0
3DFACE
  8
FACES
 10
16.15
 20
15
 30
0
 11
17.15
 21
15
 31
0
 12
17.15
 22
16
 32
0
 13
16.15
 23
16
 33
0
  0
3DFACE
  8
FACES
 10
17.15
 20
15
 30
0
 11
18.15
 21
15
 31
0
 12
18.15
 22
16
 32
0
 13
17.15
 23
16
 33
0
  0
3DFACE
  8
FACES
 10
18.15
 20
15
 30
0
 11
19.15
 21
15
 31
0
 12
19.15
 22
16
 32
0
 13
18.15
 23
16
 33
0
  0
3DFACE
  8
FACES
 10
19.15
 20
15
 30
0
 11
20.15
 21
15
 31
0
 12
20.15
 22
16
 32
0
 13
19.15
 23
16
 33
0
  0
3DFACE
  8
FACES
 10
20.15
 20
15
 30
0
 11
21.15
 21
15
 31
0
 12
21.15
 22
16
 32
0
 13
20.15
 23
16
 33
0
  0
3DFACE
  8
FACES
 10
21.15
 20
15
 30
0
 11
22.15
 21
15
 31
0
 12
22.15
 22
16
 32
0
 13
21.15
 23
16
 33
0
  0
3DFACE
  8
FACES
 10
22.15
 20
15
 30
0
 11
23.15
 21
15
 31
0
 12
23.15
 22
16
 32
0
 13
22.15
 23
16
 33
0
  0
3DFACE
  8
FACES
 10
23.15
 20
15
 30
0
 11
24.15
 21
15
 31
0
 12
24.15
 22
16
 32
0
 13
23.15
 23
16
 33
0
  0
3DFACE
  8
FACES
 10
24.15
 20
15
 30
0
 11
25.15
 21
15
 31
0
 12
25.15
 22
16
 32
0
 13
24.15
 23
16
 33
0
  0
3DFACE
  8
FACES
 10
25.15
 20
16
 30
0
 11
25.15
 21
15
 31
0
 12
25.15
 22
15
 32
1
 13
25.15
 23
16
 33
1
  0
3DFACE
  8
FACES
 10
0
 20
16
 30
0
 11
1.15
 21
16
 31
0
 12
1.15
 22
17
 32
0
 13
0
 23
17
 33
0
  0
3DFACE
  8
FACES
 10
0
 20
16
 30
0
 11
0
 21
17
 31
0
 12
0
 22
17
 32
1
 13
0
 23
16
 33
1
  0
3DFACE
  8
FACES
 10
1.15
 20
16
 30
0
 11
2.15
 21
16
 31
0
 12
2.15
 22
17
 32
0
 13
1.15
 23
17
 33
0
  0
3DFACE
  8
FACES
 10
2.15
 20
16
 30
0
 11
3.15
 21
16
 31
0
 12
3.15
 22
17
 32
0
 13
2.15
 23
17
 33
0
  0
3DFACE
  8
FACES
 10
3.15
 20
16
 30
0
 11
4.15
 21
16
 31
0
 12
4.15
 22
17
 32
0
 13
3.15
 23
17
 33
0
  0
3DFACE
  8
FACES
 10
4.15
 20
16
 30
0
 11
5.15
 21
16
 31
0
 12
5.15
 22
17
 32
0
 13
4.15
 23
17
 33
0
  0
3DFACE
  8
FACES
 10
5.15
 20
16
 30
0
 11
6.15
 21
16
 31
0
 12
6.15
 22
17
 32
0
 13
5.15
 23
17
 33
0
  0
3DFACE
  8
FACES
 10
6.15
 20
16
 30
0
 11
7.15
 21
16
 31
0
 12
7.15
 22
17
 32
0
 13
6.15
 23
17
 33
0
  0
3DFACE
  8
FACES
 10
7.15
 20
16
 30
0
 11
8.15
 21
16
 31
0
 12
8.15
 22
17
 32
0
 13
7.15
 23
17
 33
0
  0
3DFACE
  8
FACES
 10
8.15
 20
16
 30
0
 11
9.15
 21
16
 31
0
 12
9.15
 22
17
 32
0
 13
8.15
 23
17
 33
0
  0
3DFACE
  8
FACES
 10
9.15
 20
16
 30
0
 11
10.15
 21
16
 31
0
 12
10.15
 22
17
 32
0
 13
9.15
 23
17
 33
0
  0
3DFACE
  8
FACES
 10
10.15
 20
16
 30
0
 11
11.15
 21
16
 31
0
 12
11.15
 22
17
 32
0
 13
10.15
 23
17
 33
0
  0
3DFACE
  8
FACES
 10
11.15
 20
16
 30
0
 11
12.15
 21
16
 31
0
 12
12.15
 22
17
 32
0
 13
11.15
 23
17
 33
0
  0
3DFACE
  8
FACES
 10
12.15
 20
16
 30
0
 11
13.15
 21
16
 31
0
 12
13.15
 22
17
 32
0
 13
12.15
 23
17
 33
0
  0
3DFACE
  8
FACES
 10
13.15
 20
16
 30
0
 11
14.15
 21
16
 31
0
 12
14.15
 22
17
 32
0
 13
13.15
 23
17
 33
0
  0
3DFACE
  8
FACES
 10
14.15
 20
16
 30
0
 11
15.15
 21
16
 31
0
 12
15.15
 22
17
 32
0
 13
14.15
 23
17
 33
0
  0
3DFACE
  8
FACES
 10
15.15
 20
16
 30
0
 11
16.15
 21
16
 31
0
 12
16.15
 22
17
 32
0
 13
15.15
 23
17
 33
0
  0
3DFACE
  8
FACES
 10
16.15
 20
16
 30
0
 11
17.15
 21
16
 31
0
 12
17.15
 22
17
 32
0
 13
16.15
 23
17
 33
0
  0
3DFACE
  8
FACES
 10
17.15
 20
16
 30
0
 11
18.15
 21
16
 31
0
 12
18.15
 22
17
 32
0
 13
17.15
 23
17
 33
0
  0
3DFACE
  8
FACES
 10
18.15
 20
16
 30
0
 11
19.15
 21
16
 31
0
 12
19.15
 22
17
 32
0
 13
18.15
 23
17
 33
0
  0
3DFACE
  8
FACES
 10
19.15
 20
16
 30
0
 11
20.15
 21
16
 31
0
 12
20.15
 22
17
 32
0
 13
19.15
 23
17
 33
0
  0
3DFACE
  8
FACES
 10
20.15
 20
16
 30
0
 11
21.15
 21
16
 31
0
 12
21.15
 22
17
 32
0
 13
20.15
 23
17
 33
0
  0
3DFACE
  8
FACES
 10
21.15
 20
16
 30
0
 11
22.15
 21
16
 31
0
 12
22.15
 22
17
 32
0
 13
21.15
 23
17
 33
0
  0
3DFACE
  8
FACES
 10
22.15
 20
16
 30
0
 11
23.15
 21
16
 31
0
 12
23.15
 22
17
 32
0
 13
22.15
 23
17
 33
0
  0
3DFACE
  8
FACES
 10
23.15
 20
16
 30
0
 11
24.15
 21
16
 31
0
 12
24.15
 22
17
 32
0
 13
23.15
 23
17
 33
0
  0
3DFACE
  8
FACES
 10
24.15
 20
16
 30
0
 11
25.15
 21
16
 31
0
 12
25.15
 22
17
 32
0
 13
24.15
 23
17
 33
0
  0
3DFACE
  8
FACES
 10
25.15
 20
17
 30
0
 11
25.15
 21
16
 31
0
 12
25.15
 22
16
 32
1
 13
25.15
 23
17
 33
1
  0
3DFACE
  8
FACES
 10
0
 20
17
 30
0
 11
1.15
 21
17
 31
0
 12
1.15
 22
18
 32
0
 13
0
 23
18
 33
0
  0
3DFACE
  8
FACES
 10
0
 20
17
 30
0
 11
0
 21
18
 31
0
 12
0
 22
18
 32
1
 13
0
 23
17
 33
1
  0
3DFACE
  8
FACES
 10
1.15
 20
17
 30
0
 11
2.15
 21
17
 31
0
 12
2.15
 22
18
 32
0
 13
1.15
 23
18
 33
0
  0
3DFACE
  8
FACES
 10
2.15
 20
17
 30
0
 11
3.15
 21
17
 31
0
 12
3.15
 22
18
 32
0
 13
2.15
 23
18
 33
0
  0
3DFACE
  8
FACES
 10
3.15
 20
17
 30
0
 11
4.15
 21
17
 31
0
 12
4.15
 22
18
 32
0
 13
3.15
 23
18
 33
0
  0
3DFACE
  8
FACES
 10
4.15
 20
17
 30
0
 11
5.15
 21
17
 31
0
 12
5.15
 22
18
 32
0
 13
4.15
 23
18
 33
0
  0
3DFACE
  8
FACES
 10
5.15
 20
17
 30
0
 11
6.15
 21
17
 31
0
 12
6.15
 22
18
 32
0
 13
5.15
 23
18
 33
0
  0
3DFACE
  8
FACES
 10
6.15
 20
17
 30
0
 11
7.15
 21
17
 31
0
 12
7.15
 22
18
 32
0
 13
6.15
 23
18
 33
0
  0
3DFACE
  8
FACES
 10
7.15
 20
17
 30
0
 11
8.15
 21
17
 31
0
 12
8.15
 22
18
 32
0
 13
7.15
 23
18
 33
0
  0
3DFACE
  8
FACES
 10
8.15
 20
17
 30
0
 11
9.15
 21
17
 31
0
 12
9.15
 22
18
 32
0
 13
8.15
 23
18
 33
0
  0
3DFACE
  8
FACES
 10
9.15
 20
17
 30
0
 11
10.15
 21
17
 31
0
 12
10.15
 22
18
 32
0
 13
9.15
 23
18
 33
0
  0
3DFACE
  8
FACES
 10
10.15
 20
17
 30
0
 11
11.15
 21
17
 31
0
 12
11.15
 22
18
 32
0
 13
10.15
 23
18
 33
0
  0
3DFACE
  8
FACES
 10
11.15
 20
17
 30
0
 11
12.15
 21
17
 31
0
 12
12.15
 22
18
 32
0
 13
11.15
 23
18
 33
0
  0
3DFACE
  8
FACES
 10
12.15
 20
17
 30
0
 11
13.15
 21
17
 31
0
 12
13.15
 22
18
 32
0
 13
12.15
 23
18
 33
0
  0
3DFACE
  8
FACES
 10
13.15
 20
17
 30
0
 11
14.15
 21
17
 31
0
 12
14.15
 22
18
 32
0
 13
13.15
 23
18
 33
0
  0
3DFACE
  8
FACES
 10
14.15
 20
17
 30
0
 11
15.15
 21
17
 31
0
 12
15.15
 22
18
 32
0
 13
14.15
 23
18
 33
0
  0
3DFACE
  8
FACES
 10
15.15
 20
17
 30
0
 11
16.15
 21
17
 31
0
 12
16.15
 22
18
 32
0
 13
15.15
 23
18
 33
0
  0
3DFACE
  8
FACES
 10
16.15
 20
17
 30
0
 11
17.15
 21
17
 31
0
 12
17.15
 22
18
 32
0
 13
16.15
 23
18
 33
0
  0
3DFACE
  8
FACES
 10
17.15
 20
17
 30
0
 11
18.15
 21
17
 31
0
 12
18.15
 22
18
 32
0
 13
17.15
 23
18
 33
0
  0
3DFACE
  8
FACES
 10
18.15
 20
17
 30
0
 11
19.15
 21
17
 31
0
 12
19.15
 22
18
 32
0
 13
18.15
 23
18
 33
0
  0
3DFACE
  8
FACES
 10
19.15
 20
17
 30
0
 11
20.15
 21
17
 31
0
 12
20.15
 22
18
 32
0
 13
19.15
 23
18
 33
0
  0
3DFACE
  8
FACES
 10
20.15
 20
17
 30
0
 11
21.15
 21
17
 31
0
 12
21.15
 22
18
 32
0
 13
20.15
 23
18
 33
0
  0
3DFACE
  8
FACES
 10
21.15
 20
17
 30
0
 11
22.15
 21
17
 31
0
 12
22.15
 22
18
 32
0
 13
21.15
 23
18
 33
0
  0
3DFACE
  8
FACES
 10
22.15
 20
17
 30
0
 11
23.15
 21
17
 31
0
 12
23.15
 22
18
 32
0
 13
22.15
 23
18
 33
0
  0
3DFACE
  8
FACES
 10
23.15
 20
17
 30
0
 11
24.15
 21
17
 31
0
 12
24.15
 22
18
 32
0
 13
23.15
 23
18
 33
0
  0
3DFACE
  8
FACES
 10
24.15
 20
17
 30
0
 11
25.15
 21
17
 31
0
 12
25.15
 22
18
 32
0
 13
24.15
 23
18
 33
0
  0
3DFACE
  8
FACES
 10
25.15
 20
18
 30
0
 11
25.15
 21
17
 31
0
 12
25.15
 22
17
 32
1
 13
25.15
 23
18
 33
1
  0
3DFACE
  8
FACES
 10
0
 20
18
 30
0
 11
1.15
 21
18
 31
0
 12
1.15
 22
19
 32
0
 13
0
 23
19
 33
0
  0
3DFACE
  8
FACES
 10
0
 20
18
 30
0
 11
0
 21
19
 31
0
 12
0
 22
19
 32
1
 13
0
 23
18
 33
1
  0
3DFACE
  8
FACES
 10
1.15
 20
18
 30
0
 11
2.15
 21
18
 31
0
 12
2.15
 22
19
 32
0
 13
1.15
 23
19
 33
0
  0
3DFACE
  8
FACES
 10
2.15
 20
18
 30
0
 11
3.15
 21
18
 31
0
 12
3.15
 22
19
 32
0
 13
2.15
 23
19
 33
0
  0
3DFACE
  8
FACES
 10
3.15
 20
18
 30
0
 11
4.15
 21
18
 31
0
 12
4.15
 22
19
 32
0
 13
3.15
 23
19
 33
0
  0
3DFACE
  8
FACES
 10
4.15
 20
18
 30
0
 11
5.15
 21
18
 31
0
 12
5.15
 22
19
 32
0
 13
4.15
 23
19
 33
0
  0
3DFACE
  8
FACES
 10
5.15
 20
18
 30
0
 11
6.15
 21
18
 31
0
 12
6.15
 22
19
 32
0
 13
5.15
 23
19
 33
0
  0
3DFACE
  8
FACES
 10
6.15
 20
18
 30
0
 11
7.15
 21
18
 31
0
 12
7.15
 22
19
 32
0
 13
6.15
 23
19
 33
0
  0
3DFACE
  8
FACES
 10
7.15
 20
18
 30
0
 11
8.15
 21
18
 31
0
 12
8.15
 22
19
 32
0
 13
7.15
 23
19
 33
0
  0
3DFACE
  8
FACES
 10
8.15
 20
18
 30
0
 11
9.15
 21
18
 31
0
 12
9.15
 22
19
 32
0
 13
8.15
 23
19
 33
0
  0
3DFACE
  8
FACES
 10
9.15
 20
18
 30
0
 11
10.15
 21
18
 31
0
 12
10.15
 22
19
 32
0
 13
9.15
 23
19
 33
0
  0
3DFACE
  8
FACES
 10
10.15
 20
18
 30
0
 11
11.15
 21
18
 31
0
 12
11.15
 22
19
 32
0
 13
10.15
 23
19
 33
0
  0
3DFACE
  8
FACES
 10
11.15
 20
18
 30
0
 11
12.15
 21
18
 31
0
 12
12.15
 22
19
 32
0
 13
11.15
 23
19
 33
0
  0
3DFACE
  8
FACES
 10
12.15
 20
18
 30
0
 11
13.15
 21
18
 31
0
 12
13.15
 22
19
 32
0
 13
12.15
 23
19
 33
0
  0
3DFACE
  8
FACES
 10
13.15
 20
18
 30
0
 11
14.15
 21
18
 31
0
 12
14.15
 22
19
 32
0
 13
13.15
 23
19
 33
0
  0
3DFACE
  8
FACES
 10
14.15
 20
18
 30
0
 11
15.15
 21
18
 31
0
 12
15.15
 22
19
 32
0
 13
14.15
 23
19
 33
0
  0
3DFACE
  8
FACES
 10
15.15
 20
18
 30
0
 11
16.15
 21
18
 31
0
 12
16.15
 22
19
 32
0
 13
15.15
 23
19
 33
0
  0
3DFACE
  8
FACES
 10
16.15
 20
18
 30
0
 11
17.15
 21
18
 31
0
 12
17.15
 22
19
 32
0
 13
16.15
 23
19
 33
0
  0
3DFACE
  8
FACES
 10
17.15
 20
18
 30
0
 11
18.15
 21
18
 31
0
 12
18.15
 22
19
 32
0
 13
17.15
 23
19
 33
0
  0
3DFACE
  8
FACES
 10
18.15
 20
18
 30
0
 11
19.15
 21
18
 31
0
 12
19.15
 22
19
 32
0
 13
18.15
 23
19
 33
0
  0
3DFACE
  8
FACES
 10
19.15
 20
18
 30
0
 11
20.15
 21
18
 31
0
 12
20.15
 22
19
 32
0
 13
19.15
 23
19
 33
0
  0
3DFACE
  8
FACES
 10
20.15
 20
18
 30
0
 11
21.15
 21
18
 31
0
 12
21.15
 22
19
 32
0
 13
20.15
 23
19
 33
0
  0
3DFACE
  8
FACES
 10
21.15
 20
18
 30
0
 11
22.15
 21
18
 31
0
 12
22.15
 22
19
 32
0
 13
21.15
 23
19
 33
0
  0
3DFACE
  8
FACES
 10
22.15
 20
18
 30
0
 11
23.15
 21
18
 31
0
 12
23.15
 22
19
 32
0
 13
22.15
 23
19
 33
0
  0
3DFACE
  8
FACES
 10
23.15
 20
18
 30
0
 11
24.15
 21
18
 31
0
 12
24.15
 22
19
 32
0
 13
23.15
 23
19
 33
0
  0
3DFACE
  8
FACES
 10
24.15
 20
18
 30
0
 11
25.15
 21
18
 31
0
 12
25.15
 22
19
 32
0
 13
24.15
 23
19
 33
0
  0
3DFACE
  8
FACES
 10
25.15
 20
19
 30
0
 11
25.15
 21
18
 31
0
 12
25.15
 22
18
 32
1
 13
25.15
 23
19
 33
1
  0
3DFACE
  8
FACES
 10
0
 20
19
 30
0
 11
1.15
 21
19
 31
0
 12
1.15
 22
19
 32
1
 13
0
 23
19
 33
1
  0
3DFACE
  8
FACES
 10
1.15
 20
19
 30
0
 11
2.15
 21
19
 31
0
 12
2.15
 22
19
 32
1
 13
1.15
 23
19
 33
1
  0
3DFACE
  8
FACES
 10
2.15
 20
19
 30
0
 11
3.15
 21
19
 31
0
 12
3.15
 22
19
 32
1
 13
2.15
 23
19
 33
1
  0
3DFACE
  8
FACES
 10
3.15
 20
19
 30
0
 11
4.15
 21
19
 31
0
 12
4.15
 22
19
 32
1
 13
3.15
 23
19
 33
1
  0
3DFACE
  8
FACES
 10
4.15
 20
19
 30
0
 11
5.15
 21
19
 31
0
 12
5.15
 22
19
 32
1
 13
4.15
 23
19
 33
1
  0
3DFACE
  8
FACES
 10
5.15
 20
19
 30
0
 11
6.15
 21
19
 31
0
 12
6.15
 22
19
 32
1
 13
5.15
 23
19
 33
1
  0
3DFACE
  8
FACES
 10
6.15
 20
19
 30
0
 11
7.15
 21
19
 31
0
 12
7.15
 22
19
 32
1
 13
6.15
 23
19
 33
1
  0
3DFACE
  8
FACES
 10
7.15
 20
19
 30
0
 11
8.15
 21
19
 31
0
 12
8.15
 22
19
 32
1
 13
7.15
 23
19
 33
1
  0
3DFACE
  8
FACES
 10
8.15
 20
19
 30
0
 11
9.15
 21
19
 31
0
 12
9.15
 22
19
 32
1
 13
8.15
 23
19
 33
1
  0
3DFACE
  8
FACES
 10
9.15
 20
19
 30
0
 11
10.15
 21
19
 31
0
 12
10.15
 22
19
 32
1
 13
9.15
 23
19
 33
1
  0
3DFACE
  8
FACES
 10
10.15
 20
19
 30
0
 11
11.15
 21
19
 31
0
 12
11.15
 22
19
 32
1
 13
10.15
 23
19
 33
1
  0
3DFACE
  8
FACES
 10
11.15
 20
19
 30
0
 11
12.15
 21
19
 31
0
 12
12.15
 22
19
 32
1
 13
11.15
 23
19
 33
1
  0
3DFACE
  8
FACES
 10
12.15
 20
19
 30
0
 11
13.15
 21
19
 31
0
 12
13.15
 22
19
 32
1
 13
12.15
 23
19
 33
1
  0
3DFACE
  8
FACES
 10
13.15
 20
19
 30
0
 11
14.15
 21
19
 31
0
 12
14.15
 22
19
 32
1
 13
13.15
 23
19
 33
1
  0
3DFACE
  8
FACES
 10
14.15
 20
19
 30
0
 11
15.15
 21
19
 31
0
 12
15.15
 22
19
 32
1
 13
14.15
 23
19
 33
1
  0
3DFACE
  8
FACES
 10
15.15
 20
19
 30
0
 11
16.15
 21
19
 31
0
 12
16.15
 22
19
 32
1
 13
15.15
 23
19
 33
1
  0
3DFACE
  8
FACES
 10
16.15
 20
19
 30
0
 11
17.15
 21
19
 31
0
 12
17.15
 22
19
 32
1
 13
16.15
 23
19
 33
1
  0
3DFACE
  8
FACES
 10
17.15
 20
19
 30
0
 11
18.15
 21
19
 31
0
 12
18.15
 22
19
 32
1
 13
17.15
 23
19
 33
1
  0
3DFACE
  8
FACES
 10
18.15
 20
19
 30
0
 11
19.15
 21
19
 31
0
 12
19.15
 22
19
 32
1
 13
18.15
 23
19
 33
1
  0
3DFACE
  8
FACES
 10
19.15
 20
19
 30
0
 11
20.15
 21
19
 31
0
 12
20.15
 22
19
 32
1
 13
19.15
 23
19
 33
1
  0
3DFACE
  8
FACES
 10
20.15
 20
19
 30
0
 11
21.15
 21
19
 31
0
 12
21.15
 22
19
 32
1
 13
20.15
 23
19
 33
1
  0
3DFACE
  8
FACES
 10
21.15
 20
19
 30
0
 11
22.15
 21
19
 31
0
 12
22.15
 22
19
 32
1
 13
21.15
 23
19
 33
1
  0
3DFACE
  8
FACES
 10
22.15
 20
19
 30
0
 11
23.15
 21
19
 31
0
 12
23.15
 22
19
 32
1
 13
22.15
 23
19
 33
1
  0
3DFACE
  8
FACES
 10
23.15
 20
19
 30
0
 11
24.15
 21
19
 31
0
 12
24.15
 22
19
 32
1
 13
23.15
 23
19
 33
1
  0
3DFACE
  8
FACES
 10
24.15
 20
19
 30
0
 11
25.15
 21
19
 31
0
 12
25.15
 22
19
 32
1
 13
24.15
 23
19
 33
1
  0
3DFACE
  8
FACES
 10
1.15
 20
0
 30
1
 11
0
 21
0
 31
1
 12
0
 22
0
 32
2
 13
1.15
 23
0
 33
2
  0
3DFACE
  8
FACES
 10
0
 20
0
 30
1
 11
0
 21
1
 31
1
 12
0
 22
1
 32
2
 13
0
 23
0
 33
2
  0
3DFACE
  8
FACES
 10
2.15
 20
0
 30
1
 11
1.15
 21
0
 31
1
 12
1.15
 22
0
 32
2
 13
2.15
 23
0
 33
2
  0
3DFACE
  8
FACES
 10
3.15
 20
0
 30
1
 11
2.15
 21
0
 31
1
 12
2.15
 22
0
 32
2
 13
3.15
 23
0
 33
2
  0
3DFACE
  8
FACES
 10
4.15
 20
0
 30
1
 11
3.15
 21
0
 31
1
 12
3.15
 22
0
 32
2
 13
4.15
 23
0
 33
2
  0
3DFACE
  8
FACES
 10
5.15
 20
0
 30
1
 11
4.15
 21
0
 31
1
 12
4.15
 22
0
 32
2
 13
5.15
 23
0
 33
2
  0
3DFACE
  8
FACES
 10
6.15
 20
0
 30
1
 11
5.15
 21
0
 31
1
 12
5.15
 22
0
 32
2
 13
6.15
 23
0
 33
2
  0
3DFACE
  8
FACES
 10
7.15
 20
0
 30
1
 11
6.15
 21
0
 31
1
 12
6.15
 22
0
 32
2
 13
7.15
 23
0
 33
2
  0
3DFACE
  8
FACES
 10
8.15
 20
0
 30
1
 11
7.15
 21
0
 31
1
 12
7.15
 22
0
 32
2
 13
8.15
 23
0
 33
2
  0
3DFACE
  8
FACES
 10
9.15
 20
0
 30
1
 11
8.15
 21
0
 31
1
 12
8.15
 22
0
 32
2
 13
9.15
 23
0
 33
2
  0
3DFACE
  8
FACES
 10
10.15
 20
0
 30
1
 11
9.15
 21
0
 31
1
 12
9.15
 22
0
 32
2
 13
10.15
 23
0
 33
2
  0
3DFACE
  8
FACES
 10
11.15
 20
0
 30
1
 11
10.15
 21
0
 31
1
 12
10.15
 22
0
 32
2
 13
11.15
 23
0
 33
2
  0
3DFACE
  8
FACES
 10
12.15
 20
0
 30
1
 11
11.15
 21
0
 31
1
 12
11.15
 22
0
 32
2
 13
12.15
 23
0
 33
2
  0
3DFACE
  8
FACES
 10
13.15
 20
0
 30
1
 11
12.15
 21
0
 31
1
 12
12.15
 22
0
 32
2
 13
13.15
 23
0
 33
2
  0
3DFACE
  8
FACES
 10
14.15
 20
0
 30
1
 11
13.15
 21
0
 31
1
 12
13.15
 22
0
 32
2
 13
14.15
 23
0
 33
2
  0
3DFACE
  8
FACES
 10
15.15
 20
0
 30
1
 11
14.15
 21
0
 31
1
 12
14.15
 22
0
 32
2
 13
15.15
 23
0
 33
2
  0
3DFACE
  8
FACES
 10
16.15
 20
0
 30
1
 11
15.15
 21
0
 31
1
 12
15.15
 22
0
 32
2
 13
16.15
 23
0
 33
2
  0
3DFACE
  8
FACES
 10
17.15
 20
0
 30
1
 11
16.15
 21
0
 31
1
 12
16.15
 22
0
 32
2
 13
17.15
 23
0
 33
2
  0
3DFACE
  8
FACES
 10
18.15
 20
0
 30
1
 11
17.15
 21
0
 31
1
 12
17.15
 22
0
 32
2
 13
18.15
 23
0
 33
2
  0
3DFACE
  8
FACES
 10
19.15
 20
0
 30
1
 11
18.15
 21
0
 31
1
 12
18.15
 22
0
 32
2
 13
19.15
 23
0
 33
2
  0
3DFACE
  8
FACES
 10
20.15
 20
0
 30
1
 11
19.15
 21
0
 31
1
 12
19.15
 22
0
 32
2
 13
20.15
 23
0
 33
2
  0
3DFACE
  8
FACES
 10
21.15
 20
0
 30
1
 11
20.15
 21
0
 31
1
 12
20.15
 22
0
 32
2
 13
21.15
 23
0
 33
2
  0
3DFACE
  8
FACES
 10
22.15
 20
0
 30
1
 11
21.15
 21
0
 31
1
 12
21.15
 22
0
 32
2
 13
22.15
 23
0
 33
2
  0
3DFACE
  8
FACES
 10
23.15
 20
0
 30
1
 11
22.15
 21
0
 31
1
 12
22.15
 22
0
 32
2
 13
23.15
 23
0
 33
2
  0
3DFACE
  8
FACES
 10
24.15
 20
0
 30
1
 11
23.15
 21
0
 31
1
 12
23.15
 22
0
 32
2
 13
24.15
 23
0
 33
2
  0
3DFACE
  8
FACES
 10
25.15
 20
0
 30
1
 11
24.15
 21
0
 31
1
 12
24.15
 22
0
 32
2
 13
25.15
 23
0
 33
2
  0
3DFACE
  8
FACES
 10
25.15
 20
1
 30
1
 11
25.15
 21
0
 31
1
 12
25.15
 22
0
 32
2
 13
25.15
 23
1
 33
2
  0
3DFACE
  8
FACES
 10
1.15
 20
0
 30
2
 11
0
 21
0
 31
2
 12
0
 22
0
 32
3
 13
1.15
 23
0
 33
3
  0
3DFACE
  8
FACES
 10
0
 20
0
 30
2
 11
0
 21
1
 31
2
 12
0
 22
1
 32
3
 13
0
 23
0
 33
3
  0
3DFACE
  8
FACES
 10
2.15
 20
0
 30
2
 11
1.15
 21
0
 31
2
 12
1.15
 22
0
 32
3
 13
2.15
 23
0
 33
3
  0
3DFACE
  8
FACES
 10
3.15
 20
0
 30
2
 11
2.15
 21
0
 31
2
 12
2.15
 22
0
 32
3
 13
3.15
 23
0
 33
3
  0
3DFACE
  8
FACES
 10
4.15
 20
0
 30
2
 11
3.15
 21
0
 31
2
 12
3.15
 22
0
 32
3
 13
4.15
 23
0
 33
3
  0
3DFACE
  8
FACES
 10
5.15
 20
0
 30
2
 11
4.15
 21
0
 31
2
 12
4.15
 22
0
 32
3
 13
5.15
 23
0
 33
3
  0
3DFACE
  8
FACES
 10
6.15
 20
0
 30
2
 11
5.15
 21
0
 31
2
 12
5.15
 22
0
 32
3
 13
6.15
 23
0
 33
3
  0
3DFACE
  8
FACES
 10
7.15
 20
0
 30
2
 11
6.15
 21
0
 31
2
 12
6.15
 22
0
 32
3
 13
7.15
 23
0
 33
3
  0
3DFACE
  8
FACES
 10
8.15
 20
0
 30
2
 11
7.15
 21
0
 31
2
 12
7.15
 22
0
 32
3
 13
8.15
 23
0
 33
3
  0
3DFACE
  8
FACES
 10
9.15
 20
0
 30
2
 11
8.15
 21
0
 31
2
 12
8.15
 22
0
 32
3
 13
9.15
 23
0
 33
3
  0
3DFACE
  8
FACES
 10
10.15
 20
0
 30
2
 11
9.15
 21
0
 31
2
 12
9.15
 22
0
 32
3
 13
10.15
 23
0
 33
3
  0
3DFACE
  8
FACES
 10
11.15
 20
0
 30
2
 11
10.15
 21
0
 31
2
 12
10.15
 22
0
 32
3
 13
11.15
 23
0
 33
3
  0
3DFACE
  8
FACES
 10
12.15
 20
0
 30
2
 11
11.15
 21
0
 31
2
 12
11.15
 22
0
 32
3
 13
12.15
 23
0
 33
3
  0
3DFACE
  8
FACES
 10
13.15
 20
0
 30
2
 11
12.15
 21
0
 31
2
 12
12.15
 22
0
 32
3
 13
13.15
 23
0
 33
3
  0
3DFACE
  8
FACES
 10
14.15
 20
0
 30
2
 11
13.15
 21
0
 31
2
 12
13.15
 22
0
 32
3
 13
14.15
 23
0
 33
3
  0
3DFACE
  8
FACES
 10
15.15
 20
0
 30
2
 11
14.15
 21
0
 31
2
 12
14.15
 22
0
 32
3
 13
15.15
 23
0
 33
3
  0
3DFACE
  8
FACES
 10
16.15
 20
0
 30
2
 11
15.15
 21
0
 31
2
 12
15.15
 22
0
 32
3
 13
16.15
 23
0
 33
3
  0
3DFACE
  8
FACES
 10
17.15
 20
0
 30
2
 11
16.15
 21
0
 31
2
 12
16.15
 22
0
 32
3
 13
17.15
 23
0
 33
3
  0
3DFACE
  8
FACES
 10
18.15
 20
0
 30
2
 11
17.15
 21
0
 31
2
 12
17.15
 22
0
 32
3
 13
18.15
 23
0
 33
3
  0
3DFACE
  8
FACES
 10
19.15
 20
0
 30
2
 11
18.15
 21
0
 31
2
 12
18.15
 22
0
 32
3
 13
19.15
 23
0
 33
3
  0
3DFACE
  8
FACES
 10
20.15
 20
0
 30
2
 11
19.15
 21
0
 31
2
 12
19.15
 22
0
 32
3
 13
20.15
 23
0
 33
3
  0
3DFACE
  8
FACES
 10
21.15
 20
0
 30
2
 11
20.15
 21
0
 31
2
 12
20.15
 22
0
 32
3
 13
21.15
 23
0
 33
3
  0
3DFACE
  8
FACES
 10
22.15
 20
0
 30
2
 11
21.15
 21
0
 31
2
 12
21.15
 22
0
 32
3
 13
22.15
 23
0
 33
3
  0
3DFACE
  8
FACES
 10
23.15
 20
0
 30
2
 11
22.15
 21
0
 31
2
 12
22.15
 22
0
 32
3
 13
23.15
 23
0
 33
3
  0
3DFACE
  8
FACES
 10
24.15
 20
0
 30
2
 11
23.15
 21
0
 31
2
 12
23.15
 22
0
 32
3
 13
24.15
 23
0
 33
3
  0
3DFACE
  8
FACES
 10
25.15
 20
0
 30
2
 11
24.15
 21
0
 31
2
 12
24.15
 22
0
 32
3
 13
25.15
 23
0
 33
3
  0
3DFACE
  8
FACES
 10
25.15
 20
1
 30
2
 11
25.15
 21
0
 31
2
 12
25.15
 22
0
 32
3
 13
25.15
 23
1
 33
3
  0
3DFACE
  8
FACES
 10
1.15
 20
0
 30
3
 11
0
 21
0
 31
3
 12
0
 22
0
 32
4
 13
1.15
 23
0
 33
4
  0
3DFACE
  8
FACES
 10
0
 20
0
 30
3
 11
0
 21
1
 31
3
 12
0
 22
1
 32
4
 13
0
 23
0
 33
4
  0
3DFACE
  8
FACES
 10
2.15
 20
0
 30
3
 11
1.15
 21
0
 31
3
 12
1.15
 22
0
 32
4
 13
2.15
 23
0
 33
4
  0
3DFACE
  8
FACES
 10
3.15
 20
0
 30
3
 11
2.15
 21
0
 31
3
 12
2.15
 22
0
 32
4
 13
3.15
 23
0
 33
4
  0
3DFACE
  8
FACES
 10
4.15
 20
0
 30
3
 11
3.15
 21
0
 31
3
 12
3.15
 22
0
 32
4
 13
4.15
 23
0
 33
4
  0
3DFACE
  8
FACES
 10
5.15
 20
0
 30
3
 11
4.15
 21
0
 31
3
 12
4.15
 22
0
 32
4
 13
5.15
 23
0
 33
4
  0
3DFACE
  8
FACES
 10
6.15
 20
0
 30
3
 11
5.15
 21
0
 31
3
 12
5.15
 22
0
 32
4
 13
6.15
 23
0
 33
4
  0
3DFACE
  8
FACES
 10
7.15
 20
0
 30
3
 11
6.15
 21
0
 31
3
 12
6.15
 22
0
 32
4
 13
7.15
 23
0
 33
4
  0
3DFACE
  8
FACES
 10
8.15
 20
0
 30
3
 11
7.15
 21
0
 31
3
 12
7.15
 22
0
 32
4
 13
8.15
 23
0
 33
4
  0
3DFACE
  8
FACES
 10
9.15
 20
0
 30
3
 11
8.15
 21
0
 31
3
 12
8.15
 22
0
 32
4
 13
9.15
 23
0
 33
4
  0
3DFACE
  8
FACES
 10
10.15
 20
0
 30
3
 11
9.15
 21
0
 31
3
 12
9.15
 22
0
 32
4
 13
10.15
 23
0
 33
4
  0
3DFACE
  8
FACES
 10
11.15
 20
0
 30
3
 11
10.15
 21
0
 31
3
 12
10.15
 22
0
 32
4
 13
11.15
 23
0
 33
4
  0
3DFACE
  8
FACES
 10
12.15
 20
0
 30
3
 11
11.15
 21
0
 31
3
 12
11.15
 22
0
 32
4
 13
12.15
 23
0
 33
4
  0
3DFACE
  8
FACES
 10
13.15
 20
0
 30
3
 11
12.15
 21
0
 31
3
 12
12.15
 22
0
 32
4
 13
13.15
 23
0
 33
4
  0
3DFACE
  8
FACES
 10
14.15
 20
0
 30
3
 11
13.15
 21
0
 31
3
 12
13.15
 22
0
 32
4
 13
14.15
 23
0
 33
4
  0
3DFACE
  8
FACES
 10
15.15
 20
0
 30
3
 11
14.15
 21
0
 31
3
 12
14.15
 22
0
 32
4
 13
15.15
 23
0
 33
4
  0
3DFACE
  8
FACES
 10
16.15
 20
0
 30
3
 11
15.15
 21
0
 31
3
 12
15.15
 22
0
 32
4
 13
16.15
 23
0
 33
4
  0
3DFACE
  8
FACES
 10
17.15
 20
0
 30
3
 11
16.15
 21
0
 31
3
 12
16.15
 22
0
 32
4
 13
17.15
 23
0
 33
4
  0
3DFACE
  8
FACES
 10
18.15
 20
0
 30
3
 11
17.15
 21
0
 31
3
 12
17.15
 22
0
 32
4
 13
18.15
 23
0
 33
4
  0
3DFACE
  8
FACES
 10
19.15
 20
0
 30
3
 11
18.15
 21
0
 31
3
 12
18.15
 22
0
 32
4
 13
19.15
 23
0
 33
4
  0
3DFACE
  8
FACES
 10
20.15
 20
0
 30
3
 11
19.15
 21
0
 31
3
 12
19.15
 22
0
 32
4
 13
20.15
 23
0
 33
4
  0
3DFACE
  8
FACES
 10
21.15
 20
0
 30
3
 11
20.15
 21
0
 31
3
 12
20.15
 22
0
 32
4
 13
21.15
 23
0
 33
4
  0
3DFACE
  8
FACES
 10
22.15
 20
0
 30
3
 11
21.15
 21
0
 31
3
 12
21.15
 22
0
 32
4
 13
22.15
 23
0
 33
4
  0
3DFACE
  8
FACES
 10
23.15
 20
0
 30
3
 11
22.15
 21
0
 31
3
 12
22.15
 22
0
 32
4
 13
23.15
 23
0
 33
4
  0
3DFACE
  8
FACES
 10
24.15
 20
0
 30
3
 11
23.15
 21
0
 31
3
 12
23.15
 22
0
 32
4
 13
24.15
 23
0
 33
4
  0
3DFACE
  8
FACES
 10
25.15
 20
0
 30
3
 11
24.15
 21
0
 31
3
 12
24.15
 22
0
 32
4
 13
25.15
 23
0
 33
4
  0
3DFACE
  8
FACES
 10
25.15
 20
1
 30
3
 11
25.15
 21
0
 31
3
 12
25.15
 22
0
 32
4
 13
25.15
 23
1
 33
4
  0
3DFACE
  8
FACES
 10
1.15
 20
0
 30
4
 11
0
 21
0
 31
4
 12
0
 22
0
 32
5
 13
1.15
 23
0
 33
5
  0
3DFACE
  8
FACES
 10
0
 20
0
 30
4
 11
0
 21
1
 31
4
 12
0
 22
1
 32
5
 13
0
 23
0
 33
5
  0
3DFACE
  8
FACES
 10
2.15
 20
0
 30
4
 11
1.15
 21
0
 31
4
 12
1.15
 22
0
 32
5
 13
2.15
 23
0
 33
5
  0
3DFACE
  8
FACES
 10
3.15
 20
0
 30
4
 11
2.15
 21
0
 31
4
 12
2.15
 22
0
 32
5
 13
3.15
 23
0
 33
5
  0
3DFACE
  8
FACES
 10
4.15
 20
0
 30
4
 11
3.15
 21
0
 31
4
 12
3.15
 22
0
 32
5
 13
4.15
 23
0
 33
5
  0
3DFACE
  8
FACES
 10
5.15
 20
0
 30
4
 11
4.15
 21
0
 31
4
 12
4.15
 22
0
 32
5
 13
5.15
 23
0
 33
5
  0
3DFACE
  8
FACES
 10
6.15
 20
0
 30
4
 11
5.15
 21
0
 31
4
 12
5.15
 22
0
 32
5
 13
6.15
 23
0
 33
5
  0
3DFACE
  8
FACES
 10
7.15
 20
0
 30
4
 11
6.15
 21
0
 31
4
 12
6.15
 22
0
 32
5
 13
7.15
 23
0
 33
5
  0
3DFACE
  8
FACES
 10
8.15
 20
0
 30
4
 11
7.15
 21
0
 31
4
 12
7.15
 22
0
 32
5
 13
8.15
 23
0
 33
5
  0
3DFACE
  8
FACES
 10
9.15
 20
0
 30
4
 11
8.15
 21
0
 31
4
 12
8.15
 22
0
 32
5
 13
9.15
 23
0
 33
5
  0
3DFACE
  8
FACES
 10
10.15
 20
0
 30
4
 11
9.15
 21
0
 31
4
 12
9.15
 22
0
 32
5
 13
10.15
 23
0
 33
5
  0
3DFACE
  8
FACES
 10
11.15
 20
0
 30
4
 11
10.15
 21
0
 31
4
 12
10.15
 22
0
 32
5
 13
11.15
 23
0
 33
5
  0
3DFACE
  8
FACES
 10
12.15
 20
0
 30
4
 11
11.15
 21
0
 31
4
 12
11.15
 22
0
 32
5
 13
12.15
 23
0
 33
5
  0
3DFACE
  8
FACES
 10
13.15
 20
0
 30
4
 11
12.15
 21
0
 31
4
 12
12.15
 22
0
 32
5
 13
13.15
 23
0
 33
5
  0
3DFACE
  8
FACES
 10
14.15
 20
0
 30
4
 11
13.15
 21
0
 31
4
 12
13.15
 22
0
 32
5
 13
14.15
 23
0
 33
5
  0
3DFACE
  8
FACES
 10
15.15
 20
0
 30
4
 11
14.15
 21
0
 31
4
 12
14.15
 22
0
 32
5
 13
15.15
 23
0
 33
5
  0
3DFACE
  8
FACES
 10
16.15
 20
0
 30
4
 11
15.15
 21
0
 31
4
 12
15.15
 22
0
 32
5
 13
16.15
 23
0
 33
5
  0
3DFACE
  8
FACES
 10
17.15
 20
0
 30
4
 11
16.15
 21
0
 31
4
 12
16.15
 22
0
 32
5
 13
17.15
 23
0
 33
5
  0
3DFACE
  8
FACES
 10
18.15
 20
0
 30
4
 11
17.15
 21
0
 31
4
 12
17.15
 22
0
 32
5
 13
18.15
 23
0
 33
5
  0
3DFACE
  8
FACES
 10
19.15
 20
0
 30
4
 11
18.15
 21
0
 31
4
 12
18.15
 22
0
 32
5
 13
19.15
 23
0
 33
5
  0
3DFACE
  8
FACES
 10
20.15
 20
0
 30
4
 11
19.15
 21
0
 31
4
 12
19.15
 22
0
 32
5
 13
20.15
 23
0
 33
5
  0
3DFACE
  8
FACES
 10
21.15
 20
0
 30
4
 11
20.15
 21
0
 31
4
 12
20.15
 22
0
 32
5
 13
21.15
 23
0
 33
5
  0
3DFACE
  8
FACES
 10
22.15
 20
0
 30
4
 11
21.15
 21
0
 31
4
 12
21.15
 22
0
 32
5
 13
22.15
 23
0
 33
5
  0
3DFACE
  8
FACES
 10
23.15
 20
0
 30
4
 11
22.15
 21
0
 31
4
 12
22.15
 22
0
 32
5
 13
23.15
 23
0
 33
5
  0
3DFACE
  8
FACES
 10
24.15
 20
0
 30
4
 11
23.15
 21
0
 31
4
 12
23.15
 22
0
 32
5
 13
24.15
 23
0
 33
5
  0
3DFACE
  8
FACES
 10
25.15
 20
0
 30
4
 11
24.15
 21
0
 31
4
 12
24.15
 22
0
 32
5
 13
25.15
 23
0
 33
5
  0
3DFACE
  8
FACES
 10
25.15
 20
1
 30
4
 11
25.15
 21
0
 31
4
 12
25.15
 22
0
 32
5
 13
25.15
 23
1
 33
5
  0
3DFACE
  8
FACES
 10
1.15
 20
0
 30
5
 11
0
 21
0
 31
5
 12
0
 22
0
 32
6
 13
1.15
 23
0
 33
6
  0
3DFACE
  8
FACES
 10
0
 20
0
 30
5
 11
0
 21
1
 31
5
 12
0
 22
1
 32
6
 13
0
 23
0
 33
6
  0
3DFACE
  8
FACES
 10
2.15
 20
0
 30
5
 11
1.15
 21
0
 31
5
 12
1.15
 22
0
 32
6
 13
2.15
 23
0
 33
6
  0
3DFACE
  8
FACES
 10
3.15
 20
0
 30
5
 11
2.15
 21
0
 31
5
 12
2.15
 22
0
 32
6
 13
3.15
 23
0
 33
6
  0
3DFACE
  8
FACES
 10
4.15
 20
0
 30
5
 11
3.15
 21
0
 31
5
 12
3.15
 22
0
 32
6
 13
4.15
 23
0
 33
6
  0
3DFACE
  8
FACES
 10
5.15
 20
0
 30
5
 11
4.15
 21
0
 31
5
 12
4.15
 22
0
 32
6
 13
5.15
 23
0
 33
6
  0
3DFACE
  8
FACES
 10
10.15
 20
0
 30
5
 11
9.15
 21
0
 31
5
 12
9.15
 22
0
 32
6
 13
10.15
 23
0
 33
6
  0
3DFACE
  8
FACES
 10
11.15
 20
0
 30
5
 11
10.15
 21
0
 31
5
 12
10.15
 22
0
 32
6
 13
11.15
 23
0
 33
6
  0
3DFACE
  8
FACES
 10
12.15
 20
0
 30
5
 11
11.15
 21
0
 31
5
 12
11.15
 22
0
 32
6
 13
12.15
 23
0
 33
6
  0
3DFACE
  8
FACES
 10
13.15
 20
0
 30
5
 11
12.15
 21
0
 31
5
 12
12.15
 22
0
 32
6
 13
13.15
 23
0
 33
6
  0
3DFACE
  8
FACES
 10
14.15
 20
0
 30
5
 11
13.15
 21
0
 31
5
 12
13.15
 22
0
 32
6
 13
14.15
 23
0
 33
6
  0
3DFACE
  8
FACES
 10
15.15
 20
0
 30
5
 11
14.15
 21
0
 31
5
 12
14.15
 22
0
 32
6
 13
15.15
 23
0
 33
6
  0
3DFACE
  8
FACES
 10
16.15
 20
0
 30
5
 11
15.15
 21
0
 31
5
 12
15.15
 22
0
 32
6
 13
16.15
 23
0
 33
6
  0
3DFACE
  8
FACES
 10
17.15
 20
0
 30
5
 11
16.15
 21
0
 31
5
 12
16.15
 22
0
 32
6
 13
17.15
 23
0
 33
6
  0
3DFACE
  8
FACES
 10
22.15
 20
0
 30
5
 11
21.15
 21
0
 31
5
 12
21.15
 22
0
 32
6
 13
22.15
 23
0
 33
6
  0
3DFACE
  8
FACES
 10
23.15
 20
0
 30
5
 11
22.15
 21
0
 31
5
 12
22.15
 22
0
 32
6
 13
23.15
 23
0
 33
6
  0
3DFACE
  8
FACES
 10
24.15
 20
0
 30
5
 11
23.15
 21
0
 31
5
 12
23.15
 22
0
 32
6
 13
24.15
 23
0
 33
6
  0
3DFACE
  8
FACES
 10
25.15
 20
0
 30
5
 11
24.15
 21
0
 31
5
 12
24.15
 22
0
 32
6
 13
25.15
 23
0
 33
6
  0
3DFACE
  8
FACES
 10
25.15
 20
1
 30
5
 11
25.15
 21
0
 31
5
 12
25.15
 22
0
 32
6
 13
25.15
 23
1
 33
6
  0
3DFACE
  8
FACES
 10
1.15
 20
0
 30
6
 11
0
 21
0
 31
6
 12
0
 22
0
 32
7
 13
1.15
 23
0
 33
7
  0
3DFACE
  8
FACES
 10
0
 20
0
 30
6
 11
0
 21
1
 31
6
 12
0
 22
1
 32
7
 13
0
 23
0
 33
7
  0
3DFACE
  8
FACES
 10
2.15
 20
0
 30
6
 11
1.15
 21
0
 31
6
 12
1.15
 22
0
 32
7
 13
2.15
 23
0
 33
7
  0
3DFACE
  8
FACES
 10
3.15
 20
0
 30
6
 11
2.15
 21
0
 31
6
 12
2.15
 22
0
 32
7
 13
3.15
 23
0
 33
7
  0
3DFACE
  8
FACES
 10
4.15
 20
0
 30
6
 11
3.15
 21
0
 31
6
 12
3.15
 22
0
 32
7
 13
4.15
 23
0
 33
7
  0
3DFACE
  8
FACES
 10
5.15
 20
0
 30
6
 11
4.15
 21
0
 31
6
 12
4.15
 22
0
 32
7
 13
5.15
 23
0
 33
7
  0
3DFACE
  8
FACES
 10
10.15
 20
0
 30
6
 11
9.15
 21
0
 31
6
 12
9.15
 22
0
 32
7
 13
10.15
 23
0
 33
7
  0
3DFACE
  8
FACES
 10
11.15
 20
0
 30
6
 11
10.15
 21
0
 31
6
 12
10.15
 22
0
 32
7
 13
11.15
 23
0
 33
7
  0
3DFACE
  8
FACES
 10
12.15
 20
0
 30
6
 11
11.15
 21
0
 31
6
 12
11.15
 22
0
 32
7
 13
12.15
 23
0
 33
7
  0
3DFACE
  8
FACES
 10
13.15
 20
0
 30
6
 11
12.15
 21
0
 31
6
 12
12.15
 22
0
 32
7
 13
13.15
 23
0
 33
7
  0
3DFACE
  8
FACES
 10
14.15
 20
0
 30
6
 11
13.15
 21
0
 31
6
 12
13.15
 22
0
 32
7
 13
14.15
 23
0
 33
7
  0
3DFACE
  8
FACES
 10
15.15
 20
0
 30
6
 11
14.15
 21
0
 31
6
 12
14.15
 22
0
 32
7
 13
15.15
 23
0
 33
7
  0
3DFACE
  8
FACES
 10
16.15
 20
0
 30
6
 11
15.15
 21
0
 31
6
 12
15.15
 22
0
 32
7
 13
16.15
 23
0
 33
7
  0
3DFACE
  8
FACES
 10
17.15
 20
0
 30
6
 11
16.15
 21
0
 31
6
 12
16.15
 22
0
 32
7
 13
17.15
 23
0
 33
7
  0
3DFACE
  8
FACES
 10
22.15
 20
0
 30
6
 11
21.15
 21
0
 31
6
 12
21.15
 22
0
 32
7
 13
22.15
 23
0
 33
7
  0
3DFACE
  8
FACES
 10
23.15
 20
0
 30
6
 11
22.15
 21
0
 31
6
 12
22.15
 22
0
 32
7
 13
23.15
 23
0
 33
7
  0
3DFACE
  8
FACES
 10
24.15
 20
0
 30
6
 11
23.15
 21
0
 31
6
 12
23.15
 22
0
 32
7
 13
24.15
 23
0
 33
7
  0
3DFACE
  8
FACES
 10
25.15
 20
0
 30
6
 11
24.15
 21
0
 31
6
 12
24.15
 22
0
 32
7
 13
25.15
 23
0
 33
7
  0
3DFACE
  8
FACES
 10
25.15
 20
1
 30
6
 11
25.15
 21
0
 31
6
 12
25.15
 22
0
 32
7
 13
25.15
 23
1
 33
7
  0
3DFACE
  8
FACES
 10
1.15
 20
0
 30
7
 11
0
 21
0
 31
7
 12
0
 22
0
 32
8
 13
1.15
 23
0
 33
8
  0
3DFACE
  8
FACES
 10
0
 20
0
 30
7
 11
0
 21
1
 31
7
 12
0
 22
1
 32
8
 13
0
 23
0
 33
8
  0
3DFACE
  8
FACES
 10
2.15
 20
0
 30
7
 11
1.15
 21
0
 31
7
 12
1.15
 22
0
 32
8
 13
2.15
 23
0
 33
8
  0
3DFACE
  8
FACES
 10
3.15
 20
0
 30
7
 11
2.15
 21
0
 31
7
 12
2.15
 22
0
 32
8
 13
3.15
 23
0
 33
8
  0
3DFACE
  8
FACES
 10
4.15
 20
0
 30
7
 11
3.15
 21
0
 31
7
 12
3.15
 22
0
 32
8
 13
4.15
 23
0
 33
8
  0
3DFACE
  8
FACES
 10
5.15
 20
0
 30
7
 11
4.15
 21
0
 31
7
 12
4.15
 22
0
 32
8
 13
5.15
 23
0
 33
8
  0
3DFACE
  8
FACES
 10
10.15
 20
0
 30
7
 11
9.15
 21
0
 31
7
 12
9.15
 22
0
 32
8
 13
10.15
 23
0
 33
8
  0
3DFACE
  8
FACES
 10
11.15
 20
0
 30
7
 11
10.15
 21
0
 31
7
 12
10.15
 22
0
 32
8
 13
11.15
 23
0
 33
8
  0
3DFACE
  8
FACES
 10
12.15
 20
0
 30
7
 11
11.15
 21
0
 31
7
 12
11.15
 22
0
 32
8
 13
12.15
 23
0
 33
8
  0
3DFACE
  8
FACES
 10
13.15
 20
0
 30
7
 11
12.15
 21
0
 31
7
 12
12.15
 22
0
 32
8
 13
13.15
 23
0
 33
8
  0
3DFACE
  8
FACES
 10
14.15
 20
0
 30
7
 11
13.15
 21
0
 31
7
 12
13.15
 22
0
 32
8
 13
14.15
 23
0
 33
8
  0
3DFACE
  8
FACES
 10
15.15
 20
0
 30
7
 11
14.15
 21
0
 31
7
 12
14.15
 22
0
 32
8
 13
15.15
 23
0
 33
8
  0
3DFACE
  8
FACES
 10
16.15
 20
0
 30
7
 11
15.15
 21
0
 31
7
 12
15.15
 22
0
 32
8
 13
16.15
 23
0
 33
8
  0
3DFACE
  8
FACES
 10
17.15
 20
0
 30
7
 11
16.15
 21
0
 31
7
 12
16.15
 22
0
 32
8
 13
17.15
 23
0
 33
8
  0
3DFACE
  8
FACES
 10
22.15
 20
0
 30
7
 11
21.15
 21
0
 31
7
 12
21.15
 22
0
 32
8
 13
22.15
 23
0
 33
8
  0
3DFACE
  8
FACES
 10
23.15
 20
0
 30
7
 11
22.15
 21
0
 31
7
 12
22.15
 22
0
 32
8
 13
23.15
 23
0
 33
8
  0
3DFACE
  8
FACES
 10
24.15
 20
0
 30
7
 11
23.15
 21
0
 31
7
 12
23.15
 22
0
 32
8
 13
24.15
 23
0
 33
8
  0
3DFACE
  8
FACES
 10
25.15
 20
0
 30
7
 11
24.15
 21
0
 31
7
 12
24.15
 22
0
 32
8
 13
25.15
 23
0
 33
8
  0
3DFACE
  8
FACES
 10
25.15
 20
1
 30
7
 11
25.15
 21
0
 31
7
 12
25.15
 22
0
 32
8
 13
25.15
 23
1
 33
8
  0
3DFACE
  8
FACES
 10
1.15
 20
0
 30
8
 11
0
 21
0
 31
8
 12
0
 22
0
 32
9
 13
1.15
 23
0
 33
9
  0
3DFACE
  8
FACES
 10
0
 20
0
 30
8
 11
0
 21
1
 31
8
 12
0
 22
1
 32
9
 13
0
 23
0
 33
9
  0
3DFACE
  8
FACES
 10
2.15
 20
0
 30
8
 11
1.15
 21
0
 31
8
 12
1.15
 22
0
 32
9
 13
2.15
 23
0
 33
9
  0
3DFACE
  8
FACES
 10
3.15
 20
0
 30
8
 11
2.15
 21
0
 31
8
 12
2.15
 22
0
 32
9
 13
3.15
 23
0
 33
9
  0
3DFACE
  8
FACES
 10
4.15
 20
0
 30
8
 11
3.15
 21
0
 31
8
 12
3.15
 22
0
 32
9
 13
4.15
 23
0
 33
9
  0
3DFACE
  8
FACES
 10
5.15
 20
0
 30
8
 11
4.15
 21
0
 31
8
 12
4.15
 22
0
 32
9
 13
5.15
 23
0
 33
9
  0
3DFACE
  8
FACES
 10
10.15
 20
0
 30
8
 11
9.15
 21
0
 31
8
 12
9.15
 22
0
 32
9
 13
10.15
 23
0
 33
9
  0
3DFACE
  8
FACES
 10
11.15
 20
0
 30
8
 11
10.15
 21
0
 31
8
 12
10.15
 22
0
 32
9
 13
11.15
 23
0
 33
9
  0
3DFACE
  8
FACES
 10
12.15
 20
0
 30
8
 11
11.15
 21
0
 31
8
 12
11.15
 22
0
 32
9
 13
12.15
 23
0
 33
9
  0
3DFACE
  8
FACES
 10
13.15
 20
0
 30
8
 11
12.15
 21
0
 31
8
 12
12.15
 22
0
 32
9
 13
13.15
 23
0
 33
9
  0
3DFACE
  8
FACES
 10
14.15
 20
0
 30
8
 11
13.15
 21
0
 31
8
 12
13.15
 22
0
 32
9
 13
14.15
 23
0
 33
9
  0
3DFACE
  8
FACES
 10
15.15
 20
0
 30
8
 11
14.15
 21
0
 31
8
 12
14.15
 22
0
 32
9
 13
15.15
 23
0
 33
9
  0
3DFACE
  8
FACES
 10
16.15
 20
0
 30
8
 11
15.15
 21
0
 31
8
 12
15.15
 22
0
 32
9
 13
16.15
 23
0
 33
9
  0
3DFACE
  8
FACES
 10
17.15
 20
0
 30
8
 11
16.15
 21
0
 31
8
 12
16.15
 22
0
 32
9
 13
17.15
 23
0
 33
9
  0
3DFACE
  8
FACES
 10
22.15
 20
0
 30
8
 11
21.15
 21
0
 31
8
 12
21.15
 22
0
 32
9
 13
22.15
 23
0
 33
9
  0
3DFACE
  8
FACES
 10
23.15
 20
0
 30
8
 11
22.15
 21
0
 31
8
 12
22.15
 22
0
 32
9
 13
23.15
 23
0
 33
9
  0
3DFACE
  8
FACES
 10
24.15
 20
0
 30
8
 11
23.15
 21
0
 31
8
 12
23.15
 22
0
 32
9
 13
24.15
 23
0
 33
9
  0
3DFACE
  8
FACES
 10
25.15
 20
0
 30
8
 11
24.15
 21
0
 31
8
 12
24.15
 22
0
 32
9
 13
25.15
 23
0
 33
9
  0
3DFACE
  8
FACES
 10
25.15
 20
1
 30
8
 11
25.15
 21
0
 31
8
 12
25.15
 22
0
 32
9
 13
25.15
 23
1
 33
9
  0
3DFACE
  8
FACES
 10
0
 20
19
 30
1
 11
1.15
 21
19
 31
1
 12
1.15
 22
19
 32
2
 13
0
 23
19
 33
2
  0
3DFACE
  8
FACES
 10
0
 20
18
 30
1
 11
0
 21
19
 31
1
 12
0
 22
19
 32
2
 13
0
 23
18
 33
2
  0
3DFACE
  8
FACES
 10
1.15
 20
19
 30
1
 11
2.15
 21
19
 31
1
 12
2.15
 22
19
 32
2
 13
1.15
 23
19
 33
2
  0
3DFACE
  8
FACES
 10
2.15
 20
19
 30
1
 11
3.15
 21
19
 31
1
 12
3.15
 22
19
 32
2
 13
2.15
 23
19
 33
2
  0
3DFACE
  8
FACES
 10
3.15
 20
19
 30
1
 11
4.15
 21
19
 31
1
 12
4.15
 22
19
 32
2
 13
3.15
 23
19
 33
2
  0
3DFACE
  8
FACES
 10
4.15
 20
19
 30
1
 11
5.15
 21
19
 31
1
 12
5.15
 22
19
 32
2
 13
4.15
 23
19
 33
2
  0
3DFACE
  8
FACES
 10
5.15
 20
19
 30
1
 11
6.15
 21
19
 31
1
 12
6.15
 22
19
 32
2
 13
5.15
 23
19
 33
2
  0
3DFACE
  8
FACES
 10
6.15
 20
19
 30
1
 11
7.15
 21
19
 31
1
 12
7.15
 22
19
 32
2
 13
6.15
 23
19
 33
2
  0
3DFACE
  8
FACES
 10
7.15
 20
19
 30
1
 11
8.15
 21
19
 31
1
 12
8.15
 22
19
 32
2
 13
7.15
 23
19
 33
2
  0
3DFACE
  8
FACES
 10
8.15
 20
19
 30
1
 11
9.15
 21
19
 31
1
 12
9.15
 22
19
 32
2
 13
8.15
 23
19
 33
2
  0
3DFACE
  8
FACES
 10
9.15
 20
19
 30
1
 11
10.15
 21
19
 31
1
 12
10.15
 22
19
 32
2
 13
9.15
 23
19
 33
2
  0
3DFACE
  8
FACES
 10
10.15
 20
19
 30
1
 11
11.15
 21
19
 31
1
 12
11.15
 22
19
 32
2
 13
10.15
 23
19
 33
2
  0
3DFACE
  8
FACES
 10
11.15
 20
19
 30
1
 11
12.15
 21
19
 31
1
 12
12.15
 22
19
 32
2
 13
11.15
 23
19
 33
2
  0
3DFACE
  8
FACES
 10
12.15
 20
19
 30
1
 11
13.15
 21
19
 31
1
 12
13.15
 22
19
 32
2
 13
12.15
 23
19
 33
2
  0
3DFACE
  8
FACES
 10
13.15
 20
19
 30
1
 11
14.15
 21
19
 31
1
 12
14.15
 22
19
 32
2
 13
13.15
 23
19
 33
2
  0
3DFACE
  8
FACES
 10
14.15
 20
19
 30
1
 11
15.15
 21
19
 31
1
 12
15.15
 22
19
 32
2
 13
14.15
 23
19
 33
2
  0
3DFACE
  8
FACES
 10
15.15
 20
19
 30
1
 11
16.15
 21
19
 31
1
 12
16.15
 22
19
 32
2
 13
15.15
 23
19
 33
2
  0
3DFACE
  8
FACES
 10
16.15
 20
19
 30
1
 11
17.15
 21
19
 31
1
 12
17.15
 22
19
 32
2
 13
16.15
 23
19
 33
2
  0
3DFACE
  8
FACES
 10
17.15
 20
19
 30
1
 11
18.15
 21
19
 31
1
 12
18.15
 22
19
 32
2
 13
17.15
 23
19
 33
2
  0
3DFACE
  8
FACES
 10
18.15
 20
19
 30
1
 11
19.15
 21
19
 31
1
 12
19.15
 22
19
 32
2
 13
18.15
 23
19
 33
2
  0
3DFACE
  8
FACES
 10
19.15
 20
19
 30
1
 11
20.15
 21
19
 31
1
 12
20.15
 22
19
 32
2
 13
19.15
 23
19
 33
2
  0
3DFACE
  8
FACES
 10
20.15
 20
19
 30
1
 11
21.15
 21
19
 31
1
 12
21.15
 22
19
 32
2
 13
20.15
 23
19
 33
2
  0
3DFACE
  8
FACES
 10
21.15
 20
19
 30
1
 11
22.15
 21
19
 31
1
 12
22.15
 22
19
 32
2
 13
21.15
 23
19
 33
2
  0
3DFACE
  8
FACES
 10
22.15
 20
19
 30
1
 11
23.15
 21
19
 31
1
 12
23.15
 22
19
 32
2
 13
22.15
 23
19
 33
2
  0
3DFACE
  8
FACES
 10
23.15
 20
19
 30
1
 11
24.15
 21
19
 31
1
 12
24.15
 22
19
 32
2
 13
23.15
 23
19
 33
2
  0
3DFACE
  8
FACES
 10
24.15
 20
19
 30
1
 11
25.15
 21
19
 31
1
 12
25.15
 22
19
 32
2
 13
24.15
 23
19
 33
2
  0
3DFACE
  8
FACES
 10
25.15
 20
19
 30
1
 11
25.15
 21
18
 31
1
 12
25.15
 22
18
 32
2
 13
25.15
 23
19
 33
2
  0
3DFACE
  8
FACES
 10
0
 20
19
 30
2
 11
1.15
 21
19
 31
2
 12
1.15
 22
19
 32
3
 13
0
 23
19
 33
3
  0
3DFACE
  8
FACES
 10
0
 20
18
 30
2
 11
0
 21
19
 31
2
 12
0
 22
19
 32
3
 13
0
 23
18
 33
3
  0
3DFACE
  8
FACES
 10
1.15
 20
19
 30
2
 11
2.15
 21
19
 31
2
 12
2.15
 22
19
 32
3
 13
1.15
 23
19
 33
3
  0
3DFACE
  8
FACES
 10
2.15
 20
19
 30
2
 11
3.15
 21
19
 31
2
 12
3.15
 22
19
 32
3
 13
2.15
 23
19
 33
3
  0
3DFACE
  8
FACES
 10
3.15
 20
19
 30
2
 11
4.15
 21
19
 31
2
 12
4.15
 22
19
 32
3
 13
3.15
 23
19
 33
3
  0
3DFACE
  8
FACES
 10
4.15
 20
19
 30
2
 11
5.15
 21
19
 31
2
 12
5.15
 22
19
 32
3
 13
4.15
 23
19
 33
3
  0
3DFACE
  8
FACES
 10
5.15
 20
19
 30
2
 11
6.15
 21
19
 31
2
 12
6.15
 22
19
 32
3
 13
5.15
 23
19
 33
3
  0
3DFACE
  8
FACES
 10
6.15
 20
19
 30
2
 11
7.15
 21
19
 31
2
 12
7.15
 22
19
 32
3
 13
6.15
 23
19
 33
3
  0
3DFACE
  8
FACES
 10
7.15
 20
19
 30
2
 11
8.15
 21
19
 31
2
 12
8.15
 22
19
 32
3
 13
7.15
 23
19
 33
3
  0
3DFACE
  8
FACES
 10
8.15
 20
19
 30
2
 11
9.15
 21
19
 31
2
 12
9.15
 22
19
 32
3
 13
8.15
 23
19
 33
3
  0
3DFACE
  8
FACES
 10
9.15
 20
19
 30
2
 11
10.15
 21
19
 31
2
 12
10.15
 22
19
 32
3
 13
9.15
 23
19
 33
3
  0
3DFACE
  8
FACES
 10
10.15
 20
19
 30
2
 11
11.15
 21
19
 31
2
 12
11.15
 22
19
 32
3
 13
10.15
 23
19
 33
3
  0
3DFACE
  8
FACES
 10
11.15
 20
19
 30
2
 11
12.15
 21
19
 31
2
 12
12.15
 22
19
 32
3
 13
11.15
 23
19
 33
3
  0
3DFACE
  8
FACES
 10
12.15
 20
19
 30
2
 11
13.15
 21
19
 31
2
 12
13.15
 22
19
 32
3
 13
12.15
 23
19
 33
3
  0
3DFACE
  8
FACES
 10
13.15
 20
19
 30
2
 11
14.15
 21
19
 31
2
 12
14.15
 22
19
 32
3
 13
13.15
 23
19
 33
3
  0
3DFACE
  8
FACES
 10
14.15
 20
19
 30
2
 11
15.15
 21
19
 31
2
 12
15.15
 22
19
 32
3
 13
14.15
 23
19
 33
3
  0
3DFACE
  8
FACES
 10
15.15
 20
19
 30
2
 11
16.15
 21
19
 31
2
 12
16.15
 22
19
 32
3
 13
15.15
 23
19
 33
3
  0
3DFACE
  8
FACES
 10
16.15
 20
19
 30
2
 11
17.15
 21
19
 31
2
 12
17.15
 22
19
 32
3
 13
16.15
 23
19
 33
3
  0
3DFACE
  8
FACES
 10
17.15
 20
19
 30
2
 11
18.15
 21
19
 31
2
 12
18.15
 22
19
 32
3
 13
17.15
 23
19
 33
3
  0
3DFACE
  8
FACES
 10
18.15
 20
19
 30
2
 11
19.15
 21
19
 31
2
 12
19.15
 22
19
 32
3
 13
18.15
 23
19
 33
3
  0
3DFACE
  8
FACES
 10
19.15
 20
19
 30
2
 11
20.15
 21
19
 31
2
 12
20.15
 22
19
 32
3
 13
19.15
 23
19
 33
3
  0
3DFACE
  8
FACES
 10
20.15
 20
19
 30
2
 11
21.15
 21
19
 31
2
 12
21.15
 22
19
 32
3
 13
20.15
 23
19
 33
3
  0
3DFACE
  8
FACES
 10
21.15
 20
19
 30
2
 11
22.15
 21
19
 31
2
 12
22.15
 22
19
 32
3
 13
21.15
 23
19
 33
3
  0
3DFACE
  8
FACES
 10
22.15
 20
19
 30
2
 11
23.15
 21
19
 31
2
 12
23.15
 22
19
 32
3
 13
22.15
 23
19
 33
3
  0
3DFACE
  8
FACES
 10
23.15
 20
19
 30
2
 11
24.15
 21
19
 31
2
 12
24.15
 22
19
 32
3
 13
23.15
 23
19
 33
3
  0
3DFACE
  8
FACES
 10
24.15
 20
19
 30
2
 11
25.15
 21
19
 31
2
 12
25.15
 22
19
 32
3
 13
24.15
 23
19
 33
3
  0
3DFACE
  8
FACES
 10
25.15
 20
19
 30
2
 11
25.15
 21
18
 31
2
 12
25.15
 22
18
 32
3
 13
25.15
 23
19
 33
3
  0
3DFACE
  8
FACES
 10
0
 20
19
 30
3
 11
1.15
 21
19
 31
3
 12
1.15
 22
19
 32
4
 13
0
 23
19
 33
4
  0
3DFACE
  8
FACES
 10
0
 20
18
 30
3
 11
0
 21
19
 31
3
 12
0
 22
19
 32
4
 13
0
 23
18
 33
4
  0
3DFACE
  8
FACES
 10
1.15
 20
19
 30
3
 11
2.15
 21
19
 31
3
 12
2.15
 22
19
 32
4
 13
1.15
 23
19
 33
4
  0
3DFACE
  8
FACES
 10
2.15
 20
19
 30
3
 11
3.15
 21
19
 31
3
 12
3.15
 22
19
 32
4
 13
2.15
 23
19
 33
4
  0
3DFACE
  8
FACES
 10
3.15
 20
19
 30
3
 11
4.15
 21
19
 31
3
 12
4.15
 22
19
 32
4
 13
3.15
 23
19
 33
4
  0
3DFACE
  8
FACES
 10
4.15
 20
19
 30
3
 11
5.15
 21
19
 31
3
 12
5.15
 22
19
 32
4
 13
4.15
 23
19
 33
4
  0
3DFACE
  8
FACES
 10
5.15
 20
19
 30
3
 11
6.15
 21
19
 31
3
 12
6.15
 22
19
 32
4
 13
5.15
 23
19
 33
4
  0
3DFACE
  8
FACES
 10
6.15
 20
19
 30
3
 11
7.15
 21
19
 31
3
 12
7.15
 22
19
 32
4
 13
6.15
 23
19
 33
4
  0
3DFACE
  8
FACES
 10
7.15
 20
19
 30
3
 11
8.15
 21
19
 31
3
 12
8.15
 22
19
 32
4
 13
7.15
 23
19
 33
4
  0
3DFACE
  8
FACES
 10
8.15
 20
19
 30
3
 11
9.15
 21
19
 31
3
 12
9.15
 22
19
 32
4
 13
8.15
 23
19
 33
4
  0
3DFACE
  8
FACES
 10
9.15
 20
19
 30
3
 11
10.15
 21
19
 31
3
 12
10.15
 22
19
 32
4
 13
9.15
 23
19
 33
4
  0
3DFACE
  8
FACES
 10
10.15
 20
19
 30
3
 11
11.15
 21
19
 31
3
 12
11.15
 22
19
 32
4
 13
10.15
 23
19
 33
4
  0
3DFACE
  8
FACES
 10
11.15
 20
19
 30
3
 11
12.15
 21
19
 31
3
 12
12.15
 22
19
 32
4
 13
11.15
 23
19
 33
4
  0
3DFACE
  8
FACES
 10
12.15
 20
19
 30
3
 11
13.15
 21
19
 31
3
 12
13.15
 22
19
 32
4
 13
12.15
 23
19
 33
4
  0
3DFACE
  8
FACES
 10
13.15
 20
19
 30
3
 11
14.15
 21
19
 31
3
 12
14.15
 22
19
 32
4
 13
13.15
 23
19
 33
4
  0
3DFACE
  8
FACES
 10
14.15
 20
19
 30
3
 11
15.15
 21
19
 31
3
 12
15.15
 22
19
 32
4
 13
14.15
 23
19
 33
4
  0
3DFACE
  8
FACES
 10
15.15
 20
19
 30
3
 11
16.15
 21
19
 31
3
 12
16.15
 22
19
 32
4
 13
15.15
 23
19
 33
4
  0
3DFACE
  8
FACES
 10
16.15
 20
19
 30
3
 11
17.15
 21
19
 31
3
 12
17.15
 22
19
 32
4
 13
16.15
 23
19
 33
4
  0
3DFACE
  8
FACES
 10
17.15
 20
19
 30
3
 11
18.15
 21
19
 31
3
 12
18.15
 22
19
 32
4
 13
17.15
 23
19
 33
4
  0
3DFACE
  8
FACES
 10
18.15
 20
19
 30
3
 11
19.15
 21
19
 31
3
 12
19.15
 22
19
 32
4
 13
18.15
 23
19
 33
4
  0
3DFACE
  8
FACES
 10
19.15
 20
19
 30
3
 11
20.15
 21
19
 31
3
 12
20.15
 22
19
 32
4
 13
19.15
 23
19
 33
4
  0
3DFACE
  8
FACES
 10
20.15
 20
19
 30
3
 11
21.15
 21
19
 31
3
 12
21.15
 22
19
 32
4
 13
20.15
 23
19
 33
4
  0
3DFACE
  8
FACES
 10
21.15
 20
19
 30
3
 11
22.15
 21
19
 31
3
 12
22.15
 22
19
 32
4
 13
21.15
 23
19
 33
4
  0
3DFACE
  8
FACES
 10
22.15
 20
19
 30
3
 11
23.15
 21
19
 31
3
 12
23.15
 22
19
 32
4
 13
22.15
 23
19
 33
4
  0
3DFACE
  8
FACES
 10
23.15
 20
19
 30
3
 11
24.15
 21
19
 31
3
 12
24.15
 22
19
 32
4
 13
23.15
 23
19
 33
4
  0
3DFACE
  8
FACES
 10
24.15
 20
19
 30
3
 11
25.15
 21
19
 31
3
 12
25.15
 22
19
 32
4
 13
24.15
 23
19
 33
4
  0
3DFACE
  8
FACES
 10
25.15
 20
19
 30
3
 11
25.15
 21
18
 31
3
 12
25.15
 22
18
 32
4
 13
25.15
 23
19
 33
4
  0
3DFACE
  8
FACES
 10
0
 20
19
 30
4
 11
1.15
 21
19
 31
4
 12
1.15
 22
19
 32
5
 13
0
 23
19
 33
5
  0
3DFACE
  8
FACES
 10
0
 20
18
 30
4
 11
0
 21
19
 31
4
 12
0
 22
19
 32
5
 13
0
 23
18
 33
5
  0
3DFACE
  8
FACES
 10
1.15
 20
19
 30
4
 11
2.15
 21
19
 31
4
 12
2.15
 22
19
 32
5
 13
1.15
 23
19
 33
5
  0
3DFACE
  8
FACES
 10
2.15
 20
19
 30
4
 11
3.15
 21
19
 31
4
 12
3.15
 22
19
 32
5
 13
2.15
 23
19
 33
5
  0
3DFACE
  8
FACES
 10
3.15
 20
19
 30
4
 11
4.15
 21
19
 31
4
 12
4.15
 22
19
 32
5
 13
3.15
 23
19
 33
5
  0
3DFACE
  8
FACES
 10
4.15
 20
19
 30
4
 11
5.15
 21
19
 31
4
 12
5.15
 22
19
 32
5
 13
4.15
 23
19
 33
5
  0
3DFACE
  8
FACES
 10
5.15
 20
19
 30
4
 11
6.15
 21
19
 31
4
 12
6.15
 22
19
 32
5
 13
5.15
 23
19
 33
5
  0
3DFACE
  8
FACES
 10
6.15
 20
19
 30
4
 11
7.15
 21
19
 31
4
 12
7.15
 22
19
 32
5
 13
6.15
 23
19
 33
5
  0
3DFACE
  8
FACES
 10
7.15
 20
19
 30
4
 11
8.15
 21
19
 31
4
 12
8.15
 22
19
 32
5
 13
7.15
 23
19
 33
5
  0
3DFACE
  8
FACES
 10
8.15
 20
19
 30
4
 11
9.15
 21
19
 31
4
 12
9.15
 22
19
 32
5
 13
8.15
 23
19
 33
5
  0
3DFACE
  8
FACES
 10
9.15
 20
19
 30
4
 11
10.15
 21
19
 31
4
 12
10.15
 22
19
 32
5
 13
9.15
 23
19
 33
5
  0
3DFACE
  8
FACES
 10
10.15
 20
19
 30
4
 11
11.15
 21
19
 31
4
 12
11.15
 22
19
 32
5
 13
10.15
 23
19
 33
5
  0
3DFACE
  8
FACES
 10
11.15
 20
19
 30
4
 11
12.15
 21
19
 31
4
 12
12.15
 22
19
 32
5
 13
11.15
 23
19
 33
5
  0
3DFACE
  8
FACES
 10
12.15
 20
19
 30
4
 11
13.15
 21
19
 31
4
 12
13.15
 22
19
 32
5
 13
12.15
 23
19
 33
5
  0
3DFACE
  8
FACES
 10
13.15
 20
19
 30
4
 11
14.15
 21
19
 31
4
 12
14.15
 22
19
 32
5
 13
13.15
 23
19
 33
5
  0
3DFACE
  8
FACES
 10
14.15
 20
19
 30
4
 11
15.15
 21
19
 31
4
 12
15.15
 22
19
 32
5
 13
14.15
 23
19
 33
5
  0
3DFACE
  8
FACES
 10
15.15
 20
19
 30
4
 11
16.15
 21
19
 31
4
 12
16.15
 22
19
 32
5
 13
15.15
 23
19
 33
5
  0
3DFACE
  8
FACES
 10
16.15
 20
19
 30
4
 11
17.15
 21
19
 31
4
 12
17.15
 22
19
 32
5
 13
16.15
 23
19
 33
5
  0
3DFACE
  8
FACES
 10
17.15
 20
19
 30
4
 11
18.15
 21
19
 31
4
 12
18.15
 22
19
 32
5
 13
17.15
 23
19
 33
5
  0
3DFACE
  8
FACES
 10
18.15
 20
19
 30
4
 11
19.15
 21
19
 31
4
 12
19.15
 22
19
 32
5
 13
18.15
 23
19
 33
5
  0
3DFACE
  8
FACES
 10
19.15
 20
19
 30
4
 11
20.15
 21
19
 31
4
 12
20.15
 22
19
 32
5
 13
19.15
 23
19
 33
5
  0
3DFACE
  8
FACES
 10
20.15
 20
19
 30
4
 11
21.15
 21
19
 31
4
 12
21.15
 22
19
 32
5
 13
20.15
 23
19
 33
5
  0
3DFACE
  8
FACES
 10
21.15
 20
19
 30
4
 11
22.15
 21
19
 31
4
 12
22.15
 22
19
 32
5
 13
21.15
 23
19
 33
5
  0
3DFACE
  8
FACES
 10
22.15
 20
19
 30
4
 11
23.15
 21
19
 31
4
 12
23.15
 22
19
 32
5
 13
22.15
 23
19
 33
5
  0
3DFACE
  8
FACES
 10
23.15
 20
19
 30
4
 11
24.15
 21
19
 31
4
 12
24.15
 22
19
 32
5
 13
23.15
 23
19
 33
5
  0
3DFACE
  8
FACES
 10
24.15
 20
19
 30
4
 11
25.15
 21
19
 31
4
 12
25.15
 22
19
 32
5
 13
24.15
 23
19
 33
5
  0
3DFACE
  8
FACES
 10
25.15
 20
19
 30
4
 11
25.15
 21
18
 31
4
 12
25.15
 22
18
 32
5
 13
25.15
 23
19
 33
5
  0
3DFACE
  8
FACES
 10
0
 20
19
 30
5
 11
1.15
 21
19
 31
5
 12
1.15
 22
19
 32
6
 13
0
 23
19
 33
6
  0
3DFACE
  8
FACES
 10
0
 20
18
 30
5
 11
0
 21
19
 31
5
 12
0
 22
19
 32
6
 13
0
 23
18
 33
6
  0
3DFACE
  8
FACES
 10
1.15
 20
19
 30
5
 11
2.15
 21
19
 31
5
 12
2.15
 22
19
 32
6
 13
1.15
 23
19
 33
6
  0
3DFACE
  8
FACES
 10
2.15
 20
19
 30
5
 11
3.15
 21
19
 31
5
 12
3.15
 22
19
 32
6
 13
2.15
 23
19
 33
6
  0
3DFACE
  8
FACES
 10
3.15
 20
19
 30
5
 11
4.15
 21
19
 31
5
 12
4.15
 22
19
 32
6
 13
3.15
 23
19
 33
6
  0
3DFACE
  8
FACES
 10
4.15
 20
19
 30
5
 11
5.15
 21
19
 31
5
 12
5.15
 22
19
 32
6
 13
4.15
 23
19
 33
6
  0
3DFACE
  8
FACES
 10
5.15
 20
19
 30
5
 11
6.15
 21
19
 31
5
 12
6.15
 22
19
 32
6
 13
5.15
 23
19
 33
6
  0
3DFACE
  8
FACES
 10
6.15
 20
19
 30
5
 11
7.15
 21
19
 31
5
 12
7.15
 22
19
 32
6
 13
6.15
 23
19
 33
6
  0
3DFACE
  8
FACES
 10
7.15
 20
19
 30
5
 11
8.15
 21
19
 31
5
 12
8.15
 22
19
 32
6
 13
7.15
 23
19
 33
6
  0
3DFACE
  8
FACES
 10
8.15
 20
19
 30
5
 11
9.15
 21
19
 31
5
 12
9.15
 22
19
 32
6
 13
8.15
 23
19
 33
6
  0
3DFACE
  8
FACES
 10
9.15
 20
19
 30
5
 11
10.15
 21
19
 31
5
 12
10.15
 22
19
 32
6
 13
9.15
 23
19
 33
6
  0
3DFACE
  8
FACES
 10
10.15
 20
19
 30
5
 11
11.15
 21
19
 31
5
 12
11.15
 22
19
 32
6
 13
10.15
 23
19
 33
6
  0
3DFACE
  8
FACES
 10
11.15
 20
19
 30
5
 11
12.15
 21
19
 31
5
 12
12.15
 22
19
 32
6
 13
11.15
 23
19
 33
6
  0
3DFACE
  8
FACES
 10
12.15
 20
19
 30
5
 11
13.15
 21
19
 31
5
 12
13.15
 22
19
 32
6
 13
12.15
 23
19
 33
6
  0
3DFACE
  8
FACES
 10
13.15
 20
19
 30
5
 11
14.15
 21
19
 31
5
 12
14.15
 22
19
 32
6
 13
13.15
 23
19
 33
6
  0
3DFACE
  8
FACES
 10
14.15
 20
19
 30
5
 11
15.15
 21
19
 31
5
 12
15.15
 22
19
 32
6
 13
14.15
 23
19
 33
6
  0
3DFACE
  8
FACES
 10
15.15
 20
19
 30
5
 11
16.15
 21
19
 31
5
 12
16.15
 22
19
 32
6
 13
15.15
 23
19
 33
6
  0
3DFACE
  8
FACES
 10
16.15
 20
19
 30
5
 11
17.15
 21
19
 31
5
 12
17.15
 22
19
 32
6
 13
16.15
 23
19
 33
6
  0
3DFACE
  8
FACES
 10
17.15
 20
19
 30
5
 11
18.15
 21
19
 31
5
 12
18.15
 22
19
 32
6
 13
17.15
 23
19
 33
6
  0
3DFACE
  8
FACES
 10
18.15
 20
19
 30
5
 11
19.15
 21
19
 31
5
 12
19.15
 22
19
 32
6
 13
18.15
 23
19
 33
6
  0
3DFACE
  8
FACES
 10
19.15
 20
19
 30
5
 11
20.15
 21
19
 31
5
 12
20.15
 22
19
 32
6
 13
19.15
 23
19
 33
6
  0
3DFACE
  8
FACES
 10
20.15
 20
19
 30
5
 11
21.15
 21
19
 31
5
 12
21.15
 22
19
 32
6
 13
20.15
 23
19
 33
6
  0
3DFACE
  8
FACES
 10
21.15
 20
19
 30
5
 11
22.15
 21
19
 31
5
 12
22.15
 22
19
 32
6
 13
21.15
 23
19
 33
6
  0
3DFACE
  8
FACES
 10
22.15
 20
19
 30
5
 11
23.15
 21
19
 31
5
 12
23.15
 22
19
 32
6
 13
22.15
 23
19
 33
6
  0
3DFACE
  8
FACES
 10
23.15
 20
19
 30
5
 11
24.15
 21
19
 31
5
 12
24.15
 22
19
 32
6
 13
23.15
 23
19
 33
6
  0
3DFACE
  8
FACES
 10
24.15
 20
19
 30
5
 11
25.15
 21
19
 31
5
 12
25.15
 22
19
 32
6
 13
24.15
 23
19
 33
6
  0
3DFACE
  8
FACES
 10
25.15
 20
19
 30
5
 11
25.15
 21
18
 31
5
 12
25.15
 22
18
 32
6
 13
25.15
 23
19
 33
6
  0
3DFACE
  8
FACES
 10
0
 20
19
 30
6
 11
1.15
 21
19
 31
6
 12
1.15
 22
19
 32
7
 13
0
 23
19
 33
7
  0
3DFACE
  8
FACES
 10
0
 20
18
 30
6
 11
0
 21
19
 31
6
 12
0
 22
19
 32
7
 13
0
 23
18
 33
7
  0
3DFACE
  8
FACES
 10
1.15
 20
19
 30
6
 11
2.15
 21
19
 31
6
 12
2.15
 22
19
 32
7
 13
1.15
 23
19
 33
7
  0
3DFACE
  8
FACES
 10
2.15
 20
19
 30
6
 11
3.15
 21
19
 31
6
 12
3.15
 22
19
 32
7
 13
2.15
 23
19
 33
7
  0
3DFACE
  8
FACES
 10
3.15
 20
19
 30
6
 11
4.15
 21
19
 31
6
 12
4.15
 22
19
 32
7
 13
3.15
 23
19
 33
7
  0
3DFACE
  8
FACES
 10
4.15
 20
19
 30
6
 11
5.15
 21
19
 31
6
 12
5.15
 22
19
 32
7
 13
4.15
 23
19
 33
7
  0
3DFACE
  8
FACES
 10
5.15
 20
19
 30
6
 11
6.15
 21
19
 31
6
 12
6.15
 22
19
 32
7
 13
5.15
 23
19
 33
7
  0
3DFACE
  8
FACES
 10
6.15
 20
19
 30
6
 11
7.15
 21
19
 31
6
 12
7.15
 22
19
 32
7
 13
6.15
 23
19
 33
7
  0
3DFACE
  8
FACES
 10
7.15
 20
19
 30
6
 11
8.15
 21
19
 31
6
 12
8.15
 22
19
 32
7
 13
7.15
 23
19
 33
7
  0
3DFACE
  8
FACES
 10
8.15
 20
19
 30
6
 11
9.15
 21
19
 31
6
 12
9.15
 22
19
 32
7
 13
8.15
 23
19
 33
7
  0
3DFACE
  8
FACES
 10
9.15
 20
19
 30
6
 11
10.15
 21
19
 31
6
 12
10.15
 22
19
 32
7
 13
9.15
 23
19
 33
7
  0
3DFACE
  8
FACES
 10
10.15
 20
19
 30
6
 11
11.15
 21
19
 31
6
 12
11.15
 22
19
 32
7
 13
10.15
 23
19
 33
7
  0
3DFACE
  8
FACES
 10
11.15
 20
19
 30
6
 11
12.15
 21
19
 31
6
 12
12.15
 22
19
 32
7
 13
11.15
 23
19
 33
7
  0
3DFACE
  8
FACES
 10
12.15
 20
19
 30
6
 11
13.15
 21
19
 31
6
 12
13.15
 22
19
 32
7
 13
12.15
 23
19
 33
7
  0
3DFACE
  8
FACES
 10
13.15
 20
19
 30
6
 11
14.15
 21
19
 31
6
 12
14.15
 22
19
 32
7
 13
13.15
 23
19
 33
7
  0
3DFACE
  8
FACES
 10
14.15
 20
19
 30
6
 11
15.15
 21
19
 31
6
 12
15.15
 22
19
 32
7
 13
14.15
 23
19
 33
7
  0
3DFACE
  8
FACES
 10
15.15
 20
19
 30
6
 11
16.15
 21
19
 31
6
 12
16.15
 22
19
 32
7
 13
15.15
 23
19
 33
7
  0
3DFACE
  8
FACES
 10
16.15
 20
19
 30
6
 11
17.15
 21
19
 31
6
 12
17.15
 22
19
 32
7
 13
16.15
 23
19
 33
7
  0
3DFACE
  8
FACES
 10
17.15
 20
19
 30
6
 11
18.15
 21
19
 31
6
 12
18.15
 22
19
 32
7
 13
17.15
 23
19
 33
7
  0
3DFACE
  8
FACES
 10
18.15
 20
19
 30
6
 11
19.15
 21
19
 31
6
 12
19.15
 22
19
 32
7
 13
18.15
 23
19
 33
7
  0
3DFACE
  8
FACES
 10
19.15
 20
19
 30
6
 11
20.15
 21
19
 31
6
 12
20.15
 22
19
 32
7
 13
19.15
 23
19
 33
7
  0
3DFACE
  8
FACES
 10
20.15
 20
19
 30
6
 11
21.15
 21
19
 31
6
 12
21.15
 22
19
 32
7
 13
20.15
 23
19
 33
7
  0
3DFACE
  8
FACES
 10
21.15
 20
19
 30
6
 11
22.15
 21
19
 31
6
 12
22.15
 22
19
 32
7
 13
21.15
 23
19
 33
7
  0
3DFACE
  8
FACES
 10
22.15
 20
19
 30
6
 11
23.15
 21
19
 31
6
 12
23.15
 22
19
 32
7
 13
22.15
 23
19
 33
7
  0
3DFACE
  8
FACES
 10
23.15
 20
19
 30
6
 11
24.15
 21
19
 31
6
 12
24.15
 22
19
 32
7
 13
23.15
 23
19
 33
7
  0
3DFACE
  8
FACES
 10
24.15
 20
19
 30
6
 11
25.15
 21
19
 31
6
 12
25.15
 22
19
 32
7
 13
24.15
 23
19
 33
7
  0
3DFACE
  8
FACES
 10
25.15
 20
19
 30
6
 11
25.15
 21
18
 31
6
 12
25.15
 22
18
 32
7
 13
25.15
 23
19
 33
7
  0
3DFACE
  8
FACES
 10
0
 20
19
 30
7
 11
1.15
 21
19
 31
7
 12
1.15
 22
19
 32
8
 13
0
 23
19
 33
8
  0
3DFACE
  8
FACES
 10
0
 20
18
 30
7
 11
0
 21
19
 31
7
 12
0
 22
19
 32
8
 13
0
 23
18
 33
8
  0
3DFACE
  8
FACES
 10
1.15
 20
19
 30
7
 11
2.15
 21
19
 31
7
 12
2.15
 22
19
 32
8
 13
1.15
 23
19
 33
8
  0
3DFACE
  8
FACES
 10
2.15
 20
19
 30
7
 11
3.15
 21
19
 31
7
 12
3.15
 22
19
 32
8
 13
2.15
 23
19
 33
8
  0
3DFACE
  8
FACES
 10
3.15
 20
19
 30
7
 11
4.15
 21
19
 31
7
 12
4.15
 22
19
 32
8
 13
3.15
 23
19
 33
8
  0
3DFACE
  8
FACES
 10
4.15
 20
19
 30
7
 11
5.15
 21
19
 31
7
 12
5.15
 22
19
 32
8
 13
4.15
 23
19
 33
8
  0
3DFACE
  8
FACES
 10
5.15
 20
19
 30
7
 11
6.15
 21
19
 31
7
 12
6.15
 22
19
 32
8
 13
5.15
 23
19
 33
8
  0
3DFACE
  8
FACES
 10
6.15
 20
19
 30
7
 11
7.15
 21
19
 31
7
 12
7.15
 22
19
 32
8
 13
6.15
 23
19
 33
8
  0
3DFACE
  8
FACES
 10
7.15
 20
19
 30
7
 11
8.15
 21
19
 31
7
 12
8.15
 22
19
 32
8
 13
7.15
 23
19
 33
8
  0
3DFACE
  8
FACES
 10
8.15
 20
19
 30
7
 11
9.15
 21
19
 31
7
 12
9.15
 22
19
 32
8
 13
8.15
 23
19
 33
8
  0
3DFACE
  8
FACES
 10
9.15
 20
19
 30
7
 11
10.15
 21
19
 31
7
 12
10.15
 22
19
 32
8
 13
9.15
 23
19
 33
8
  0
3DFACE
  8
FACES
 10
10.15
 20
19
 30
7
 11
11.15
 21
19
 31
7
 12
11.15
 22
19
 32
8
 13
10.15
 23
19
 33
8
  0
3DFACE
  8
FACES
 10
11.15
 20
19
 30
7
 11
12.15
 21
19
 31
7
 12
12.15
 22
19
 32
8
 13
11.15
 23
19
 33
8
  0
3DFACE
  8
FACES
 10
12.15
 20
19
 30
7
 11
13.15
 21
19
 31
7
 12
13.15
 22
19
 32
8
 13
12.15
 23
19
 33
8
  0
3DFACE
  8
FACES
 10
13.15
 20
19
 30
7
 11
14.15
 21
19
 31
7
 12
14.15
 22
19
 32
8
 13
13.15
 23
19
 33
8
  0
3DFACE
  8
FACES
 10
14.15
 20
19
 30
7
 11
15.15
 21
19
 31
7
 12
15.15
 22
19
 32
8
 13
14.15
 23
19
 33
8
  0
3DFACE
  8
FACES
 10
15.15
 20
19
 30
7
 11
16.15
 21
19
 31
7
 12
16.15
 22
19
 32
8
 13
15.15
 23
19
 33
8
  0
3DFACE
  8
FACES
 10
16.15
 20
19
 30
7
 11
17.15
 21
19
 31
7
 12
17.15
 22
19
 32
8
 13
16.15
 23
19
 33
8
  0
3DFACE
  8
FACES
 10
17.15
 20
19
 30
7
 11
18.15
 21
19
 31
7
 12
18.15
 22
19
 32
8
 13
17.15
 23
19
 33
8
  0
3DFACE
  8
FACES
 10
18.15
 20
19
 30
7
 11
19.15
 21
19
 31
7
 12
19.15
 22
19
 32
8
 13
18.15
 23
19
 33
8
  0
3DFACE
  8
FACES
 10
19.15
 20
19
 30
7
 11
20.15
 21
19
 31
7
 12
20.15
 22
19
 32
8
 13
19.15
 23
19
 33
8
  0
3DFACE
  8
FACES
 10
20.15
 20
19
 30
7
 11
21.15
 21
19
 31
7
 12
21.15
 22
19
 32
8
 13
20.15
 23
19
 33
8
  0
3DFACE
  8
FACES
 10
21.15
 20
19
 30
7
 11
22.15
 21
19
 31
7
 12
22.15
 22
19
 32
8
 13
21.15
 23
19
 33
8
  0
3DFACE
  8
FACES
 10
22.15
 20
19
 30
7
 11
23.15
 21
19
 31
7
 12
23.15
 22
19
 32
8
 13
22.15
 23
19
 33
8
  0
3DFACE
  8
FACES
 10
23.15
 20
19
 30
7
 11
24.15
 21
19
 31
7
 12
24.15
 22
19
 32
8
 13
23.15
 23
19
 33
8
  0
3DFACE
  8
FACES
 10
24.15
 20
19
 30
7
 11
25.15
 21
19
 31
7
 12
25.15
 22
19
 32
8
 13
24.15
 23
19
 33
8
  0
3DFACE
  8
FACES
 10
25.15
 20
19
 30
7
 11
25.15
 21
18
 31
7
 12
25.15
 22
18
 32
8
 13
25.15
 23
19
 33
8
  0
3DFACE
  8
FACES
 10
0
 20
19
 30
8
 11
1.15
 21
19
 31
8
 12
1.15
 22
19
 32
9
 13
0
 23
19
 33
9
  0
3DFACE
  8
FACES
 10
0
 20
18
 30
8
 11
0
 21
19
 31
8
 12
0
 22
19
 32
9
 13
0
 23
18
 33
9
  0
3DFACE
  8
FACES
 10
1.15
 20
19
 30
8
 11
2.15
 21
19
 31
8
 12
2.15
 22
19
 32
9
 13
1.15
 23
19
 33
9
  0
3DFACE
  8
FACES
 10
2.15
 20
19
 30
8
 11
3.15
 21
19
 31
8
 12
3.15
 22
19
 32
9
 13
2.15
 23
19
 33
9
  0
3DFACE
  8
FACES
 10
3.15
 20
19
 30
8
 11
4.15
 21
19
 31
8
 12
4.15
 22
19
 32
9
 13
3.15
 23
19
 33
9
  0
3DFACE
  8
FACES
 10
4.15
 20
19
 30
8
 11
5.15
 21
19
 31
8
 12
5.15
 22
19
 32
9
 13
4.15
 23
19
 33
9
  0
3DFACE
  8
FACES
 10
5.15
 20
19
 30
8
 11
6.15
 21
19
 31
8
 12
6.15
 22
19
 32
9
 13
5.15
 23
19
 33
9
  0
3DFACE
  8
FACES
 10
6.15
 20
19
 30
8
 11
7.15
 21
19
 31
8
 12
7.15
 22
19
 32
9
 13
6.15
 23
19
 33
9
  0
3DFACE
  8
FACES
 10
7.15
 20
19
 30
8
 11
8.15
 21
19
 31
8
 12
8.15
 22
19
 32
9
 13
7.15
 23
19
 33
9
  0
3DFACE
  8
FACES
 10
8.15
 20
19
 30
8
 11
9.15
 21
19
 31
8
 12
9.15
 22
19
 32
9
 13
8.15
 23
19
 33
9
  0
3DFACE
  8
FACES
 10
9.15
 20
19
 30
8
 11
10.15
 21
19
 31
8
 12
10.15
 22
19
 32
9
 13
9.15
 23
19
 33
9
  0
3DFACE
  8
FACES
 10
10.15
 20
19
 30
8
 11
11.15
 21
19
 31
8
 12
11.15
 22
19
 32
9
 13
10.15
 23
19
 33
9
  0
3DFACE
  8
FACES
 10
11.15
 20
19
 30
8
 11
12.15
 21
19
 31
8
 12
12.15
 22
19
 32
9
 13
11.15
 23
19
 33
9
  0
3DFACE
  8
FACES
 10
12.15
 20
19
 30
8
 11
13.15
 21
19
 31
8
 12
13.15
 22
19
 32
9
 13
12.15
 23
19
 33
9
  0
3DFACE
  8
FACES
 10
13.15
 20
19
 30
8
 11
14.15
 21
19
 31
8
 12
14.15
 22
19
 32
9
 13
13.15
 23
19
 33
9
  0
3DFACE
  8
FACES
 10
14.15
 20
19
 30
8
 11
15.15
 21
19
 31
8
 12
15.15
 22
19
 32
9
 13
14.15
 23
19
 33
9
  0
3DFACE
  8
FACES
 10
15.15
 20
19
 30
8
 11
16.15
 21
19
 31
8
 12
16.15
 22
19
 32
9
 13
15.15
 23
19
 33
9
  0
3DFACE
  8
FACES
 10
16.15
 20
19
 30
8
 11
17.15
 21
19
 31
8
 12
17.15
 22
19
 32
9
 13
16.15
 23
19
 33
9
  0
3DFACE
  8
FACES
 10
17.15
 20
19
 30
8
 11
18.15
 21
19
 31
8
 12
18.15
 22
19
 32
9
 13
17.15
 23
19
 33
9
  0
3DFACE
  8
FACES
 10
18.15
 20
19
 30
8
 11
19.15
 21
19
 31
8
 12
19.15
 22
19
 32
9
 13
18.15
 23
19
 33
9
  0
3DFACE
  8
FACES
 10
19.15
 20
19
 30
8
 11
20.15
 21
19
 31
8
 12
20.15
 22
19
 32
9
 13
19.15
 23
19
 33
9
  0
3DFACE
  8
FACES
 10
20.15
 20
19
 30
8
 11
21.15
 21
19
 31
8
 12
21.15
 22
19
 32
9
 13
20.15
 23
19
 33
9
  0
3DFACE
  8
FACES
 10
21.15
 20
19
 30
8
 11
22.15
 21
19
 31
8
 12
22.15
 22
19
 32
9
 13
21.15
 23
19
 33
9
  0
3DFACE
  8
FACES
 10
22.15
 20
19
 30
8
 11
23.15
 21
19
 31
8
 12
23.15
 22
19
 32
9
 13
22.15
 23
19
 33
9
  0
3DFACE
  8
FACES
 10
23.15
 20
19
 30
8
 11
24.15
 21
19
 31
8
 12
24.15
 22
19
 32
9
 13
23.15
 23
19
 33
9
  0
3DFACE
  8
FACES
 10
24.15
 20
19
 30
8
 11
25.15
 21
19
 31
8
 12
25.15
 22
19
 32
9
 13
24.15
 23
19
 33
9
  0
3DFACE
  8
FACES
 10
25.15
 20
19
 30
8
 11
25.15
 21
18
 31
8
 12
25.15
 22
18
 32
9
 13
25.15
 23
19
 33
9
  0
3DFACE
  8
FACES
 10
25.15
 20
2
 30
1
 11
25.15
 21
1
 31
1
 12
25.15
 22
1
 32
2
 13
25.15
 23
2
 33
2
  0
3DFACE
  8
FACES
 10
25.15
 20
3
 30
1
 11
25.15
 21
2
 31
1
 12
25.15
 22
2
 32
2
 13
25.15
 23
3
 33
2
  0
3DFACE
  8
FACES
 10
25.15
 20
4
 30
1
 11
25.15
 21
3
 31
1
 12
25.15
 22
3
 32
2
 13
25.15
 23
4
 33
2
  0
3DFACE
  8
FACES
 10
25.15
 20
5
 30
1
 11
25.15
 21
4
 31
1
 12
25.15
 22
4
 32
2
 13
25.15
 23
5
 33
2
  0
3DFACE
  8
FACES
 10
25.15
 20
6
 30
1
 11
25.15
 21
5
 31
1
 12
25.15
 22
5
 32
2
 13
25.15
 23
6
 33
2
  0
3DFACE
  8
FACES
 10
25.15
 20
7
 30
1
 11
25.15
 21
6
 31
1
 12
25.15
 22
6
 32
2
 13
25.15
 23
7
 33
2
  0
3DFACE
  8
FACES
 10
25.15
 20
8
 30
1
 11
25.15
 21
7
 31
1
 12
25.15
 22
7
 32
2
 13
25.15
 23
8
 33
2
  0
3DFACE
  8
FACES
 10
25.15
 20
9
 30
1
 11
25.15
 21
8
 31
1
 12
25.15
 22
8
 32
2
 13
25.15
 23
9
 33
2
  0
3DFACE
  8
FACES
 10
25.15
 20
10
 30
1
 11
25.15
 21
9
 31
1
 12
25.15
 22
9
 32
2
 13
25.15
 23
10
 33
2
  0
3DFACE
  8
FACES
 10
25.15
 20
11
 30
1
 11
25.15
 21
10
 31
1
 12
25.15
 22
10
 32
2
 13
25.15
 23
11
 33
2
  0
3DFACE
  8
FACES
 10
25.15
 20
12
 30
1
 11
25.15
 21
11
 31
1
 12
25.15
 22
11
 32
2
 13
25.15
 23
12
 33
2
  0
3DFACE
  8
FACES
 10
25.15
 20
13
 30
1
 11
25.15
 21
12
 31
1
 12
25.15
 22
12
 32
2
 13
25.15
 23
13
 33
2
  0
3DFACE
  8
FACES
 10
25.15
 20
14
 30
1
 11
25.15
 21
13
 31
1
 12
25.15
 22
13
 32
2
 13
25.15
 23
14
 33
2
  0
3DFACE
  8
FACES
 10
25.15
 20
15
 30
1
 11
25.15
 21
14
 31
1
 12
25.15
 22
14
 32
2
 13
25.15
 23
15
 33
2
  0
3DFACE
  8
FACES
 10
25.15
 20
16
 30
1
 11
25.15
 21
15
 31
1
 12
25.15
 22
15
 32
2
 13
25.15
 23
16
 33
2
  0
3DFACE
  8
FACES
 10
25.15
 20
17
 30
1
 11
25.15
 21
16
 31
1
 12
25.15
 22
16
 32
2
 13
25.15
 23
17
 33
2
  0
3DFACE
  8
FACES
 10
25.15
 20
18
 30
1
 11
25.15
 21
17
 31
1
 12
25.15
 22
17
 32
2
 13
25.15
 23
18
 33
2
  0
3DFACE
  8
FACES
 10
25.15
 20
2
 30
2
 11
25.15
 21
1
 31
2
 12
25.15
 22
1
 32
3
 13
25.15
 23
2
 33
3
  0
3DFACE
  8
FACES
 10
25.15
 20
3
 30
2
 11
25.15
 21
2
 31
2
 12
25.15
 22
2
 32
3
 13
25.15
 23
3
 33
3
  0
3DFACE
  8
FACES
 10
25.15
 20
4
 30
2
 11
25.15
 21
3
 31
2
 12
25.15
 22
3
 32
3
 13
25.15
 23
4
 33
3
  0
3DFACE
  8
FACES
 10
25.15
 20
5
 30
2
 11
25.15
 21
4
 31
2
 12
25.15
 22
4
 32
3
 13
25.15
 23
5
 33
3
  0
3DFACE
  8
FACES
 10
25.15
 20
6
 30
2
 11
25.15
 21
5
 31
2
 12
25.15
 22
5
 32
3
 13
25.15
 23
6
 33
3
  0
3DFACE
  8
FACES
 10
25.15
 20
7
 30
2
 11
25.15
 21
6
 31
2
 12
25.15
 22
6
 32
3
 13
25.15
 23
7
 33
3
  0
3DFACE
  8
FACES
 10
25.15
 20
8
 30
2
 11
25.15
 21
7
 31
2
 12
25.15
 22
7
 32
3
 13
25.15
 23
8
 33
3
  0
3DFACE
  8
FACES
 10
25.15
 20
9
 30
2
 11
25.15
 21
8
 31
2
 12
25.15
 22
8
 32
3
 13
25.15
 23
9
 33
3
  0
3DFACE
  8
FACES
 10
25.15
 20
10
 30
2
 11
25.15
 21
9
 31
2
 12
25.15
 22
9
 32
3
 13
25.15
 23
10
 33
3
  0
3DFACE
  8
FACES
 10
25.15
 20
11
 30
2
 11
25.15
 21
10
 31
2
 12
25.15
 22
10
 32
3
 13
25.15
 23
11
 33
3
  0
3DFACE
  8
FACES
 10
25.15
 20
12
 30
2
 11
25.15
 21
11
 31
2
 12
25.15
 22
11
 32
3
 13
25.15
 23
12
 33
3
  0
3DFACE
  8
FACES
 10
25.15
 20
13
 30
2
 11
25.15
 21
12
 31
2
 12
25.15
 22
12
 32
3
 13
25.15
 23
13
 33
3
  0
3DFACE
  8
FACES
 10
25.15
 20
14
 30
2
 11
25.15
 21
13
 31
2
 12
25.15
 22
13
 32
3
 13
25.15
 23
14
 33
3
  0
3DFACE
  8
FACES
 10
25.15
 20
15
 30
2
 11
25.15
 21
14
 31
2
 12
25.15
 22
14
 32
3
 13
25.15
 23
15
 33
3
  0
3DFACE
  8
FACES
 10
25.15
 20
16
 30
2
 11
25.15
 21
15
 31
2
 12
25.15
 22
15
 32
3
 13
25.15
 23
16
 33
3
  0
3DFACE
  8
FACES
 10
25.15
 20
17
 30
2
 11
25.15
 21
16
 31
2
 12
25.15
 22
16
 32
3
 13
25.15
 23
17
 33
3
  0
3DFACE
  8
FACES
 10
25.15
 20
18
 30
2
 11
25.15
 21
17
 31
2
 12
25.15
 22
17
 32
3
 13
25.15
 23
18
 33
3
  0
3DFACE
  8
FACES
 10
25.15
 20
2
 30
3
 11
25.15
 21
1
 31
3
 12
25.15
 22
1
 32
4
 13
25.15
 23
2
 33
4
  0
3DFACE
  8
FACES
 10
25.15
 20
3
 30
3
 11
25.15
 21
2
 31
3
 12
25.15
 22
2
 32
4
 13
25.15
 23
3
 33
4
  0
3DFACE
  8
FACES
 10
25.15
 20
4
 30
3
 11
25.15
 21
3
 31
3
 12
25.15
 22
3
 32
4
 13
25.15
 23
4
 33
4
  0
3DFACE
  8
FACES
 10
25.15
 20
5
 30
3
 11
25.15
 21
4
 31
3
 12
25.15
 22
4
 32
4
 13
25.15
 23
5
 33
4
  0
3DFACE
  8
FACES
 10
25.15
 20
6
 30
3
 11
25.15
 21
5
 31
3
 12
25.15
 22
5
 32
4
 13
25.15
 23
6
 33
4
  0
3DFACE
  8
FACES
 10
25.15
 20
7
 30
3
 11
25.15
 21
6
 31
3
 12
25.15
 22
6
 32
4
 13
25.15
 23
7
 33
4
  0
3DFACE
  8
FACES
 10
25.15
 20
8
 30
3
 11
25.15
 21
7
 31
3
 12
25.15
 22
7
 32
4
 13
25.15
 23
8
 33
4
  0
3DFACE
  8
FACES
 10
25.15
 20
9
 30
3
 11
25.15
 21
8
 31
3
 12
25.15
 22
8
 32
4
 13
25.15
 23
9
 33
4
  0
3DFACE
  8
FACES
 10
25.15
 20
10
 30
3
 11
25.15
 21
9
 31
3
 12
25.15
 22
9
 32
4
 13
25.15
 23
10
 33
4
  0
3DFACE
  8
FACES
 10
25.15
 20
11
 30
3
 11
25.15
 21
10
 31
3
 12
25.15
 22
10
 32
4
 13
25.15
 23
11
 33
4
  0
3DFACE
  8
FACES
 10
25.15
 20
12
 30
3
 11
25.15
 21
11
 31
3
 12
25.15
 22
11
 32
4
 13
25.15
 23
12
 33
4
  0
3DFACE
  8
FACES
 10
25.15
 20
13
 30
3
 11
25.15
 21
12
 31
3
 12
25.15
 22
12
 32
4
 13
25.15
 23
13
 33
4
  0
3DFACE
  8
FACES
 10
25.15
 20
14
 30
3
 11
25.15
 21
13
 31
3
 12
25.15
 22
13
 32
4
 13
25.15
 23
14
 33
4
  0
3DFACE
  8
FACES
 10
25.15
 20
15
 30
3
 11
25.15
 21
14
 31
3
 12
25.15
 22
14
 32
4
 13
25.15
 23
15
 33
4
  0
3DFACE
  8
FACES
 10
25.15
 20
16
 30
3
 11
25.15
 21
15
 31
3
 12
25.15
 22
15
 32
4
 13
25.15
 23
16
 33
4
  0
3DFACE
  8
FACES
 10
25.15
 20
17
 30
3
 11
25.15
 21
16
 31
3
 12
25.15
 22
16
 32
4
 13
25.15
 23
17
 33
4
  0
3DFACE
  8
FACES
 10
25.15
 20
18
 30
3
 11
25.15
 21
17
 31
3
 12
25.15
 22
17
 32
4
 13
25.15
 23
18
 33
4
  0
3DFACE
  8
FACES
 10
25.15
 20
2
 30
4
 11
25.15
 21
1
 31
4
 12
25.15
 22
1
 32
5
 13
25.15
 23
2
 33
5
  0
3DFACE
  8
FACES
 10
25.15
 20
3
 30
4
 11
25.15
 21
2
 31
4
 12
25.15
 22
2
 32
5
 13
25.15
 23
3
 33
5
  0
3DFACE
  8
FACES
 10
25.15
 20
4
 30
4
 11
25.15
 21
3
 31
4
 12
25.15
 22
3
 32
5
 13
25.15
 23
4
 33
5
  0
3DFACE
  8
FACES
 10
25.15
 20
5
 30
4
 11
25.15
 21
4
 31
4
 12
25.15
 22
4
 32
5
 13
25.15
 23
5
 33
5
  0
3DFACE
  8
FACES
 10
25.15
 20
6
 30
4
 11
25.15
 21
5
 31
4
 12
25.15
 22
5
 32
5
 13
25.15
 23
6
 33
5
  0
3DFACE
  8
FACES
 10
25.15
 20
7
 30
4
 11
25.15
 21
6
 31
4
 12
25.15
 22
6
 32
5
 13
25.15
 23
7
 33
5
  0
3DFACE
  8
FACES
 10
25.15
 20
8
 30
4
 11
25.15
 21
7
 31
4
 12
25.15
 22
7
 32
5
 13
25.15
 23
8
 33
5
  0
3DFACE
  8
FACES
 10
25.15
 20
9
 30
4
 11
25.15
 21
8
 31
4
 12
25.15
 22
8
 32
5
 13
25.15
 23
9
 33
5
  0
3DFACE
  8
FACES
 10
25.15
 20
10
 30
4
 11
25.15
 21
9
 31
4
 12
25.15
 22
9
 32
5
 13
25.15
 23
10
 33
5
  0
3DFACE
  8
FACES
 10
25.15
 20
11
 30
4
 11
25.15
 21
10
 31
4
 12
25.15
 22
10
 32
5
 13
25.15
 23
11
 33
5
  0
3DFACE
  8
FACES
 10
25.15
 20
12
 30
4
 11
25.15
 21
11
 31
4
 12
25.15
 22
11
 32
5
 13
25.15
 23
12
 33
5
  0
3DFACE
  8
FACES
 10
25.15
 20
13
 30
4
 11
25.15
 21
12
 31
4
 12
25.15
 22
12
 32
5
 13
25.15
 23
13
 33
5
  0
3DFACE
  8
FACES
 10
25.15
 20
14
 30
4
 11
25.15
 21
13
 31
4
 12
25.15
 22
13
 32
5
 13
25.15
 23
14
 33
5
  0
3DFACE
  8
FACES
 10
25.15
 20
15
 30
4
 11
25.15
 21
14
 31
4
 12
25.15
 22
14
 32
5
 13
25.15
 23
15
 33
5
  0
3DFACE
  8
FACES
 10
25.15
 20
16
 30
4
 11
25.15
 21
15
 31
4
 12
25.15
 22
15
 32
5
 13
25.15
 23
16
 33
5
  0
3DFACE
  8
FACES
 10
25.15
 20
17
 30
4
 11
25.15
 21
16
 31
4
 12
25.15
 22
16
 32
5
 13
25.15
 23
17
 33
5
  0
3DFACE
  8
FACES
 10
25.15
 20
18
 30
4
 11
25.15
 21
17
 31
4
 12
25.15
 22
17
 32
5
 13
25.15
 23
18
 33
5
  0
3DFACE
  8
FACES
 10
25.15
 20
2
 30
5
 11
25.15
 21
1
 31
5
 12
25.15
 22
1
 32
6
 13
25.15
 23
2
 33
6
  0
3DFACE
  8
FACES
 10
25.15
 20
3
 30
5
 11
25.15
 21
2
 31
5
 12
25.15
 22
2
 32
6
 13
25.15
 23
3
 33
6
  0
3DFACE
  8
FACES
 10
25.15
 20
4
 30
5
 11
25.15
 21
3
 31
5
 12
25.15
 22
3
 32
6
 13
25.15
 23
4
 33
6
  0
3DFACE
  8
FACES
 10
25.15
 20
5
 30
5
 11
25.15
 21
4
 31
5
 12
25.15
 22
4
 32
6
 13
25.15
 23
5
 33
6
  0
3DFACE
  8
FACES
 10
25.15
 20
6
 30
5
 11
25.15
 21
5
 31
5
 12
25.15
 22
5
 32
6
 13
25.15
 23
6
 33
6
  0
3DFACE
  8
FACES
 10
25.15
 20
7
 30
5
 11
25.15
 21
6
 31
5
 12
25.15
 22
6
 32
6
 13
25.15
 23
7
 33
6
  0
3DFACE
  8
FACES
 10
25.15
 20
8
 30
5
 11
25.15
 21
7
 31
5
 12
25.15
 22
7
 32
6
 13
25.15
 23
8
 33
6
  0
3DFACE
  8
FACES
 10
25.15
 20
9
 30
5
 11
25.15
 21
8
 31
5
 12
25.15
 22
8
 32
6
 13
25.15
 23
9
 33
6
  0
3DFACE
  8
FACES
 10
25.15
 20
10
 30
5
 11
25.15
 21
9
 31
5
 12
25.15
 22
9
 32
6
 13
25.15
 23
10
 33
6
  0
3DFACE
  8
FACES
 10
25.15
 20
11
 30
5
 11
25.15
 21
10
 31
5
 12
25.15
 22
10
 32
6
 13
25.15
 23
11
 33
6
  0
3DFACE
  8
FACES
 10
25.15
 20
12
 30
5
 11
25.15
 21
11
 31
5
 12
25.15
 22
11
 32
6
 13
25.15
 23
12
 33
6
  0
3DFACE
  8
FACES
 10
25.15
 20
13
 30
5
 11
25.15
 21
12
 31
5
 12
25.15
 22
12
 32
6
 13
25.15
 23
13
 33
6
  0
3DFACE
  8
FACES
 10
25.15
 20
14
 30
5
 11
25.15
 21
13
 31
5
 12
25.15
 22
13
 32
6
 13
25.15
 23
14
 33
6
  0
3DFACE
  8
FACES
 10
25.15
 20
15
 30
5
 11
25.15
 21
14
 31
5
 12
25.15
 22
14
 32
6
 13
25.15
 23
15
 33
6
  0
3DFACE
  8
FACES
 10
25.15
 20
16
 30
5
 11
25.15
 21
15
 31
5
 12
25.15
 22
15
 32
6
 13
25.15
 23
16
 33
6
  0
3DFACE
  8
FACES
 10
25.15
 20
17
 30
5
 11
25.15
 21
16
 31
5
 12
25.15
 22
16
 32
6
 13
25.15
 23
17
 33
6
  0
3DFACE
  8
FACES
 10
25.15
 20
18
 30
5
 11
25.15
 21
17
 31
5
 12
25.15
 22
17
 32
6
 13
25.15
 23
18
 33
6
  0
3DFACE
  8
FACES
 10
25.15
 20
2
 30
6
 11
25.15
 21
1
 31
6
 12
25.15
 22
1
 32
7
 13
25.15
 23
2
 33
7
  0
3DFACE
  8
FACES
 10
25.15
 20
3
 30
6
 11
25.15
 21
2
 31
6
 12
25.15
 22
2
 32
7
 13
25.15
 23
3
 33
7
  0
3DFACE
  8
FACES
 10
25.15
 20
4
 30
6
 11
25.15
 21
3
 31
6
 12
25.15
 22
3
 32
7
 13
25.15
 23
4
 33
7
  0
3DFACE
  8
FACES
 10
25.15
 20
5
 30
6
 11
25.15
 21
4
 31
6
 12
25.15
 22
4
 32
7
 13
25.15
 23
5
 33
7
  0
3DFACE
  8
FACES
 10
25.15
 20
6
 30
6
 11
25.15
 21
5
 31
6
 12
25.15
 22
5
 32
7
 13
25.15
 23
6
 33
7
  0
3DFACE
  8
FACES
 10
25.15
 20
7
 30
6
 11
25.15
 21
6
 31
6
 12
25.15
 22
6
 32
7
 13
25.15
 23
7
 33
7
  0
3DFACE
  8
FACES
 10
25.15
 20
8
 30
6
 11
25.15
 21
7
 31
6
 12
25.15
 22
7
 32
7
 13
25.15
 23
8
 33
7
  0
3DFACE
  8
FACES
 10
25.15
 20
9
 30
6
 11
25.15
 21
8
 31
6
 12
25.15
 22
8
 32
7
 13
25.15
 23
9
 33
7
  0
3DFACE
  8
FACES
 10
25.15
 20
10
 30
6
 11
25.15
 21
9
 31
6
 12
25.15
 22
9
 32
7
 13
25.15
 23
10
 33
7
  0
3DFACE
  8
FACES
 10
25.15
 20
11
 30
6
 11
25.15
 21
10
 31
6
 12
25.15
 22
10
 32
7
 13
25.15
 23
11
 33
7
  0
3DFACE
  8
FACES
 10
25.15
 20
12
 30
6
 11
25.15
 21
11
 31
6
 12
25.15
 22
11
 32
7
 13
25.15
 23
12
 33
7
  0
3DFACE
  8
FACES
 10
25.15
 20
13
 30
6
 11
25.15
 21
12
 31
6
 12
25.15
 22
12
 32
7
 13
25.15
 23
13
 33
7
  0
3DFACE
  8
FACES
 10
25.15
 20
14
 30
6
 11
25.15
 21
13
 31
6
 12
25.15
 22
13
 32
7
 13
25.15
 23
14
 33
7
  0
3DFACE
  8
FACES
 10
25.15
 20
15
 30
6
 11
25.15
 21
14
 31
6
 12
25.15
 22
14
 32
7
 13
25.15
 23
15
 33
7
  0
3DFACE
  8
FACES
 10
25.15
 20
16
 30
6
 11
25.15
 21
15
 31
6
 12
25.15
 22
15
 32
7
 13
25.15
 23
16
 33
7
  0
3DFACE
  8
FACES
 10
25.15
 20
17
 30
6
 11
25.15
 21
16
 31
6
 12
25.15
 22
16
 32
7
 13
25.15
 23
17
 33
7
  0
3DFACE
  8
FACES
 10
25.15
 20
18
 30
6
 11
25.15
 21
17
 31
6
 12
25.15
 22
17
 32
7
 13
25.15
 23
18
 33
7
  0
3DFACE
  8
FACES
 10
25.15
 20
2
 30
7
 11
25.15
 21
1
 31
7
 12
25.15
 22
1
 32
8
 13
25.15
 23
2
 33
8
  0
3DFACE
  8
FACES
 10
25.15
 20
3
 30
7
 11
25.15
 21
2
 31
7
 12
25.15
 22
2
 32
8
 13
25.15
 23
3
 33
8
  0
3DFACE
  8
FACES
 10
25.15
 20
4
 30
7
 11
25.15
 21
3
 31
7
 12
25.15
 22
3
 32
8
 13
25.15
 23
4
 33
8
  0
3DFACE
  8
FACES
 10
25.15
 20
5
 30
7
 11
25.15
 21
4
 31
7
 12
25.15
 22
4
 32
8
 13
25.15
 23
5
 33
8
  0
3DFACE
  8
FACES
 10
25.15
 20
6
 30
7
 11
25.15
 21
5
 31
7
 12
25.15
 22
5
 32
8
 13
25.15
 23
6
 33
8
  0
3DFACE
  8
FACES
 10
25.15
 20
7
 30
7
 11
25.15
 21
6
 31
7
 12
25.15
 22
6
 32
8
 13
25.15
 23
7
 33
8
  0
3DFACE
  8
FACES
 10
25.15
 20
8
 30
7
 11
25.15
 21
7
 31
7
 12
25.15
 22
7
 32
8
 13
25.15
 23
8
 33
8
  0
3DFACE
  8
FACES
 10
25.15
 20
9
 30
7
 11
25.15
 21
8
 31
7
 12
25.15
 22
8
 32
8
 13
25.15
 23
9
 33
8
  0
3DFACE
  8
FACES
 10
25.15
 20
10
 30
7
 11
25.15
 21
9
 31
7
 12
25.15
 22
9
 32
8
 13
25.15
 23
10
 33
8
  0
3DFACE
  8
FACES
 10
25.15
 20
11
 30
7
 11
25.15
 21
10
 31
7
 12
25.15
 22
10
 32
8
 13
25.15
 23
11
 33
8
  0
3DFACE
  8
FACES
 10
25.15
 20
12
 30
7
 11
25.15
 21
11
 31
7
 12
25.15
 22
11
 32
8
 13
25.15
 23
12
 33
8
  0
3DFACE
  8
FACES
 10
25.15
 20
13
 30
7
 11
25.15
 21
12
 31
7
 12
25.15
 22
12
 32
8
 13
25.15
 23
13
 33
8
  0
3DFACE
  8
FACES
 10
25.15
 20
14
 30
7
 11
25.15
 21
13
 31
7
 12
25.15
 22
13
 32
8
 13
25.15
 23
14
 33
8
  0
3DFACE
  8
FACES
 10
25.15
 20
15
 30
7
 11
25.15
 21
14
 31
7
 12
25.15
 22
14
 32
8
 13
25.15
 23
15
 33
8
  0
3DFACE
  8
FACES
 10
25.15
 20
16
 30
7
 11
25.15
 21
15
 31
7
 12
25.15
 22
15
 32
8
 13
25.15
 23
16
 33
8
  0
3DFACE
  8
FACES
 10
25.15
 20
17
 30
7
 11
25.15
 21
16
 31
7
 12
25.15
 22
16
 32
8
 13
25.15
 23
17
 33
8
  0
3DFACE
  8
FACES
 10
25.15
 20
18
 30
7
 11
25.15
 21
17
 31
7
 12
25.15
 22
17
 32
8
 13
25.15
 23
18
 33
8
  0
3DFACE
  8
FACES
 10
25.15
 20
2
 30
8
 11
25.15
 21
1
 31
8
 12
25.15
 22
1
 32
9
 13
25.15
 23
2
 33
9
  0
3DFACE
  8
FACES
 10
25.15
 20
3
 30
8
 11
25.15
 21
2
 31
8
 12
25.15
 22
2
 32
9
 13
25.15
 23
3
 33
9
  0
3DFACE
  8
FACES
 10
25.15
 20
4
 30
8
 11
25.15
 21
3
 31
8
 12
25.15
 22
3
 32
9
 13
25.15
 23
4
 33
9
  0
3DFACE
  8
FACES
 10
25.15
 20
5
 30
8
 11
25.15
 21
4
 31
8
 12
25.15
 22
4
 32
9
 13
25.15
 23
5
 33
9
  0
3DFACE
  8
FACES
 10
25.15
 20
6
 30
8
 11
25.15
 21
5
 31
8
 12
25.15
 22
5
 32
9
 13
25.15
 23
6
 33
9
  0
3DFACE
  8
FACES
 10
25.15
 20
7
 30
8
 11
25.15
 21
6
 31
8
 12
25.15
 22
6
 32
9
 13
25.15
 23
7
 33
9
  0
3DFACE
  8
FACES
 10
25.15
 20
8
 30
8
 11
25.15
 21
7
 31
8
 12
25.15
 22
7
 32
9
 13
25.15
 23
8
 33
9
  0
3DFACE
  8
FACES
 10
25.15
 20
9
 30
8
 11
25.15
 21
8
 31
8
 12
25.15
 22
8
 32
9
 13
25.15
 23
9
 33
9
  0
3DFACE
  8
FACES
 10
25.15
 20
10
 30
8
 11
25.15
 21
9
 31
8
 12
25.15
 22
9
 32
9
 13
25.15
 23
10
 33
9
  0
3DFACE
  8
FACES
 10
25.15
 20
11
 30
8
 11
25.15
 21
10
 31
8
 12
25.15
 22
10
 32
9
 13
25.15
 23
11
 33
9
  0
3DFACE
  8
FACES
 10
25.15
 20
12
 30
8
 11
25.15
 21
11
 31
8
 12
25.15
 22
11
 32
9
 13
25.15
 23
12
 33
9
  0
3DFACE
  8
FACES
 10
25.15
 20
13
 30
8
 11
25.15
 21
12
 31
8
 12
25.15
 22
12
 32
9
 13
25.15
 23
13
 33
9
  0
3DFACE
  8
FACES
 10
25.15
 20
14
 30
8
 11
25.15
 21
13
 31
8
 12
25.15
 22
13
 32
9
 13
25.15
 23
14
 33
9
  0
3DFACE
  8
FACES
 10
25.15
 20
15
 30
8
 11
25.15
 21
14
 31
8
 12
25.15
 22
14
 32
9
 13
25.15
 23
15
 33
9
  0
3DFACE
  8
FACES
 10
25.15
 20
16
 30
8
 11
25.15
 21
15
 31
8
 12
25.15
 22
15
 32
9
 13
25.15
 23
16
 33
9
  0
3DFACE
  8
FACES
 10
25.15
 20
17
 30
8
 11
25.15
 21
16
 31
8
 12
25.15
 22
16
 32
9
 13
25.15
 23
17
 33
9
  0
3DFACE
  8
FACES
 10
25.15
 20
18
 30
8
 11
25.15
 21
17
 31
8
 12
25.15
 22
17
 32
9
 13
25.15
 23
18
 33
9
  0
3DFACE
  8
FACES
 10
0
 20
1
 30
1
 11
0
 21
2
 31
1
 12
0
 22
2
 32
2
 13
0
 23
1
 33
2
  0
3DFACE
  8
FACES
 10
0
 20
2
 30
1
 11
0
 21
3
 31
1
 12
0
 22
3
 32
2
 13
0
 23
2
 33
2
  0
3DFACE
  8
FACES
 10
0
 20
3
 30
1
 11
0
 21
4
 31
1
 12
0
 22
4
 32
2
 13
0
 23
3
 33
2
  0
3DFACE
  8
FACES
 10
0
 20
4
 30
1
 11
0
 21
5
 31
1
 12
0
 22
5
 32
2
 13
0
 23
4
 33
2
  0
3DFACE
  8
FACES
 10
0
 20
5
 30
1
 11
0
 21
6
 31
1
 12
0
 22
6
 32
2
 13
0
 23
5
 33
2
  0
3DFACE
  8
FACES
 10
0
 20
6
 30
1
 11
0
 21
7
 31
1
 12
0
 22
7
 32
2
 13
0
 23
6
 33
2
  0
3DFACE
  8
FACES
 10
0
 20
7
 30
1
 11
0
 21
8
 31
1
 12
0
 22
8
 32
2
 13
0
 23
7
 33
2
  0
3DFACE
  8
FACES
 10
0
 20
8
 30
1
 11
0
 21
9
 31
1
 12
0
 22
9
 32
2
 13
0
 23
8
 33
2
  0
3DFACE
  8
FACES
 10
0
 20
9
 30
1
 11
0
 21
10
 31
1
 12
0
 22
10
 32
2
 13
0
 23
9
 33
2
  0
3DFACE
  8
FACES
 10
0
 20
10
 30
1
 11
0
 21
11
 31
1
 12
0
 22
11
 32
2
 13
0
 23
10
 33
2
  0
3DFACE
  8
FACES
 10
0
 20
11
 30
1
 11
0
 21
12
 31
1
 12
0
 22
12
 32
2
 13
0
 23
11
 33
2
  0
3DFACE
  8
FACES
 10
0
 20
12
 30
1
 11
0
 21
13
 31
1
 12
0
 22
13
 32
2
 13
0
 23
12
 33
2
  0
3DFACE
  8
FACES
 10
0
 20
13
 30
1
 11
0
 21
14
 31
1
 12
0
 22
14
 32
2
 13
0
 23
13
 33
2
  0
3DFACE
  8
FACES
 10
0
 20
14
 30
1
 11
0
 21
15
 31
1
 12
0
 22
15
 32
2
 13
0
 23
14
 33
2
  0
3DFACE
  8
FACES
 10
0
 20
15
 30
1
 11
0
 21
16
 31
1
 12
0
 22
16
 32
2
 13
0
 23
15
 33
2
  0
3DFACE
  8
FACES
 10
0
 20
16
 30
1
 11
0
 21
17
 31
1
 12
0
 22
17
 32
2
 13
0
 23
16
 33
2
  0
3DFACE
  8
FACES
 10
0
 20
17
 30
1
 11
0
 21
18
 31
1
 12
0
 22
18
 32
2
 13
0
 23
17
 33
2
  0
3DFACE
  8
FACES
 10
0
 20
1
 30
2
 11
0
 21
2
 31
2
 12
0
 22
2
 32
3
 13
0
 23
1
 33
3
  0
3DFACE
  8
FACES
 10
0
 20
2
 30
2
 11
0
 21
3
 31
2
 12
0
 22
3
 32
3
 13
0
 23
2
 33
3
  0
3DFACE
  8
FACES
 10
0
 20
3
 30
2
 11
0
 21
4
 31
2
 12
0
 22
4
 32
3
 13
0
 23
3
 33
3
  0
3DFACE
  8
FACES
 10
0
 20
4
 30
2
 11
0
 21
5
 31
2
 12
0
 22
5
 32
3
 13
0
 23
4
 33
3
  0
3DFACE
  8
FACES
 10
0
 20
5
 30
2
 11
0
 21
6
 31
2
 12
0
 22
6
 32
3
 13
0
 23
5
 33
3
  0
3DFACE
  8
FACES
 10
0
 20
6
 30
2
 11
0
 21
7
 31
2
 12
0
 22
7
 32
3
 13
0
 23
6
 33
3
  0
3DFACE
  8
FACES
 10
0
 20
7
 30
2
 11
0
 21
8
 31
2
 12
0
 22
8
 32
3
 13
0
 23
7
 33
3
  0
3DFACE
  8
FACES
 10
0
 20
8
 30
2
 11
0
 21
9
 31
2
 12
0
 22
9
 32
3
 13
0
 23
8
 33
3
  0
3DFACE
  8
FACES
 10
0
 20
9
 30
2
 11
0
 21
10
 31
2
 12
0
 22
10
 32
3
 13
0
 23
9
 33
3
  0
3DFACE
  8
FACES
 10
0
 20
10
 30
2
 11
0
 21
11
 31
2
 12
0
 22
11
 32
3
 13
0
 23
10
 33
3
  0
3DFACE
  8
FACES
 10
0
 20
11
 30
2
 11
0
 21
12
 31
2
 12
0
 22
12
 32
3
 13
0
 23
11
 33
3
  0
3DFACE
  8
FACES
 10
0
 20
12
 30
2
 11
0
 21
13
 31
2
 12
0
 22
13
 32
3
 13
0
 23
12
 33
3
  0
3DFACE
  8
FACES
 10
0
 20
13
 30
2
 11
0
 21
14
 31
2
 12
0
 22
14
 32
3
 13
0
 23
13
 33
3
  0
3DFACE
  8
FACES
 10
0
 20
14
 30
2
 11
0
 21
15
 31
2
 12
0
 22
15
 32
3
 13
0
 23
14
 33
3
  0
3DFACE
  8
FACES
 10
0
 20
15
 30
2
 11
0
 21
16
 31
2
 12
0
 22
16
 32
3
 13
0
 23
15
 33
3
  0
3DFACE
  8
FACES
 10
0
 20
16
 30
2
 11
0
 21
17
 31
2
 12
0
 22
17
 32
3
 13
0
 23
16
 33
3
  0
3DFACE
  8
FACES
 10
0
 20
17
 30
2
 11
0
 21
18
 31
2
 12
0
 22
18
 32
3
 13
0
 23
17
 33
3
  0
3DFACE
  8
FACES
 10
0
 20
1
 30
3
 11
0
 21
2
 31
3
 12
0
 22
2
 32
4
 13
0
 23
1
 33
4
  0
3DFACE
  8
FACES
 10
0
 20
2
 30
3
 11
0
 21
3
 31
3
 12
0
 22
3
 32
4
 13
0
 23
2
 33
4
  0
3DFACE
  8
FACES
 10
0
 20
3
 30
3
 11
0
 21
4
 31
3
 12
0
 22
4
 32
4
 13
0
 23
3
 33
4
  0
3DFACE
  8
FACES
 10
0
 20
4
 30
3
 11
0
 21
5
 31
3
 12
0
 22
5
 32
4
 13
0
 23
4
 33
4
  0
3DFACE
  8
FACES
 10
0
 20
5
 30
3
 11
0
 21
6
 31
3
 12
0
 22
6
 32
4
 13
0
 23
5
 33
4
  0
3DFACE
  8
FACES
 10
0
 20
6
 30
3
 11
0
 21
7
 31
3
 12
0
 22
7
 32
4
 13
0
 23
6
 33
4
  0
3DFACE
  8
FACES
 10
0
 20
7
 30
3
 11
0
 21
8
 31
3
 12
0
 22
8
 32
4
 13
0
 23
7
 33
4
  0
3DFACE
  8
FACES
 10
0
 20
8
 30
3
 11
0
 21
9
 31
3
 12
0
 22
9
 32
4
 13
0
 23
8
 33
4
  0
3DFACE
  8
FACES
 10
0
 20
9
 30
3
 11
0
 21
10
 31
3
 12
0
 22
10
 32
4
 13
0
 23
9
 33
4
  0
3DFACE
  8
FACES
 10
0
 20
10
 30
3
 11
0
 21
11
 31
3
 12
0
 22
11
 32
4
 13
0
 23
10
 33
4
  0
3DFACE
  8
FACES
 10
0
 20
11
 30
3
 11
0
 21
12
 31
3
 12
0
 22
12
 32
4
 13
0
 23
11
 33
4
  0
3DFACE
  8
FACES
 10
0
 20
12
 30
3
 11
0
 21
13
 31
3
 12
0
 22
13
 32
4
 13
0
 23
12
 33
4
  0
3DFACE
  8
FACES
 10
0
 20
13
 30
3
 11
0
 21
14
 31
3
 12
0
 22
14
 32
4
 13
0
 23
13
 33
4
  0
3DFACE
  8
FACES
 10
0
 20
14
 30
3
 11
0
 21
15
 31
3
 12
0
 22
15
 32
4
 13
0
 23
14
 33
4
  0
3DFACE
  8
FACES
 10
0
 20
15
 30
3
 11
0
 21
16
 31
3
 12
0
 22
16
 32
4
 13
0
 23
15
 33
4
  0
3DFACE
  8
FACES
 10
0
 20
16
 30
3
 11
0
 21
17
 31
3
 12
0
 22
17
 32
4
 13
0
 23
16
 33
4
  0
3DFACE
  8
FACES
 10
0
 20
17
 30
3
 11
0
 21
18
 31
3
 12
0
 22
18
 32
4
 13
0
 23
17
 33
4
  0
3DFACE
  8
FACES
 10
0
 20
1
 30
4
 11
0
 21
2
 31
4
 12
0
 22
2
 32
5
 13
0
 23
1
 33
5
  0
3DFACE
  8
FACES
 10
0
 20
2
 30
4
 11
0
 21
3
 31
4
 12
0
 22
3
 32
5
 13
0
 23
2
 33
5
  0
3DFACE
  8
FACES
 10
0
 20
3
 30
4
 11
0
 21
4
 31
4
 12
0
 22
4
 32
5
 13
0
 23
3
 33
5
  0
3DFACE
  8
FACES
 10
0
 20
4
 30
4
 11
0
 21
5
 31
4
 12
0
 22
5
 32
5
 13
0
 23
4
 33
5
  0
3DFACE
  8
FACES
 10
0
 20
5
 30
4
 11
0
 21
6
 31
4
 12
0
 22
6
 32
5
 13
0
 23
5
 33
5
  0
3DFACE
  8
FACES
 10
0
 20
6
 30
4
 11
0
 21
7
 31
4
 12
0
 22
7
 32
5
 13
0
 23
6
 33
5
  0
3DFACE
  8
FACES
 10
0
 20
7
 30
4
 11
0
 21
8
 31
4
 12
0
 22
8
 32
5
 13
0
 23
7
 33
5
  0
3DFACE
  8
FACES
 10
0
 20
8
 30
4
 11
0
 21
9
 31
4
 12
0
 22
9
 32
5
 13
0
 23
8
 33
5
  0
3DFACE
  8
FACES
 10
0
 20
9
 30
4
 11
0
 21
10
 31
4
 12
0
 22
10
 32
5
 13
0
 23
9
 33
5
  0
3DFACE
  8
FACES
 10
0
 20
10
 30
4
 11
0
 21
11
 31
4
 12
0
 22
11
 32
5
 13
0
 23
10
 33
5
  0
3DFACE
  8
FACES
 10
0
 20
11
 30
4
 11
0
 21
12
 31
4
 12
0
 22
12
 32
5
 13
0
 23
11
 33
5
  0
3DFACE
  8
FACES
 10
0
 20
12
 30
4
 11
0
 21
13
 31
4
 12
0
 22
13
 32
5
 13
0
 23
12
 33
5
  0
3DFACE
  8
FACES
 10
0
 20
13
 30
4
 11
0
 21
14
 31
4
 12
0
 22
14
 32
5
 13
0
 23
13
 33
5
  0
3DFACE
  8
FACES
 10
0
 20
14
 30
4
 11
0
 21
15
 31
4
 12
0
 22
15
 32
5
 13
0
 23
14
 33
5
  0
3DFACE
  8
FACES
 10
0
 20
15
 30
4
 11
0
 21
16
 31
4
 12
0
 22
16
 32
5
 13
0
 23
15
 33
5
  0
3DFACE
  8
FACES
 10
0
 20
16
 30
4
 11
0
 21
17
 31
4
 12
0
 22
17
 32
5
 13
0
 23
16
 33
5
  0
3DFACE
  8
FACES
 10
0
 20
17
 30
4
 11
0
 21
18
 31
4
 12
0
 22
18
 32
5
 13
0
 23
17
 33
5
  0
3DFACE
  8
FACES
 10
0
 20
1
 30
5
 11
0
 21
2
 31
5
 12
0
 22
2
 32
6
 13
0
 23
1
 33
6
  0
3DFACE
  8
FACES
 10
0
 20
2
 30
5
 11
0
 21
3
 31
5
 12
0
 22
3
 32
6
 13
0
 23
2
 33
6
  0
3DFACE
  8
FACES
 10
0
 20
3
 30
5
 11
0
 21
4
 31
5
 12
0
 22
4
 32
6
 13
0
 23
3
 33
6
  0
3DFACE
  8
FACES
 10
0
 20
4
 30
5
 11
0
 21
5
 31
5
 12
0
 22
5
 32
6
 13
0
 23
4
 33
6
  0
3DFACE
  8
FACES
 10
0
 20
5
 30
5
 11
0
 21
6
 31
5
 12
0
 22
6
 32
6
 13
0
 23
5
 33
6
  0
3DFACE
  8
FACES
 10
0
 20
6
 30
5
 11
0
 21
7
 31
5
 12
0
 22
7
 32
6
 13
0
 23
6
 33
6
  0
3DFACE
  8
FACES
 10
0
 20
7
 30
5
 11
0
 21
8
 31
5
 12
0
 22
8
 32
6
 13
0
 23
7
 33
6
  0
3DFACE
  8
FACES
 10
0
 20
8
 30
5
 11
0
 21
9
 31
5
 12
0
 22
9
 32
6
 13
0
 23
8
 33
6
  0
3DFACE
  8
FACES
 10
0
 20
9
 30
5
 11
0
 21
10
 31
5
 12
0
 22
10
 32
6
 13
0
 23
9
 33
6
  0
3DFACE
  8
FACES
 10
0
 20
10
 30
5
 11
0
 21
11
 31
5
 12
0
 22
11
 32
6
 13
0
 23
10
 33
6
  0
3DFACE
  8
FACES
 10
0
 20
11
 30
5
 11
0
 21
12
 31
5
 12
0
 22
12
 32
6
 13
0
 23
11
 33
6
  0
3DFACE
  8
FACES
 10
0
 20
12
 30
5
 11
0
 21
13
 31
5
 12
0
 22
13
 32
6
 13
0
 23
12
 33
6
  0
3DFACE
  8
FACES
 10
0
 20
13
 30
5
 11
0
 21
14
 31
5
 12
0
 22
14
 32
6
 13
0
 23
13
 33
6
  0
3DFACE
  8
FACES
 10
0
 20
14
 30
5
 11
0
 21
15
 31
5
 12
0
 22
15
 32
6
 13
0
 23
14
 33
6
  0
3DFACE
  8
FACES
 10
0
 20
15
 30
5
 11
0
 21
16
 31
5
 12
0
 22
16
 32
6
 13
0
 23
15
 33
6
  0
3DFACE
  8
FACES
 10
0
 20
16
 30
5
 11
0
 21
17
 31
5
 12
0
 22
17
 32
6
 13
0
 23
16
 33
6
  0
3DFACE
  8
FACES
 10
0
 20
17
 30
5
 11
0
 21
18
 31
5
 12
0
 22
18
 32
6
 13
0
 23
17
 33
6
  0
3DFACE
  8
FACES
 10
0
 20
1
 30
6
 11
0
 21
2
 31
6
 12
0
 22
2
 32
7
 13
0
 23
1
 33
7
  0
3DFACE
  8
FACES
 10
0
 20
2
 30
6
 11
0
 21
3
 31
6
 12
0
 22
3
 32
7
 13
0
 23
2
 33
7
  0
3DFACE
  8
FACES
 10
0
 20
3
 30
6
 11
0
 21
4
 31
6
 12
0
 22
4
 32
7
 13
0
 23
3
 33
7
  0
3DFACE
  8
FACES
 10
0
 20
4
 30
6
 11
0
 21
5
 31
6
 12
0
 22
5
 32
7
 13
0
 23
4
 33
7
  0
3DFACE
  8
FACES
 10
0
 20
5
 30
6
 11
0
 21
6
 31
6
 12
0
 22
6
 32
7
 13
0
 23
5
 33
7
  0
3DFACE
  8
FACES
 10
0
 20
6
 30
6
 11
0
 21
7
 31
6
 12
0
 22
7
 32
7
 13
0
 23
6
 33
7
  0
3DFACE
  8
FACES
 10
0
 20
7
 30
6
 11
0
 21
8
 31
6
 12
0
 22
8
 32
7
 13
0
 23
7
 33
7
  0
3DFACE
  8
FACES
 10
0
 20
8
 30
6
 11
0
 21
9
 31
6
 12
0
 22
9
 32
7
 13
0
 23
8
 33
7
  0
3DFACE
  8
FACES
 10
0
 20
9
 30
6
 11
0
 21
10
 31
6
 12
0
 22
10
 32
7
 13
0
 23
9
 33
7
  0
3DFACE
  8
FACES
 10
0
 20
10
 30
6
 11
0
 21
11
 31
6
 12
0
 22
11
 32
7
 13
0
 23
10
 33
7
  0
3DFACE
  8
FACES
 10
0
 20
11
 30
6
 11
0
 21
12
 31
6
 12
0
 22
12
 32
7
 13
0
 23
11
 33
7
  0
3DFACE
  8
FACES
 10
0
 20
12
 30
6
 11
0
 21
13
 31
6
 12
0
 22
13
 32
7
 13
0
 23
12
 33
7
  0
3DFACE
  8
FACES
 10
0
 20
13
 30
6
 11
0
 21
14
 31
6
 12
0
 22
14
 32
7
 13
0
 23
13
 33
7
  0
3DFACE
  8
FACES
 10
0
 20
14
 30
6
 11
0
 21
15
 31
6
 12
0
 22
15
 32
7
 13
0
 23
14
 33
7
  0
3DFACE
  8
FACES
 10
0
 20
15
 30
6
 11
0
 21
16
 31
6
 12
0
 22
16
 32
7
 13
0
 23
15
 33
7
  0
3DFACE
  8
FACES
 10
0
 20
16
 30
6
 11
0
 21
17
 31
6
 12
0
 22
17
 32
7
 13
0
 23
16
 33
7
  0
3DFACE
  8
FACES
 10
0
 20
17
 30
6
 11
0
 21
18
 31
6
 12
0
 22
18
 32
7
 13
0
 23
17
 33
7
  0
3DFACE
  8
FACES
 10
0
 20
1
 30
7
 11
0
 21
2
 31
7
 12
0
 22
2
 32
8
 13
0
 23
1
 33
8
  0
3DFACE
  8
FACES
 10
0
 20
2
 30
7
 11
0
 21
3
 31
7
 12
0
 22
3
 32
8
 13
0
 23
2
 33
8
  0
3DFACE
  8
FACES
 10
0
 20
3
 30
7
 11
0
 21
4
 31
7
 12
0
 22
4
 32
8
 13
0
 23
3
 33
8
  0
3DFACE
  8
FACES
 10
0
 20
4
 30
7
 11
0
 21
5
 31
7
 12
0
 22
5
 32
8
 13
0
 23
4
 33
8
  0
3DFACE
  8
FACES
 10
0
 20
5
 30
7
 11
0
 21
6
 31
7
 12
0
 22
6
 32
8
 13
0
 23
5
 33
8
  0
3DFACE
  8
FACES
 10
0
 20
6
 30
7
 11
0
 21
7
 31
7
 12
0
 22
7
 32
8
 13
0
 23
6
 33
8
  0
3DFACE
  8
FACES
 10
0
 20
7
 30
7
 11
0
 21
8
 31
7
 12
0
 22
8
 32
8
 13
0
 23
7
 33
8
  0
3DFACE
  8
FACES
 10
0
 20
8
 30
7
 11
0
 21
9
 31
7
 12
0
 22
9
 32
8
 13
0
 23
8
 33
8
  0
3DFACE
  8
FACES
 10
0
 20
9
 30
7
 11
0
 21
10
 31
7
 12
0
 22
10
 32
8
 13
0
 23
9
 33
8
  0
3DFACE
  8
FACES
 10
0
 20
10
 30
7
 11
0
 21
11
 31
7
 12
0
 22
11
 32
8
 13
0
 23
10
 33
8
  0
3DFACE
  8
FACES
 10
0
 20
11
 30
7
 11
0
 21
12
 31
7
 12
0
 22
12
 32
8
 13
0
 23
11
 33
8
  0
3DFACE
  8
FACES
 10
0
 20
12
 30
7
 11
0
 21
13
 31
7
 12
0
 22
13
 32
8
 13
0
 23
12
 33
8
  0
3DFACE
  8
FACES
 10
0
 20
13
 30
7
 11
0
 21
14
 31
7
 12
0
 22
14
 32
8
 13
0
 23
13
 33
8
  0
3DFACE
  8
FACES
 10
0
 20
14
 30
7
 11
0
 21
15
 31
7
 12
0
 22
15
 32
8
 13
0
 23
14
 33
8
  0
3DFACE
  8
FACES
 10
0
 20
15
 30
7
 11
0
 21
16
 31
7
 12
0
 22
16
 32
8
 13
0
 23
15
 33
8
  0
3DFACE
  8
FACES
 10
0
 20
16
 30
7
 11
0
 21
17
 31
7
 12
0
 22
17
 32
8
 13
0
 23
16
 33
8
  0
3DFACE
  8
FACES
 10
0
 20
17
 30
7
 11
0
 21
18
 31
7
 12
0
 22
18
 32
8
 13
0
 23
17
 33
8
  0
3DFACE
  8
FACES
 10
0
 20
1
 30
8
 11
0
 21
2
 31
8
 12
0
 22
2
 32
9
 13
0
 23
1
 33
9
  0
3DFACE
  8
FACES
 10
0
 20
2
 30
8
 11
0
 21
3
 31
8
 12
0
 22
3
 32
9
 13
0
 23
2
 33
9
  0
3DFACE
  8
FACES
 10
0
 20
3
 30
8
 11
0
 21
4
 31
8
 12
0
 22
4
 32
9
 13
0
 23
3
 33
9
  0
3DFACE
  8
FACES
 10
0
 20
4
 30
8
 11
0
 21
5
 31
8
 12
0
 22
5
 32
9
 13
0
 23
4
 33
9
  0
3DFACE
  8
FACES
 10
0
 20
5
 30
8
 11
0
 21
6
 31
8
 12
0
 22
6
 32
9
 13
0
 23
5
 33
9
  0
3DFACE
  8
FACES
 10
0
 20
6
 30
8
 11
0
 21
7
 31
8
 12
0
 22
7
 32
9
 13
0
 23
6
 33
9
  0
3DFACE
  8
FACES
 10
0
 20
7
 30
8
 11
0
 21
8
 31
8
 12
0
 22
8
 32
9
 13
0
 23
7
 33
9
  0
3DFACE
  8
FACES
 10
0
 20
8
 30
8
 11
0
 21
9
 31
8
 12
0
 22
9
 32
9
 13
0
 23
8
 33
9
  0
3DFACE
  8
FACES
 10
0
 20
9
 30
8
 11
0
 21
10
 31
8
 12
0
 22
10
 32
9
 13
0
 23
9
 33
9
  0
3DFACE
  8
FACES
 10
0
 20
10
 30
8
 11
0
 21
11
 31
8
 12
0
 22
11
 32
9
 13
0
 23
10
 33
9
  0
3DFACE
  8
FACES
 10
0
 20
11
 30
8
 11
0
 21
12
 31
8
 12
0
 22
12
 32
9
 13
0
 23
11
 33
9
  0
3DFACE
  8
FACES
 10
0
 20
12
 30
8
 11
0
 21
13
 31
8
 12
0
 22
13
 32
9
 13
0
 23
12
 33
9
  0
3DFACE
  8
FACES
 10
0
 20
13
 30
8
 11
0
 21
14
 31
8
 12
0
 22
14
 32
9
 13
0
 23
13
 33
9
  0
3DFACE
  8
FACES
 10
0
 20
14
 30
8
 11
0
 21
15
 31
8
 12
0
 22
15
 32
9
 13
0
 23
14
 33
9
  0
3DFACE
  8
FACES
 10
0
 20
15
 30
8
 11
0
 21
16
 31
8
 12
0
 22
16
 32
9
 13
0
 23
15
 33
9
  0
3DFACE
  8
FACES
 10
0
 20
16
 30
8
 11
0
 21
17
 31
8
 12
0
 22
17
 32
9
 13
0
 23
16
 33
9
  0
3DFACE
  8
FACES
 10
0
 20
17
 30
8
 11
0
 21
18
 31
8
 12
0
 22
18
 32
9
 13
0
 23
17
 33
9
  0
ENDSEC
  0
EOF
