  0
SECTION
  2
HEADER
  9
$EXTMAX
 10
0.0
 20
0.0
  9
$EXTMIN
 10
297.0
 20
297.0
  0
ENDSEC
  0
SECTION
  2
TABLES
  0
TABLE
  2
LAYER
  0
LAYER
  2
BARS
 70
64
 62
1
  6
CONTINUOUS
  0
LAYER
  2
FACES
 70
64
 62
5
  6
CONTINUOUS
  0
ENDTAB
  0
ENDSEC
  0
SECTION
  2
ENTITIES
  0
LINE
  8
BARS
 10
0
 20
0
 30
0
 11
3
 21
0
 31
0
  0
LINE
  8
BARS
 10
21
 20
0
 30
0
 11
24
 21
0
 31
0
  0
LINE
  8
BARS
 10
36
 20
0
 30
0
 11
36
 21
3
 31
0
  0
LINE
  8
BARS
 10
24
 20
36
 30
0
 11
21
 21
36
 31
0
  0
LINE
  8
BARS
 10
3
 20
36
 30
0
 11
0
 21
36
 31
0
  0
LINE
  8
BARS
 10
0
 20
24
 30
0
 11
0
 21
21
 31
0
  0
LINE
  8
BARS
 10
0
 20
3
 30
0
 11
0
 21
0
 31
0
  0
LINE
  8
BARS
 10
0
 20
15
 30
0
 11
3
 21
15
 31
0
  0
LINE
  8
BARS
 10
21
 20
15
 30
0
 11
24
 21
15
 31
0
  0
LINE
  8
BARS
 10
0
 20
30
 30
0
 11
3
 21
30
 31
0
  0
LINE
  8
BARS
 10
21
 20
30
 30
0
 11
24
 21
30
 31
0
  0
LINE
  8
BARS
 10
3
 20
0
 30
0
 11
3
 21
3
 31
0
  0
LINE
  8
BARS
 10
3
 20
21
 30
0
 11
3
 21
24
 31
0
  0
LINE
  8
BARS
 10
9
 20
0
 30
0
 11
9
 21
3
 31
0
  0
LINE
  8
BARS
 10
9
 20
21
 30
0
 11
9
 21
24
 31
0
  0
LINE
  8
BARS
 10
15
 20
0
 30
0
 11
15
 21
3
 31
0
  0
LINE
  8
BARS
 10
15
 20
21
 30
0
 11
15
 21
24
 31
0
  0
LINE
  8
BARS
 10
24
 20
0
 30
0
 11
24
 21
3
 31
0
  0
LINE
  8
BARS
 10
30
 20
0
 30
0
 11
30
 21
3
 31
0
  0
LINE
  8
BARS
 10
3
 20
0
 30
0
 11
5
 21
0
 31
0
  0
LINE
  8
BARS
 10
5
 20
0
 30
0
 11
7
 21
0
 31
0
  0
LINE
  8
BARS
 10
7
 20
0
 30
0
 11
9
 21
0
 31
0
  0
LINE
  8
BARS
 10
9
 20
0
 30
0
 11
11
 21
0
 31
0
  0
LINE
  8
BARS
 10
11
 20
0
 30
0
 11
13
 21
0
 31
0
  0
LINE
  8
BARS
 10
13
 20
0
 30
0
 11
15
 21
0
 31
0
  0
LINE
  8
BARS
 10
15
 20
0
 30
0
 11
17
 21
0
 31
0
  0
LINE
  8
BARS
 10
17
 20
0
 30
0
 11
19
 21
0
 31
0
  0
LINE
  8
BARS
 10
19
 20
0
 30
0
 11
21
 21
0
 31
0
  0
LINE
  8
BARS
 10
24
 20
0
 30
0
 11
26
 21
0
 31
0
  0
LINE
  8
BARS
 10
26
 20
0
 30
0
 11
28
 21
0
 31
0
  0
LINE
  8
BARS
 10
28
 20
0
 30
0
 11
30
 21
0
 31
0
  0
LINE
  8
BARS
 10
30
 20
0
 30
0
 11
32
 21
0
 31
0
  0
LINE
  8
BARS
 10
32
 20
0
 30
0
 11
34
 21
0
 31
0
  0
LINE
  8
BARS
 10
34
 20
0
 30
0
 11
36
 21
0
 31
0
  0
LINE
  8
BARS
 10
36
 20
3
 30
0
 11
36
 21
5
 31
0
  0
LINE
  8
BARS
 10
36
 20
5
 30
0
 11
36
 21
7
 31
0
  0
LINE
  8
BARS
 10
36
 20
7
 30
0
 11
36
 21
9
 31
0
  0
LINE
  8
BARS
 10
36
 20
9
 30
0
 11
36
 21
11
 31
0
  0
LINE
  8
BARS
 10
36
 20
11
 30
0
 11
36
 21
13
 31
0
  0
LINE
  8
BARS
 10
36
 20
13
 30
0
 11
36
 21
15
 31
0
  0
LINE
  8
BARS
 10
36
 20
15
 30
0
 11
34
 21
15
 31
0
  0
LINE
  8
BARS
 10
34
 20
15
 30
0
 11
32
 21
15
 31
0
  0
LINE
  8
BARS
 10
32
 20
15
 30
0
 11
30
 21
15
 31
0
  0
LINE
  8
BARS
 10
30
 20
15
 30
0
 11
28
 21
15
 31
0
  0
LINE
  8
BARS
 10
28
 20
15
 30
0
 11
26
 21
15
 31
0
  0
LINE
  8
BARS
 10
26
 20
15
 30
0
 11
24
 21
15
 31
0
  0
LINE
  8
BARS
 10
24
 20
30
 30
0
 11
26
 21
30
 31
0
  0
LINE
  8
BARS
 10
26
 20
30
 30
0
 11
28
 21
30
 31
0
  0
LINE
  8
BARS
 10
28
 20
30
 30
0
 11
30
 21
30
 31
0
  0
LINE
  8
BARS
 10
30
 20
30
 30
0
 11
32
 21
30
 31
0
  0
LINE
  8
BARS
 10
32
 20
30
 30
0
 11
34
 21
30
 31
0
  0
LINE
  8
BARS
 10
34
 20
30
 30
0
 11
36
 21
30
 31
0
  0
LINE
  8
BARS
 10
36
 20
30
 30
0
 11
36
 21
32
 31
0
  0
LINE
  8
BARS
 10
36
 20
32
 30
0
 11
36
 21
34
 31
0
  0
LINE
  8
BARS
 10
36
 20
34
 30
0
 11
36
 21
36
 31
0
  0
LINE
  8
BARS
 10
36
 20
36
 30
0
 11
34
 21
36
 31
0
  0
LINE
  8
BARS
 10
34
 20
36
 30
0
 11
32
 21
36
 31
0
  0
LINE
  8
BARS
 10
32
 20
36
 30
0
 11
30
 21
36
 31
0
  0
LINE
  8
BARS
 10
30
 20
36
 30
0
 11
28
 21
36
 31
0
  0
LINE
  8
BARS
 10
28
 20
36
 30
0
 11
26
 21
36
 31
0
  0
LINE
  8
BARS
 10
26
 20
36
 30
0
 11
24
 21
36
 31
0
  0
LINE
  8
BARS
 10
21
 20
36
 30
0
 11
19
 21
36
 31
0
  0
LINE
  8
BARS
 10
19
 20
36
 30
0
 11
17
 21
36
 31
0
  0
LINE
  8
BARS
 10
17
 20
36
 30
0
 11
15
 21
36
 31
0
  0
LINE
  8
BARS
 10
15
 20
36
 30
0
 11
13
 21
36
 31
0
  0
LINE
  8
BARS
 10
13
 20
36
 30
0
 11
11
 21
36
 31
0
  0
LINE
  8
BARS
 10
11
 20
36
 30
0
 11
9
 21
36
 31
0
  0
LINE
  8
BARS
 10
9
 20
36
 30
0
 11
7
 21
36
 31
0
  0
LINE
  8
BARS
 10
7
 20
36
 30
0
 11
5
 21
36
 31
0
  0
LINE
  8
BARS
 10
5
 20
36
 30
0
 11
3
 21
36
 31
0
  0
LINE
  8
BARS
 10
0
 20
36
 30
0
 11
0
 21
34
 31
0
  0
LINE
  8
BARS
 10
0
 20
34
 30
0
 11
0
 21
32
 31
0
  0
LINE
  8
BARS
 10
0
 20
32
 30
0
 11
0
 21
30
 31
0
  0
LINE
  8
BARS
 10
0
 20
30
 30
0
 11
0
 21
28
 31
0
  0
LINE
  8
BARS
 10
0
 20
28
 30
0
 11
0
 21
26
 31
0
  0
LINE
  8
BARS
 10
0
 20
26
 30
0
 11
0
 21
24
 31
0
  0
LINE
  8
BARS
 10
0
 20
21
 30
0
 11
0
 21
19
 31
0
  0
LINE
  8
BARS
 10
0
 20
19
 30
0
 11
0
 21
17
 31
0
  0
LINE
  8
BARS
 10
0
 20
17
 30
0
 11
0
 21
15
 31
0
  0
LINE
  8
BARS
 10
0
 20
15
 30
0
 11
0
 21
13
 31
0
  0
LINE
  8
BARS
 10
0
 20
13
 30
0
 11
0
 21
11
 31
0
  0
LINE
  8
BARS
 10
0
 20
11
 30
0
 11
0
 21
9
 31
0
  0
LINE
  8
BARS
 10
0
 20
9
 30
0
 11
0
 21
7
 31
0
  0
LINE
  8
BARS
 10
0
 20
7
 30
0
 11
0
 21
5
 31
0
  0
LINE
  8
BARS
 10
0
 20
5
 30
0
 11
0
 21
3
 31
0
  0
LINE
  8
BARS
 10
3
 20
15
 30
0
 11
5
 21
15
 31
0
  0
LINE
  8
BARS
 10
5
 20
15
 30
0
 11
7
 21
15
 31
0
  0
LINE
  8
BARS
 10
7
 20
15
 30
0
 11
9
 21
15
 31
0
  0
LINE
  8
BARS
 10
9
 20
15
 30
0
 11
11
 21
15
 31
0
  0
LINE
  8
BARS
 10
11
 20
15
 30
0
 11
13
 21
15
 31
0
  0
LINE
  8
BARS
 10
13
 20
15
 30
0
 11
15
 21
15
 31
0
  0
LINE
  8
BARS
 10
15
 20
15
 30
0
 11
17
 21
15
 31
0
  0
LINE
  8
BARS
 10
17
 20
15
 30
0
 11
19
 21
15
 31
0
  0
LINE
  8
BARS
 10
19
 20
15
 30
0
 11
21
 21
15
 31
0
  0
LINE
  8
BARS
 10
3
 20
30
 30
0
 11
5
 21
30
 31
0
  0
LINE
  8
BARS
 10
5
 20
30
 30
0
 11
7
 21
30
 31
0
  0
LINE
  8
BARS
 10
7
 20
30
 30
0
 11
9
 21
30
 31
0
  0
LINE
  8
BARS
 10
9
 20
30
 30
0
 11
11
 21
30
 31
0
  0
LINE
  8
BARS
 10
11
 20
30
 30
0
 11
13
 21
30
 31
0
  0
LINE
  8
BARS
 10
13
 20
30
 30
0
 11
15
 21
30
 31
0
  0
LINE
  8
BARS
 10
15
 20
30
 30
0
 11
17
 21
30
 31
0
  0
LINE
  8
BARS
 10
17
 20
30
 30
0
 11
19
 21
30
 31
0
  0
LINE
  8
BARS
 10
19
 20
30
 30
0
 11
21
 21
30
 31
0
  0
LINE
  8
BARS
 10
3
 20
3
 30
0
 11
3
 21
5
 31
0
  0
LINE
  8
BARS
 10
3
 20
5
 30
0
 11
3
 21
7
 31
0
  0
LINE
  8
BARS
 10
3
 20
7
 30
0
 11
3
 21
9
 31
0
  0
LINE
  8
BARS
 10
3
 20
9
 30
0
 11
3
 21
11
 31
0
  0
LINE
  8
BARS
 10
3
 20
11
 30
0
 11
3
 21
13
 31
0
  0
LINE
  8
BARS
 10
3
 20
13
 30
0
 11
3
 21
15
 31
0
  0
LINE
  8
BARS
 10
3
 20
15
 30
0
 11
3
 21
17
 31
0
  0
LINE
  8
BARS
 10
3
 20
17
 30
0
 11
3
 21
19
 31
0
  0
LINE
  8
BARS
 10
3
 20
19
 30
0
 11
3
 21
21
 31
0
  0
LINE
  8
BARS
 10
3
 20
24
 30
0
 11
3
 21
26
 31
0
  0
LINE
  8
BARS
 10
3
 20
26
 30
0
 11
3
 21
28
 31
0
  0
LINE
  8
BARS
 10
3
 20
28
 30
0
 11
3
 21
30
 31
0
  0
LINE
  8
BARS
 10
3
 20
30
 30
0
 11
3
 21
32
 31
0
  0
LINE
  8
BARS
 10
3
 20
32
 30
0
 11
3
 21
34
 31
0
  0
LINE
  8
BARS
 10
3
 20
34
 30
0
 11
3
 21
36
 31
0
  0
LINE
  8
BARS
 10
9
 20
24
 30
0
 11
9
 21
26
 31
0
  0
LINE
  8
BARS
 10
9
 20
26
 30
0
 11
9
 21
28
 31
0
  0
LINE
  8
BARS
 10
9
 20
28
 30
0
 11
9
 21
30
 31
0
  0
LINE
  8
BARS
 10
9
 20
30
 30
0
 11
9
 21
32
 31
0
  0
LINE
  8
BARS
 10
9
 20
32
 30
0
 11
9
 21
34
 31
0
  0
LINE
  8
BARS
 10
9
 20
34
 30
0
 11
9
 21
36
 31
0
  0
LINE
  8
BARS
 10
15
 20
24
 30
0
 11
15
 21
26
 31
0
  0
LINE
  8
BARS
 10
15
 20
26
 30
0
 11
15
 21
28
 31
0
  0
LINE
  8
BARS
 10
15
 20
28
 30
0
 11
15
 21
30
 31
0
  0
LINE
  8
BARS
 10
15
 20
30
 30
0
 11
15
 21
32
 31
0
  0
LINE
  8
BARS
 10
15
 20
32
 30
0
 11
15
 21
34
 31
0
  0
LINE
  8
BARS
 10
15
 20
34
 30
0
 11
15
 21
36
 31
0
  0
LINE
  8
BARS
 10
24
 20
3
 30
0
 11
24
 21
5
 31
0
  0
LINE
  8
BARS
 10
24
 20
5
 30
0
 11
24
 21
7
 31
0
  0
LINE
  8
BARS
 10
24
 20
7
 30
0
 11
24
 21
9
 31
0
  0
LINE
  8
BARS
 10
24
 20
9
 30
0
 11
24
 21
11
 31
0
  0
LINE
  8
BARS
 10
24
 20
11
 30
0
 11
24
 21
13
 31
0
  0
LINE
  8
BARS
 10
24
 20
13
 30
0
 11
24
 21
15
 31
0
  0
LINE
  8
BARS
 10
24
 20
30
 30
0
 11
24
 21
32
 31
0
  0
LINE
  8
BARS
 10
24
 20
32
 30
0
 11
24
 21
34
 31
0
  0
LINE
  8
BARS
 10
24
 20
34
 30
0
 11
24
 21
36
 31
0
  0
LINE
  8
BARS
 10
30
 20
3
 30
0
 11
30
 21
5
 31
0
  0
LINE
  8
BARS
 10
30
 20
5
 30
0
 11
30
 21
7
 31
0
  0
LINE
  8
BARS
 10
30
 20
7
 30
0
 11
30
 21
9
 31
0
  0
LINE
  8
BARS
 10
30
 20
9
 30
0
 11
30
 21
11
 31
0
  0
LINE
  8
BARS
 10
30
 20
11
 30
0
 11
30
 21
13
 31
0
  0
LINE
  8
BARS
 10
30
 20
13
 30
0
 11
30
 21
15
 31
0
  0
LINE
  8
BARS
 10
30
 20
30
 30
0
 11
30
 21
32
 31
0
  0
LINE
  8
BARS
 10
30
 20
32
 30
0
 11
30
 21
34
 31
0
  0
LINE
  8
BARS
 10
30
 20
34
 30
0
 11
30
 21
36
 31
0
  0
LINE
  8
BARS
 10
9
 20
3
 30
0
 11
9
 21
5
 31
0
  0
LINE
  8
BARS
 10
9
 20
5
 30
0
 11
9
 21
7
 31
0
  0
LINE
  8
BARS
 10
9
 20
7
 30
0
 11
9
 21
9
 31
0
  0
LINE
  8
BARS
 10
9
 20
9
 30
0
 11
9
 21
11
 31
0
  0
LINE
  8
BARS
 10
9
 20
11
 30
0
 11
9
 21
13
 31
0
  0
LINE
  8
BARS
 10
9
 20
13
 30
0
 11
9
 21
15
 31
0
  0
LINE
  8
BARS
 10
9
 20
15
 30
0
 11
9
 21
17
 31
0
  0
LINE
  8
BARS
 10
9
 20
17
 30
0
 11
9
 21
19
 31
0
  0
LINE
  8
BARS
 10
9
 20
19
 30
0
 11
9
 21
21
 31
0
  0
LINE
  8
BARS
 10
15
 20
3
 30
0
 11
15
 21
5
 31
0
  0
LINE
  8
BARS
 10
15
 20
5
 30
0
 11
15
 21
7
 31
0
  0
LINE
  8
BARS
 10
15
 20
7
 30
0
 11
15
 21
9
 31
0
  0
LINE
  8
BARS
 10
15
 20
9
 30
0
 11
15
 21
11
 31
0
  0
LINE
  8
BARS
 10
15
 20
11
 30
0
 11
15
 21
13
 31
0
  0
LINE
  8
BARS
 10
15
 20
13
 30
0
 11
15
 21
15
 31
0
  0
LINE
  8
BARS
 10
15
 20
15
 30
0
 11
15
 21
17
 31
0
  0
LINE
  8
BARS
 10
15
 20
17
 30
0
 11
15
 21
19
 31
0
  0
LINE
  8
BARS
 10
15
 20
19
 30
0
 11
15
 21
21
 31
0
  0
3DFACE
  8
FACES
 10
0
 20
0
 30
0
 11
3
 21
0
 31
0
 12
3
 22
3
 32
0
 13
0
 23
3
 33
0
  0
3DFACE
  8
FACES
 10
0
 20
3
 30
0
 11
3
 21
3
 31
0
 12
3
 22
5
 32
0
 13
0
 23
5
 33
0
  0
3DFACE
  8
FACES
 10
0
 20
5
 30
0
 11
3
 21
5
 31
0
 12
3
 22
7
 32
0
 13
0
 23
7
 33
0
  0
3DFACE
  8
FACES
 10
0
 20
7
 30
0
 11
3
 21
7
 31
0
 12
3
 22
9
 32
0
 13
0
 23
9
 33
0
  0
3DFACE
  8
FACES
 10
0
 20
9
 30
0
 11
3
 21
9
 31
0
 12
3
 22
11
 32
0
 13
0
 23
11
 33
0
  0
3DFACE
  8
FACES
 10
0
 20
11
 30
0
 11
3
 21
11
 31
0
 12
3
 22
13
 32
0
 13
0
 23
13
 33
0
  0
3DFACE
  8
FACES
 10
0
 20
13
 30
0
 11
3
 21
13
 31
0
 12
3
 22
15
 32
0
 13
0
 23
15
 33
0
  0
3DFACE
  8
FACES
 10
0
 20
15
 30
0
 11
3
 21
15
 31
0
 12
3
 22
17
 32
0
 13
0
 23
17
 33
0
  0
3DFACE
  8
FACES
 10
0
 20
17
 30
0
 11
3
 21
17
 31
0
 12
3
 22
19
 32
0
 13
0
 23
19
 33
0
  0
3DFACE
  8
FACES
 10
0
 20
19
 30
0
 11
3
 21
19
 31
0
 12
3
 22
21
 32
0
 13
0
 23
21
 33
0
  0
3DFACE
  8
FACES
 10
0
 20
21
 30
0
 11
3
 21
21
 31
0
 12
3
 22
24
 32
0
 13
0
 23
24
 33
0
  0
3DFACE
  8
FACES
 10
0
 20
24
 30
0
 11
3
 21
24
 31
0
 12
3
 22
26
 32
0
 13
0
 23
26
 33
0
  0
3DFACE
  8
FACES
 10
0
 20
26
 30
0
 11
3
 21
26
 31
0
 12
3
 22
28
 32
0
 13
0
 23
28
 33
0
  0
3DFACE
  8
FACES
 10
0
 20
28
 30
0
 11
3
 21
28
 31
0
 12
3
 22
30
 32
0
 13
0
 23
30
 33
0
  0
3DFACE
  8
FACES
 10
0
 20
30
 30
0
 11
3
 21
30
 31
0
 12
3
 22
32
 32
0
 13
0
 23
32
 33
0
  0
3DFACE
  8
FACES
 10
0
 20
32
 30
0
 11
3
 21
32
 31
0
 12
3
 22
34
 32
0
 13
0
 23
34
 33
0
  0
3DFACE
  8
FACES
 10
0
 20
34
 30
0
 11
3
 21
34
 31
0
 12
3
 22
36
 32
0
 13
0
 23
36
 33
0
  0
3DFACE
  8
FACES
 10
3
 20
36
 30
0
 11
5
 21
36
 31
0
 12
3
 22
34
 32
0
 13
3
 23
34
 33
0
  0
3DFACE
  8
FACES
 10
5
 20
36
 30
0
 11
5
 21
34
 31
0
 12
3
 22
34
 32
0
 13
3
 23
34
 33
0
  0
3DFACE
  8
FACES
 10
3
 20
34
 30
0
 11
5
 21
34
 31
0
 12
3
 22
32
 32
0
 13
3
 23
32
 33
0
  0
3DFACE
  8
FACES
 10
5
 20
36
 30
0
 11
7
 21
36
 31
0
 12
5
 22
34
 32
0
 13
5
 23
34
 33
0
  0
3DFACE
  8
FACES
 10
5
 20
34
 30
0
 11
5
 21
32
 31
0
 12
3
 22
32
 32
0
 13
3
 23
32
 33
0
  0
3DFACE
  8
FACES
 10
5
 20
34
 30
0
 11
7
 21
36
 31
0
 12
7
 22
34
 32
0
 13
7
 23
34
 33
0
  0
3DFACE
  8
FACES
 10
3
 20
32
 30
0
 11
5
 21
32
 31
0
 12
3
 22
30
 32
0
 13
3
 23
30
 33
0
  0
3DFACE
  8
FACES
 10
5
 20
34
 30
0
 11
7
 21
34
 31
0
 12
5
 22
32
 32
0
 13
5
 23
32
 33
0
  0
3DFACE
  8
FACES
 10
7
 20
36
 30
0
 11
9
 21
36
 31
0
 12
7
 22
34
 32
0
 13
7
 23
34
 33
0
  0
3DFACE
  8
FACES
 10
5
 20
32
 30
0
 11
5
 21
30
 31
0
 12
3
 22
30
 32
0
 13
3
 23
30
 33
0
  0
3DFACE
  8
FACES
 10
5
 20
32
 30
0
 11
7
 21
34
 31
0
 12
7
 22
32
 32
0
 13
7
 23
32
 33
0
  0
3DFACE
  8
FACES
 10
7
 20
34
 30
0
 11
9
 21
36
 31
0
 12
9
 22
34
 32
0
 13
9
 23
34
 33
0
  0
3DFACE
  8
FACES
 10
3
 20
30
 30
0
 11
5
 21
30
 31
0
 12
3
 22
28
 32
0
 13
3
 23
28
 33
0
  0
3DFACE
  8
FACES
 10
5
 20
32
 30
0
 11
7
 21
30
 31
0
 12
5
 22
30
 32
0
 13
5
 23
30
 33
0
  0
3DFACE
  8
FACES
 10
7
 20
34
 30
0
 11
9
 21
32
 31
0
 12
7
 22
32
 32
0
 13
7
 23
32
 33
0
  0
3DFACE
  8
FACES
 10
5
 20
32
 30
0
 11
7
 21
32
 31
0
 12
7
 22
30
 32
0
 13
7
 23
30
 33
0
  0
3DFACE
  8
FACES
 10
9
 20
36
 30
0
 11
11
 21
36
 31
0
 12
9
 22
34
 32
0
 13
9
 23
34
 33
0
  0
3DFACE
  8
FACES
 10
7
 20
34
 30
0
 11
9
 21
34
 31
0
 12
9
 22
32
 32
0
 13
9
 23
32
 33
0
  0
3DFACE
  8
FACES
 10
5
 20
30
 30
0
 11
5
 21
28
 31
0
 12
3
 22
28
 32
0
 13
3
 23
28
 33
0
  0
3DFACE
  8
FACES
 10
5
 20
30
 30
0
 11
7
 21
30
 31
0
 12
5
 22
28
 32
0
 13
5
 23
28
 33
0
  0
3DFACE
  8
FACES
 10
7
 20
32
 30
0
 11
9
 21
32
 31
0
 12
9
 22
30
 32
0
 13
9
 23
30
 33
0
  0
3DFACE
  8
FACES
 10
7
 20
32
 30
0
 11
9
 21
30
 31
0
 12
7
 22
30
 32
0
 13
7
 23
30
 33
0
  0
3DFACE
  8
FACES
 10
9
 20
34
 30
0
 11
11
 21
36
 31
0
 12
11
 22
34
 32
0
 13
11
 23
34
 33
0
  0
3DFACE
  8
FACES
 10
9
 20
34
 30
0
 11
11
 21
34
 31
0
 12
9
 22
32
 32
0
 13
9
 23
32
 33
0
  0
3DFACE
  8
FACES
 10
3
 20
28
 30
0
 11
5
 21
28
 31
0
 12
3
 22
26
 32
0
 13
3
 23
26
 33
0
  0
3DFACE
  8
FACES
 10
7
 20
30
 30
0
 11
7
 21
28
 31
0
 12
5
 22
28
 32
0
 13
5
 23
28
 33
0
  0
3DFACE
  8
FACES
 10
9
 20
32
 30
0
 11
11
 21
30
 31
0
 12
9
 22
30
 32
0
 13
9
 23
30
 33
0
  0
3DFACE
  8
FACES
 10
7
 20
30
 30
0
 11
9
 21
30
 31
0
 12
9
 22
28
 32
0
 13
9
 23
28
 33
0
  0
3DFACE
  8
FACES
 10
11
 20
36
 30
0
 11
13
 21
36
 31
0
 12
11
 22
34
 32
0
 13
11
 23
34
 33
0
  0
3DFACE
  8
FACES
 10
9
 20
32
 30
0
 11
11
 21
34
 31
0
 12
11
 22
32
 32
0
 13
11
 23
32
 33
0
  0
3DFACE
  8
FACES
 10
5
 20
28
 30
0
 11
5
 21
26
 31
0
 12
3
 22
26
 32
0
 13
3
 23
26
 33
0
  0
3DFACE
  8
FACES
 10
7
 20
30
 30
0
 11
9
 21
28
 31
0
 12
7
 22
28
 32
0
 13
7
 23
28
 33
0
  0
3DFACE
  8
FACES
 10
9
 20
30
 30
0
 11
11
 21
30
 31
0
 12
9
 22
28
 32
0
 13
9
 23
28
 33
0
  0
3DFACE
  8
FACES
 10
9
 20
32
 30
0
 11
11
 21
32
 31
0
 12
11
 22
30
 32
0
 13
11
 23
30
 33
0
  0
3DFACE
  8
FACES
 10
11
 20
34
 30
0
 11
13
 21
36
 31
0
 12
13
 22
34
 32
0
 13
13
 23
34
 33
0
  0
3DFACE
  8
FACES
 10
11
 20
34
 30
0
 11
13
 21
34
 31
0
 12
11
 22
32
 32
0
 13
11
 23
32
 33
0
  0
3DFACE
  8
FACES
 10
3
 20
26
 30
0
 11
5
 21
26
 31
0
 12
3
 22
24
 32
0
 13
3
 23
24
 33
0
  0
3DFACE
  8
FACES
 10
7
 20
28
 30
0
 11
9
 21
28
 31
0
 12
9
 22
26
 32
0
 13
9
 23
26
 33
0
  0
3DFACE
  8
FACES
 10
11
 20
30
 30
0
 11
11
 21
28
 31
0
 12
9
 22
28
 32
0
 13
9
 23
28
 33
0
  0
3DFACE
  8
FACES
 10
11
 20
30
 30
0
 11
11
 21
32
 31
0
 12
13
 22
30
 32
0
 13
13
 23
30
 33
0
  0
3DFACE
  8
FACES
 10
13
 20
36
 30
0
 11
15
 21
36
 31
0
 12
13
 22
34
 32
0
 13
13
 23
34
 33
0
  0
3DFACE
  8
FACES
 10
11
 20
32
 30
0
 11
13
 21
34
 31
0
 12
13
 22
32
 32
0
 13
13
 23
32
 33
0
  0
3DFACE
  8
FACES
 10
5
 20
26
 30
0
 11
5
 21
24
 31
0
 12
3
 22
24
 32
0
 13
3
 23
24
 33
0
  0
3DFACE
  8
FACES
 10
7
 20
28
 30
0
 11
9
 21
26
 31
0
 12
7
 22
26
 32
0
 13
7
 23
26
 33
0
  0
3DFACE
  8
FACES
 10
9
 20
28
 30
0
 11
11
 21
28
 31
0
 12
9
 22
26
 32
0
 13
9
 23
26
 33
0
  0
3DFACE
  8
FACES
 10
11
 20
30
 30
0
 11
13
 21
30
 31
0
 12
11
 22
28
 32
0
 13
11
 23
28
 33
0
  0
3DFACE
  8
FACES
 10
11
 20
32
 30
0
 11
13
 21
32
 31
0
 12
13
 22
30
 32
0
 13
13
 23
30
 33
0
  0
3DFACE
  8
FACES
 10
13
 20
34
 30
0
 11
15
 21
36
 31
0
 12
15
 22
34
 32
0
 13
15
 23
34
 33
0
  0
3DFACE
  8
FACES
 10
13
 20
34
 30
0
 11
15
 21
34
 31
0
 12
13
 22
32
 32
0
 13
13
 23
32
 33
0
  0
3DFACE
  8
FACES
 10
7
 20
26
 30
0
 11
9
 21
24
 31
0
 12
7
 22
24
 32
0
 13
7
 23
24
 33
0
  0
3DFACE
  8
FACES
 10
7
 20
26
 30
0
 11
9
 21
26
 31
0
 12
9
 22
24
 32
0
 13
9
 23
24
 33
0
  0
3DFACE
  8
FACES
 10
9
 20
26
 30
0
 11
11
 21
28
 31
0
 12
11
 22
26
 32
0
 13
11
 23
26
 33
0
  0
3DFACE
  8
FACES
 10
11
 20
28
 30
0
 11
13
 21
30
 31
0
 12
13
 22
28
 32
0
 13
13
 23
28
 33
0
  0
3DFACE
  8
FACES
 10
13
 20
30
 30
0
 11
13
 21
32
 31
0
 12
15
 22
32
 32
0
 13
15
 23
32
 33
0
  0
3DFACE
  8
FACES
 10
13
 20
32
 30
0
 11
15
 21
34
 31
0
 12
15
 22
32
 32
0
 13
15
 23
32
 33
0
  0
3DFACE
  8
FACES
 10
9
 20
26
 30
0
 11
11
 21
24
 31
0
 12
9
 22
24
 32
0
 13
9
 23
24
 33
0
  0
3DFACE
  8
FACES
 10
11
 20
28
 30
0
 11
13
 21
28
 31
0
 12
11
 22
26
 32
0
 13
11
 23
26
 33
0
  0
3DFACE
  8
FACES
 10
9
 20
26
 30
0
 11
11
 21
26
 31
0
 12
11
 22
24
 32
0
 13
11
 23
24
 33
0
  0
3DFACE
  8
FACES
 10
13
 20
30
 30
0
 11
15
 21
30
 31
0
 12
13
 22
28
 32
0
 13
13
 23
28
 33
0
  0
3DFACE
  8
FACES
 10
13
 20
30
 30
0
 11
15
 21
32
 31
0
 12
15
 22
30
 32
0
 13
15
 23
30
 33
0
  0
3DFACE
  8
FACES
 10
11
 20
26
 30
0
 11
13
 21
28
 31
0
 12
13
 22
26
 32
0
 13
13
 23
26
 33
0
  0
3DFACE
  8
FACES
 10
11
 20
26
 30
0
 11
13
 21
24
 31
0
 12
11
 22
24
 32
0
 13
11
 23
24
 33
0
  0
3DFACE
  8
FACES
 10
13
 20
28
 30
0
 11
15
 21
30
 31
0
 12
15
 22
28
 32
0
 13
15
 23
28
 33
0
  0
3DFACE
  8
FACES
 10
13
 20
28
 30
0
 11
15
 21
28
 31
0
 12
13
 22
26
 32
0
 13
13
 23
26
 33
0
  0
3DFACE
  8
FACES
 10
11
 20
26
 30
0
 11
13
 21
26
 31
0
 12
13
 22
24
 32
0
 13
13
 23
24
 33
0
  0
3DFACE
  8
FACES
 10
13
 20
26
 30
0
 11
15
 21
28
 31
0
 12
15
 22
26
 32
0
 13
15
 23
26
 33
0
  0
3DFACE
  8
FACES
 10
13
 20
26
 30
0
 11
15
 21
26
 31
0
 12
13
 22
24
 32
0
 13
13
 23
24
 33
0
  0
3DFACE
  8
FACES
 10
13
 20
24
 30
0
 11
15
 21
26
 31
0
 12
15
 22
24
 32
0
 13
15
 23
24
 33
0
  0
3DFACE
  8
FACES
 10
5
 20
3
 30
0
 11
5
 21
5
 31
0
 12
3
 22
5
 32
0
 13
3
 23
3
 33
0
  0
3DFACE
  8
FACES
 10
5
 20
5
 30
0
 11
5
 21
7
 31
0
 12
3
 22
7
 32
0
 13
3
 23
5
 33
0
  0
3DFACE
  8
FACES
 10
5
 20
7
 30
0
 11
5
 21
9
 31
0
 12
3
 22
9
 32
0
 13
3
 23
7
 33
0
  0
3DFACE
  8
FACES
 10
7
 20
5
 30
0
 11
7
 21
3
 31
0
 12
9
 22
3
 32
0
 13
9
 23
5
 33
0
  0
3DFACE
  8
FACES
 10
5
 20
9
 30
0
 11
5
 21
11
 31
0
 12
3
 22
11
 32
0
 13
3
 23
9
 33
0
  0
3DFACE
  8
FACES
 10
7
 20
7
 30
0
 11
7
 21
5
 31
0
 12
9
 22
5
 32
0
 13
9
 23
7
 33
0
  0
3DFACE
  8
FACES
 10
9
 20
5
 30
0
 11
9
 21
3
 31
0
 12
11
 22
3
 32
0
 13
11
 23
5
 33
0
  0
3DFACE
  8
FACES
 10
5
 20
11
 30
0
 11
5
 21
13
 31
0
 12
3
 22
13
 32
0
 13
3
 23
11
 33
0
  0
3DFACE
  8
FACES
 10
7
 20
7
 30
0
 11
9
 21
7
 31
0
 12
9
 22
9
 32
0
 13
7
 23
9
 33
0
  0
3DFACE
  8
FACES
 10
9
 20
7
 30
0
 11
9
 21
5
 31
0
 12
11
 22
5
 32
0
 13
11
 23
7
 33
0
  0
3DFACE
  8
FACES
 10
11
 20
5
 30
0
 11
11
 21
3
 31
0
 12
13
 22
3
 32
0
 13
13
 23
5
 33
0
  0
3DFACE
  8
FACES
 10
7
 20
9
 30
0
 11
9
 21
9
 31
0
 12
9
 22
11
 32
0
 13
7
 23
11
 33
0
  0
3DFACE
  8
FACES
 10
9
 20
9
 30
0
 11
9
 21
7
 31
0
 12
11
 22
7
 32
0
 13
11
 23
9
 33
0
  0
3DFACE
  8
FACES
 10
5
 20
13
 30
0
 11
5
 21
15
 31
0
 12
3
 22
15
 32
0
 13
3
 23
13
 33
0
  0
3DFACE
  8
FACES
 10
9
 20
11
 30
0
 11
9
 21
9
 31
0
 12
11
 22
9
 32
0
 13
11
 23
11
 33
0
  0
3DFACE
  8
FACES
 10
11
 20
5
 30
0
 11
13
 21
5
 31
0
 12
13
 22
7
 32
0
 13
11
 23
7
 33
0
  0
3DFACE
  8
FACES
 10
13
 20
5
 30
0
 11
13
 21
3
 31
0
 12
15
 22
3
 32
0
 13
15
 23
5
 33
0
  0
3DFACE
  8
FACES
 10
7
 20
11
 30
0
 11
9
 21
11
 31
0
 12
9
 22
13
 32
0
 13
7
 23
13
 33
0
  0
3DFACE
  8
FACES
 10
11
 20
7
 30
0
 11
13
 21
7
 31
0
 12
13
 22
9
 32
0
 13
11
 23
9
 33
0
  0
3DFACE
  8
FACES
 10
5
 20
15
 30
0
 11
5
 21
17
 31
0
 12
3
 22
17
 32
0
 13
3
 23
15
 33
0
  0
3DFACE
  8
FACES
 10
9
 20
13
 30
0
 11
9
 21
11
 31
0
 12
11
 22
11
 32
0
 13
11
 23
13
 33
0
  0
3DFACE
  8
FACES
 10
11
 20
9
 30
0
 11
13
 21
9
 31
0
 12
13
 22
11
 32
0
 13
11
 23
11
 33
0
  0
3DFACE
  8
FACES
 10
13
 20
7
 30
0
 11
13
 21
5
 31
0
 12
15
 22
5
 32
0
 13
15
 23
7
 33
0
  0
3DFACE
  8
FACES
 10
7
 20
13
 30
0
 11
9
 21
13
 31
0
 12
9
 22
15
 32
0
 13
7
 23
15
 33
0
  0
3DFACE
  8
FACES
 10
13
 20
9
 30
0
 11
13
 21
7
 31
0
 12
15
 22
7
 32
0
 13
15
 23
9
 33
0
  0
3DFACE
  8
FACES
 10
5
 20
17
 30
0
 11
5
 21
19
 31
0
 12
3
 22
19
 32
0
 13
3
 23
17
 33
0
  0
3DFACE
  8
FACES
 10
9
 20
13
 30
0
 11
11
 21
13
 31
0
 12
11
 22
15
 32
0
 13
9
 23
15
 33
0
  0
3DFACE
  8
FACES
 10
7
 20
15
 30
0
 11
9
 21
15
 31
0
 12
9
 22
17
 32
0
 13
7
 23
17
 33
0
  0
3DFACE
  8
FACES
 10
11
 20
11
 30
0
 11
13
 21
11
 31
0
 12
13
 22
13
 32
0
 13
11
 23
13
 33
0
  0
3DFACE
  8
FACES
 10
13
 20
11
 30
0
 11
13
 21
9
 31
0
 12
15
 22
9
 32
0
 13
15
 23
11
 33
0
  0
3DFACE
  8
FACES
 10
11
 20
15
 30
0
 11
11
 21
17
 31
0
 12
9
 22
17
 32
0
 13
9
 23
15
 33
0
  0
3DFACE
  8
FACES
 10
11
 20
13
 30
0
 11
13
 21
13
 31
0
 12
13
 22
15
 32
0
 13
11
 23
15
 33
0
  0
3DFACE
  8
FACES
 10
5
 20
19
 30
0
 11
5
 21
21
 31
0
 12
3
 22
21
 32
0
 13
3
 23
19
 33
0
  0
3DFACE
  8
FACES
 10
7
 20
17
 30
0
 11
9
 21
17
 31
0
 12
9
 22
19
 32
0
 13
7
 23
19
 33
0
  0
3DFACE
  8
FACES
 10
13
 20
13
 30
0
 11
13
 21
11
 31
0
 12
15
 22
11
 32
0
 13
15
 23
13
 33
0
  0
3DFACE
  8
FACES
 10
13
 20
15
 30
0
 11
13
 21
17
 31
0
 12
11
 22
17
 32
0
 13
11
 23
15
 33
0
  0
3DFACE
  8
FACES
 10
9
 20
19
 30
0
 11
9
 21
17
 31
0
 12
11
 22
17
 32
0
 13
11
 23
19
 33
0
  0
3DFACE
  8
FACES
 10
13
 20
15
 30
0
 11
13
 21
13
 31
0
 12
15
 22
13
 32
0
 13
15
 23
15
 33
0
  0
3DFACE
  8
FACES
 10
7
 20
19
 30
0
 11
9
 21
19
 31
0
 12
9
 22
21
 32
0
 13
7
 23
21
 33
0
  0
3DFACE
  8
FACES
 10
11
 20
17
 30
0
 11
13
 21
17
 31
0
 12
13
 22
19
 32
0
 13
11
 23
19
 33
0
  0
3DFACE
  8
FACES
 10
13
 20
17
 30
0
 11
13
 21
15
 31
0
 12
15
 22
15
 32
0
 13
15
 23
17
 33
0
  0
3DFACE
  8
FACES
 10
9
 20
19
 30
0
 11
11
 21
19
 31
0
 12
11
 22
21
 32
0
 13
9
 23
21
 33
0
  0
3DFACE
  8
FACES
 10
11
 20
19
 30
0
 11
13
 21
19
 31
0
 12
13
 22
21
 32
0
 13
11
 23
21
 33
0
  0
3DFACE
  8
FACES
 10
13
 20
19
 30
0
 11
13
 21
17
 31
0
 12
15
 22
17
 32
0
 13
15
 23
19
 33
0
  0
3DFACE
  8
FACES
 10
13
 20
21
 30
0
 11
13
 21
19
 31
0
 12
15
 22
19
 32
0
 13
15
 23
21
 33
0
  0
3DFACE
  8
FACES
 10
15
 20
3
 30
0
 11
13
 21
3
 31
0
 12
13
 22
0
 32
0
 13
15
 23
0
 33
0
  0
3DFACE
  8
FACES
 10
13
 20
0
 30
0
 11
13
 21
3
 31
0
 12
11
 22
3
 32
0
 13
11
 23
0
 33
0
  0
3DFACE
  8
FACES
 10
15
 20
3
 30
0
 11
15
 21
0
 31
0
 12
17
 22
0
 32
0
 13
18
 23
3
 33
0
  0
3DFACE
  8
FACES
 10
11
 20
0
 30
0
 11
11
 21
3
 31
0
 12
9
 22
3
 32
0
 13
9
 23
0
 33
0
  0
3DFACE
  8
FACES
 10
17
 20
0
 30
0
 11
19
 21
0
 31
0
 12
18
 22
3
 32
0
 13
18
 23
3
 33
0
  0
3DFACE
  8
FACES
 10
18
 20
3
 30
0
 11
18
 21
6
 31
0
 12
15
 22
5
 32
0
 13
15
 23
3
 33
0
  0
3DFACE
  8
FACES
 10
9
 20
0
 30
0
 11
9
 21
3
 31
0
 12
7
 22
3
 32
0
 13
7
 23
0
 33
0
  0
3DFACE
  8
FACES
 10
19
 20
0
 30
0
 11
21
 21
0
 31
0
 12
21
 22
3
 32
0
 13
18
 23
3
 33
0
  0
3DFACE
  8
FACES
 10
21
 20
6
 30
0
 11
18
 21
6
 31
0
 12
18
 22
3
 32
0
 13
21
 23
3
 33
0
  0
3DFACE
  8
FACES
 10
15
 20
5
 30
0
 11
18
 21
6
 31
0
 12
15
 22
7
 32
0
 13
15
 23
7
 33
0
  0
3DFACE
  8
FACES
 10
7
 20
0
 30
0
 11
7
 21
3
 31
0
 12
5
 22
3
 32
0
 13
5
 23
0
 33
0
  0
3DFACE
  8
FACES
 10
21
 20
3
 30
0
 11
21
 21
0
 31
0
 12
24
 22
0
 32
0
 13
24
 23
3
 33
0
  0
3DFACE
  8
FACES
 10
21
 20
3
 30
0
 11
24
 21
3
 31
0
 12
24
 22
5
 32
0
 13
21
 23
6
 33
0
  0
3DFACE
  8
FACES
 10
15
 20
7
 30
0
 11
18
 21
6
 31
0
 12
18
 22
9
 32
0
 13
15
 23
9
 33
0
  0
3DFACE
  8
FACES
 10
21
 20
9
 30
0
 11
18
 21
9
 31
0
 12
18
 22
6
 32
0
 13
21
 23
6
 33
0
  0
3DFACE
  8
FACES
 10
21
 20
6
 30
0
 11
24
 21
5
 31
0
 12
24
 22
7
 32
0
 13
24
 23
7
 33
0
  0
3DFACE
  8
FACES
 10
21
 20
9
 30
0
 11
21
 21
6
 31
0
 12
24
 22
7
 32
0
 13
24
 23
9
 33
0
  0
3DFACE
  8
FACES
 10
5
 20
0
 30
0
 11
5
 21
3
 31
0
 12
3
 22
3
 32
0
 13
3
 23
0
 33
0
  0
3DFACE
  8
FACES
 10
24
 20
3
 30
0
 11
24
 21
0
 31
0
 12
26
 22
0
 32
0
 13
27
 23
3
 33
0
  0
3DFACE
  8
FACES
 10
24
 20
5
 30
0
 11
27
 21
6
 31
0
 12
24
 22
7
 32
0
 13
24
 23
7
 33
0
  0
3DFACE
  8
FACES
 10
24
 20
5
 30
0
 11
24
 21
3
 31
0
 12
27
 22
3
 32
0
 13
27
 23
6
 33
0
  0
3DFACE
  8
FACES
 10
18
 20
9
 30
0
 11
18
 21
12
 31
0
 12
15
 22
11
 32
0
 13
15
 23
9
 33
0
  0
3DFACE
  8
FACES
 10
21
 20
12
 30
0
 11
18
 21
12
 31
0
 12
18
 22
9
 32
0
 13
21
 23
9
 33
0
  0
3DFACE
  8
FACES
 10
24
 20
7
 30
0
 11
27
 21
6
 31
0
 12
27
 22
9
 32
0
 13
24
 23
9
 33
0
  0
3DFACE
  8
FACES
 10
21
 20
9
 30
0
 11
24
 21
9
 31
0
 12
24
 22
11
 32
0
 13
21
 23
12
 33
0
  0
3DFACE
  8
FACES
 10
26
 20
0
 30
0
 11
28
 21
0
 31
0
 12
27
 22
3
 32
0
 13
27
 23
3
 33
0
  0
3DFACE
  8
FACES
 10
27
 20
9
 30
0
 11
27
 21
6
 31
0
 12
30
 22
7
 32
0
 13
30
 23
9
 33
0
  0
3DFACE
  8
FACES
 10
27
 20
3
 30
0
 11
30
 21
3
 31
0
 12
30
 22
5
 32
0
 13
27
 23
6
 33
0
  0
3DFACE
  8
FACES
 10
15
 20
11
 30
0
 11
18
 21
12
 31
0
 12
15
 22
13
 32
0
 13
15
 23
13
 33
0
  0
3DFACE
  8
FACES
 10
21
 20
12
 30
0
 11
24
 21
11
 31
0
 12
24
 22
13
 32
0
 13
24
 23
13
 33
0
  0
3DFACE
  8
FACES
 10
21
 20
12
 30
0
 11
21
 21
15
 31
0
 12
19
 22
15
 32
0
 13
18
 23
12
 33
0
  0
3DFACE
  8
FACES
 10
27
 20
9
 30
0
 11
27
 21
12
 31
0
 12
24
 22
11
 32
0
 13
24
 23
9
 33
0
  0
3DFACE
  8
FACES
 10
28
 20
0
 30
0
 11
30
 21
0
 31
0
 12
30
 22
3
 32
0
 13
27
 23
3
 33
0
  0
3DFACE
  8
FACES
 10
27
 20
6
 30
0
 11
30
 21
5
 31
0
 12
30
 22
7
 32
0
 13
30
 23
7
 33
0
  0
3DFACE
  8
FACES
 10
15
 20
13
 30
0
 11
18
 21
12
 31
0
 12
17
 22
15
 32
0
 13
15
 23
15
 33
0
  0
3DFACE
  8
FACES
 10
24
 20
11
 30
0
 11
27
 21
12
 31
0
 12
24
 22
13
 32
0
 13
24
 23
13
 33
0
  0
3DFACE
  8
FACES
 10
24
 20
13
 30
0
 11
24
 21
15
 31
0
 12
21
 22
15
 32
0
 13
21
 23
12
 33
0
  0
3DFACE
  8
FACES
 10
30
 20
7
 30
0
 11
33
 21
6
 31
0
 12
33
 22
9
 32
0
 13
30
 23
9
 33
0
  0
3DFACE
  8
FACES
 10
27
 20
9
 30
0
 11
30
 21
9
 31
0
 12
30
 22
11
 32
0
 13
27
 23
12
 33
0
  0
3DFACE
  8
FACES
 10
30
 20
7
 30
0
 11
30
 21
5
 31
0
 12
33
 22
6
 32
0
 13
33
 23
6
 33
0
  0
3DFACE
  8
FACES
 10
30
 20
5
 30
0
 11
30
 21
3
 31
0
 12
33
 22
3
 32
0
 13
33
 23
6
 33
0
  0
3DFACE
  8
FACES
 10
24
 20
13
 30
0
 11
27
 21
12
 31
0
 12
26
 22
15
 32
0
 13
24
 23
15
 33
0
  0
3DFACE
  8
FACES
 10
30
 20
3
 30
0
 11
30
 21
0
 31
0
 12
32
 22
0
 32
0
 13
33
 23
3
 33
0
  0
3DFACE
  8
FACES
 10
33
 20
9
 30
0
 11
33
 21
12
 31
0
 12
30
 22
11
 32
0
 13
30
 23
9
 33
0
  0
3DFACE
  8
FACES
 10
27
 20
12
 30
0
 11
30
 21
11
 31
0
 12
30
 22
13
 32
0
 13
30
 23
13
 33
0
  0
3DFACE
  8
FACES
 10
33
 20
9
 30
0
 11
33
 21
6
 31
0
 12
36
 22
7
 32
0
 13
36
 23
9
 33
0
  0
3DFACE
  8
FACES
 10
33
 20
3
 30
0
 11
36
 21
3
 31
0
 12
36
 22
5
 32
0
 13
33
 23
6
 33
0
  0
3DFACE
  8
FACES
 10
33
 20
3
 30
0
 11
32
 21
0
 31
0
 12
34
 22
0
 32
0
 13
34
 23
0
 33
0
  0
3DFACE
  8
FACES
 10
28
 20
15
 30
0
 11
27
 21
12
 31
0
 12
30
 22
13
 32
0
 13
30
 23
15
 33
0
  0
3DFACE
  8
FACES
 10
30
 20
11
 30
0
 11
33
 21
12
 31
0
 12
30
 22
13
 32
0
 13
30
 23
13
 33
0
  0
3DFACE
  8
FACES
 10
33
 20
9
 30
0
 11
36
 21
9
 31
0
 12
36
 22
11
 32
0
 13
33
 23
12
 33
0
  0
3DFACE
  8
FACES
 10
33
 20
6
 30
0
 11
36
 21
5
 31
0
 12
36
 22
7
 32
0
 13
36
 23
7
 33
0
  0
3DFACE
  8
FACES
 10
34
 20
0
 30
0
 11
36
 21
0
 31
0
 12
36
 22
3
 32
0
 13
33
 23
3
 33
0
  0
3DFACE
  8
FACES
 10
30
 20
13
 30
0
 11
33
 21
12
 31
0
 12
32
 22
15
 32
0
 13
30
 23
15
 33
0
  0
3DFACE
  8
FACES
 10
33
 20
12
 30
0
 11
36
 21
11
 31
0
 12
36
 22
13
 32
0
 13
36
 23
13
 33
0
  0
3DFACE
  8
FACES
 10
33
 20
12
 30
0
 11
34
 21
15
 31
0
 12
32
 22
15
 32
0
 13
32
 23
15
 33
0
  0
3DFACE
  8
FACES
 10
36
 20
13
 30
0
 11
36
 21
15
 31
0
 12
34
 22
15
 32
0
 13
33
 23
12
 33
0
  0
3DFACE
  8
FACES
 10
15
 20
21
 30
0
 11
15
 21
24
 31
0
 12
13
 22
24
 32
0
 13
13
 23
21
 33
0
  0
3DFACE
  8
FACES
 10
13
 20
21
 30
0
 11
13
 21
24
 31
0
 12
11
 22
24
 32
0
 13
11
 23
21
 33
0
  0
3DFACE
  8
FACES
 10
11
 20
21
 30
0
 11
11
 21
24
 31
0
 12
9
 22
24
 32
0
 13
9
 23
21
 33
0
  0
3DFACE
  8
FACES
 10
19
 20
30
 30
0
 11
18
 21
33
 31
0
 12
17
 22
30
 32
0
 13
17
 23
30
 33
0
  0
3DFACE
  8
FACES
 10
19
 20
30
 30
0
 11
21
 21
30
 31
0
 12
21
 22
33
 32
0
 13
18
 23
33
 33
0
  0
3DFACE
  8
FACES
 10
17
 20
30
 30
0
 11
18
 21
33
 31
0
 12
15
 22
32
 32
0
 13
15
 23
30
 33
0
  0
3DFACE
  8
FACES
 10
21
 20
30
 30
0
 11
24
 21
30
 31
0
 12
24
 22
32
 32
0
 13
21
 23
33
 33
0
  0
3DFACE
  8
FACES
 10
32
 20
30
 30
0
 11
33
 21
33
 31
0
 12
30
 22
32
 32
0
 13
30
 23
30
 33
0
  0
3DFACE
  8
FACES
 10
32
 20
30
 30
0
 11
34
 21
30
 31
0
 12
33
 22
33
 32
0
 13
33
 23
33
 33
0
  0
3DFACE
  8
FACES
 10
34
 20
30
 30
0
 11
36
 21
30
 31
0
 12
36
 22
32
 32
0
 13
33
 23
33
 33
0
  0
3DFACE
  8
FACES
 10
28
 20
30
 30
0
 11
27
 21
33
 31
0
 12
26
 22
30
 32
0
 13
26
 23
30
 33
0
  0
3DFACE
  8
FACES
 10
28
 20
30
 30
0
 11
30
 21
30
 31
0
 12
30
 22
32
 32
0
 13
27
 23
33
 33
0
  0
3DFACE
  8
FACES
 10
9
 20
21
 30
0
 11
9
 21
24
 31
0
 12
7
 22
24
 32
0
 13
7
 23
21
 33
0
  0
3DFACE
  8
FACES
 10
18
 20
33
 30
0
 11
15
 21
34
 31
0
 12
15
 22
32
 32
0
 13
15
 23
32
 33
0
  0
3DFACE
  8
FACES
 10
21
 20
33
 30
0
 11
21
 21
36
 31
0
 12
19
 22
36
 32
0
 13
18
 23
33
 33
0
  0
3DFACE
  8
FACES
 10
21
 20
33
 30
0
 11
24
 21
32
 31
0
 12
24
 22
34
 32
0
 13
24
 23
34
 33
0
  0
3DFACE
  8
FACES
 10
26
 20
30
 30
0
 11
27
 21
33
 31
0
 12
24
 22
32
 32
0
 13
24
 23
30
 33
0
  0
3DFACE
  8
FACES
 10
15
 20
34
 30
0
 11
18
 21
33
 31
0
 12
17
 22
36
 32
0
 13
15
 23
36
 33
0
  0
3DFACE
  8
FACES
 10
18
 20
33
 30
0
 11
19
 21
36
 31
0
 12
17
 22
36
 32
0
 13
17
 23
36
 33
0
  0
3DFACE
  8
FACES
 10
24
 20
32
 30
0
 11
27
 21
33
 31
0
 12
24
 22
34
 32
0
 13
24
 23
34
 33
0
  0
3DFACE
  8
FACES
 10
24
 20
34
 30
0
 11
24
 21
36
 31
0
 12
21
 22
36
 32
0
 13
21
 23
33
 33
0
  0
3DFACE
  8
FACES
 10
30
 20
32
 30
0
 11
33
 21
33
 31
0
 12
30
 22
34
 32
0
 13
30
 23
34
 33
0
  0
3DFACE
  8
FACES
 10
33
 20
33
 30
0
 11
36
 21
32
 31
0
 12
36
 22
34
 32
0
 13
36
 23
34
 33
0
  0
3DFACE
  8
FACES
 10
27
 20
33
 30
0
 11
30
 21
32
 31
0
 12
30
 22
34
 32
0
 13
30
 23
34
 33
0
  0
3DFACE
  8
FACES
 10
24
 20
34
 30
0
 11
27
 21
33
 31
0
 12
26
 22
36
 32
0
 13
24
 23
36
 33
0
  0
3DFACE
  8
FACES
 10
30
 20
34
 30
0
 11
33
 21
33
 31
0
 12
32
 22
36
 32
0
 13
30
 23
36
 33
0
  0
3DFACE
  8
FACES
 10
36
 20
34
 30
0
 11
36
 21
36
 31
0
 12
34
 22
36
 32
0
 13
33
 23
33
 33
0
  0
3DFACE
  8
FACES
 10
30
 20
34
 30
0
 11
30
 21
36
 31
0
 12
28
 22
36
 32
0
 13
27
 23
33
 33
0
  0
3DFACE
  8
FACES
 10
27
 20
33
 30
0
 11
28
 21
36
 31
0
 12
26
 22
36
 32
0
 13
26
 23
36
 33
0
  0
3DFACE
  8
FACES
 10
33
 20
33
 30
0
 11
34
 21
36
 31
0
 12
32
 22
36
 32
0
 13
32
 23
36
 33
0
  0
3DFACE
  8
FACES
 10
5
 20
21
 30
0
 11
5
 21
24
 31
0
 12
3
 22
24
 32
0
 13
3
 23
21
 33
0
  0
LINE
  8
BARS
 10
0
 20
0
 30
3
 11
3
 21
0
 31
3
  0
LINE
  8
BARS
 10
21
 20
0
 30
3
 11
24
 21
0
 31
3
  0
LINE
  8
BARS
 10
36
 20
0
 30
3
 11
36
 21
3
 31
3
  0
LINE
  8
BARS
 10
24
 20
36
 30
3
 11
21
 21
36
 31
3
  0
LINE
  8
BARS
 10
3
 20
36
 30
3
 11
0
 21
36
 31
3
  0
LINE
  8
BARS
 10
0
 20
24
 30
3
 11
0
 21
21
 31
3
  0
LINE
  8
BARS
 10
0
 20
3
 30
3
 11
0
 21
0
 31
3
  0
LINE
  8
BARS
 10
0
 20
15
 30
3
 11
3
 21
15
 31
3
  0
LINE
  8
BARS
 10
21
 20
15
 30
3
 11
24
 21
15
 31
3
  0
LINE
  8
BARS
 10
0
 20
30
 30
3
 11
3
 21
30
 31
3
  0
LINE
  8
BARS
 10
21
 20
30
 30
3
 11
24
 21
30
 31
3
  0
LINE
  8
BARS
 10
3
 20
0
 30
3
 11
3
 21
3
 31
3
  0
LINE
  8
BARS
 10
3
 20
21
 30
3
 11
3
 21
24
 31
3
  0
LINE
  8
BARS
 10
9
 20
0
 30
3
 11
9
 21
3
 31
3
  0
LINE
  8
BARS
 10
9
 20
21
 30
3
 11
9
 21
24
 31
3
  0
LINE
  8
BARS
 10
15
 20
0
 30
3
 11
15
 21
3
 31
3
  0
LINE
  8
BARS
 10
15
 20
21
 30
3
 11
15
 21
24
 31
3
  0
LINE
  8
BARS
 10
24
 20
0
 30
3
 11
24
 21
3
 31
3
  0
LINE
  8
BARS
 10
30
 20
0
 30
3
 11
30
 21
3
 31
3
  0
LINE
  8
BARS
 10
3
 20
0
 30
3
 11
5
 21
0
 31
3
  0
LINE
  8
BARS
 10
5
 20
0
 30
3
 11
7
 21
0
 31
3
  0
LINE
  8
BARS
 10
7
 20
0
 30
3
 11
9
 21
0
 31
3
  0
LINE
  8
BARS
 10
9
 20
0
 30
3
 11
11
 21
0
 31
3
  0
LINE
  8
BARS
 10
11
 20
0
 30
3
 11
13
 21
0
 31
3
  0
LINE
  8
BARS
 10
13
 20
0
 30
3
 11
15
 21
0
 31
3
  0
LINE
  8
BARS
 10
15
 20
0
 30
3
 11
17
 21
0
 31
3
  0
LINE
  8
BARS
 10
17
 20
0
 30
3
 11
19
 21
0
 31
3
  0
LINE
  8
BARS
 10
19
 20
0
 30
3
 11
21
 21
0
 31
3
  0
LINE
  8
BARS
 10
24
 20
0
 30
3
 11
26
 21
0
 31
3
  0
LINE
  8
BARS
 10
26
 20
0
 30
3
 11
28
 21
0
 31
3
  0
LINE
  8
BARS
 10
28
 20
0
 30
3
 11
30
 21
0
 31
3
  0
LINE
  8
BARS
 10
30
 20
0
 30
3
 11
32
 21
0
 31
3
  0
LINE
  8
BARS
 10
32
 20
0
 30
3
 11
34
 21
0
 31
3
  0
LINE
  8
BARS
 10
34
 20
0
 30
3
 11
36
 21
0
 31
3
  0
LINE
  8
BARS
 10
36
 20
3
 30
3
 11
36
 21
5
 31
3
  0
LINE
  8
BARS
 10
36
 20
5
 30
3
 11
36
 21
7
 31
3
  0
LINE
  8
BARS
 10
36
 20
7
 30
3
 11
36
 21
9
 31
3
  0
LINE
  8
BARS
 10
36
 20
9
 30
3
 11
36
 21
11
 31
3
  0
LINE
  8
BARS
 10
36
 20
11
 30
3
 11
36
 21
13
 31
3
  0
LINE
  8
BARS
 10
36
 20
13
 30
3
 11
36
 21
15
 31
3
  0
LINE
  8
BARS
 10
36
 20
15
 30
3
 11
34
 21
15
 31
3
  0
LINE
  8
BARS
 10
34
 20
15
 30
3
 11
32
 21
15
 31
3
  0
LINE
  8
BARS
 10
32
 20
15
 30
3
 11
30
 21
15
 31
3
  0
LINE
  8
BARS
 10
30
 20
15
 30
3
 11
28
 21
15
 31
3
  0
LINE
  8
BARS
 10
28
 20
15
 30
3
 11
26
 21
15
 31
3
  0
LINE
  8
BARS
 10
26
 20
15
 30
3
 11
24
 21
15
 31
3
  0
LINE
  8
BARS
 10
24
 20
30
 30
3
 11
26
 21
30
 31
3
  0
LINE
  8
BARS
 10
26
 20
30
 30
3
 11
28
 21
30
 31
3
  0
LINE
  8
BARS
 10
28
 20
30
 30
3
 11
30
 21
30
 31
3
  0
LINE
  8
BARS
 10
30
 20
30
 30
3
 11
32
 21
30
 31
3
  0
LINE
  8
BARS
 10
32
 20
30
 30
3
 11
34
 21
30
 31
3
  0
LINE
  8
BARS
 10
34
 20
30
 30
3
 11
36
 21
30
 31
3
  0
LINE
  8
BARS
 10
36
 20
30
 30
3
 11
36
 21
32
 31
3
  0
LINE
  8
BARS
 10
36
 20
32
 30
3
 11
36
 21
34
 31
3
  0
LINE
  8
BARS
 10
36
 20
34
 30
3
 11
36
 21
36
 31
3
  0
LINE
  8
BARS
 10
36
 20
36
 30
3
 11
34
 21
36
 31
3
  0
LINE
  8
BARS
 10
34
 20
36
 30
3
 11
32
 21
36
 31
3
  0
LINE
  8
BARS
 10
32
 20
36
 30
3
 11
30
 21
36
 31
3
  0
LINE
  8
BARS
 10
30
 20
36
 30
3
 11
28
 21
36
 31
3
  0
LINE
  8
BARS
 10
28
 20
36
 30
3
 11
26
 21
36
 31
3
  0
LINE
  8
BARS
 10
26
 20
36
 30
3
 11
24
 21
36
 31
3
  0
LINE
  8
BARS
 10
21
 20
36
 30
3
 11
19
 21
36
 31
3
  0
LINE
  8
BARS
 10
19
 20
36
 30
3
 11
17
 21
36
 31
3
  0
LINE
  8
BARS
 10
17
 20
36
 30
3
 11
15
 21
36
 31
3
  0
LINE
  8
BARS
 10
15
 20
36
 30
3
 11
13
 21
36
 31
3
  0
LINE
  8
BARS
 10
13
 20
36
 30
3
 11
11
 21
36
 31
3
  0
LINE
  8
BARS
 10
11
 20
36
 30
3
 11
9
 21
36
 31
3
  0
LINE
  8
BARS
 10
9
 20
36
 30
3
 11
7
 21
36
 31
3
  0
LINE
  8
BARS
 10
7
 20
36
 30
3
 11
5
 21
36
 31
3
  0
LINE
  8
BARS
 10
5
 20
36
 30
3
 11
3
 21
36
 31
3
  0
LINE
  8
BARS
 10
0
 20
36
 30
3
 11
0
 21
34
 31
3
  0
LINE
  8
BARS
 10
0
 20
34
 30
3
 11
0
 21
32
 31
3
  0
LINE
  8
BARS
 10
0
 20
32
 30
3
 11
0
 21
30
 31
3
  0
LINE
  8
BARS
 10
0
 20
30
 30
3
 11
0
 21
28
 31
3
  0
LINE
  8
BARS
 10
0
 20
28
 30
3
 11
0
 21
26
 31
3
  0
LINE
  8
BARS
 10
0
 20
26
 30
3
 11
0
 21
24
 31
3
  0
LINE
  8
BARS
 10
0
 20
21
 30
3
 11
0
 21
19
 31
3
  0
LINE
  8
BARS
 10
0
 20
19
 30
3
 11
0
 21
17
 31
3
  0
LINE
  8
BARS
 10
0
 20
17
 30
3
 11
0
 21
15
 31
3
  0
LINE
  8
BARS
 10
0
 20
15
 30
3
 11
0
 21
13
 31
3
  0
LINE
  8
BARS
 10
0
 20
13
 30
3
 11
0
 21
11
 31
3
  0
LINE
  8
BARS
 10
0
 20
11
 30
3
 11
0
 21
9
 31
3
  0
LINE
  8
BARS
 10
0
 20
9
 30
3
 11
0
 21
7
 31
3
  0
LINE
  8
BARS
 10
0
 20
7
 30
3
 11
0
 21
5
 31
3
  0
LINE
  8
BARS
 10
0
 20
5
 30
3
 11
0
 21
3
 31
3
  0
LINE
  8
BARS
 10
3
 20
15
 30
3
 11
5
 21
15
 31
3
  0
LINE
  8
BARS
 10
5
 20
15
 30
3
 11
7
 21
15
 31
3
  0
LINE
  8
BARS
 10
7
 20
15
 30
3
 11
9
 21
15
 31
3
  0
LINE
  8
BARS
 10
9
 20
15
 30
3
 11
11
 21
15
 31
3
  0
LINE
  8
BARS
 10
11
 20
15
 30
3
 11
13
 21
15
 31
3
  0
LINE
  8
BARS
 10
13
 20
15
 30
3
 11
15
 21
15
 31
3
  0
LINE
  8
BARS
 10
15
 20
15
 30
3
 11
17
 21
15
 31
3
  0
LINE
  8
BARS
 10
17
 20
15
 30
3
 11
19
 21
15
 31
3
  0
LINE
  8
BARS
 10
19
 20
15
 30
3
 11
21
 21
15
 31
3
  0
LINE
  8
BARS
 10
3
 20
30
 30
3
 11
5
 21
30
 31
3
  0
LINE
  8
BARS
 10
5
 20
30
 30
3
 11
7
 21
30
 31
3
  0
LINE
  8
BARS
 10
7
 20
30
 30
3
 11
9
 21
30
 31
3
  0
LINE
  8
BARS
 10
9
 20
30
 30
3
 11
11
 21
30
 31
3
  0
LINE
  8
BARS
 10
11
 20
30
 30
3
 11
13
 21
30
 31
3
  0
LINE
  8
BARS
 10
13
 20
30
 30
3
 11
15
 21
30
 31
3
  0
LINE
  8
BARS
 10
15
 20
30
 30
3
 11
17
 21
30
 31
3
  0
LINE
  8
BARS
 10
17
 20
30
 30
3
 11
19
 21
30
 31
3
  0
LINE
  8
BARS
 10
19
 20
30
 30
3
 11
21
 21
30
 31
3
  0
LINE
  8
BARS
 10
3
 20
3
 30
3
 11
3
 21
5
 31
3
  0
LINE
  8
BARS
 10
3
 20
5
 30
3
 11
3
 21
7
 31
3
  0
LINE
  8
BARS
 10
3
 20
7
 30
3
 11
3
 21
9
 31
3
  0
LINE
  8
BARS
 10
3
 20
9
 30
3
 11
3
 21
11
 31
3
  0
LINE
  8
BARS
 10
3
 20
11
 30
3
 11
3
 21
13
 31
3
  0
LINE
  8
BARS
 10
3
 20
13
 30
3
 11
3
 21
15
 31
3
  0
LINE
  8
BARS
 10
3
 20
15
 30
3
 11
3
 21
17
 31
3
  0
LINE
  8
BARS
 10
3
 20
17
 30
3
 11
3
 21
19
 31
3
  0
LINE
  8
BARS
 10
3
 20
19
 30
3
 11
3
 21
21
 31
3
  0
LINE
  8
BARS
 10
3
 20
24
 30
3
 11
3
 21
26
 31
3
  0
LINE
  8
BARS
 10
3
 20
26
 30
3
 11
3
 21
28
 31
3
  0
LINE
  8
BARS
 10
3
 20
28
 30
3
 11
3
 21
30
 31
3
  0
LINE
  8
BARS
 10
3
 20
30
 30
3
 11
3
 21
32
 31
3
  0
LINE
  8
BARS
 10
3
 20
32
 30
3
 11
3
 21
34
 31
3
  0
LINE
  8
BARS
 10
3
 20
34
 30
3
 11
3
 21
36
 31
3
  0
LINE
  8
BARS
 10
9
 20
24
 30
3
 11
9
 21
26
 31
3
  0
LINE
  8
BARS
 10
9
 20
26
 30
3
 11
9
 21
28
 31
3
  0
LINE
  8
BARS
 10
9
 20
28
 30
3
 11
9
 21
30
 31
3
  0
LINE
  8
BARS
 10
9
 20
30
 30
3
 11
9
 21
32
 31
3
  0
LINE
  8
BARS
 10
9
 20
32
 30
3
 11
9
 21
34
 31
3
  0
LINE
  8
BARS
 10
9
 20
34
 30
3
 11
9
 21
36
 31
3
  0
LINE
  8
BARS
 10
15
 20
24
 30
3
 11
15
 21
26
 31
3
  0
LINE
  8
BARS
 10
15
 20
26
 30
3
 11
15
 21
28
 31
3
  0
LINE
  8
BARS
 10
15
 20
28
 30
3
 11
15
 21
30
 31
3
  0
LINE
  8
BARS
 10
15
 20
30
 30
3
 11
15
 21
32
 31
3
  0
LINE
  8
BARS
 10
15
 20
32
 30
3
 11
15
 21
34
 31
3
  0
LINE
  8
BARS
 10
15
 20
34
 30
3
 11
15
 21
36
 31
3
  0
LINE
  8
BARS
 10
24
 20
3
 30
3
 11
24
 21
5
 31
3
  0
LINE
  8
BARS
 10
24
 20
5
 30
3
 11
24
 21
7
 31
3
  0
LINE
  8
BARS
 10
24
 20
7
 30
3
 11
24
 21
9
 31
3
  0
LINE
  8
BARS
 10
24
 20
9
 30
3
 11
24
 21
11
 31
3
  0
LINE
  8
BARS
 10
24
 20
11
 30
3
 11
24
 21
13
 31
3
  0
LINE
  8
BARS
 10
24
 20
13
 30
3
 11
24
 21
15
 31
3
  0
LINE
  8
BARS
 10
24
 20
30
 30
3
 11
24
 21
32
 31
3
  0
LINE
  8
BARS
 10
24
 20
32
 30
3
 11
24
 21
34
 31
3
  0
LINE
  8
BARS
 10
24
 20
34
 30
3
 11
24
 21
36
 31
3
  0
LINE
  8
BARS
 10
30
 20
3
 30
3
 11
30
 21
5
 31
3
  0
LINE
  8
BARS
 10
30
 20
5
 30
3
 11
30
 21
7
 31
3
  0
LINE
  8
BARS
 10
30
 20
7
 30
3
 11
30
 21
9
 31
3
  0
LINE
  8
BARS
 10
30
 20
9
 30
3
 11
30
 21
11
 31
3
  0
LINE
  8
BARS
 10
30
 20
11
 30
3
 11
30
 21
13
 31
3
  0
LINE
  8
BARS
 10
30
 20
13
 30
3
 11
30
 21
15
 31
3
  0
LINE
  8
BARS
 10
30
 20
30
 30
3
 11
30
 21
32
 31
3
  0
LINE
  8
BARS
 10
30
 20
32
 30
3
 11
30
 21
34
 31
3
  0
LINE
  8
BARS
 10
30
 20
34
 30
3
 11
30
 21
36
 31
3
  0
LINE
  8
BARS
 10
9
 20
3
 30
3
 11
9
 21
5
 31
3
  0
LINE
  8
BARS
 10
9
 20
5
 30
3
 11
9
 21
7
 31
3
  0
LINE
  8
BARS
 10
9
 20
7
 30
3
 11
9
 21
9
 31
3
  0
LINE
  8
BARS
 10
9
 20
9
 30
3
 11
9
 21
11
 31
3
  0
LINE
  8
BARS
 10
9
 20
11
 30
3
 11
9
 21
13
 31
3
  0
LINE
  8
BARS
 10
9
 20
13
 30
3
 11
9
 21
15
 31
3
  0
LINE
  8
BARS
 10
9
 20
15
 30
3
 11
9
 21
17
 31
3
  0
LINE
  8
BARS
 10
9
 20
17
 30
3
 11
9
 21
19
 31
3
  0
LINE
  8
BARS
 10
9
 20
19
 30
3
 11
9
 21
21
 31
3
  0
LINE
  8
BARS
 10
15
 20
3
 30
3
 11
15
 21
5
 31
3
  0
LINE
  8
BARS
 10
15
 20
5
 30
3
 11
15
 21
7
 31
3
  0
LINE
  8
BARS
 10
15
 20
7
 30
3
 11
15
 21
9
 31
3
  0
LINE
  8
BARS
 10
15
 20
9
 30
3
 11
15
 21
11
 31
3
  0
LINE
  8
BARS
 10
15
 20
11
 30
3
 11
15
 21
13
 31
3
  0
LINE
  8
BARS
 10
15
 20
13
 30
3
 11
15
 21
15
 31
3
  0
LINE
  8
BARS
 10
15
 20
15
 30
3
 11
15
 21
17
 31
3
  0
LINE
  8
BARS
 10
15
 20
17
 30
3
 11
15
 21
19
 31
3
  0
LINE
  8
BARS
 10
15
 20
19
 30
3
 11
15
 21
21
 31
3
  0
3DFACE
  8
FACES
 10
0
 20
0
 30
3
 11
3
 21
0
 31
3
 12
3
 22
3
 32
3
 13
0
 23
3
 33
3
  0
3DFACE
  8
FACES
 10
0
 20
3
 30
3
 11
3
 21
3
 31
3
 12
3
 22
5
 32
3
 13
0
 23
5
 33
3
  0
3DFACE
  8
FACES
 10
0
 20
5
 30
3
 11
3
 21
5
 31
3
 12
3
 22
7
 32
3
 13
0
 23
7
 33
3
  0
3DFACE
  8
FACES
 10
0
 20
7
 30
3
 11
3
 21
7
 31
3
 12
3
 22
9
 32
3
 13
0
 23
9
 33
3
  0
3DFACE
  8
FACES
 10
0
 20
9
 30
3
 11
3
 21
9
 31
3
 12
3
 22
11
 32
3
 13
0
 23
11
 33
3
  0
3DFACE
  8
FACES
 10
0
 20
11
 30
3
 11
3
 21
11
 31
3
 12
3
 22
13
 32
3
 13
0
 23
13
 33
3
  0
3DFACE
  8
FACES
 10
0
 20
13
 30
3
 11
3
 21
13
 31
3
 12
3
 22
15
 32
3
 13
0
 23
15
 33
3
  0
3DFACE
  8
FACES
 10
0
 20
15
 30
3
 11
3
 21
15
 31
3
 12
3
 22
17
 32
3
 13
0
 23
17
 33
3
  0
3DFACE
  8
FACES
 10
0
 20
17
 30
3
 11
3
 21
17
 31
3
 12
3
 22
19
 32
3
 13
0
 23
19
 33
3
  0
3DFACE
  8
FACES
 10
0
 20
19
 30
3
 11
3
 21
19
 31
3
 12
3
 22
21
 32
3
 13
0
 23
21
 33
3
  0
3DFACE
  8
FACES
 10
0
 20
21
 30
3
 11
3
 21
21
 31
3
 12
3
 22
24
 32
3
 13
0
 23
24
 33
3
  0
3DFACE
  8
FACES
 10
0
 20
24
 30
3
 11
3
 21
24
 31
3
 12
3
 22
26
 32
3
 13
0
 23
26
 33
3
  0
3DFACE
  8
FACES
 10
0
 20
26
 30
3
 11
3
 21
26
 31
3
 12
3
 22
28
 32
3
 13
0
 23
28
 33
3
  0
3DFACE
  8
FACES
 10
0
 20
28
 30
3
 11
3
 21
28
 31
3
 12
3
 22
30
 32
3
 13
0
 23
30
 33
3
  0
3DFACE
  8
FACES
 10
0
 20
30
 30
3
 11
3
 21
30
 31
3
 12
3
 22
32
 32
3
 13
0
 23
32
 33
3
  0
3DFACE
  8
FACES
 10
0
 20
32
 30
3
 11
3
 21
32
 31
3
 12
3
 22
34
 32
3
 13
0
 23
34
 33
3
  0
3DFACE
  8
FACES
 10
0
 20
34
 30
3
 11
3
 21
34
 31
3
 12
3
 22
36
 32
3
 13
0
 23
36
 33
3
  0
3DFACE
  8
FACES
 10
3
 20
36
 30
3
 11
5
 21
36
 31
3
 12
3
 22
34
 32
3
 13
3
 23
34
 33
3
  0
3DFACE
  8
FACES
 10
5
 20
36
 30
3
 11
5
 21
34
 31
3
 12
3
 22
34
 32
3
 13
3
 23
34
 33
3
  0
3DFACE
  8
FACES
 10
3
 20
34
 30
3
 11
5
 21
34
 31
3
 12
3
 22
32
 32
3
 13
3
 23
32
 33
3
  0
3DFACE
  8
FACES
 10
5
 20
36
 30
3
 11
7
 21
36
 31
3
 12
5
 22
34
 32
3
 13
5
 23
34
 33
3
  0
3DFACE
  8
FACES
 10
5
 20
34
 30
3
 11
5
 21
32
 31
3
 12
3
 22
32
 32
3
 13
3
 23
32
 33
3
  0
3DFACE
  8
FACES
 10
5
 20
34
 30
3
 11
7
 21
36
 31
3
 12
7
 22
34
 32
3
 13
7
 23
34
 33
3
  0
3DFACE
  8
FACES
 10
3
 20
32
 30
3
 11
5
 21
32
 31
3
 12
3
 22
30
 32
3
 13
3
 23
30
 33
3
  0
3DFACE
  8
FACES
 10
5
 20
34
 30
3
 11
7
 21
34
 31
3
 12
5
 22
32
 32
3
 13
5
 23
32
 33
3
  0
3DFACE
  8
FACES
 10
7
 20
36
 30
3
 11
9
 21
36
 31
3
 12
7
 22
34
 32
3
 13
7
 23
34
 33
3
  0
3DFACE
  8
FACES
 10
5
 20
32
 30
3
 11
5
 21
30
 31
3
 12
3
 22
30
 32
3
 13
3
 23
30
 33
3
  0
3DFACE
  8
FACES
 10
5
 20
32
 30
3
 11
7
 21
34
 31
3
 12
7
 22
32
 32
3
 13
7
 23
32
 33
3
  0
3DFACE
  8
FACES
 10
7
 20
34
 30
3
 11
9
 21
36
 31
3
 12
9
 22
34
 32
3
 13
9
 23
34
 33
3
  0
3DFACE
  8
FACES
 10
3
 20
30
 30
3
 11
5
 21
30
 31
3
 12
3
 22
28
 32
3
 13
3
 23
28
 33
3
  0
3DFACE
  8
FACES
 10
5
 20
32
 30
3
 11
7
 21
30
 31
3
 12
5
 22
30
 32
3
 13
5
 23
30
 33
3
  0
3DFACE
  8
FACES
 10
7
 20
34
 30
3
 11
9
 21
32
 31
3
 12
7
 22
32
 32
3
 13
7
 23
32
 33
3
  0
3DFACE
  8
FACES
 10
5
 20
32
 30
3
 11
7
 21
32
 31
3
 12
7
 22
30
 32
3
 13
7
 23
30
 33
3
  0
3DFACE
  8
FACES
 10
9
 20
36
 30
3
 11
11
 21
36
 31
3
 12
9
 22
34
 32
3
 13
9
 23
34
 33
3
  0
3DFACE
  8
FACES
 10
7
 20
34
 30
3
 11
9
 21
34
 31
3
 12
9
 22
32
 32
3
 13
9
 23
32
 33
3
  0
3DFACE
  8
FACES
 10
5
 20
30
 30
3
 11
5
 21
28
 31
3
 12
3
 22
28
 32
3
 13
3
 23
28
 33
3
  0
3DFACE
  8
FACES
 10
5
 20
30
 30
3
 11
7
 21
30
 31
3
 12
5
 22
28
 32
3
 13
5
 23
28
 33
3
  0
3DFACE
  8
FACES
 10
7
 20
32
 30
3
 11
9
 21
32
 31
3
 12
9
 22
30
 32
3
 13
9
 23
30
 33
3
  0
3DFACE
  8
FACES
 10
7
 20
32
 30
3
 11
9
 21
30
 31
3
 12
7
 22
30
 32
3
 13
7
 23
30
 33
3
  0
3DFACE
  8
FACES
 10
9
 20
34
 30
3
 11
11
 21
36
 31
3
 12
11
 22
34
 32
3
 13
11
 23
34
 33
3
  0
3DFACE
  8
FACES
 10
9
 20
34
 30
3
 11
11
 21
34
 31
3
 12
9
 22
32
 32
3
 13
9
 23
32
 33
3
  0
3DFACE
  8
FACES
 10
3
 20
28
 30
3
 11
5
 21
28
 31
3
 12
3
 22
26
 32
3
 13
3
 23
26
 33
3
  0
3DFACE
  8
FACES
 10
7
 20
30
 30
3
 11
7
 21
28
 31
3
 12
5
 22
28
 32
3
 13
5
 23
28
 33
3
  0
3DFACE
  8
FACES
 10
9
 20
32
 30
3
 11
11
 21
30
 31
3
 12
9
 22
30
 32
3
 13
9
 23
30
 33
3
  0
3DFACE
  8
FACES
 10
7
 20
30
 30
3
 11
9
 21
30
 31
3
 12
9
 22
28
 32
3
 13
9
 23
28
 33
3
  0
3DFACE
  8
FACES
 10
11
 20
36
 30
3
 11
13
 21
36
 31
3
 12
11
 22
34
 32
3
 13
11
 23
34
 33
3
  0
3DFACE
  8
FACES
 10
9
 20
32
 30
3
 11
11
 21
34
 31
3
 12
11
 22
32
 32
3
 13
11
 23
32
 33
3
  0
3DFACE
  8
FACES
 10
5
 20
28
 30
3
 11
5
 21
26
 31
3
 12
3
 22
26
 32
3
 13
3
 23
26
 33
3
  0
3DFACE
  8
FACES
 10
5
 20
28
 30
3
 11
7
 21
28
 31
3
 12
5
 22
26
 32
3
 13
5
 23
26
 33
3
  0
3DFACE
  8
FACES
 10
7
 20
30
 30
3
 11
9
 21
28
 31
3
 12
7
 22
28
 32
3
 13
7
 23
28
 33
3
  0
3DFACE
  8
FACES
 10
9
 20
30
 30
3
 11
11
 21
30
 31
3
 12
9
 22
28
 32
3
 13
9
 23
28
 33
3
  0
3DFACE
  8
FACES
 10
9
 20
32
 30
3
 11
11
 21
32
 31
3
 12
11
 22
30
 32
3
 13
11
 23
30
 33
3
  0
3DFACE
  8
FACES
 10
11
 20
34
 30
3
 11
13
 21
36
 31
3
 12
13
 22
34
 32
3
 13
13
 23
34
 33
3
  0
3DFACE
  8
FACES
 10
11
 20
34
 30
3
 11
13
 21
34
 31
3
 12
11
 22
32
 32
3
 13
11
 23
32
 33
3
  0
3DFACE
  8
FACES
 10
3
 20
26
 30
3
 11
5
 21
26
 31
3
 12
3
 22
24
 32
3
 13
3
 23
24
 33
3
  0
3DFACE
  8
FACES
 10
7
 20
28
 30
3
 11
7
 21
26
 31
3
 12
5
 22
26
 32
3
 13
5
 23
26
 33
3
  0
3DFACE
  8
FACES
 10
7
 20
28
 30
3
 11
9
 21
28
 31
3
 12
9
 22
26
 32
3
 13
9
 23
26
 33
3
  0
3DFACE
  8
FACES
 10
11
 20
30
 30
3
 11
11
 21
28
 31
3
 12
9
 22
28
 32
3
 13
9
 23
28
 33
3
  0
3DFACE
  8
FACES
 10
11
 20
30
 30
3
 11
11
 21
32
 31
3
 12
13
 22
30
 32
3
 13
13
 23
30
 33
3
  0
3DFACE
  8
FACES
 10
13
 20
36
 30
3
 11
15
 21
36
 31
3
 12
13
 22
34
 32
3
 13
13
 23
34
 33
3
  0
3DFACE
  8
FACES
 10
11
 20
32
 30
3
 11
13
 21
34
 31
3
 12
13
 22
32
 32
3
 13
13
 23
32
 33
3
  0
3DFACE
  8
FACES
 10
5
 20
26
 30
3
 11
5
 21
24
 31
3
 12
3
 22
24
 32
3
 13
3
 23
24
 33
3
  0
3DFACE
  8
FACES
 10
5
 20
26
 30
3
 11
7
 21
26
 31
3
 12
7
 22
24
 32
3
 13
7
 23
24
 33
3
  0
3DFACE
  8
FACES
 10
7
 20
28
 30
3
 11
9
 21
26
 31
3
 12
7
 22
26
 32
3
 13
7
 23
26
 33
3
  0
3DFACE
  8
FACES
 10
9
 20
28
 30
3
 11
11
 21
28
 31
3
 12
9
 22
26
 32
3
 13
9
 23
26
 33
3
  0
3DFACE
  8
FACES
 10
11
 20
30
 30
3
 11
13
 21
30
 31
3
 12
11
 22
28
 32
3
 13
11
 23
28
 33
3
  0
3DFACE
  8
FACES
 10
11
 20
32
 30
3
 11
13
 21
32
 31
3
 12
13
 22
30
 32
3
 13
13
 23
30
 33
3
  0
3DFACE
  8
FACES
 10
13
 20
34
 30
3
 11
15
 21
36
 31
3
 12
15
 22
34
 32
3
 13
15
 23
34
 33
3
  0
3DFACE
  8
FACES
 10
13
 20
34
 30
3
 11
15
 21
34
 31
3
 12
13
 22
32
 32
3
 13
13
 23
32
 33
3
  0
3DFACE
  8
FACES
 10
5
 20
26
 30
3
 11
7
 21
24
 31
3
 12
5
 22
24
 32
3
 13
5
 23
24
 33
3
  0
3DFACE
  8
FACES
 10
7
 20
26
 30
3
 11
9
 21
24
 31
3
 12
7
 22
24
 32
3
 13
7
 23
24
 33
3
  0
3DFACE
  8
FACES
 10
7
 20
26
 30
3
 11
9
 21
26
 31
3
 12
9
 22
24
 32
3
 13
9
 23
24
 33
3
  0
3DFACE
  8
FACES
 10
9
 20
26
 30
3
 11
11
 21
28
 31
3
 12
11
 22
26
 32
3
 13
11
 23
26
 33
3
  0
3DFACE
  8
FACES
 10
11
 20
28
 30
3
 11
13
 21
30
 31
3
 12
13
 22
28
 32
3
 13
13
 23
28
 33
3
  0
3DFACE
  8
FACES
 10
13
 20
30
 30
3
 11
13
 21
32
 31
3
 12
15
 22
32
 32
3
 13
15
 23
32
 33
3
  0
3DFACE
  8
FACES
 10
13
 20
32
 30
3
 11
15
 21
34
 31
3
 12
15
 22
32
 32
3
 13
15
 23
32
 33
3
  0
3DFACE
  8
FACES
 10
9
 20
26
 30
3
 11
11
 21
24
 31
3
 12
9
 22
24
 32
3
 13
9
 23
24
 33
3
  0
3DFACE
  8
FACES
 10
11
 20
28
 30
3
 11
13
 21
28
 31
3
 12
11
 22
26
 32
3
 13
11
 23
26
 33
3
  0
3DFACE
  8
FACES
 10
9
 20
26
 30
3
 11
11
 21
26
 31
3
 12
11
 22
24
 32
3
 13
11
 23
24
 33
3
  0
3DFACE
  8
FACES
 10
13
 20
30
 30
3
 11
15
 21
30
 31
3
 12
13
 22
28
 32
3
 13
13
 23
28
 33
3
  0
3DFACE
  8
FACES
 10
13
 20
30
 30
3
 11
15
 21
32
 31
3
 12
15
 22
30
 32
3
 13
15
 23
30
 33
3
  0
3DFACE
  8
FACES
 10
11
 20
26
 30
3
 11
13
 21
28
 31
3
 12
13
 22
26
 32
3
 13
13
 23
26
 33
3
  0
3DFACE
  8
FACES
 10
11
 20
26
 30
3
 11
13
 21
24
 31
3
 12
11
 22
24
 32
3
 13
11
 23
24
 33
3
  0
3DFACE
  8
FACES
 10
13
 20
28
 30
3
 11
15
 21
30
 31
3
 12
15
 22
28
 32
3
 13
15
 23
28
 33
3
  0
3DFACE
  8
FACES
 10
13
 20
28
 30
3
 11
15
 21
28
 31
3
 12
13
 22
26
 32
3
 13
13
 23
26
 33
3
  0
3DFACE
  8
FACES
 10
11
 20
26
 30
3
 11
13
 21
26
 31
3
 12
13
 22
24
 32
3
 13
13
 23
24
 33
3
  0
3DFACE
  8
FACES
 10
13
 20
26
 30
3
 11
15
 21
28
 31
3
 12
15
 22
26
 32
3
 13
15
 23
26
 33
3
  0
3DFACE
  8
FACES
 10
13
 20
26
 30
3
 11
15
 21
26
 31
3
 12
13
 22
24
 32
3
 13
13
 23
24
 33
3
  0
3DFACE
  8
FACES
 10
13
 20
24
 30
3
 11
15
 21
26
 31
3
 12
15
 22
24
 32
3
 13
15
 23
24
 33
3
  0
3DFACE
  8
FACES
 10
5
 20
3
 30
3
 11
5
 21
5
 31
3
 12
3
 22
5
 32
3
 13
3
 23
3
 33
3
  0
3DFACE
  8
FACES
 10
5
 20
5
 30
3
 11
5
 21
7
 31
3
 12
3
 22
7
 32
3
 13
3
 23
5
 33
3
  0
3DFACE
  8
FACES
 10
5
 20
5
 30
3
 11
5
 21
3
 31
3
 12
7
 22
3
 32
3
 13
7
 23
5
 33
3
  0
3DFACE
  8
FACES
 10
5
 20
7
 30
3
 11
5
 21
9
 31
3
 12
3
 22
9
 32
3
 13
3
 23
7
 33
3
  0
3DFACE
  8
FACES
 10
5
 20
5
 30
3
 11
7
 21
5
 31
3
 12
7
 22
7
 32
3
 13
5
 23
7
 33
3
  0
3DFACE
  8
FACES
 10
7
 20
5
 30
3
 11
7
 21
3
 31
3
 12
9
 22
3
 32
3
 13
9
 23
5
 33
3
  0
3DFACE
  8
FACES
 10
5
 20
9
 30
3
 11
5
 21
11
 31
3
 12
3
 22
11
 32
3
 13
3
 23
9
 33
3
  0
3DFACE
  8
FACES
 10
5
 20
7
 30
3
 11
7
 21
7
 31
3
 12
7
 22
9
 32
3
 13
5
 23
9
 33
3
  0
3DFACE
  8
FACES
 10
7
 20
7
 30
3
 11
7
 21
5
 31
3
 12
9
 22
5
 32
3
 13
9
 23
7
 33
3
  0
3DFACE
  8
FACES
 10
9
 20
5
 30
3
 11
9
 21
3
 31
3
 12
11
 22
3
 32
3
 13
11
 23
5
 33
3
  0
3DFACE
  8
FACES
 10
5
 20
11
 30
3
 11
5
 21
13
 31
3
 12
3
 22
13
 32
3
 13
3
 23
11
 33
3
  0
3DFACE
  8
FACES
 10
5
 20
9
 30
3
 11
7
 21
9
 31
3
 12
7
 22
11
 32
3
 13
5
 23
11
 33
3
  0
3DFACE
  8
FACES
 10
7
 20
7
 30
3
 11
9
 21
7
 31
3
 12
9
 22
9
 32
3
 13
7
 23
9
 33
3
  0
3DFACE
  8
FACES
 10
9
 20
7
 30
3
 11
9
 21
5
 31
3
 12
11
 22
5
 32
3
 13
11
 23
7
 33
3
  0
3DFACE
  8
FACES
 10
11
 20
5
 30
3
 11
11
 21
3
 31
3
 12
13
 22
3
 32
3
 13
13
 23
5
 33
3
  0
3DFACE
  8
FACES
 10
7
 20
9
 30
3
 11
9
 21
9
 31
3
 12
9
 22
11
 32
3
 13
7
 23
11
 33
3
  0
3DFACE
  8
FACES
 10
9
 20
9
 30
3
 11
9
 21
7
 31
3
 12
11
 22
7
 32
3
 13
11
 23
9
 33
3
  0
3DFACE
  8
FACES
 10
5
 20
13
 30
3
 11
5
 21
15
 31
3
 12
3
 22
15
 32
3
 13
3
 23
13
 33
3
  0
3DFACE
  8
FACES
 10
5
 20
11
 30
3
 11
7
 21
11
 31
3
 12
7
 22
13
 32
3
 13
5
 23
13
 33
3
  0
3DFACE
  8
FACES
 10
9
 20
11
 30
3
 11
9
 21
9
 31
3
 12
11
 22
9
 32
3
 13
11
 23
11
 33
3
  0
3DFACE
  8
FACES
 10
11
 20
5
 30
3
 11
13
 21
5
 31
3
 12
13
 22
7
 32
3
 13
11
 23
7
 33
3
  0
3DFACE
  8
FACES
 10
13
 20
5
 30
3
 11
13
 21
3
 31
3
 12
15
 22
3
 32
3
 13
15
 23
5
 33
3
  0
3DFACE
  8
FACES
 10
7
 20
11
 30
3
 11
9
 21
11
 31
3
 12
9
 22
13
 32
3
 13
7
 23
13
 33
3
  0
3DFACE
  8
FACES
 10
11
 20
7
 30
3
 11
13
 21
7
 31
3
 12
13
 22
9
 32
3
 13
11
 23
9
 33
3
  0
3DFACE
  8
FACES
 10
5
 20
15
 30
3
 11
5
 21
17
 31
3
 12
3
 22
17
 32
3
 13
3
 23
15
 33
3
  0
3DFACE
  8
FACES
 10
5
 20
13
 30
3
 11
7
 21
13
 31
3
 12
7
 22
15
 32
3
 13
5
 23
15
 33
3
  0
3DFACE
  8
FACES
 10
9
 20
13
 30
3
 11
9
 21
11
 31
3
 12
11
 22
11
 32
3
 13
11
 23
13
 33
3
  0
3DFACE
  8
FACES
 10
11
 20
9
 30
3
 11
13
 21
9
 31
3
 12
13
 22
11
 32
3
 13
11
 23
11
 33
3
  0
3DFACE
  8
FACES
 10
13
 20
7
 30
3
 11
13
 21
5
 31
3
 12
15
 22
5
 32
3
 13
15
 23
7
 33
3
  0
3DFACE
  8
FACES
 10
7
 20
15
 30
3
 11
7
 21
17
 31
3
 12
5
 22
17
 32
3
 13
5
 23
15
 33
3
  0
3DFACE
  8
FACES
 10
7
 20
13
 30
3
 11
9
 21
13
 31
3
 12
9
 22
15
 32
3
 13
7
 23
15
 33
3
  0
3DFACE
  8
FACES
 10
13
 20
9
 30
3
 11
13
 21
7
 31
3
 12
15
 22
7
 32
3
 13
15
 23
9
 33
3
  0
3DFACE
  8
FACES
 10
5
 20
17
 30
3
 11
5
 21
19
 31
3
 12
3
 22
19
 32
3
 13
3
 23
17
 33
3
  0
3DFACE
  8
FACES
 10
9
 20
13
 30
3
 11
11
 21
13
 31
3
 12
11
 22
15
 32
3
 13
9
 23
15
 33
3
  0
3DFACE
  8
FACES
 10
7
 20
15
 30
3
 11
9
 21
15
 31
3
 12
9
 22
17
 32
3
 13
7
 23
17
 33
3
  0
3DFACE
  8
FACES
 10
11
 20
11
 30
3
 11
13
 21
11
 31
3
 12
13
 22
13
 32
3
 13
11
 23
13
 33
3
  0
3DFACE
  8
FACES
 10
13
 20
11
 30
3
 11
13
 21
9
 31
3
 12
15
 22
9
 32
3
 13
15
 23
11
 33
3
  0
3DFACE
  8
FACES
 10
5
 20
17
 30
3
 11
7
 21
17
 31
3
 12
7
 22
19
 32
3
 13
5
 23
19
 33
3
  0
3DFACE
  8
FACES
 10
11
 20
15
 30
3
 11
11
 21
17
 31
3
 12
9
 22
17
 32
3
 13
9
 23
15
 33
3
  0
3DFACE
  8
FACES
 10
11
 20
13
 30
3
 11
13
 21
13
 31
3
 12
13
 22
15
 32
3
 13
11
 23
15
 33
3
  0
3DFACE
  8
FACES
 10
5
 20
19
 30
3
 11
5
 21
21
 31
3
 12
3
 22
21
 32
3
 13
3
 23
19
 33
3
  0
3DFACE
  8
FACES
 10
7
 20
17
 30
3
 11
9
 21
17
 31
3
 12
9
 22
19
 32
3
 13
7
 23
19
 33
3
  0
3DFACE
  8
FACES
 10
13
 20
13
 30
3
 11
13
 21
11
 31
3
 12
15
 22
11
 32
3
 13
15
 23
13
 33
3
  0
3DFACE
  8
FACES
 10
13
 20
15
 30
3
 11
13
 21
17
 31
3
 12
11
 22
17
 32
3
 13
11
 23
15
 33
3
  0
3DFACE
  8
FACES
 10
5
 20
19
 30
3
 11
7
 21
19
 31
3
 12
7
 22
21
 32
3
 13
5
 23
21
 33
3
  0
3DFACE
  8
FACES
 10
9
 20
19
 30
3
 11
9
 21
17
 31
3
 12
11
 22
17
 32
3
 13
11
 23
19
 33
3
  0
3DFACE
  8
FACES
 10
13
 20
15
 30
3
 11
13
 21
13
 31
3
 12
15
 22
13
 32
3
 13
15
 23
15
 33
3
  0
3DFACE
  8
FACES
 10
7
 20
19
 30
3
 11
9
 21
19
 31
3
 12
9
 22
21
 32
3
 13
7
 23
21
 33
3
  0
3DFACE
  8
FACES
 10
11
 20
17
 30
3
 11
13
 21
17
 31
3
 12
13
 22
19
 32
3
 13
11
 23
19
 33
3
  0
3DFACE
  8
FACES
 10
13
 20
17
 30
3
 11
13
 21
15
 31
3
 12
15
 22
15
 32
3
 13
15
 23
17
 33
3
  0
3DFACE
  8
FACES
 10
9
 20
19
 30
3
 11
11
 21
19
 31
3
 12
11
 22
21
 32
3
 13
9
 23
21
 33
3
  0
3DFACE
  8
FACES
 10
11
 20
19
 30
3
 11
13
 21
19
 31
3
 12
13
 22
21
 32
3
 13
11
 23
21
 33
3
  0
3DFACE
  8
FACES
 10
13
 20
19
 30
3
 11
13
 21
17
 31
3
 12
15
 22
17
 32
3
 13
15
 23
19
 33
3
  0
3DFACE
  8
FACES
 10
13
 20
21
 30
3
 11
13
 21
19
 31
3
 12
15
 22
19
 32
3
 13
15
 23
21
 33
3
  0
3DFACE
  8
FACES
 10
15
 20
3
 30
3
 11
13
 21
3
 31
3
 12
13
 22
0
 32
3
 13
15
 23
0
 33
3
  0
3DFACE
  8
FACES
 10
13
 20
0
 30
3
 11
13
 21
3
 31
3
 12
11
 22
3
 32
3
 13
11
 23
0
 33
3
  0
3DFACE
  8
FACES
 10
15
 20
3
 30
3
 11
15
 21
0
 31
3
 12
17
 22
0
 32
3
 13
18
 23
3
 33
3
  0
3DFACE
  8
FACES
 10
11
 20
0
 30
3
 11
11
 21
3
 31
3
 12
9
 22
3
 32
3
 13
9
 23
0
 33
3
  0
3DFACE
  8
FACES
 10
17
 20
0
 30
3
 11
19
 21
0
 31
3
 12
18
 22
3
 32
3
 13
18
 23
3
 33
3
  0
3DFACE
  8
FACES
 10
18
 20
3
 30
3
 11
18
 21
6
 31
3
 12
15
 22
5
 32
3
 13
15
 23
3
 33
3
  0
3DFACE
  8
FACES
 10
9
 20
0
 30
3
 11
9
 21
3
 31
3
 12
7
 22
3
 32
3
 13
7
 23
0
 33
3
  0
3DFACE
  8
FACES
 10
19
 20
0
 30
3
 11
21
 21
0
 31
3
 12
21
 22
3
 32
3
 13
18
 23
3
 33
3
  0
3DFACE
  8
FACES
 10
21
 20
6
 30
3
 11
18
 21
6
 31
3
 12
18
 22
3
 32
3
 13
21
 23
3
 33
3
  0
3DFACE
  8
FACES
 10
15
 20
5
 30
3
 11
18
 21
6
 31
3
 12
15
 22
7
 32
3
 13
15
 23
7
 33
3
  0
3DFACE
  8
FACES
 10
7
 20
0
 30
3
 11
7
 21
3
 31
3
 12
5
 22
3
 32
3
 13
5
 23
0
 33
3
  0
3DFACE
  8
FACES
 10
21
 20
3
 30
3
 11
21
 21
0
 31
3
 12
24
 22
0
 32
3
 13
24
 23
3
 33
3
  0
3DFACE
  8
FACES
 10
21
 20
3
 30
3
 11
24
 21
3
 31
3
 12
24
 22
5
 32
3
 13
21
 23
6
 33
3
  0
3DFACE
  8
FACES
 10
15
 20
7
 30
3
 11
18
 21
6
 31
3
 12
18
 22
9
 32
3
 13
15
 23
9
 33
3
  0
3DFACE
  8
FACES
 10
21
 20
9
 30
3
 11
18
 21
9
 31
3
 12
18
 22
6
 32
3
 13
21
 23
6
 33
3
  0
3DFACE
  8
FACES
 10
21
 20
6
 30
3
 11
24
 21
5
 31
3
 12
24
 22
7
 32
3
 13
24
 23
7
 33
3
  0
3DFACE
  8
FACES
 10
21
 20
9
 30
3
 11
21
 21
6
 31
3
 12
24
 22
7
 32
3
 13
24
 23
9
 33
3
  0
3DFACE
  8
FACES
 10
5
 20
0
 30
3
 11
5
 21
3
 31
3
 12
3
 22
3
 32
3
 13
3
 23
0
 33
3
  0
3DFACE
  8
FACES
 10
24
 20
3
 30
3
 11
24
 21
0
 31
3
 12
26
 22
0
 32
3
 13
27
 23
3
 33
3
  0
3DFACE
  8
FACES
 10
24
 20
5
 30
3
 11
27
 21
6
 31
3
 12
24
 22
7
 32
3
 13
24
 23
7
 33
3
  0
3DFACE
  8
FACES
 10
24
 20
5
 30
3
 11
24
 21
3
 31
3
 12
27
 22
3
 32
3
 13
27
 23
6
 33
3
  0
3DFACE
  8
FACES
 10
18
 20
9
 30
3
 11
18
 21
12
 31
3
 12
15
 22
11
 32
3
 13
15
 23
9
 33
3
  0
3DFACE
  8
FACES
 10
21
 20
12
 30
3
 11
18
 21
12
 31
3
 12
18
 22
9
 32
3
 13
21
 23
9
 33
3
  0
3DFACE
  8
FACES
 10
24
 20
7
 30
3
 11
27
 21
6
 31
3
 12
27
 22
9
 32
3
 13
24
 23
9
 33
3
  0
3DFACE
  8
FACES
 10
21
 20
9
 30
3
 11
24
 21
9
 31
3
 12
24
 22
11
 32
3
 13
21
 23
12
 33
3
  0
3DFACE
  8
FACES
 10
26
 20
0
 30
3
 11
28
 21
0
 31
3
 12
27
 22
3
 32
3
 13
27
 23
3
 33
3
  0
3DFACE
  8
FACES
 10
27
 20
9
 30
3
 11
27
 21
6
 31
3
 12
30
 22
7
 32
3
 13
30
 23
9
 33
3
  0
3DFACE
  8
FACES
 10
27
 20
3
 30
3
 11
30
 21
3
 31
3
 12
30
 22
5
 32
3
 13
27
 23
6
 33
3
  0
3DFACE
  8
FACES
 10
15
 20
11
 30
3
 11
18
 21
12
 31
3
 12
15
 22
13
 32
3
 13
15
 23
13
 33
3
  0
3DFACE
  8
FACES
 10
21
 20
12
 30
3
 11
24
 21
11
 31
3
 12
24
 22
13
 32
3
 13
24
 23
13
 33
3
  0
3DFACE
  8
FACES
 10
21
 20
12
 30
3
 11
21
 21
15
 31
3
 12
19
 22
15
 32
3
 13
18
 23
12
 33
3
  0
3DFACE
  8
FACES
 10
27
 20
9
 30
3
 11
27
 21
12
 31
3
 12
24
 22
11
 32
3
 13
24
 23
9
 33
3
  0
3DFACE
  8
FACES
 10
28
 20
0
 30
3
 11
30
 21
0
 31
3
 12
30
 22
3
 32
3
 13
27
 23
3
 33
3
  0
3DFACE
  8
FACES
 10
27
 20
6
 30
3
 11
30
 21
5
 31
3
 12
30
 22
7
 32
3
 13
30
 23
7
 33
3
  0
3DFACE
  8
FACES
 10
15
 20
13
 30
3
 11
18
 21
12
 31
3
 12
17
 22
15
 32
3
 13
15
 23
15
 33
3
  0
3DFACE
  8
FACES
 10
24
 20
11
 30
3
 11
27
 21
12
 31
3
 12
24
 22
13
 32
3
 13
24
 23
13
 33
3
  0
3DFACE
  8
FACES
 10
24
 20
13
 30
3
 11
24
 21
15
 31
3
 12
21
 22
15
 32
3
 13
21
 23
12
 33
3
  0
3DFACE
  8
FACES
 10
18
 20
12
 30
3
 11
19
 21
15
 31
3
 12
17
 22
15
 32
3
 13
17
 23
15
 33
3
  0
3DFACE
  8
FACES
 10
30
 20
7
 30
3
 11
33
 21
6
 31
3
 12
33
 22
9
 32
3
 13
30
 23
9
 33
3
  0
3DFACE
  8
FACES
 10
27
 20
9
 30
3
 11
30
 21
9
 31
3
 12
30
 22
11
 32
3
 13
27
 23
12
 33
3
  0
3DFACE
  8
FACES
 10
30
 20
7
 30
3
 11
30
 21
5
 31
3
 12
33
 22
6
 32
3
 13
33
 23
6
 33
3
  0
3DFACE
  8
FACES
 10
30
 20
5
 30
3
 11
30
 21
3
 31
3
 12
33
 22
3
 32
3
 13
33
 23
6
 33
3
  0
3DFACE
  8
FACES
 10
24
 20
13
 30
3
 11
27
 21
12
 31
3
 12
26
 22
15
 32
3
 13
24
 23
15
 33
3
  0
3DFACE
  8
FACES
 10
30
 20
3
 30
3
 11
30
 21
0
 31
3
 12
32
 22
0
 32
3
 13
33
 23
3
 33
3
  0
3DFACE
  8
FACES
 10
33
 20
9
 30
3
 11
33
 21
12
 31
3
 12
30
 22
11
 32
3
 13
30
 23
9
 33
3
  0
3DFACE
  8
FACES
 10
27
 20
12
 30
3
 11
28
 21
15
 31
3
 12
26
 22
15
 32
3
 13
26
 23
15
 33
3
  0
3DFACE
  8
FACES
 10
27
 20
12
 30
3
 11
30
 21
11
 31
3
 12
30
 22
13
 32
3
 13
30
 23
13
 33
3
  0
3DFACE
  8
FACES
 10
33
 20
9
 30
3
 11
33
 21
6
 31
3
 12
36
 22
7
 32
3
 13
36
 23
9
 33
3
  0
3DFACE
  8
FACES
 10
33
 20
3
 30
3
 11
36
 21
3
 31
3
 12
36
 22
5
 32
3
 13
33
 23
6
 33
3
  0
3DFACE
  8
FACES
 10
33
 20
3
 30
3
 11
32
 21
0
 31
3
 12
34
 22
0
 32
3
 13
34
 23
0
 33
3
  0
3DFACE
  8
FACES
 10
28
 20
15
 30
3
 11
27
 21
12
 31
3
 12
30
 22
13
 32
3
 13
30
 23
15
 33
3
  0
3DFACE
  8
FACES
 10
30
 20
11
 30
3
 11
33
 21
12
 31
3
 12
30
 22
13
 32
3
 13
30
 23
13
 33
3
  0
3DFACE
  8
FACES
 10
33
 20
9
 30
3
 11
36
 21
9
 31
3
 12
36
 22
11
 32
3
 13
33
 23
12
 33
3
  0
3DFACE
  8
FACES
 10
33
 20
6
 30
3
 11
36
 21
5
 31
3
 12
36
 22
7
 32
3
 13
36
 23
7
 33
3
  0
3DFACE
  8
FACES
 10
34
 20
0
 30
3
 11
36
 21
0
 31
3
 12
36
 22
3
 32
3
 13
33
 23
3
 33
3
  0
3DFACE
  8
FACES
 10
30
 20
13
 30
3
 11
33
 21
12
 31
3
 12
32
 22
15
 32
3
 13
30
 23
15
 33
3
  0
3DFACE
  8
FACES
 10
33
 20
12
 30
3
 11
36
 21
11
 31
3
 12
36
 22
13
 32
3
 13
36
 23
13
 33
3
  0
3DFACE
  8
FACES
 10
33
 20
12
 30
3
 11
34
 21
15
 31
3
 12
32
 22
15
 32
3
 13
32
 23
15
 33
3
  0
3DFACE
  8
FACES
 10
36
 20
13
 30
3
 11
36
 21
15
 31
3
 12
34
 22
15
 32
3
 13
33
 23
12
 33
3
  0
3DFACE
  8
FACES
 10
15
 20
21
 30
3
 11
15
 21
24
 31
3
 12
13
 22
24
 32
3
 13
13
 23
21
 33
3
  0
3DFACE
  8
FACES
 10
13
 20
21
 30
3
 11
13
 21
24
 31
3
 12
11
 22
24
 32
3
 13
11
 23
21
 33
3
  0
3DFACE
  8
FACES
 10
11
 20
21
 30
3
 11
11
 21
24
 31
3
 12
9
 22
24
 32
3
 13
9
 23
21
 33
3
  0
3DFACE
  8
FACES
 10
19
 20
30
 30
3
 11
18
 21
33
 31
3
 12
17
 22
30
 32
3
 13
17
 23
30
 33
3
  0
3DFACE
  8
FACES
 10
19
 20
30
 30
3
 11
21
 21
30
 31
3
 12
21
 22
33
 32
3
 13
18
 23
33
 33
3
  0
3DFACE
  8
FACES
 10
17
 20
30
 30
3
 11
18
 21
33
 31
3
 12
15
 22
32
 32
3
 13
15
 23
30
 33
3
  0
3DFACE
  8
FACES
 10
21
 20
30
 30
3
 11
24
 21
30
 31
3
 12
24
 22
32
 32
3
 13
21
 23
33
 33
3
  0
3DFACE
  8
FACES
 10
32
 20
30
 30
3
 11
33
 21
33
 31
3
 12
30
 22
32
 32
3
 13
30
 23
30
 33
3
  0
3DFACE
  8
FACES
 10
32
 20
30
 30
3
 11
34
 21
30
 31
3
 12
33
 22
33
 32
3
 13
33
 23
33
 33
3
  0
3DFACE
  8
FACES
 10
34
 20
30
 30
3
 11
36
 21
30
 31
3
 12
36
 22
32
 32
3
 13
33
 23
33
 33
3
  0
3DFACE
  8
FACES
 10
28
 20
30
 30
3
 11
27
 21
33
 31
3
 12
26
 22
30
 32
3
 13
26
 23
30
 33
3
  0
3DFACE
  8
FACES
 10
28
 20
30
 30
3
 11
30
 21
30
 31
3
 12
30
 22
32
 32
3
 13
27
 23
33
 33
3
  0
3DFACE
  8
FACES
 10
9
 20
21
 30
3
 11
9
 21
24
 31
3
 12
7
 22
24
 32
3
 13
7
 23
21
 33
3
  0
3DFACE
  8
FACES
 10
18
 20
33
 30
3
 11
15
 21
34
 31
3
 12
15
 22
32
 32
3
 13
15
 23
32
 33
3
  0
3DFACE
  8
FACES
 10
21
 20
33
 30
3
 11
21
 21
36
 31
3
 12
19
 22
36
 32
3
 13
18
 23
33
 33
3
  0
3DFACE
  8
FACES
 10
21
 20
33
 30
3
 11
24
 21
32
 31
3
 12
24
 22
34
 32
3
 13
24
 23
34
 33
3
  0
3DFACE
  8
FACES
 10
26
 20
30
 30
3
 11
27
 21
33
 31
3
 12
24
 22
32
 32
3
 13
24
 23
30
 33
3
  0
3DFACE
  8
FACES
 10
15
 20
34
 30
3
 11
18
 21
33
 31
3
 12
17
 22
36
 32
3
 13
15
 23
36
 33
3
  0
3DFACE
  8
FACES
 10
18
 20
33
 30
3
 11
19
 21
36
 31
3
 12
17
 22
36
 32
3
 13
17
 23
36
 33
3
  0
3DFACE
  8
FACES
 10
24
 20
32
 30
3
 11
27
 21
33
 31
3
 12
24
 22
34
 32
3
 13
24
 23
34
 33
3
  0
3DFACE
  8
FACES
 10
24
 20
34
 30
3
 11
24
 21
36
 31
3
 12
21
 22
36
 32
3
 13
21
 23
33
 33
3
  0
3DFACE
  8
FACES
 10
30
 20
32
 30
3
 11
33
 21
33
 31
3
 12
30
 22
34
 32
3
 13
30
 23
34
 33
3
  0
3DFACE
  8
FACES
 10
33
 20
33
 30
3
 11
36
 21
32
 31
3
 12
36
 22
34
 32
3
 13
36
 23
34
 33
3
  0
3DFACE
  8
FACES
 10
27
 20
33
 30
3
 11
30
 21
32
 31
3
 12
30
 22
34
 32
3
 13
30
 23
34
 33
3
  0
3DFACE
  8
FACES
 10
7
 20
21
 30
3
 11
7
 21
24
 31
3
 12
5
 22
24
 32
3
 13
5
 23
21
 33
3
  0
3DFACE
  8
FACES
 10
24
 20
34
 30
3
 11
27
 21
33
 31
3
 12
26
 22
36
 32
3
 13
24
 23
36
 33
3
  0
3DFACE
  8
FACES
 10
30
 20
34
 30
3
 11
33
 21
33
 31
3
 12
32
 22
36
 32
3
 13
30
 23
36
 33
3
  0
3DFACE
  8
FACES
 10
36
 20
34
 30
3
 11
36
 21
36
 31
3
 12
34
 22
36
 32
3
 13
33
 23
33
 33
3
  0
3DFACE
  8
FACES
 10
30
 20
34
 30
3
 11
30
 21
36
 31
3
 12
28
 22
36
 32
3
 13
27
 23
33
 33
3
  0
3DFACE
  8
FACES
 10
27
 20
33
 30
3
 11
28
 21
36
 31
3
 12
26
 22
36
 32
3
 13
26
 23
36
 33
3
  0
3DFACE
  8
FACES
 10
33
 20
33
 30
3
 11
34
 21
36
 31
3
 12
32
 22
36
 32
3
 13
32
 23
36
 33
3
  0
3DFACE
  8
FACES
 10
5
 20
21
 30
3
 11
5
 21
24
 31
3
 12
3
 22
24
 32
3
 13
3
 23
21
 33
3
  0
3DFACE
  8
FACES
 10
0
 20
1
 30
0
 11
0
 21
1
 31
1
 12
0
 22
0
 32
1
 13
0
 23
0
 33
0
  0
3DFACE
  8
FACES
 10
0
 20
1
 30
1
 11
0
 21
1
 31
2
 12
0
 22
0
 32
2
 13
0
 23
0
 33
1
  0
3DFACE
  8
FACES
 10
0
 20
1
 30
1
 11
0
 21
1
 31
0
 12
0
 22
2
 32
0
 13
0
 23
2
 33
1
  0
3DFACE
  8
FACES
 10
0
 20
1
 30
2
 11
0
 21
1
 31
3
 12
0
 22
0
 32
3
 13
0
 23
0
 33
2
  0
3DFACE
  8
FACES
 10
0
 20
2
 30
1
 11
0
 21
2
 31
0
 12
0
 22
3
 32
0
 13
0
 23
3
 33
1
  0
3DFACE
  8
FACES
 10
0
 20
3
 30
1
 11
0
 21
3
 31
0
 12
0
 22
4
 32
0
 13
0
 23
4
 33
1
  0
3DFACE
  8
FACES
 10
0
 20
3
 30
1
 11
0
 21
4
 31
1
 12
0
 22
4
 32
2
 13
0
 23
3
 33
2
  0
3DFACE
  8
FACES
 10
0
 20
4
 30
1
 11
0
 21
4
 31
0
 12
0
 22
5
 32
0
 13
0
 23
5
 33
1
  0
3DFACE
  8
FACES
 10
0
 20
3
 30
2
 11
0
 21
4
 31
2
 12
0
 22
4
 32
3
 13
0
 23
3
 33
3
  0
3DFACE
  8
FACES
 10
0
 20
5
 30
1
 11
0
 21
5
 31
0
 12
0
 22
6
 32
0
 13
0
 23
6
 33
1
  0
3DFACE
  8
FACES
 10
0
 20
6
 30
1
 11
0
 21
6
 31
0
 12
0
 22
7
 32
0
 13
0
 23
7
 33
1
  0
3DFACE
  8
FACES
 10
0
 20
6
 30
1
 11
0
 21
7
 31
1
 12
0
 22
7
 32
2
 13
0
 23
6
 33
2
  0
3DFACE
  8
FACES
 10
0
 20
7
 30
1
 11
0
 21
7
 31
0
 12
0
 22
8
 32
0
 13
0
 23
8
 33
1
  0
3DFACE
  8
FACES
 10
0
 20
6
 30
2
 11
0
 21
7
 31
2
 12
0
 22
7
 32
3
 13
0
 23
6
 33
3
  0
3DFACE
  8
FACES
 10
0
 20
7
 30
1
 11
0
 21
8
 31
1
 12
0
 22
8
 32
2
 13
0
 23
7
 33
2
  0
3DFACE
  8
FACES
 10
0
 20
8
 30
1
 11
0
 21
8
 31
0
 12
0
 22
9
 32
0
 13
0
 23
9
 33
1
  0
3DFACE
  8
FACES
 10
0
 20
7
 30
2
 11
0
 21
8
 31
2
 12
0
 22
8
 32
3
 13
0
 23
7
 33
3
  0
3DFACE
  8
FACES
 10
0
 20
9
 30
1
 11
0
 21
9
 31
0
 12
0
 22
10
 32
0
 13
0
 23
10
 33
1
  0
3DFACE
  8
FACES
 10
0
 20
10
 30
1
 11
0
 21
10
 31
0
 12
0
 22
11
 32
0
 13
0
 23
11
 33
1
  0
3DFACE
  8
FACES
 10
0
 20
10
 30
1
 11
0
 21
11
 31
1
 12
0
 22
11
 32
2
 13
0
 23
10
 33
2
  0
3DFACE
  8
FACES
 10
0
 20
11
 30
1
 11
0
 21
11
 31
0
 12
0
 22
12
 32
0
 13
0
 23
12
 33
1
  0
3DFACE
  8
FACES
 10
0
 20
10
 30
2
 11
0
 21
11
 31
2
 12
0
 22
11
 32
3
 13
0
 23
10
 33
3
  0
3DFACE
  8
FACES
 10
0
 20
11
 30
1
 11
0
 21
12
 31
1
 12
0
 22
12
 32
2
 13
0
 23
11
 33
2
  0
3DFACE
  8
FACES
 10
0
 20
12
 30
1
 11
0
 21
12
 31
0
 12
0
 22
13
 32
0
 13
0
 23
13
 33
1
  0
3DFACE
  8
FACES
 10
0
 20
11
 30
2
 11
0
 21
12
 31
2
 12
0
 22
12
 32
3
 13
0
 23
11
 33
3
  0
3DFACE
  8
FACES
 10
0
 20
13
 30
1
 11
0
 21
13
 31
0
 12
0
 22
14
 32
0
 13
0
 23
14
 33
1
  0
3DFACE
  8
FACES
 10
0
 20
14
 30
1
 11
0
 21
14
 31
0
 12
0
 22
15
 32
0
 13
0
 23
15
 33
1
  0
3DFACE
  8
FACES
 10
0
 20
14
 30
1
 11
0
 21
15
 31
1
 12
0
 22
15
 32
2
 13
0
 23
14
 33
2
  0
3DFACE
  8
FACES
 10
0
 20
15
 30
1
 11
0
 21
15
 31
0
 12
0
 22
16
 32
0
 13
0
 23
16
 33
1
  0
3DFACE
  8
FACES
 10
0
 20
14
 30
2
 11
0
 21
15
 31
2
 12
0
 22
15
 32
3
 13
0
 23
14
 33
3
  0
3DFACE
  8
FACES
 10
0
 20
15
 30
1
 11
0
 21
16
 31
1
 12
0
 22
16
 32
2
 13
0
 23
15
 33
2
  0
3DFACE
  8
FACES
 10
0
 20
16
 30
1
 11
0
 21
16
 31
0
 12
0
 22
17
 32
0
 13
0
 23
17
 33
1
  0
3DFACE
  8
FACES
 10
0
 20
15
 30
2
 11
0
 21
16
 31
2
 12
0
 22
16
 32
3
 13
0
 23
15
 33
3
  0
3DFACE
  8
FACES
 10
0
 20
16
 30
1
 11
0
 21
17
 31
1
 12
0
 22
17
 32
2
 13
0
 23
16
 33
2
  0
3DFACE
  8
FACES
 10
0
 20
17
 30
1
 11
0
 21
17
 31
0
 12
0
 22
18
 32
0
 13
0
 23
18
 33
1
  0
3DFACE
  8
FACES
 10
0
 20
16
 30
2
 11
0
 21
17
 31
2
 12
0
 22
17
 32
3
 13
0
 23
16
 33
3
  0
3DFACE
  8
FACES
 10
0
 20
18
 30
1
 11
0
 21
18
 31
0
 12
0
 22
19
 32
0
 13
0
 23
19
 33
1
  0
3DFACE
  8
FACES
 10
0
 20
19
 30
1
 11
0
 21
19
 31
0
 12
0
 22
20
 32
0
 13
0
 23
20
 33
1
  0
3DFACE
  8
FACES
 10
0
 20
19
 30
1
 11
0
 21
20
 31
1
 12
0
 22
20
 32
2
 13
0
 23
19
 33
2
  0
3DFACE
  8
FACES
 10
0
 20
20
 30
1
 11
0
 21
20
 31
0
 12
0
 22
21
 32
0
 13
0
 23
21
 33
1
  0
3DFACE
  8
FACES
 10
0
 20
19
 30
2
 11
0
 21
20
 31
2
 12
0
 22
20
 32
3
 13
0
 23
19
 33
3
  0
3DFACE
  8
FACES
 10
0
 20
20
 30
1
 11
0
 21
21
 31
1
 12
0
 22
21
 32
2
 13
0
 23
20
 33
2
  0
3DFACE
  8
FACES
 10
0
 20
21
 30
1
 11
0
 21
21
 31
0
 12
0
 22
22
 32
0
 13
0
 23
22
 33
1
  0
3DFACE
  8
FACES
 10
0
 20
20
 30
2
 11
0
 21
21
 31
2
 12
0
 22
21
 32
3
 13
0
 23
20
 33
3
  0
3DFACE
  8
FACES
 10
0
 20
21
 30
1
 11
0
 21
22
 31
1
 12
0
 22
22
 32
2
 13
0
 23
21
 33
2
  0
3DFACE
  8
FACES
 10
0
 20
22
 30
1
 11
0
 21
22
 31
0
 12
0
 22
23
 32
0
 13
0
 23
23
 33
1
  0
3DFACE
  8
FACES
 10
0
 20
21
 30
2
 11
0
 21
22
 31
2
 12
0
 22
22
 32
3
 13
0
 23
21
 33
3
  0
3DFACE
  8
FACES
 10
0
 20
23
 30
1
 11
0
 21
23
 31
0
 12
0
 22
24
 32
0
 13
0
 23
24
 33
1
  0
3DFACE
  8
FACES
 10
0
 20
24
 30
1
 11
0
 21
24
 31
0
 12
0
 22
25
 32
0
 13
0
 23
25
 33
1
  0
3DFACE
  8
FACES
 10
0
 20
24
 30
1
 11
0
 21
25
 31
1
 12
0
 22
25
 32
2
 13
0
 23
24
 33
2
  0
3DFACE
  8
FACES
 10
0
 20
25
 30
1
 11
0
 21
25
 31
0
 12
0
 22
26
 32
0
 13
0
 23
26
 33
1
  0
3DFACE
  8
FACES
 10
0
 20
24
 30
2
 11
0
 21
25
 31
2
 12
0
 22
25
 32
3
 13
0
 23
24
 33
3
  0
3DFACE
  8
FACES
 10
0
 20
26
 30
1
 11
0
 21
26
 31
0
 12
0
 22
27
 32
0
 13
0
 23
27
 33
1
  0
3DFACE
  8
FACES
 10
0
 20
27
 30
1
 11
0
 21
27
 31
0
 12
0
 22
28
 32
0
 13
0
 23
28
 33
1
  0
3DFACE
  8
FACES
 10
0
 20
27
 30
1
 11
0
 21
28
 31
1
 12
0
 22
28
 32
2
 13
0
 23
27
 33
2
  0
3DFACE
  8
FACES
 10
0
 20
28
 30
1
 11
0
 21
28
 31
0
 12
0
 22
29
 32
0
 13
0
 23
29
 33
1
  0
3DFACE
  8
FACES
 10
0
 20
27
 30
2
 11
0
 21
28
 31
2
 12
0
 22
28
 32
3
 13
0
 23
27
 33
3
  0
3DFACE
  8
FACES
 10
0
 20
28
 30
1
 11
0
 21
29
 31
1
 12
0
 22
29
 32
2
 13
0
 23
28
 33
2
  0
3DFACE
  8
FACES
 10
0
 20
29
 30
1
 11
0
 21
29
 31
0
 12
0
 22
30
 32
0
 13
0
 23
30
 33
1
  0
3DFACE
  8
FACES
 10
0
 20
28
 30
2
 11
0
 21
29
 31
2
 12
0
 22
29
 32
3
 13
0
 23
28
 33
3
  0
3DFACE
  8
FACES
 10
0
 20
30
 30
1
 11
0
 21
30
 31
0
 12
0
 22
31
 32
0
 13
0
 23
31
 33
1
  0
3DFACE
  8
FACES
 10
0
 20
31
 30
1
 11
0
 21
31
 31
0
 12
0
 22
32
 32
0
 13
0
 23
32
 33
1
  0
3DFACE
  8
FACES
 10
0
 20
31
 30
1
 11
0
 21
32
 31
1
 12
0
 22
32
 32
2
 13
0
 23
31
 33
2
  0
3DFACE
  8
FACES
 10
0
 20
32
 30
1
 11
0
 21
32
 31
0
 12
0
 22
33
 32
0
 13
0
 23
33
 33
1
  0
3DFACE
  8
FACES
 10
0
 20
31
 30
2
 11
0
 21
32
 31
2
 12
0
 22
32
 32
3
 13
0
 23
31
 33
3
  0
3DFACE
  8
FACES
 10
0
 20
33
 30
1
 11
0
 21
33
 31
0
 12
0
 22
34
 32
0
 13
0
 23
34
 33
1
  0
3DFACE
  8
FACES
 10
0
 20
34
 30
1
 11
0
 21
34
 31
0
 12
0
 22
35
 32
0
 13
0
 23
35
 33
1
  0
3DFACE
  8
FACES
 10
0
 20
34
 30
1
 11
0
 21
35
 31
1
 12
0
 22
35
 32
2
 13
0
 23
34
 33
2
  0
3DFACE
  8
FACES
 10
0
 20
35
 30
1
 11
0
 21
35
 31
0
 12
0
 22
36
 32
0
 13
0
 23
36
 33
1
  0
3DFACE
  8
FACES
 10
0
 20
34
 30
2
 11
0
 21
35
 31
2
 12
0
 22
35
 32
3
 13
0
 23
34
 33
3
  0
3DFACE
  8
FACES
 10
0
 20
35
 30
2
 11
0
 21
35
 31
1
 12
0
 22
36
 32
1
 13
0
 23
36
 33
2
  0
3DFACE
  8
FACES
 10
0
 20
35
 30
2
 11
0
 21
36
 31
2
 12
0
 22
36
 32
3
 13
0
 23
35
 33
3
  0
3DFACE
  8
FACES
 10
3
 20
1
 30
0
 11
3
 21
1
 31
1
 12
3
 22
0
 32
1
 13
3
 23
0
 33
0
  0
3DFACE
  8
FACES
 10
3
 20
1
 30
1
 11
3
 21
1
 31
2
 12
3
 22
0
 32
2
 13
3
 23
0
 33
1
  0
3DFACE
  8
FACES
 10
3
 20
1
 30
1
 11
3
 21
1
 31
0
 12
3
 22
2
 32
0
 13
3
 23
2
 33
1
  0
3DFACE
  8
FACES
 10
3
 20
1
 30
2
 11
3
 21
1
 31
3
 12
3
 22
0
 32
3
 13
3
 23
0
 33
2
  0
3DFACE
  8
FACES
 10
3
 20
1
 30
1
 11
3
 21
2
 31
1
 12
3
 22
2
 32
2
 13
3
 23
1
 33
2
  0
3DFACE
  8
FACES
 10
3
 20
2
 30
1
 11
3
 21
2
 31
0
 12
3
 22
3
 32
0
 13
3
 23
3
 33
1
  0
3DFACE
  8
FACES
 10
3
 20
1
 30
2
 11
3
 21
2
 31
2
 12
3
 22
2
 32
3
 13
3
 23
1
 33
3
  0
3DFACE
  8
FACES
 10
3
 20
2
 30
1
 11
3
 21
3
 31
1
 12
3
 22
3
 32
2
 13
3
 23
2
 33
2
  0
3DFACE
  8
FACES
 10
3
 20
3
 30
1
 11
3
 21
3
 31
0
 12
3
 22
4
 32
0
 13
3
 23
4
 33
1
  0
3DFACE
  8
FACES
 10
3
 20
2
 30
2
 11
3
 21
3
 31
2
 12
3
 22
3
 32
3
 13
3
 23
2
 33
3
  0
3DFACE
  8
FACES
 10
3
 20
3
 30
1
 11
3
 21
4
 31
1
 12
3
 22
4
 32
2
 13
3
 23
3
 33
2
  0
3DFACE
  8
FACES
 10
3
 20
4
 30
1
 11
3
 21
4
 31
0
 12
3
 22
5
 32
0
 13
3
 23
5
 33
1
  0
3DFACE
  8
FACES
 10
3
 20
3
 30
2
 11
3
 21
4
 31
2
 12
3
 22
4
 32
3
 13
3
 23
3
 33
3
  0
3DFACE
  8
FACES
 10
3
 20
4
 30
1
 11
3
 21
5
 31
1
 12
3
 22
5
 32
2
 13
3
 23
4
 33
2
  0
3DFACE
  8
FACES
 10
3
 20
5
 30
1
 11
3
 21
5
 31
0
 12
3
 22
6
 32
0
 13
3
 23
6
 33
1
  0
3DFACE
  8
FACES
 10
3
 20
4
 30
2
 11
3
 21
5
 31
2
 12
3
 22
5
 32
3
 13
3
 23
4
 33
3
  0
3DFACE
  8
FACES
 10
3
 20
5
 30
1
 11
3
 21
6
 31
1
 12
3
 22
6
 32
2
 13
3
 23
5
 33
2
  0
3DFACE
  8
FACES
 10
3
 20
6
 30
1
 11
3
 21
6
 31
0
 12
3
 22
7
 32
0
 13
3
 23
7
 33
1
  0
3DFACE
  8
FACES
 10
3
 20
5
 30
2
 11
3
 21
6
 31
2
 12
3
 22
6
 32
3
 13
3
 23
5
 33
3
  0
3DFACE
  8
FACES
 10
3
 20
6
 30
1
 11
3
 21
7
 31
1
 12
3
 22
7
 32
2
 13
3
 23
6
 33
2
  0
3DFACE
  8
FACES
 10
3
 20
7
 30
1
 11
3
 21
7
 31
0
 12
3
 22
8
 32
0
 13
3
 23
8
 33
1
  0
3DFACE
  8
FACES
 10
3
 20
6
 30
2
 11
3
 21
7
 31
2
 12
3
 22
7
 32
3
 13
3
 23
6
 33
3
  0
3DFACE
  8
FACES
 10
3
 20
7
 30
1
 11
3
 21
8
 31
1
 12
3
 22
8
 32
2
 13
3
 23
7
 33
2
  0
3DFACE
  8
FACES
 10
3
 20
8
 30
1
 11
3
 21
8
 31
0
 12
3
 22
9
 32
0
 13
3
 23
9
 33
1
  0
3DFACE
  8
FACES
 10
3
 20
7
 30
2
 11
3
 21
8
 31
2
 12
3
 22
8
 32
3
 13
3
 23
7
 33
3
  0
3DFACE
  8
FACES
 10
3
 20
8
 30
1
 11
3
 21
9
 31
1
 12
3
 22
9
 32
2
 13
3
 23
8
 33
2
  0
3DFACE
  8
FACES
 10
3
 20
9
 30
1
 11
3
 21
9
 31
0
 12
3
 22
10
 32
0
 13
3
 23
10
 33
1
  0
3DFACE
  8
FACES
 10
3
 20
8
 30
2
 11
3
 21
9
 31
2
 12
3
 22
9
 32
3
 13
3
 23
8
 33
3
  0
3DFACE
  8
FACES
 10
3
 20
9
 30
1
 11
3
 21
10
 31
1
 12
3
 22
10
 32
2
 13
3
 23
9
 33
2
  0
3DFACE
  8
FACES
 10
3
 20
10
 30
1
 11
3
 21
10
 31
0
 12
3
 22
11
 32
0
 13
3
 23
11
 33
1
  0
3DFACE
  8
FACES
 10
3
 20
9
 30
2
 11
3
 21
10
 31
2
 12
3
 22
10
 32
3
 13
3
 23
9
 33
3
  0
3DFACE
  8
FACES
 10
3
 20
10
 30
1
 11
3
 21
11
 31
1
 12
3
 22
11
 32
2
 13
3
 23
10
 33
2
  0
3DFACE
  8
FACES
 10
3
 20
11
 30
1
 11
3
 21
11
 31
0
 12
3
 22
12
 32
0
 13
3
 23
12
 33
1
  0
3DFACE
  8
FACES
 10
3
 20
10
 30
2
 11
3
 21
11
 31
2
 12
3
 22
11
 32
3
 13
3
 23
10
 33
3
  0
3DFACE
  8
FACES
 10
3
 20
11
 30
1
 11
3
 21
12
 31
1
 12
3
 22
12
 32
2
 13
3
 23
11
 33
2
  0
3DFACE
  8
FACES
 10
3
 20
12
 30
1
 11
3
 21
12
 31
0
 12
3
 22
13
 32
0
 13
3
 23
13
 33
1
  0
3DFACE
  8
FACES
 10
3
 20
11
 30
2
 11
3
 21
12
 31
2
 12
3
 22
12
 32
3
 13
3
 23
11
 33
3
  0
3DFACE
  8
FACES
 10
3
 20
12
 30
1
 11
3
 21
13
 31
1
 12
3
 22
13
 32
2
 13
3
 23
12
 33
2
  0
3DFACE
  8
FACES
 10
3
 20
13
 30
1
 11
3
 21
13
 31
0
 12
3
 22
14
 32
0
 13
3
 23
14
 33
1
  0
3DFACE
  8
FACES
 10
3
 20
12
 30
2
 11
3
 21
13
 31
2
 12
3
 22
13
 32
3
 13
3
 23
12
 33
3
  0
3DFACE
  8
FACES
 10
3
 20
13
 30
1
 11
3
 21
14
 31
1
 12
3
 22
14
 32
2
 13
3
 23
13
 33
2
  0
3DFACE
  8
FACES
 10
3
 20
14
 30
1
 11
3
 21
14
 31
0
 12
3
 22
15
 32
0
 13
3
 23
15
 33
1
  0
3DFACE
  8
FACES
 10
3
 20
13
 30
2
 11
3
 21
14
 31
2
 12
3
 22
14
 32
3
 13
3
 23
13
 33
3
  0
3DFACE
  8
FACES
 10
3
 20
14
 30
1
 11
3
 21
15
 31
1
 12
3
 22
15
 32
2
 13
3
 23
14
 33
2
  0
3DFACE
  8
FACES
 10
3
 20
15
 30
1
 11
3
 21
15
 31
0
 12
3
 22
16
 32
0
 13
3
 23
16
 33
1
  0
3DFACE
  8
FACES
 10
3
 20
14
 30
2
 11
3
 21
15
 31
2
 12
3
 22
15
 32
3
 13
3
 23
14
 33
3
  0
3DFACE
  8
FACES
 10
3
 20
15
 30
1
 11
3
 21
16
 31
1
 12
3
 22
16
 32
2
 13
3
 23
15
 33
2
  0
3DFACE
  8
FACES
 10
3
 20
16
 30
1
 11
3
 21
16
 31
0
 12
3
 22
17
 32
0
 13
3
 23
17
 33
1
  0
3DFACE
  8
FACES
 10
3
 20
15
 30
2
 11
3
 21
16
 31
2
 12
3
 22
16
 32
3
 13
3
 23
15
 33
3
  0
3DFACE
  8
FACES
 10
3
 20
16
 30
1
 11
3
 21
17
 31
1
 12
3
 22
17
 32
2
 13
3
 23
16
 33
2
  0
3DFACE
  8
FACES
 10
3
 20
17
 30
1
 11
3
 21
17
 31
0
 12
3
 22
18
 32
0
 13
3
 23
18
 33
1
  0
3DFACE
  8
FACES
 10
3
 20
16
 30
2
 11
3
 21
17
 31
2
 12
3
 22
17
 32
3
 13
3
 23
16
 33
3
  0
3DFACE
  8
FACES
 10
3
 20
17
 30
1
 11
3
 21
18
 31
1
 12
3
 22
18
 32
2
 13
3
 23
17
 33
2
  0
3DFACE
  8
FACES
 10
3
 20
18
 30
1
 11
3
 21
18
 31
0
 12
3
 22
19
 32
0
 13
3
 23
19
 33
1
  0
3DFACE
  8
FACES
 10
3
 20
17
 30
2
 11
3
 21
18
 31
2
 12
3
 22
18
 32
3
 13
3
 23
17
 33
3
  0
3DFACE
  8
FACES
 10
3
 20
18
 30
1
 11
3
 21
19
 31
1
 12
3
 22
19
 32
2
 13
3
 23
18
 33
2
  0
3DFACE
  8
FACES
 10
3
 20
19
 30
1
 11
3
 21
19
 31
0
 12
3
 22
20
 32
0
 13
3
 23
20
 33
1
  0
3DFACE
  8
FACES
 10
3
 20
18
 30
2
 11
3
 21
19
 31
2
 12
3
 22
19
 32
3
 13
3
 23
18
 33
3
  0
3DFACE
  8
FACES
 10
3
 20
19
 30
1
 11
3
 21
20
 31
1
 12
3
 22
20
 32
2
 13
3
 23
19
 33
2
  0
3DFACE
  8
FACES
 10
3
 20
20
 30
1
 11
3
 21
20
 31
0
 12
3
 22
21
 32
0
 13
3
 23
21
 33
1
  0
3DFACE
  8
FACES
 10
3
 20
19
 30
2
 11
3
 21
20
 31
2
 12
3
 22
20
 32
3
 13
3
 23
19
 33
3
  0
3DFACE
  8
FACES
 10
3
 20
20
 30
1
 11
3
 21
21
 31
1
 12
3
 22
21
 32
2
 13
3
 23
20
 33
2
  0
3DFACE
  8
FACES
 10
3
 20
21
 30
1
 11
3
 21
21
 31
0
 12
3
 22
22
 32
0
 13
3
 23
22
 33
1
  0
3DFACE
  8
FACES
 10
3
 20
20
 30
2
 11
3
 21
21
 31
2
 12
3
 22
21
 32
3
 13
3
 23
20
 33
3
  0
3DFACE
  8
FACES
 10
3
 20
21
 30
1
 11
3
 21
22
 31
1
 12
3
 22
22
 32
2
 13
3
 23
21
 33
2
  0
3DFACE
  8
FACES
 10
3
 20
22
 30
1
 11
3
 21
22
 31
0
 12
3
 22
23
 32
0
 13
3
 23
23
 33
1
  0
3DFACE
  8
FACES
 10
3
 20
21
 30
2
 11
3
 21
22
 31
2
 12
3
 22
22
 32
3
 13
3
 23
21
 33
3
  0
3DFACE
  8
FACES
 10
3
 20
22
 30
1
 11
3
 21
23
 31
1
 12
3
 22
23
 32
2
 13
3
 23
22
 33
2
  0
3DFACE
  8
FACES
 10
3
 20
23
 30
1
 11
3
 21
23
 31
0
 12
3
 22
24
 32
0
 13
3
 23
24
 33
1
  0
3DFACE
  8
FACES
 10
3
 20
22
 30
2
 11
3
 21
23
 31
2
 12
3
 22
23
 32
3
 13
3
 23
22
 33
3
  0
3DFACE
  8
FACES
 10
3
 20
23
 30
1
 11
3
 21
24
 31
1
 12
3
 22
24
 32
2
 13
3
 23
23
 33
2
  0
3DFACE
  8
FACES
 10
3
 20
24
 30
1
 11
3
 21
24
 31
0
 12
3
 22
25
 32
0
 13
3
 23
25
 33
1
  0
3DFACE
  8
FACES
 10
3
 20
23
 30
2
 11
3
 21
24
 31
2
 12
3
 22
24
 32
3
 13
3
 23
23
 33
3
  0
3DFACE
  8
FACES
 10
3
 20
24
 30
1
 11
3
 21
25
 31
1
 12
3
 22
25
 32
2
 13
3
 23
24
 33
2
  0
3DFACE
  8
FACES
 10
3
 20
25
 30
1
 11
3
 21
25
 31
0
 12
3
 22
26
 32
0
 13
3
 23
26
 33
1
  0
3DFACE
  8
FACES
 10
3
 20
24
 30
2
 11
3
 21
25
 31
2
 12
3
 22
25
 32
3
 13
3
 23
24
 33
3
  0
3DFACE
  8
FACES
 10
3
 20
25
 30
1
 11
3
 21
26
 31
1
 12
3
 22
26
 32
2
 13
3
 23
25
 33
2
  0
3DFACE
  8
FACES
 10
3
 20
26
 30
1
 11
3
 21
26
 31
0
 12
3
 22
27
 32
0
 13
3
 23
27
 33
1
  0
3DFACE
  8
FACES
 10
3
 20
25
 30
2
 11
3
 21
26
 31
2
 12
3
 22
26
 32
3
 13
3
 23
25
 33
3
  0
3DFACE
  8
FACES
 10
3
 20
26
 30
1
 11
3
 21
27
 31
1
 12
3
 22
27
 32
2
 13
3
 23
26
 33
2
  0
3DFACE
  8
FACES
 10
3
 20
27
 30
1
 11
3
 21
27
 31
0
 12
3
 22
28
 32
0
 13
3
 23
28
 33
1
  0
3DFACE
  8
FACES
 10
3
 20
26
 30
2
 11
3
 21
27
 31
2
 12
3
 22
27
 32
3
 13
3
 23
26
 33
3
  0
3DFACE
  8
FACES
 10
3
 20
27
 30
1
 11
3
 21
28
 31
1
 12
3
 22
28
 32
2
 13
3
 23
27
 33
2
  0
3DFACE
  8
FACES
 10
3
 20
28
 30
1
 11
3
 21
28
 31
0
 12
3
 22
29
 32
0
 13
3
 23
29
 33
1
  0
3DFACE
  8
FACES
 10
3
 20
27
 30
2
 11
3
 21
28
 31
2
 12
3
 22
28
 32
3
 13
3
 23
27
 33
3
  0
3DFACE
  8
FACES
 10
3
 20
28
 30
1
 11
3
 21
29
 31
1
 12
3
 22
29
 32
2
 13
3
 23
28
 33
2
  0
3DFACE
  8
FACES
 10
3
 20
29
 30
1
 11
3
 21
29
 31
0
 12
3
 22
30
 32
0
 13
3
 23
30
 33
1
  0
3DFACE
  8
FACES
 10
3
 20
28
 30
2
 11
3
 21
29
 31
2
 12
3
 22
29
 32
3
 13
3
 23
28
 33
3
  0
3DFACE
  8
FACES
 10
3
 20
29
 30
1
 11
3
 21
30
 31
1
 12
3
 22
30
 32
2
 13
3
 23
29
 33
2
  0
3DFACE
  8
FACES
 10
3
 20
30
 30
1
 11
3
 21
30
 31
0
 12
3
 22
31
 32
0
 13
3
 23
31
 33
1
  0
3DFACE
  8
FACES
 10
3
 20
29
 30
2
 11
3
 21
30
 31
2
 12
3
 22
30
 32
3
 13
3
 23
29
 33
3
  0
3DFACE
  8
FACES
 10
3
 20
30
 30
1
 11
3
 21
31
 31
1
 12
3
 22
31
 32
2
 13
3
 23
30
 33
2
  0
3DFACE
  8
FACES
 10
3
 20
31
 30
1
 11
3
 21
31
 31
0
 12
3
 22
32
 32
0
 13
3
 23
32
 33
1
  0
3DFACE
  8
FACES
 10
3
 20
30
 30
2
 11
3
 21
31
 31
2
 12
3
 22
31
 32
3
 13
3
 23
30
 33
3
  0
3DFACE
  8
FACES
 10
3
 20
31
 30
1
 11
3
 21
32
 31
1
 12
3
 22
32
 32
2
 13
3
 23
31
 33
2
  0
3DFACE
  8
FACES
 10
3
 20
32
 30
1
 11
3
 21
32
 31
0
 12
3
 22
33
 32
0
 13
3
 23
33
 33
1
  0
3DFACE
  8
FACES
 10
3
 20
31
 30
2
 11
3
 21
32
 31
2
 12
3
 22
32
 32
3
 13
3
 23
31
 33
3
  0
3DFACE
  8
FACES
 10
3
 20
32
 30
1
 11
3
 21
33
 31
1
 12
3
 22
33
 32
2
 13
3
 23
32
 33
2
  0
3DFACE
  8
FACES
 10
3
 20
33
 30
1
 11
3
 21
33
 31
0
 12
3
 22
34
 32
0
 13
3
 23
34
 33
1
  0
3DFACE
  8
FACES
 10
3
 20
32
 30
2
 11
3
 21
33
 31
2
 12
3
 22
33
 32
3
 13
3
 23
32
 33
3
  0
3DFACE
  8
FACES
 10
3
 20
33
 30
1
 11
3
 21
34
 31
1
 12
3
 22
34
 32
2
 13
3
 23
33
 33
2
  0
3DFACE
  8
FACES
 10
3
 20
34
 30
1
 11
3
 21
34
 31
0
 12
3
 22
35
 32
0
 13
3
 23
35
 33
1
  0
3DFACE
  8
FACES
 10
3
 20
33
 30
2
 11
3
 21
34
 31
2
 12
3
 22
34
 32
3
 13
3
 23
33
 33
3
  0
3DFACE
  8
FACES
 10
3
 20
34
 30
1
 11
3
 21
35
 31
1
 12
3
 22
35
 32
2
 13
3
 23
34
 33
2
  0
3DFACE
  8
FACES
 10
3
 20
35
 30
1
 11
3
 21
35
 31
0
 12
3
 22
36
 32
0
 13
3
 23
36
 33
1
  0
3DFACE
  8
FACES
 10
3
 20
34
 30
2
 11
3
 21
35
 31
2
 12
3
 22
35
 32
3
 13
3
 23
34
 33
3
  0
3DFACE
  8
FACES
 10
3
 20
35
 30
2
 11
3
 21
35
 31
1
 12
3
 22
36
 32
1
 13
3
 23
36
 33
2
  0
3DFACE
  8
FACES
 10
3
 20
35
 30
2
 11
3
 21
36
 31
2
 12
3
 22
36
 32
3
 13
3
 23
35
 33
3
  0
3DFACE
  8
FACES
 10
9
 20
1
 30
0
 11
9
 21
1
 31
1
 12
9
 22
0
 32
1
 13
9
 23
0
 33
0
  0
3DFACE
  8
FACES
 10
9
 20
1
 30
1
 11
9
 21
1
 31
2
 12
9
 22
0
 32
2
 13
9
 23
0
 33
1
  0
3DFACE
  8
FACES
 10
9
 20
1
 30
1
 11
9
 21
1
 31
0
 12
9
 22
2
 32
0
 13
9
 23
2
 33
1
  0
3DFACE
  8
FACES
 10
9
 20
1
 30
2
 11
9
 21
1
 31
3
 12
9
 22
0
 32
3
 13
9
 23
0
 33
2
  0
3DFACE
  8
FACES
 10
9
 20
1
 30
1
 11
9
 21
2
 31
1
 12
9
 22
2
 32
2
 13
9
 23
1
 33
2
  0
3DFACE
  8
FACES
 10
9
 20
2
 30
1
 11
9
 21
2
 31
0
 12
9
 22
3
 32
0
 13
9
 23
3
 33
1
  0
3DFACE
  8
FACES
 10
9
 20
1
 30
2
 11
9
 21
2
 31
2
 12
9
 22
2
 32
3
 13
9
 23
1
 33
3
  0
3DFACE
  8
FACES
 10
9
 20
2
 30
1
 11
9
 21
3
 31
1
 12
9
 22
3
 32
2
 13
9
 23
2
 33
2
  0
3DFACE
  8
FACES
 10
9
 20
2
 30
2
 11
9
 21
3
 31
2
 12
9
 22
3
 32
3
 13
9
 23
2
 33
3
  0
3DFACE
  8
FACES
 10
9
 20
3
 30
2
 11
9
 21
4
 31
2
 12
9
 22
4
 32
3
 13
9
 23
3
 33
3
  0
3DFACE
  8
FACES
 10
9
 20
5
 30
1
 11
9
 21
5
 31
0
 12
9
 22
6
 32
0
 13
9
 23
6
 33
1
  0
3DFACE
  8
FACES
 10
9
 20
4
 30
2
 11
9
 21
5
 31
2
 12
9
 22
5
 32
3
 13
9
 23
4
 33
3
  0
3DFACE
  8
FACES
 10
9
 20
5
 30
1
 11
9
 21
6
 31
1
 12
9
 22
6
 32
2
 13
9
 23
5
 33
2
  0
3DFACE
  8
FACES
 10
9
 20
6
 30
1
 11
9
 21
6
 31
0
 12
9
 22
7
 32
0
 13
9
 23
7
 33
1
  0
3DFACE
  8
FACES
 10
9
 20
5
 30
2
 11
9
 21
6
 31
2
 12
9
 22
6
 32
3
 13
9
 23
5
 33
3
  0
3DFACE
  8
FACES
 10
9
 20
6
 30
1
 11
9
 21
7
 31
1
 12
9
 22
7
 32
2
 13
9
 23
6
 33
2
  0
3DFACE
  8
FACES
 10
9
 20
7
 30
1
 11
9
 21
7
 31
0
 12
9
 22
8
 32
0
 13
9
 23
8
 33
1
  0
3DFACE
  8
FACES
 10
9
 20
6
 30
2
 11
9
 21
7
 31
2
 12
9
 22
7
 32
3
 13
9
 23
6
 33
3
  0
3DFACE
  8
FACES
 10
9
 20
7
 30
1
 11
9
 21
8
 31
1
 12
9
 22
8
 32
2
 13
9
 23
7
 33
2
  0
3DFACE
  8
FACES
 10
9
 20
8
 30
1
 11
9
 21
8
 31
0
 12
9
 22
9
 32
0
 13
9
 23
9
 33
1
  0
3DFACE
  8
FACES
 10
9
 20
7
 30
2
 11
9
 21
8
 31
2
 12
9
 22
8
 32
3
 13
9
 23
7
 33
3
  0
3DFACE
  8
FACES
 10
9
 20
8
 30
1
 11
9
 21
9
 31
1
 12
9
 22
9
 32
2
 13
9
 23
8
 33
2
  0
3DFACE
  8
FACES
 10
9
 20
8
 30
2
 11
9
 21
9
 31
2
 12
9
 22
9
 32
3
 13
9
 23
8
 33
3
  0
3DFACE
  8
FACES
 10
9
 20
9
 30
2
 11
9
 21
10
 31
2
 12
9
 22
10
 32
3
 13
9
 23
9
 33
3
  0
3DFACE
  8
FACES
 10
9
 20
11
 30
1
 11
9
 21
11
 31
0
 12
9
 22
12
 32
0
 13
9
 23
12
 33
1
  0
3DFACE
  8
FACES
 10
9
 20
10
 30
2
 11
9
 21
11
 31
2
 12
9
 22
11
 32
3
 13
9
 23
10
 33
3
  0
3DFACE
  8
FACES
 10
9
 20
11
 30
1
 11
9
 21
12
 31
1
 12
9
 22
12
 32
2
 13
9
 23
11
 33
2
  0
3DFACE
  8
FACES
 10
9
 20
12
 30
1
 11
9
 21
12
 31
0
 12
9
 22
13
 32
0
 13
9
 23
13
 33
1
  0
3DFACE
  8
FACES
 10
9
 20
11
 30
2
 11
9
 21
12
 31
2
 12
9
 22
12
 32
3
 13
9
 23
11
 33
3
  0
3DFACE
  8
FACES
 10
9
 20
12
 30
1
 11
9
 21
13
 31
1
 12
9
 22
13
 32
2
 13
9
 23
12
 33
2
  0
3DFACE
  8
FACES
 10
9
 20
13
 30
1
 11
9
 21
13
 31
0
 12
9
 22
14
 32
0
 13
9
 23
14
 33
1
  0
3DFACE
  8
FACES
 10
9
 20
12
 30
2
 11
9
 21
13
 31
2
 12
9
 22
13
 32
3
 13
9
 23
12
 33
3
  0
3DFACE
  8
FACES
 10
9
 20
13
 30
1
 11
9
 21
14
 31
1
 12
9
 22
14
 32
2
 13
9
 23
13
 33
2
  0
3DFACE
  8
FACES
 10
9
 20
14
 30
1
 11
9
 21
14
 31
0
 12
9
 22
15
 32
0
 13
9
 23
15
 33
1
  0
3DFACE
  8
FACES
 10
9
 20
13
 30
2
 11
9
 21
14
 31
2
 12
9
 22
14
 32
3
 13
9
 23
13
 33
3
  0
3DFACE
  8
FACES
 10
9
 20
14
 30
1
 11
9
 21
15
 31
1
 12
9
 22
15
 32
2
 13
9
 23
14
 33
2
  0
3DFACE
  8
FACES
 10
9
 20
15
 30
1
 11
9
 21
15
 31
0
 12
9
 22
16
 32
0
 13
9
 23
16
 33
1
  0
3DFACE
  8
FACES
 10
9
 20
14
 30
2
 11
9
 21
15
 31
2
 12
9
 22
15
 32
3
 13
9
 23
14
 33
3
  0
3DFACE
  8
FACES
 10
9
 20
15
 30
1
 11
9
 21
16
 31
1
 12
9
 22
16
 32
2
 13
9
 23
15
 33
2
  0
3DFACE
  8
FACES
 10
9
 20
16
 30
1
 11
9
 21
16
 31
0
 12
9
 22
17
 32
0
 13
9
 23
17
 33
1
  0
3DFACE
  8
FACES
 10
9
 20
15
 30
2
 11
9
 21
16
 31
2
 12
9
 22
16
 32
3
 13
9
 23
15
 33
3
  0
3DFACE
  8
FACES
 10
9
 20
16
 30
1
 11
9
 21
17
 31
1
 12
9
 22
17
 32
2
 13
9
 23
16
 33
2
  0
3DFACE
  8
FACES
 10
9
 20
17
 30
1
 11
9
 21
17
 31
0
 12
9
 22
18
 32
0
 13
9
 23
18
 33
1
  0
3DFACE
  8
FACES
 10
9
 20
16
 30
2
 11
9
 21
17
 31
2
 12
9
 22
17
 32
3
 13
9
 23
16
 33
3
  0
3DFACE
  8
FACES
 10
9
 20
17
 30
1
 11
9
 21
18
 31
1
 12
9
 22
18
 32
2
 13
9
 23
17
 33
2
  0
3DFACE
  8
FACES
 10
9
 20
17
 30
2
 11
9
 21
18
 31
2
 12
9
 22
18
 32
3
 13
9
 23
17
 33
3
  0
3DFACE
  8
FACES
 10
9
 20
18
 30
2
 11
9
 21
19
 31
2
 12
9
 22
19
 32
3
 13
9
 23
18
 33
3
  0
3DFACE
  8
FACES
 10
9
 20
20
 30
1
 11
9
 21
20
 31
0
 12
9
 22
21
 32
0
 13
9
 23
21
 33
1
  0
3DFACE
  8
FACES
 10
9
 20
19
 30
2
 11
9
 21
20
 31
2
 12
9
 22
20
 32
3
 13
9
 23
19
 33
3
  0
3DFACE
  8
FACES
 10
9
 20
20
 30
1
 11
9
 21
21
 31
1
 12
9
 22
21
 32
2
 13
9
 23
20
 33
2
  0
3DFACE
  8
FACES
 10
9
 20
21
 30
1
 11
9
 21
21
 31
0
 12
9
 22
22
 32
0
 13
9
 23
22
 33
1
  0
3DFACE
  8
FACES
 10
9
 20
20
 30
2
 11
9
 21
21
 31
2
 12
9
 22
21
 32
3
 13
9
 23
20
 33
3
  0
3DFACE
  8
FACES
 10
9
 20
21
 30
1
 11
9
 21
22
 31
1
 12
9
 22
22
 32
2
 13
9
 23
21
 33
2
  0
3DFACE
  8
FACES
 10
9
 20
22
 30
1
 11
9
 21
22
 31
0
 12
9
 22
23
 32
0
 13
9
 23
23
 33
1
  0
3DFACE
  8
FACES
 10
9
 20
21
 30
2
 11
9
 21
22
 31
2
 12
9
 22
22
 32
3
 13
9
 23
21
 33
3
  0
3DFACE
  8
FACES
 10
9
 20
22
 30
1
 11
9
 21
23
 31
1
 12
9
 22
23
 32
2
 13
9
 23
22
 33
2
  0
3DFACE
  8
FACES
 10
9
 20
23
 30
1
 11
9
 21
23
 31
0
 12
9
 22
24
 32
0
 13
9
 23
24
 33
1
  0
3DFACE
  8
FACES
 10
9
 20
22
 30
2
 11
9
 21
23
 31
2
 12
9
 22
23
 32
3
 13
9
 23
22
 33
3
  0
3DFACE
  8
FACES
 10
9
 20
23
 30
1
 11
9
 21
24
 31
1
 12
9
 22
24
 32
2
 13
9
 23
23
 33
2
  0
3DFACE
  8
FACES
 10
9
 20
23
 30
2
 11
9
 21
24
 31
2
 12
9
 22
24
 32
3
 13
9
 23
23
 33
3
  0
3DFACE
  8
FACES
 10
9
 20
24
 30
2
 11
9
 21
25
 31
2
 12
9
 22
25
 32
3
 13
9
 23
24
 33
3
  0
3DFACE
  8
FACES
 10
9
 20
26
 30
1
 11
9
 21
26
 31
0
 12
9
 22
27
 32
0
 13
9
 23
27
 33
1
  0
3DFACE
  8
FACES
 10
9
 20
25
 30
2
 11
9
 21
26
 31
2
 12
9
 22
26
 32
3
 13
9
 23
25
 33
3
  0
3DFACE
  8
FACES
 10
9
 20
26
 30
1
 11
9
 21
27
 31
1
 12
9
 22
27
 32
2
 13
9
 23
26
 33
2
  0
3DFACE
  8
FACES
 10
9
 20
27
 30
1
 11
9
 21
27
 31
0
 12
9
 22
28
 32
0
 13
9
 23
28
 33
1
  0
3DFACE
  8
FACES
 10
9
 20
26
 30
2
 11
9
 21
27
 31
2
 12
9
 22
27
 32
3
 13
9
 23
26
 33
3
  0
3DFACE
  8
FACES
 10
9
 20
27
 30
1
 11
9
 21
28
 31
1
 12
9
 22
28
 32
2
 13
9
 23
27
 33
2
  0
3DFACE
  8
FACES
 10
9
 20
28
 30
1
 11
9
 21
28
 31
0
 12
9
 22
29
 32
0
 13
9
 23
29
 33
1
  0
3DFACE
  8
FACES
 10
9
 20
27
 30
2
 11
9
 21
28
 31
2
 12
9
 22
28
 32
3
 13
9
 23
27
 33
3
  0
3DFACE
  8
FACES
 10
9
 20
28
 30
1
 11
9
 21
29
 31
1
 12
9
 22
29
 32
2
 13
9
 23
28
 33
2
  0
3DFACE
  8
FACES
 10
9
 20
29
 30
1
 11
9
 21
29
 31
0
 12
9
 22
30
 32
0
 13
9
 23
30
 33
1
  0
3DFACE
  8
FACES
 10
9
 20
28
 30
2
 11
9
 21
29
 31
2
 12
9
 22
29
 32
3
 13
9
 23
28
 33
3
  0
3DFACE
  8
FACES
 10
9
 20
29
 30
1
 11
9
 21
30
 31
1
 12
9
 22
30
 32
2
 13
9
 23
29
 33
2
  0
3DFACE
  8
FACES
 10
9
 20
30
 30
1
 11
9
 21
30
 31
0
 12
9
 22
31
 32
0
 13
9
 23
31
 33
1
  0
3DFACE
  8
FACES
 10
9
 20
29
 30
2
 11
9
 21
30
 31
2
 12
9
 22
30
 32
3
 13
9
 23
29
 33
3
  0
3DFACE
  8
FACES
 10
9
 20
30
 30
1
 11
9
 21
31
 31
1
 12
9
 22
31
 32
2
 13
9
 23
30
 33
2
  0
3DFACE
  8
FACES
 10
9
 20
30
 30
2
 11
9
 21
31
 31
2
 12
9
 22
31
 32
3
 13
9
 23
30
 33
3
  0
3DFACE
  8
FACES
 10
9
 20
31
 30
2
 11
9
 21
32
 31
2
 12
9
 22
32
 32
3
 13
9
 23
31
 33
3
  0
3DFACE
  8
FACES
 10
9
 20
33
 30
1
 11
9
 21
33
 31
0
 12
9
 22
34
 32
0
 13
9
 23
34
 33
1
  0
3DFACE
  8
FACES
 10
9
 20
32
 30
2
 11
9
 21
33
 31
2
 12
9
 22
33
 32
3
 13
9
 23
32
 33
3
  0
3DFACE
  8
FACES
 10
9
 20
33
 30
1
 11
9
 21
34
 31
1
 12
9
 22
34
 32
2
 13
9
 23
33
 33
2
  0
3DFACE
  8
FACES
 10
9
 20
34
 30
1
 11
9
 21
34
 31
0
 12
9
 22
35
 32
0
 13
9
 23
35
 33
1
  0
3DFACE
  8
FACES
 10
9
 20
33
 30
2
 11
9
 21
34
 31
2
 12
9
 22
34
 32
3
 13
9
 23
33
 33
3
  0
3DFACE
  8
FACES
 10
9
 20
34
 30
1
 11
9
 21
35
 31
1
 12
9
 22
35
 32
2
 13
9
 23
34
 33
2
  0
3DFACE
  8
FACES
 10
9
 20
35
 30
1
 11
9
 21
35
 31
0
 12
9
 22
36
 32
0
 13
9
 23
36
 33
1
  0
3DFACE
  8
FACES
 10
9
 20
34
 30
2
 11
9
 21
35
 31
2
 12
9
 22
35
 32
3
 13
9
 23
34
 33
3
  0
3DFACE
  8
FACES
 10
9
 20
35
 30
2
 11
9
 21
35
 31
1
 12
9
 22
36
 32
1
 13
9
 23
36
 33
2
  0
3DFACE
  8
FACES
 10
9
 20
35
 30
2
 11
9
 21
36
 31
2
 12
9
 22
36
 32
3
 13
9
 23
35
 33
3
  0
3DFACE
  8
FACES
 10
15
 20
1
 30
0
 11
15
 21
1
 31
1
 12
15
 22
0
 32
1
 13
15
 23
0
 33
0
  0
3DFACE
  8
FACES
 10
15
 20
1
 30
1
 11
15
 21
1
 31
2
 12
15
 22
0
 32
2
 13
15
 23
0
 33
1
  0
3DFACE
  8
FACES
 10
15
 20
1
 30
1
 11
15
 21
1
 31
0
 12
15
 22
2
 32
0
 13
15
 23
2
 33
1
  0
3DFACE
  8
FACES
 10
15
 20
1
 30
2
 11
15
 21
1
 31
3
 12
15
 22
0
 32
3
 13
15
 23
0
 33
2
  0
3DFACE
  8
FACES
 10
15
 20
1
 30
1
 11
15
 21
2
 31
1
 12
15
 22
2
 32
2
 13
15
 23
1
 33
2
  0
3DFACE
  8
FACES
 10
15
 20
1
 30
2
 11
15
 21
2
 31
2
 12
15
 22
2
 32
3
 13
15
 23
1
 33
3
  0
3DFACE
  8
FACES
 10
15
 20
2
 30
2
 11
15
 21
3
 31
2
 12
15
 22
3
 32
3
 13
15
 23
2
 33
3
  0
3DFACE
  8
FACES
 10
15
 20
4
 30
1
 11
15
 21
4
 31
0
 12
15
 22
5
 32
0
 13
15
 23
5
 33
1
  0
3DFACE
  8
FACES
 10
15
 20
3
 30
2
 11
15
 21
4
 31
2
 12
15
 22
4
 32
3
 13
15
 23
3
 33
3
  0
3DFACE
  8
FACES
 10
15
 20
4
 30
1
 11
15
 21
5
 31
1
 12
15
 22
5
 32
2
 13
15
 23
4
 33
2
  0
3DFACE
  8
FACES
 10
15
 20
5
 30
1
 11
15
 21
5
 31
0
 12
15
 22
6
 32
0
 13
15
 23
6
 33
1
  0
3DFACE
  8
FACES
 10
15
 20
4
 30
2
 11
15
 21
5
 31
2
 12
15
 22
5
 32
3
 13
15
 23
4
 33
3
  0
3DFACE
  8
FACES
 10
15
 20
5
 30
1
 11
15
 21
6
 31
1
 12
15
 22
6
 32
2
 13
15
 23
5
 33
2
  0
3DFACE
  8
FACES
 10
15
 20
6
 30
1
 11
15
 21
6
 31
0
 12
15
 22
7
 32
0
 13
15
 23
7
 33
1
  0
3DFACE
  8
FACES
 10
15
 20
5
 30
2
 11
15
 21
6
 31
2
 12
15
 22
6
 32
3
 13
15
 23
5
 33
3
  0
3DFACE
  8
FACES
 10
15
 20
6
 30
1
 11
15
 21
7
 31
1
 12
15
 22
7
 32
2
 13
15
 23
6
 33
2
  0
3DFACE
  8
FACES
 10
15
 20
7
 30
1
 11
15
 21
7
 31
0
 12
15
 22
8
 32
0
 13
15
 23
8
 33
1
  0
3DFACE
  8
FACES
 10
15
 20
6
 30
2
 11
15
 21
7
 31
2
 12
15
 22
7
 32
3
 13
15
 23
6
 33
3
  0
3DFACE
  8
FACES
 10
15
 20
7
 30
1
 11
15
 21
8
 31
1
 12
15
 22
8
 32
2
 13
15
 23
7
 33
2
  0
3DFACE
  8
FACES
 10
15
 20
8
 30
1
 11
15
 21
8
 31
0
 12
15
 22
9
 32
0
 13
15
 23
9
 33
1
  0
3DFACE
  8
FACES
 10
15
 20
7
 30
2
 11
15
 21
8
 31
2
 12
15
 22
8
 32
3
 13
15
 23
7
 33
3
  0
3DFACE
  8
FACES
 10
15
 20
8
 30
1
 11
15
 21
9
 31
1
 12
15
 22
9
 32
2
 13
15
 23
8
 33
2
  0
3DFACE
  8
FACES
 10
15
 20
8
 30
2
 11
15
 21
9
 31
2
 12
15
 22
9
 32
3
 13
15
 23
8
 33
3
  0
3DFACE
  8
FACES
 10
15
 20
9
 30
2
 11
15
 21
10
 31
2
 12
15
 22
10
 32
3
 13
15
 23
9
 33
3
  0
3DFACE
  8
FACES
 10
15
 20
11
 30
1
 11
15
 21
11
 31
0
 12
15
 22
12
 32
0
 13
15
 23
12
 33
1
  0
3DFACE
  8
FACES
 10
15
 20
10
 30
2
 11
15
 21
11
 31
2
 12
15
 22
11
 32
3
 13
15
 23
10
 33
3
  0
3DFACE
  8
FACES
 10
15
 20
11
 30
1
 11
15
 21
12
 31
1
 12
15
 22
12
 32
2
 13
15
 23
11
 33
2
  0
3DFACE
  8
FACES
 10
15
 20
12
 30
1
 11
15
 21
12
 31
0
 12
15
 22
13
 32
0
 13
15
 23
13
 33
1
  0
3DFACE
  8
FACES
 10
15
 20
11
 30
2
 11
15
 21
12
 31
2
 12
15
 22
12
 32
3
 13
15
 23
11
 33
3
  0
3DFACE
  8
FACES
 10
15
 20
12
 30
1
 11
15
 21
13
 31
1
 12
15
 22
13
 32
2
 13
15
 23
12
 33
2
  0
3DFACE
  8
FACES
 10
15
 20
13
 30
1
 11
15
 21
13
 31
0
 12
15
 22
14
 32
0
 13
15
 23
14
 33
1
  0
3DFACE
  8
FACES
 10
15
 20
12
 30
2
 11
15
 21
13
 31
2
 12
15
 22
13
 32
3
 13
15
 23
12
 33
3
  0
3DFACE
  8
FACES
 10
15
 20
13
 30
1
 11
15
 21
14
 31
1
 12
15
 22
14
 32
2
 13
15
 23
13
 33
2
  0
3DFACE
  8
FACES
 10
15
 20
14
 30
1
 11
15
 21
14
 31
0
 12
15
 22
15
 32
0
 13
15
 23
15
 33
1
  0
3DFACE
  8
FACES
 10
15
 20
13
 30
2
 11
15
 21
14
 31
2
 12
15
 22
14
 32
3
 13
15
 23
13
 33
3
  0
3DFACE
  8
FACES
 10
15
 20
14
 30
1
 11
15
 21
15
 31
1
 12
15
 22
15
 32
2
 13
15
 23
14
 33
2
  0
3DFACE
  8
FACES
 10
15
 20
15
 30
1
 11
15
 21
15
 31
0
 12
15
 22
16
 32
0
 13
15
 23
16
 33
1
  0
3DFACE
  8
FACES
 10
15
 20
14
 30
2
 11
15
 21
15
 31
2
 12
15
 22
15
 32
3
 13
15
 23
14
 33
3
  0
3DFACE
  8
FACES
 10
15
 20
15
 30
1
 11
15
 21
16
 31
1
 12
15
 22
16
 32
2
 13
15
 23
15
 33
2
  0
3DFACE
  8
FACES
 10
15
 20
16
 30
1
 11
15
 21
16
 31
0
 12
15
 22
17
 32
0
 13
15
 23
17
 33
1
  0
3DFACE
  8
FACES
 10
15
 20
15
 30
2
 11
15
 21
16
 31
2
 12
15
 22
16
 32
3
 13
15
 23
15
 33
3
  0
3DFACE
  8
FACES
 10
15
 20
16
 30
1
 11
15
 21
17
 31
1
 12
15
 22
17
 32
2
 13
15
 23
16
 33
2
  0
3DFACE
  8
FACES
 10
15
 20
17
 30
1
 11
15
 21
17
 31
0
 12
15
 22
18
 32
0
 13
15
 23
18
 33
1
  0
3DFACE
  8
FACES
 10
15
 20
16
 30
2
 11
15
 21
17
 31
2
 12
15
 22
17
 32
3
 13
15
 23
16
 33
3
  0
3DFACE
  8
FACES
 10
15
 20
17
 30
1
 11
15
 21
18
 31
1
 12
15
 22
18
 32
2
 13
15
 23
17
 33
2
  0
3DFACE
  8
FACES
 10
15
 20
17
 30
2
 11
15
 21
18
 31
2
 12
15
 22
18
 32
3
 13
15
 23
17
 33
3
  0
3DFACE
  8
FACES
 10
15
 20
18
 30
2
 11
15
 21
19
 31
2
 12
15
 22
19
 32
3
 13
15
 23
18
 33
3
  0
3DFACE
  8
FACES
 10
15
 20
20
 30
1
 11
15
 21
20
 31
0
 12
15
 22
21
 32
0
 13
15
 23
21
 33
1
  0
3DFACE
  8
FACES
 10
15
 20
19
 30
2
 11
15
 21
20
 31
2
 12
15
 22
20
 32
3
 13
15
 23
19
 33
3
  0
3DFACE
  8
FACES
 10
15
 20
20
 30
1
 11
15
 21
21
 31
1
 12
15
 22
21
 32
2
 13
15
 23
20
 33
2
  0
3DFACE
  8
FACES
 10
15
 20
21
 30
1
 11
15
 21
21
 31
0
 12
15
 22
22
 32
0
 13
15
 23
22
 33
1
  0
3DFACE
  8
FACES
 10
15
 20
20
 30
2
 11
15
 21
21
 31
2
 12
15
 22
21
 32
3
 13
15
 23
20
 33
3
  0
3DFACE
  8
FACES
 10
15
 20
21
 30
1
 11
15
 21
22
 31
1
 12
15
 22
22
 32
2
 13
15
 23
21
 33
2
  0
3DFACE
  8
FACES
 10
15
 20
22
 30
1
 11
15
 21
22
 31
0
 12
15
 22
23
 32
0
 13
15
 23
23
 33
1
  0
3DFACE
  8
FACES
 10
15
 20
21
 30
2
 11
15
 21
22
 31
2
 12
15
 22
22
 32
3
 13
15
 23
21
 33
3
  0
3DFACE
  8
FACES
 10
15
 20
22
 30
1
 11
15
 21
23
 31
1
 12
15
 22
23
 32
2
 13
15
 23
22
 33
2
  0
3DFACE
  8
FACES
 10
15
 20
22
 30
2
 11
15
 21
23
 31
2
 12
15
 22
23
 32
3
 13
15
 23
22
 33
3
  0
3DFACE
  8
FACES
 10
15
 20
23
 30
2
 11
15
 21
24
 31
2
 12
15
 22
24
 32
3
 13
15
 23
23
 33
3
  0
3DFACE
  8
FACES
 10
15
 20
25
 30
1
 11
15
 21
25
 31
0
 12
15
 22
26
 32
0
 13
15
 23
26
 33
1
  0
3DFACE
  8
FACES
 10
15
 20
24
 30
2
 11
15
 21
25
 31
2
 12
15
 22
25
 32
3
 13
15
 23
24
 33
3
  0
3DFACE
  8
FACES
 10
15
 20
25
 30
1
 11
15
 21
26
 31
1
 12
15
 22
26
 32
2
 13
15
 23
25
 33
2
  0
3DFACE
  8
FACES
 10
15
 20
26
 30
1
 11
15
 21
26
 31
0
 12
15
 22
27
 32
0
 13
15
 23
27
 33
1
  0
3DFACE
  8
FACES
 10
15
 20
25
 30
2
 11
15
 21
26
 31
2
 12
15
 22
26
 32
3
 13
15
 23
25
 33
3
  0
3DFACE
  8
FACES
 10
15
 20
26
 30
1
 11
15
 21
27
 31
1
 12
15
 22
27
 32
2
 13
15
 23
26
 33
2
  0
3DFACE
  8
FACES
 10
15
 20
27
 30
1
 11
15
 21
27
 31
0
 12
15
 22
28
 32
0
 13
15
 23
28
 33
1
  0
3DFACE
  8
FACES
 10
15
 20
26
 30
2
 11
15
 21
27
 31
2
 12
15
 22
27
 32
3
 13
15
 23
26
 33
3
  0
3DFACE
  8
FACES
 10
15
 20
27
 30
1
 11
15
 21
28
 31
1
 12
15
 22
28
 32
2
 13
15
 23
27
 33
2
  0
3DFACE
  8
FACES
 10
15
 20
28
 30
1
 11
15
 21
28
 31
0
 12
15
 22
29
 32
0
 13
15
 23
29
 33
1
  0
3DFACE
  8
FACES
 10
15
 20
27
 30
2
 11
15
 21
28
 31
2
 12
15
 22
28
 32
3
 13
15
 23
27
 33
3
  0
3DFACE
  8
FACES
 10
15
 20
28
 30
1
 11
15
 21
29
 31
1
 12
15
 22
29
 32
2
 13
15
 23
28
 33
2
  0
3DFACE
  8
FACES
 10
15
 20
29
 30
1
 11
15
 21
29
 31
0
 12
15
 22
30
 32
0
 13
15
 23
30
 33
1
  0
3DFACE
  8
FACES
 10
15
 20
28
 30
2
 11
15
 21
29
 31
2
 12
15
 22
29
 32
3
 13
15
 23
28
 33
3
  0
3DFACE
  8
FACES
 10
15
 20
29
 30
1
 11
15
 21
30
 31
1
 12
15
 22
30
 32
2
 13
15
 23
29
 33
2
  0
3DFACE
  8
FACES
 10
15
 20
29
 30
2
 11
15
 21
30
 31
2
 12
15
 22
30
 32
3
 13
15
 23
29
 33
3
  0
3DFACE
  8
FACES
 10
15
 20
30
 30
2
 11
15
 21
31
 31
2
 12
15
 22
31
 32
3
 13
15
 23
30
 33
3
  0
3DFACE
  8
FACES
 10
15
 20
32
 30
1
 11
15
 21
32
 31
0
 12
15
 22
33
 32
0
 13
15
 23
33
 33
1
  0
3DFACE
  8
FACES
 10
15
 20
31
 30
2
 11
15
 21
32
 31
2
 12
15
 22
32
 32
3
 13
15
 23
31
 33
3
  0
3DFACE
  8
FACES
 10
15
 20
32
 30
1
 11
15
 21
33
 31
1
 12
15
 22
33
 32
2
 13
15
 23
32
 33
2
  0
3DFACE
  8
FACES
 10
15
 20
33
 30
1
 11
15
 21
33
 31
0
 12
15
 22
34
 32
0
 13
15
 23
34
 33
1
  0
3DFACE
  8
FACES
 10
15
 20
32
 30
2
 11
15
 21
33
 31
2
 12
15
 22
33
 32
3
 13
15
 23
32
 33
3
  0
3DFACE
  8
FACES
 10
15
 20
33
 30
1
 11
15
 21
34
 31
1
 12
15
 22
34
 32
2
 13
15
 23
33
 33
2
  0
3DFACE
  8
FACES
 10
15
 20
34
 30
1
 11
15
 21
34
 31
0
 12
15
 22
35
 32
0
 13
15
 23
35
 33
1
  0
3DFACE
  8
FACES
 10
15
 20
33
 30
2
 11
15
 21
34
 31
2
 12
15
 22
34
 32
3
 13
15
 23
33
 33
3
  0
3DFACE
  8
FACES
 10
15
 20
34
 30
1
 11
15
 21
35
 31
1
 12
15
 22
35
 32
2
 13
15
 23
34
 33
2
  0
3DFACE
  8
FACES
 10
15
 20
35
 30
1
 11
15
 21
35
 31
0
 12
15
 22
36
 32
0
 13
15
 23
36
 33
1
  0
3DFACE
  8
FACES
 10
15
 20
34
 30
2
 11
15
 21
35
 31
2
 12
15
 22
35
 32
3
 13
15
 23
34
 33
3
  0
3DFACE
  8
FACES
 10
15
 20
35
 30
2
 11
15
 21
35
 31
1
 12
15
 22
36
 32
1
 13
15
 23
36
 33
2
  0
3DFACE
  8
FACES
 10
15
 20
35
 30
2
 11
15
 21
36
 31
2
 12
15
 22
36
 32
3
 13
15
 23
35
 33
3
  0
3DFACE
  8
FACES
 10
24
 20
1
 30
0
 11
24
 21
1
 31
1
 12
24
 22
0
 32
1
 13
24
 23
0
 33
0
  0
3DFACE
  8
FACES
 10
24
 20
1
 30
1
 11
24
 21
1
 31
2
 12
24
 22
0
 32
2
 13
24
 23
0
 33
1
  0
3DFACE
  8
FACES
 10
24
 20
1
 30
1
 11
24
 21
1
 31
0
 12
24
 22
2
 32
0
 13
24
 23
2
 33
1
  0
3DFACE
  8
FACES
 10
24
 20
1
 30
2
 11
24
 21
1
 31
3
 12
24
 22
0
 32
3
 13
24
 23
0
 33
2
  0
3DFACE
  8
FACES
 10
24
 20
1
 30
1
 11
24
 21
2
 31
1
 12
24
 22
2
 32
2
 13
24
 23
1
 33
2
  0
3DFACE
  8
FACES
 10
24
 20
2
 30
1
 11
24
 21
2
 31
0
 12
24
 22
3
 32
0
 13
24
 23
3
 33
1
  0
3DFACE
  8
FACES
 10
24
 20
1
 30
2
 11
24
 21
2
 31
2
 12
24
 22
2
 32
3
 13
24
 23
1
 33
3
  0
3DFACE
  8
FACES
 10
24
 20
2
 30
1
 11
24
 21
3
 31
1
 12
24
 22
3
 32
2
 13
24
 23
2
 33
2
  0
3DFACE
  8
FACES
 10
24
 20
2
 30
2
 11
24
 21
3
 31
2
 12
24
 22
3
 32
3
 13
24
 23
2
 33
3
  0
3DFACE
  8
FACES
 10
24
 20
3
 30
2
 11
24
 21
4
 31
2
 12
24
 22
4
 32
3
 13
24
 23
3
 33
3
  0
3DFACE
  8
FACES
 10
24
 20
5
 30
1
 11
24
 21
5
 31
0
 12
24
 22
6
 32
0
 13
24
 23
6
 33
1
  0
3DFACE
  8
FACES
 10
24
 20
4
 30
2
 11
24
 21
5
 31
2
 12
24
 22
5
 32
3
 13
24
 23
4
 33
3
  0
3DFACE
  8
FACES
 10
24
 20
5
 30
1
 11
24
 21
6
 31
1
 12
24
 22
6
 32
2
 13
24
 23
5
 33
2
  0
3DFACE
  8
FACES
 10
24
 20
6
 30
1
 11
24
 21
6
 31
0
 12
24
 22
7
 32
0
 13
24
 23
7
 33
1
  0
3DFACE
  8
FACES
 10
24
 20
5
 30
2
 11
24
 21
6
 31
2
 12
24
 22
6
 32
3
 13
24
 23
5
 33
3
  0
3DFACE
  8
FACES
 10
24
 20
6
 30
1
 11
24
 21
7
 31
1
 12
24
 22
7
 32
2
 13
24
 23
6
 33
2
  0
3DFACE
  8
FACES
 10
24
 20
7
 30
1
 11
24
 21
7
 31
0
 12
24
 22
8
 32
0
 13
24
 23
8
 33
1
  0
3DFACE
  8
FACES
 10
24
 20
6
 30
2
 11
24
 21
7
 31
2
 12
24
 22
7
 32
3
 13
24
 23
6
 33
3
  0
3DFACE
  8
FACES
 10
24
 20
7
 30
1
 11
24
 21
8
 31
1
 12
24
 22
8
 32
2
 13
24
 23
7
 33
2
  0
3DFACE
  8
FACES
 10
24
 20
7
 30
2
 11
24
 21
8
 31
2
 12
24
 22
8
 32
3
 13
24
 23
7
 33
3
  0
3DFACE
  8
FACES
 10
24
 20
8
 30
2
 11
24
 21
9
 31
2
 12
24
 22
9
 32
3
 13
24
 23
8
 33
3
  0
3DFACE
  8
FACES
 10
24
 20
10
 30
1
 11
24
 21
10
 31
0
 12
24
 22
11
 32
0
 13
24
 23
11
 33
1
  0
3DFACE
  8
FACES
 10
24
 20
9
 30
2
 11
24
 21
10
 31
2
 12
24
 22
10
 32
3
 13
24
 23
9
 33
3
  0
3DFACE
  8
FACES
 10
24
 20
10
 30
1
 11
24
 21
11
 31
1
 12
24
 22
11
 32
2
 13
24
 23
10
 33
2
  0
3DFACE
  8
FACES
 10
24
 20
11
 30
1
 11
24
 21
11
 31
0
 12
24
 22
12
 32
0
 13
24
 23
12
 33
1
  0
3DFACE
  8
FACES
 10
24
 20
10
 30
2
 11
24
 21
11
 31
2
 12
24
 22
11
 32
3
 13
24
 23
10
 33
3
  0
3DFACE
  8
FACES
 10
24
 20
11
 30
1
 11
24
 21
12
 31
1
 12
24
 22
12
 32
2
 13
24
 23
11
 33
2
  0
3DFACE
  8
FACES
 10
24
 20
12
 30
1
 11
24
 21
12
 31
0
 12
24
 22
13
 32
0
 13
24
 23
13
 33
1
  0
3DFACE
  8
FACES
 10
24
 20
11
 30
2
 11
24
 21
12
 31
2
 12
24
 22
12
 32
3
 13
24
 23
11
 33
3
  0
3DFACE
  8
FACES
 10
24
 20
12
 30
1
 11
24
 21
13
 31
1
 12
24
 22
13
 32
2
 13
24
 23
12
 33
2
  0
3DFACE
  8
FACES
 10
24
 20
13
 30
1
 11
24
 21
13
 31
0
 12
24
 22
14
 32
0
 13
24
 23
14
 33
1
  0
3DFACE
  8
FACES
 10
24
 20
12
 30
2
 11
24
 21
13
 31
2
 12
24
 22
13
 32
3
 13
24
 23
12
 33
3
  0
3DFACE
  8
FACES
 10
24
 20
13
 30
1
 11
24
 21
14
 31
1
 12
24
 22
14
 32
2
 13
24
 23
13
 33
2
  0
3DFACE
  8
FACES
 10
24
 20
14
 30
1
 11
24
 21
14
 31
0
 12
24
 22
15
 32
0
 13
24
 23
15
 33
1
  0
3DFACE
  8
FACES
 10
24
 20
13
 30
2
 11
24
 21
14
 31
2
 12
24
 22
14
 32
3
 13
24
 23
13
 33
3
  0
3DFACE
  8
FACES
 10
24
 20
14
 30
1
 11
24
 21
15
 31
1
 12
24
 22
15
 32
2
 13
24
 23
14
 33
2
  0
3DFACE
  8
FACES
 10
24
 20
14
 30
2
 11
24
 21
15
 31
2
 12
24
 22
15
 32
3
 13
24
 23
14
 33
3
  0
3DFACE
  8
FACES
 10
24
 20
28
 30
1
 11
24
 21
28
 31
0
 12
24
 22
29
 32
0
 13
24
 23
29
 33
1
  0
3DFACE
  8
FACES
 10
24
 20
28
 30
1
 11
24
 21
29
 31
1
 12
24
 22
29
 32
2
 13
24
 23
28
 33
2
  0
3DFACE
  8
FACES
 10
24
 20
29
 30
1
 11
24
 21
29
 31
0
 12
24
 22
30
 32
0
 13
24
 23
30
 33
1
  0
3DFACE
  8
FACES
 10
24
 20
28
 30
2
 11
24
 21
29
 31
2
 12
24
 22
29
 32
3
 13
24
 23
28
 33
3
  0
3DFACE
  8
FACES
 10
24
 20
29
 30
1
 11
24
 21
30
 31
1
 12
24
 22
30
 32
2
 13
24
 23
29
 33
2
  0
3DFACE
  8
FACES
 10
24
 20
30
 30
1
 11
24
 21
30
 31
0
 12
24
 22
31
 32
0
 13
24
 23
31
 33
1
  0
3DFACE
  8
FACES
 10
24
 20
29
 30
2
 11
24
 21
30
 31
2
 12
24
 22
30
 32
3
 13
24
 23
29
 33
3
  0
3DFACE
  8
FACES
 10
24
 20
30
 30
1
 11
24
 21
31
 31
1
 12
24
 22
31
 32
2
 13
24
 23
30
 33
2
  0
3DFACE
  8
FACES
 10
24
 20
31
 30
1
 11
24
 21
31
 31
0
 12
24
 22
32
 32
0
 13
24
 23
32
 33
1
  0
3DFACE
  8
FACES
 10
24
 20
30
 30
2
 11
24
 21
31
 31
2
 12
24
 22
31
 32
3
 13
24
 23
30
 33
3
  0
3DFACE
  8
FACES
 10
24
 20
31
 30
1
 11
24
 21
32
 31
1
 12
24
 22
32
 32
2
 13
24
 23
31
 33
2
  0
3DFACE
  8
FACES
 10
24
 20
31
 30
2
 11
24
 21
32
 31
2
 12
24
 22
32
 32
3
 13
24
 23
31
 33
3
  0
3DFACE
  8
FACES
 10
24
 20
32
 30
2
 11
24
 21
33
 31
2
 12
24
 22
33
 32
3
 13
24
 23
32
 33
3
  0
3DFACE
  8
FACES
 10
24
 20
34
 30
1
 11
24
 21
34
 31
0
 12
24
 22
35
 32
0
 13
24
 23
35
 33
1
  0
3DFACE
  8
FACES
 10
24
 20
33
 30
2
 11
24
 21
34
 31
2
 12
24
 22
34
 32
3
 13
24
 23
33
 33
3
  0
3DFACE
  8
FACES
 10
24
 20
34
 30
1
 11
24
 21
35
 31
1
 12
24
 22
35
 32
2
 13
24
 23
34
 33
2
  0
3DFACE
  8
FACES
 10
24
 20
35
 30
1
 11
24
 21
35
 31
0
 12
24
 22
36
 32
0
 13
24
 23
36
 33
1
  0
3DFACE
  8
FACES
 10
24
 20
34
 30
2
 11
24
 21
35
 31
2
 12
24
 22
35
 32
3
 13
24
 23
34
 33
3
  0
3DFACE
  8
FACES
 10
24
 20
35
 30
2
 11
24
 21
35
 31
1
 12
24
 22
36
 32
1
 13
24
 23
36
 33
2
  0
3DFACE
  8
FACES
 10
24
 20
35
 30
2
 11
24
 21
36
 31
2
 12
24
 22
36
 32
3
 13
24
 23
35
 33
3
  0
3DFACE
  8
FACES
 10
30
 20
0
 30
1
 11
30
 21
1
 31
1
 12
30
 22
1
 32
0
 13
30
 23
0
 33
0
  0
3DFACE
  8
FACES
 10
30
 20
1
 30
1
 11
30
 21
0
 31
1
 12
30
 22
0
 32
2
 13
30
 23
1
 33
2
  0
3DFACE
  8
FACES
 10
30
 20
1
 30
2
 11
30
 21
0
 31
2
 12
30
 22
0
 32
3
 13
30
 23
1
 33
3
  0
3DFACE
  8
FACES
 10
30
 20
3
 30
1
 11
30
 21
4
 31
1
 12
30
 22
4
 32
0
 13
30
 23
3
 33
0
  0
3DFACE
  8
FACES
 10
30
 20
2
 30
2
 11
30
 21
1
 31
2
 12
30
 22
1
 32
3
 13
30
 23
2
 33
3
  0
3DFACE
  8
FACES
 10
30
 20
3
 30
1
 11
30
 21
3
 31
2
 12
30
 22
4
 32
2
 13
30
 23
4
 33
1
  0
3DFACE
  8
FACES
 10
30
 20
2
 30
2
 11
30
 21
2
 31
3
 12
30
 22
3
 32
3
 13
30
 23
3
 33
2
  0
3DFACE
  8
FACES
 10
30
 20
3
 30
2
 11
30
 21
3
 31
3
 12
30
 22
4
 32
3
 13
30
 23
4
 33
2
  0
3DFACE
  8
FACES
 10
30
 20
4
 30
2
 11
30
 21
4
 31
3
 12
30
 22
5
 32
3
 13
30
 23
5
 33
2
  0
3DFACE
  8
FACES
 10
30
 20
6
 30
1
 11
30
 21
7
 31
1
 12
30
 22
7
 32
0
 13
30
 23
6
 33
0
  0
3DFACE
  8
FACES
 10
30
 20
5
 30
2
 11
30
 21
5
 31
3
 12
30
 22
6
 32
3
 13
30
 23
6
 33
2
  0
3DFACE
  8
FACES
 10
30
 20
7
 30
1
 11
30
 21
8
 31
1
 12
30
 22
8
 32
0
 13
30
 23
7
 33
0
  0
3DFACE
  8
FACES
 10
30
 20
6
 30
1
 11
30
 21
6
 31
2
 12
30
 22
7
 32
2
 13
30
 23
7
 33
1
  0
3DFACE
  8
FACES
 10
30
 20
6
 30
2
 11
30
 21
6
 31
3
 12
30
 22
7
 32
3
 13
30
 23
7
 33
2
  0
3DFACE
  8
FACES
 10
30
 20
8
 30
1
 11
30
 21
9
 31
1
 12
30
 22
9
 32
0
 13
30
 23
8
 33
0
  0
3DFACE
  8
FACES
 10
30
 20
7
 30
1
 11
30
 21
7
 31
2
 12
30
 22
8
 32
2
 13
30
 23
8
 33
1
  0
3DFACE
  8
FACES
 10
30
 20
7
 30
2
 11
30
 21
7
 31
3
 12
30
 22
8
 32
3
 13
30
 23
8
 33
2
  0
3DFACE
  8
FACES
 10
30
 20
9
 30
1
 11
30
 21
10
 31
1
 12
30
 22
10
 32
0
 13
30
 23
9
 33
0
  0
3DFACE
  8
FACES
 10
30
 20
8
 30
1
 11
30
 21
8
 31
2
 12
30
 22
9
 32
2
 13
30
 23
9
 33
1
  0
3DFACE
  8
FACES
 10
30
 20
8
 30
2
 11
30
 21
8
 31
3
 12
30
 22
9
 32
3
 13
30
 23
9
 33
2
  0
3DFACE
  8
FACES
 10
30
 20
9
 30
1
 11
30
 21
9
 31
2
 12
30
 22
10
 32
2
 13
30
 23
10
 33
1
  0
3DFACE
  8
FACES
 10
30
 20
9
 30
2
 11
30
 21
9
 31
3
 12
30
 22
10
 32
3
 13
30
 23
10
 33
2
  0
3DFACE
  8
FACES
 10
30
 20
11
 30
1
 11
30
 21
12
 31
1
 12
30
 22
12
 32
0
 13
30
 23
11
 33
0
  0
3DFACE
  8
FACES
 10
30
 20
10
 30
2
 11
30
 21
10
 31
3
 12
30
 22
11
 32
3
 13
30
 23
11
 33
2
  0
3DFACE
  8
FACES
 10
30
 20
12
 30
1
 11
30
 21
13
 31
1
 12
30
 22
13
 32
0
 13
30
 23
12
 33
0
  0
3DFACE
  8
FACES
 10
30
 20
11
 30
1
 11
30
 21
11
 31
2
 12
30
 22
12
 32
2
 13
30
 23
12
 33
1
  0
3DFACE
  8
FACES
 10
30
 20
11
 30
2
 11
30
 21
11
 31
3
 12
30
 22
12
 32
3
 13
30
 23
12
 33
2
  0
3DFACE
  8
FACES
 10
30
 20
12
 30
1
 11
30
 21
12
 31
2
 12
30
 22
13
 32
2
 13
30
 23
13
 33
1
  0
3DFACE
  8
FACES
 10
30
 20
12
 30
2
 11
30
 21
12
 31
3
 12
30
 22
13
 32
3
 13
30
 23
13
 33
2
  0
3DFACE
  8
FACES
 10
30
 20
14
 30
1
 11
30
 21
15
 31
1
 12
30
 22
15
 32
0
 13
30
 23
14
 33
0
  0
3DFACE
  8
FACES
 10
30
 20
13
 30
2
 11
30
 21
13
 31
3
 12
30
 22
14
 32
3
 13
30
 23
14
 33
2
  0
3DFACE
  8
FACES
 10
30
 20
14
 30
1
 11
30
 21
14
 31
2
 12
30
 22
15
 32
2
 13
30
 23
15
 33
1
  0
3DFACE
  8
FACES
 10
30
 20
14
 30
2
 11
30
 21
14
 31
3
 12
30
 22
15
 32
3
 13
30
 23
15
 33
2
  0
3DFACE
  8
FACES
 10
30
 20
28
 30
1
 11
30
 21
29
 31
1
 12
30
 22
29
 32
0
 13
30
 23
28
 33
0
  0
3DFACE
  8
FACES
 10
30
 20
28
 30
1
 11
30
 21
28
 31
2
 12
30
 22
29
 32
2
 13
30
 23
29
 33
1
  0
3DFACE
  8
FACES
 10
30
 20
28
 30
2
 11
30
 21
28
 31
3
 12
30
 22
29
 32
3
 13
30
 23
29
 33
2
  0
3DFACE
  8
FACES
 10
30
 20
30
 30
1
 11
30
 21
31
 31
1
 12
30
 22
31
 32
0
 13
30
 23
30
 33
0
  0
3DFACE
  8
FACES
 10
30
 20
29
 30
2
 11
30
 21
29
 31
3
 12
30
 22
30
 32
3
 13
30
 23
30
 33
2
  0
3DFACE
  8
FACES
 10
30
 20
31
 30
1
 11
30
 21
32
 31
1
 12
30
 22
32
 32
0
 13
30
 23
31
 33
0
  0
3DFACE
  8
FACES
 10
30
 20
30
 30
1
 11
30
 21
30
 31
2
 12
30
 22
31
 32
2
 13
30
 23
31
 33
1
  0
3DFACE
  8
FACES
 10
30
 20
30
 30
2
 11
30
 21
30
 31
3
 12
30
 22
31
 32
3
 13
30
 23
31
 33
2
  0
3DFACE
  8
FACES
 10
30
 20
32
 30
1
 11
30
 21
33
 31
1
 12
30
 22
33
 32
0
 13
30
 23
32
 33
0
  0
3DFACE
  8
FACES
 10
30
 20
31
 30
1
 11
30
 21
31
 31
2
 12
30
 22
32
 32
2
 13
30
 23
32
 33
1
  0
3DFACE
  8
FACES
 10
30
 20
31
 30
2
 11
30
 21
31
 31
3
 12
30
 22
32
 32
3
 13
30
 23
32
 33
2
  0
3DFACE
  8
FACES
 10
30
 20
32
 30
1
 11
30
 21
32
 31
2
 12
30
 22
33
 32
2
 13
30
 23
33
 33
1
  0
3DFACE
  8
FACES
 10
30
 20
32
 30
2
 11
30
 21
32
 31
3
 12
30
 22
33
 32
3
 13
30
 23
33
 33
2
  0
3DFACE
  8
FACES
 10
30
 20
34
 30
1
 11
30
 21
35
 31
1
 12
30
 22
35
 32
0
 13
30
 23
34
 33
0
  0
3DFACE
  8
FACES
 10
30
 20
33
 30
2
 11
30
 21
33
 31
3
 12
30
 22
34
 32
3
 13
30
 23
34
 33
2
  0
3DFACE
  8
FACES
 10
30
 20
35
 30
1
 11
30
 21
36
 31
1
 12
30
 22
36
 32
0
 13
30
 23
35
 33
0
  0
3DFACE
  8
FACES
 10
30
 20
34
 30
1
 11
30
 21
34
 31
2
 12
30
 22
35
 32
2
 13
30
 23
35
 33
1
  0
3DFACE
  8
FACES
 10
30
 20
34
 30
2
 11
30
 21
34
 31
3
 12
30
 22
35
 32
3
 13
30
 23
35
 33
2
  0
3DFACE
  8
FACES
 10
30
 20
35
 30
1
 11
30
 21
35
 31
2
 12
30
 22
36
 32
2
 13
30
 23
36
 33
1
  0
3DFACE
  8
FACES
 10
30
 20
35
 30
2
 11
30
 21
35
 31
3
 12
30
 22
36
 32
3
 13
30
 23
36
 33
2
  0
3DFACE
  8
FACES
 10
36
 20
1
 30
0
 11
36
 21
1
 31
1
 12
36
 22
0
 32
1
 13
36
 23
0
 33
0
  0
3DFACE
  8
FACES
 10
36
 20
1
 30
1
 11
36
 21
1
 31
2
 12
36
 22
0
 32
2
 13
36
 23
0
 33
1
  0
3DFACE
  8
FACES
 10
36
 20
1
 30
1
 11
36
 21
1
 31
0
 12
36
 22
2
 32
0
 13
36
 23
2
 33
1
  0
3DFACE
  8
FACES
 10
36
 20
1
 30
2
 11
36
 21
1
 31
3
 12
36
 22
0
 32
3
 13
36
 23
0
 33
2
  0
3DFACE
  8
FACES
 10
36
 20
1
 30
1
 11
36
 21
2
 31
1
 12
36
 22
2
 32
2
 13
36
 23
1
 33
2
  0
3DFACE
  8
FACES
 10
36
 20
2
 30
1
 11
36
 21
2
 31
0
 12
36
 22
3
 32
0
 13
36
 23
3
 33
1
  0
3DFACE
  8
FACES
 10
36
 20
1
 30
2
 11
36
 21
2
 31
2
 12
36
 22
2
 32
3
 13
36
 23
1
 33
3
  0
3DFACE
  8
FACES
 10
36
 20
3
 30
1
 11
36
 21
3
 31
0
 12
36
 22
4
 32
0
 13
36
 23
4
 33
1
  0
3DFACE
  8
FACES
 10
36
 20
4
 30
1
 11
36
 21
4
 31
0
 12
36
 22
5
 32
0
 13
36
 23
5
 33
1
  0
3DFACE
  8
FACES
 10
36
 20
4
 30
1
 11
36
 21
5
 31
1
 12
36
 22
5
 32
2
 13
36
 23
4
 33
2
  0
3DFACE
  8
FACES
 10
36
 20
5
 30
1
 11
36
 21
5
 31
0
 12
36
 22
6
 32
0
 13
36
 23
6
 33
1
  0
3DFACE
  8
FACES
 10
36
 20
4
 30
2
 11
36
 21
5
 31
2
 12
36
 22
5
 32
3
 13
36
 23
4
 33
3
  0
3DFACE
  8
FACES
 10
36
 20
5
 30
1
 11
36
 21
6
 31
1
 12
36
 22
6
 32
2
 13
36
 23
5
 33
2
  0
3DFACE
  8
FACES
 10
36
 20
6
 30
1
 11
36
 21
6
 31
0
 12
36
 22
7
 32
0
 13
36
 23
7
 33
1
  0
3DFACE
  8
FACES
 10
36
 20
5
 30
2
 11
36
 21
6
 31
2
 12
36
 22
6
 32
3
 13
36
 23
5
 33
3
  0
3DFACE
  8
FACES
 10
36
 20
6
 30
1
 11
36
 21
7
 31
1
 12
36
 22
7
 32
2
 13
36
 23
6
 33
2
  0
3DFACE
  8
FACES
 10
36
 20
7
 30
1
 11
36
 21
7
 31
0
 12
36
 22
8
 32
0
 13
36
 23
8
 33
1
  0
3DFACE
  8
FACES
 10
36
 20
6
 30
2
 11
36
 21
7
 31
2
 12
36
 22
7
 32
3
 13
36
 23
6
 33
3
  0
3DFACE
  8
FACES
 10
36
 20
7
 30
1
 11
36
 21
8
 31
1
 12
36
 22
8
 32
2
 13
36
 23
7
 33
2
  0
3DFACE
  8
FACES
 10
36
 20
8
 30
1
 11
36
 21
8
 31
0
 12
36
 22
9
 32
0
 13
36
 23
9
 33
1
  0
3DFACE
  8
FACES
 10
36
 20
7
 30
2
 11
36
 21
8
 31
2
 12
36
 22
8
 32
3
 13
36
 23
7
 33
3
  0
3DFACE
  8
FACES
 10
36
 20
9
 30
1
 11
36
 21
9
 31
0
 12
36
 22
10
 32
0
 13
36
 23
10
 33
1
  0
3DFACE
  8
FACES
 10
36
 20
10
 30
1
 11
36
 21
10
 31
0
 12
36
 22
11
 32
0
 13
36
 23
11
 33
1
  0
3DFACE
  8
FACES
 10
36
 20
10
 30
1
 11
36
 21
11
 31
1
 12
36
 22
11
 32
2
 13
36
 23
10
 33
2
  0
3DFACE
  8
FACES
 10
36
 20
11
 30
1
 11
36
 21
11
 31
0
 12
36
 22
12
 32
0
 13
36
 23
12
 33
1
  0
3DFACE
  8
FACES
 10
36
 20
10
 30
2
 11
36
 21
11
 31
2
 12
36
 22
11
 32
3
 13
36
 23
10
 33
3
  0
3DFACE
  8
FACES
 10
36
 20
12
 30
1
 11
36
 21
12
 31
0
 12
36
 22
13
 32
0
 13
36
 23
13
 33
1
  0
3DFACE
  8
FACES
 10
36
 20
12
 30
1
 11
36
 21
13
 31
1
 12
36
 22
13
 32
2
 13
36
 23
12
 33
2
  0
3DFACE
  8
FACES
 10
36
 20
13
 30
1
 11
36
 21
13
 31
0
 12
36
 22
14
 32
0
 13
36
 23
14
 33
1
  0
3DFACE
  8
FACES
 10
36
 20
12
 30
2
 11
36
 21
13
 31
2
 12
36
 22
13
 32
3
 13
36
 23
12
 33
3
  0
3DFACE
  8
FACES
 10
36
 20
14
 30
1
 11
36
 21
14
 31
0
 12
36
 22
15
 32
0
 13
36
 23
15
 33
1
  0
3DFACE
  8
FACES
 10
36
 20
14
 30
1
 11
36
 21
15
 31
1
 12
36
 22
15
 32
2
 13
36
 23
14
 33
2
  0
3DFACE
  8
FACES
 10
36
 20
15
 30
1
 11
36
 21
15
 31
0
 12
36
 22
16
 32
0
 13
36
 23
16
 33
1
  0
3DFACE
  8
FACES
 10
36
 20
14
 30
2
 11
36
 21
15
 31
2
 12
36
 22
15
 32
3
 13
36
 23
14
 33
3
  0
3DFACE
  8
FACES
 10
36
 20
15
 30
1
 11
36
 21
16
 31
1
 12
36
 22
16
 32
2
 13
36
 23
15
 33
2
  0
3DFACE
  8
FACES
 10
36
 20
16
 30
1
 11
36
 21
16
 31
0
 12
36
 22
17
 32
0
 13
36
 23
17
 33
1
  0
3DFACE
  8
FACES
 10
36
 20
15
 30
2
 11
36
 21
16
 31
2
 12
36
 22
16
 32
3
 13
36
 23
15
 33
3
  0
3DFACE
  8
FACES
 10
36
 20
17
 30
1
 11
36
 21
17
 31
0
 12
36
 22
18
 32
0
 13
36
 23
18
 33
1
  0
3DFACE
  8
FACES
 10
36
 20
18
 30
1
 11
36
 21
18
 31
0
 12
36
 22
19
 32
0
 13
36
 23
19
 33
1
  0
3DFACE
  8
FACES
 10
36
 20
18
 30
1
 11
36
 21
19
 31
1
 12
36
 22
19
 32
2
 13
36
 23
18
 33
2
  0
3DFACE
  8
FACES
 10
36
 20
19
 30
1
 11
36
 21
19
 31
0
 12
36
 22
20
 32
0
 13
36
 23
20
 33
1
  0
3DFACE
  8
FACES
 10
36
 20
18
 30
2
 11
36
 21
19
 31
2
 12
36
 22
19
 32
3
 13
36
 23
18
 33
3
  0
3DFACE
  8
FACES
 10
36
 20
20
 30
1
 11
36
 21
20
 31
0
 12
36
 22
21
 32
0
 13
36
 23
21
 33
1
  0
3DFACE
  8
FACES
 10
36
 20
20
 30
1
 11
36
 21
21
 31
1
 12
36
 22
21
 32
2
 13
36
 23
20
 33
2
  0
3DFACE
  8
FACES
 10
36
 20
21
 30
1
 11
36
 21
21
 31
0
 12
36
 22
22
 32
0
 13
36
 23
22
 33
1
  0
3DFACE
  8
FACES
 10
36
 20
20
 30
2
 11
36
 21
21
 31
2
 12
36
 22
21
 32
3
 13
36
 23
20
 33
3
  0
3DFACE
  8
FACES
 10
36
 20
21
 30
1
 11
36
 21
22
 31
1
 12
36
 22
22
 32
2
 13
36
 23
21
 33
2
  0
3DFACE
  8
FACES
 10
36
 20
22
 30
1
 11
36
 21
22
 31
0
 12
36
 22
23
 32
0
 13
36
 23
23
 33
1
  0
3DFACE
  8
FACES
 10
36
 20
21
 30
2
 11
36
 21
22
 31
2
 12
36
 22
22
 32
3
 13
36
 23
21
 33
3
  0
3DFACE
  8
FACES
 10
36
 20
22
 30
1
 11
36
 21
23
 31
1
 12
36
 22
23
 32
2
 13
36
 23
22
 33
2
  0
3DFACE
  8
FACES
 10
36
 20
22
 30
2
 11
36
 21
23
 31
2
 12
36
 22
23
 32
3
 13
36
 23
22
 33
3
  0
3DFACE
  8
FACES
 10
36
 20
24
 30
1
 11
36
 21
24
 31
0
 12
36
 22
25
 32
0
 13
36
 23
25
 33
1
  0
3DFACE
  8
FACES
 10
36
 20
23
 30
2
 11
36
 21
24
 31
2
 12
36
 22
24
 32
3
 13
36
 23
23
 33
3
  0
3DFACE
  8
FACES
 10
36
 20
24
 30
1
 11
36
 21
25
 31
1
 12
36
 22
25
 32
2
 13
36
 23
24
 33
2
  0
3DFACE
  8
FACES
 10
36
 20
25
 30
1
 11
36
 21
25
 31
0
 12
36
 22
26
 32
0
 13
36
 23
26
 33
1
  0
3DFACE
  8
FACES
 10
36
 20
24
 30
2
 11
36
 21
25
 31
2
 12
36
 22
25
 32
3
 13
36
 23
24
 33
3
  0
3DFACE
  8
FACES
 10
36
 20
25
 30
1
 11
36
 21
26
 31
1
 12
36
 22
26
 32
2
 13
36
 23
25
 33
2
  0
3DFACE
  8
FACES
 10
36
 20
25
 30
2
 11
36
 21
26
 31
2
 12
36
 22
26
 32
3
 13
36
 23
25
 33
3
  0
3DFACE
  8
FACES
 10
36
 20
27
 30
1
 11
36
 21
27
 31
0
 12
36
 22
28
 32
0
 13
36
 23
28
 33
1
  0
3DFACE
  8
FACES
 10
36
 20
26
 30
2
 11
36
 21
27
 31
2
 12
36
 22
27
 32
3
 13
36
 23
26
 33
3
  0
3DFACE
  8
FACES
 10
36
 20
27
 30
1
 11
36
 21
28
 31
1
 12
36
 22
28
 32
2
 13
36
 23
27
 33
2
  0
3DFACE
  8
FACES
 10
36
 20
28
 30
1
 11
36
 21
28
 31
0
 12
36
 22
29
 32
0
 13
36
 23
29
 33
1
  0
3DFACE
  8
FACES
 10
36
 20
27
 30
2
 11
36
 21
28
 31
2
 12
36
 22
28
 32
3
 13
36
 23
27
 33
3
  0
3DFACE
  8
FACES
 10
36
 20
28
 30
1
 11
36
 21
29
 31
1
 12
36
 22
29
 32
2
 13
36
 23
28
 33
2
  0
3DFACE
  8
FACES
 10
36
 20
29
 30
1
 11
36
 21
29
 31
0
 12
36
 22
30
 32
0
 13
36
 23
30
 33
1
  0
3DFACE
  8
FACES
 10
36
 20
28
 30
2
 11
36
 21
29
 31
2
 12
36
 22
29
 32
3
 13
36
 23
28
 33
3
  0
3DFACE
  8
FACES
 10
36
 20
30
 30
1
 11
36
 21
30
 31
0
 12
36
 22
31
 32
0
 13
36
 23
31
 33
1
  0
3DFACE
  8
FACES
 10
36
 20
31
 30
1
 11
36
 21
31
 31
0
 12
36
 22
32
 32
0
 13
36
 23
32
 33
1
  0
3DFACE
  8
FACES
 10
36
 20
31
 30
1
 11
36
 21
32
 31
1
 12
36
 22
32
 32
2
 13
36
 23
31
 33
2
  0
3DFACE
  8
FACES
 10
36
 20
32
 30
1
 11
36
 21
32
 31
0
 12
36
 22
33
 32
0
 13
36
 23
33
 33
1
  0
3DFACE
  8
FACES
 10
36
 20
31
 30
2
 11
36
 21
32
 31
2
 12
36
 22
32
 32
3
 13
36
 23
31
 33
3
  0
3DFACE
  8
FACES
 10
36
 20
32
 30
1
 11
36
 21
33
 31
1
 12
36
 22
33
 32
2
 13
36
 23
32
 33
2
  0
3DFACE
  8
FACES
 10
36
 20
33
 30
1
 11
36
 21
33
 31
0
 12
36
 22
34
 32
0
 13
36
 23
34
 33
1
  0
3DFACE
  8
FACES
 10
36
 20
32
 30
2
 11
36
 21
33
 31
2
 12
36
 22
33
 32
3
 13
36
 23
32
 33
3
  0
3DFACE
  8
FACES
 10
36
 20
34
 30
1
 11
36
 21
34
 31
0
 12
36
 22
35
 32
0
 13
36
 23
35
 33
1
  0
3DFACE
  8
FACES
 10
36
 20
35
 30
1
 11
36
 21
35
 31
0
 12
36
 22
36
 32
0
 13
36
 23
36
 33
1
  0
3DFACE
  8
FACES
 10
36
 20
35
 30
2
 11
36
 21
35
 31
1
 12
36
 22
36
 32
1
 13
36
 23
36
 33
2
  0
3DFACE
  8
FACES
 10
36
 20
35
 30
2
 11
36
 21
36
 31
2
 12
36
 22
36
 32
3
 13
36
 23
35
 33
3
  0
3DFACE
  8
FACES
 10
1
 20
0
 30
0
 11
1
 21
0
 31
1
 12
0
 22
0
 32
1
 13
0
 23
0
 33
0
  0
3DFACE
  8
FACES
 10
1
 20
0
 30
1
 11
1
 21
0
 31
2
 12
0
 22
0
 32
2
 13
0
 23
0
 33
1
  0
3DFACE
  8
FACES
 10
1
 20
0
 30
2
 11
1
 21
0
 31
3
 12
0
 22
0
 32
3
 13
0
 23
0
 33
2
  0
3DFACE
  8
FACES
 10
2
 20
0
 30
1
 11
2
 21
0
 31
0
 12
3
 22
0
 32
0
 13
3
 23
0
 33
1
  0
3DFACE
  8
FACES
 10
1
 20
0
 30
2
 11
2
 21
0
 31
2
 12
2
 22
0
 32
3
 13
1
 23
0
 33
3
  0
3DFACE
  8
FACES
 10
2
 20
0
 30
1
 11
3
 21
0
 31
1
 12
3
 22
0
 32
2
 13
2
 23
0
 33
2
  0
3DFACE
  8
FACES
 10
3
 20
0
 30
1
 11
3
 21
0
 31
0
 12
4
 22
0
 32
0
 13
4
 23
0
 33
1
  0
3DFACE
  8
FACES
 10
2
 20
0
 30
2
 11
3
 21
0
 31
2
 12
3
 22
0
 32
3
 13
2
 23
0
 33
3
  0
3DFACE
  8
FACES
 10
3
 20
0
 30
2
 11
3
 21
0
 31
1
 12
4
 22
0
 32
1
 13
4
 23
0
 33
2
  0
3DFACE
  8
FACES
 10
3
 20
0
 30
2
 11
4
 21
0
 31
2
 12
4
 22
0
 32
3
 13
3
 23
0
 33
3
  0
3DFACE
  8
FACES
 10
4
 20
0
 30
1
 11
4
 21
0
 31
0
 12
5
 22
0
 32
0
 13
5
 23
0
 33
1
  0
3DFACE
  8
FACES
 10
4
 20
0
 30
1
 11
5
 21
0
 31
1
 12
5
 22
0
 32
2
 13
4
 23
0
 33
2
  0
3DFACE
  8
FACES
 10
4
 20
0
 30
2
 11
5
 21
0
 31
2
 12
5
 22
0
 32
3
 13
4
 23
0
 33
3
  0
3DFACE
  8
FACES
 10
5
 20
0
 30
1
 11
5
 21
0
 31
0
 12
6
 22
0
 32
0
 13
6
 23
0
 33
1
  0
3DFACE
  8
FACES
 10
6
 20
0
 30
1
 11
6
 21
0
 31
0
 12
7
 22
0
 32
0
 13
7
 23
0
 33
1
  0
3DFACE
  8
FACES
 10
7
 20
0
 30
1
 11
7
 21
0
 31
0
 12
8
 22
0
 32
0
 13
8
 23
0
 33
1
  0
3DFACE
  8
FACES
 10
7
 20
0
 30
1
 11
8
 21
0
 31
1
 12
8
 22
0
 32
2
 13
7
 23
0
 33
2
  0
3DFACE
  8
FACES
 10
7
 20
0
 30
2
 11
8
 21
0
 31
2
 12
8
 22
0
 32
3
 13
7
 23
0
 33
3
  0
3DFACE
  8
FACES
 10
8
 20
0
 30
1
 11
8
 21
0
 31
0
 12
9
 22
0
 32
0
 13
9
 23
0
 33
1
  0
3DFACE
  8
FACES
 10
8
 20
0
 30
1
 11
9
 21
0
 31
1
 12
9
 22
0
 32
2
 13
8
 23
0
 33
2
  0
3DFACE
  8
FACES
 10
8
 20
0
 30
2
 11
9
 21
0
 31
2
 12
9
 22
0
 32
3
 13
8
 23
0
 33
3
  0
3DFACE
  8
FACES
 10
9
 20
0
 30
1
 11
9
 21
0
 31
0
 12
10
 22
0
 32
0
 13
10
 23
0
 33
1
  0
3DFACE
  8
FACES
 10
9
 20
0
 30
2
 11
9
 21
0
 31
1
 12
10
 22
0
 32
1
 13
10
 23
0
 33
2
  0
3DFACE
  8
FACES
 10
9
 20
0
 30
2
 11
10
 21
0
 31
2
 12
10
 22
0
 32
3
 13
9
 23
0
 33
3
  0
3DFACE
  8
FACES
 10
10
 20
0
 30
1
 11
10
 21
0
 31
0
 12
11
 22
0
 32
0
 13
11
 23
0
 33
1
  0
3DFACE
  8
FACES
 10
10
 20
0
 30
1
 11
11
 21
0
 31
1
 12
11
 22
0
 32
2
 13
10
 23
0
 33
2
  0
3DFACE
  8
FACES
 10
10
 20
0
 30
2
 11
11
 21
0
 31
2
 12
11
 22
0
 32
3
 13
10
 23
0
 33
3
  0
3DFACE
  8
FACES
 10
11
 20
0
 30
1
 11
11
 21
0
 31
0
 12
12
 22
0
 32
0
 13
12
 23
0
 33
1
  0
3DFACE
  8
FACES
 10
12
 20
0
 30
1
 11
12
 21
0
 31
0
 12
13
 22
0
 32
0
 13
13
 23
0
 33
1
  0
3DFACE
  8
FACES
 10
13
 20
0
 30
1
 11
13
 21
0
 31
0
 12
14
 22
0
 32
0
 13
14
 23
0
 33
1
  0
3DFACE
  8
FACES
 10
13
 20
0
 30
1
 11
14
 21
0
 31
1
 12
14
 22
0
 32
2
 13
13
 23
0
 33
2
  0
3DFACE
  8
FACES
 10
13
 20
0
 30
2
 11
14
 21
0
 31
2
 12
14
 22
0
 32
3
 13
13
 23
0
 33
3
  0
3DFACE
  8
FACES
 10
14
 20
0
 30
1
 11
14
 21
0
 31
0
 12
15
 22
0
 32
0
 13
15
 23
0
 33
1
  0
3DFACE
  8
FACES
 10
14
 20
0
 30
1
 11
15
 21
0
 31
1
 12
15
 22
0
 32
2
 13
14
 23
0
 33
2
  0
3DFACE
  8
FACES
 10
14
 20
0
 30
2
 11
15
 21
0
 31
2
 12
15
 22
0
 32
3
 13
14
 23
0
 33
3
  0
3DFACE
  8
FACES
 10
15
 20
0
 30
1
 11
15
 21
0
 31
0
 12
16
 22
0
 32
0
 13
16
 23
0
 33
1
  0
3DFACE
  8
FACES
 10
15
 20
0
 30
2
 11
15
 21
0
 31
1
 12
16
 22
0
 32
1
 13
16
 23
0
 33
2
  0
3DFACE
  8
FACES
 10
15
 20
0
 30
2
 11
16
 21
0
 31
2
 12
16
 22
0
 32
3
 13
15
 23
0
 33
3
  0
3DFACE
  8
FACES
 10
16
 20
0
 30
1
 11
16
 21
0
 31
0
 12
17
 22
0
 32
0
 13
17
 23
0
 33
1
  0
3DFACE
  8
FACES
 10
16
 20
0
 30
1
 11
17
 21
0
 31
1
 12
17
 22
0
 32
2
 13
16
 23
0
 33
2
  0
3DFACE
  8
FACES
 10
16
 20
0
 30
2
 11
17
 21
0
 31
2
 12
17
 22
0
 32
3
 13
16
 23
0
 33
3
  0
3DFACE
  8
FACES
 10
17
 20
0
 30
1
 11
17
 21
0
 31
0
 12
18
 22
0
 32
0
 13
18
 23
0
 33
1
  0
3DFACE
  8
FACES
 10
18
 20
0
 30
1
 11
18
 21
0
 31
0
 12
19
 22
0
 32
0
 13
19
 23
0
 33
1
  0
3DFACE
  8
FACES
 10
19
 20
0
 30
1
 11
19
 21
0
 31
0
 12
20
 22
0
 32
0
 13
20
 23
0
 33
1
  0
3DFACE
  8
FACES
 10
19
 20
0
 30
1
 11
20
 21
0
 31
1
 12
20
 22
0
 32
2
 13
19
 23
0
 33
2
  0
3DFACE
  8
FACES
 10
19
 20
0
 30
2
 11
20
 21
0
 31
2
 12
20
 22
0
 32
3
 13
19
 23
0
 33
3
  0
3DFACE
  8
FACES
 10
20
 20
0
 30
1
 11
20
 21
0
 31
0
 12
21
 22
0
 32
0
 13
21
 23
0
 33
1
  0
3DFACE
  8
FACES
 10
20
 20
0
 30
1
 11
21
 21
0
 31
1
 12
21
 22
0
 32
2
 13
20
 23
0
 33
2
  0
3DFACE
  8
FACES
 10
20
 20
0
 30
2
 11
21
 21
0
 31
2
 12
21
 22
0
 32
3
 13
20
 23
0
 33
3
  0
3DFACE
  8
FACES
 10
21
 20
0
 30
1
 11
21
 21
0
 31
0
 12
22
 22
0
 32
0
 13
22
 23
0
 33
1
  0
3DFACE
  8
FACES
 10
22
 20
0
 30
1
 11
22
 21
0
 31
0
 12
23
 22
0
 32
0
 13
23
 23
0
 33
1
  0
3DFACE
  8
FACES
 10
23
 20
0
 30
1
 11
23
 21
0
 31
0
 12
24
 22
0
 32
0
 13
24
 23
0
 33
1
  0
3DFACE
  8
FACES
 10
23
 20
0
 30
1
 11
24
 21
0
 31
1
 12
24
 22
0
 32
2
 13
23
 23
0
 33
2
  0
3DFACE
  8
FACES
 10
23
 20
0
 30
2
 11
24
 21
0
 31
2
 12
24
 22
0
 32
3
 13
23
 23
0
 33
3
  0
3DFACE
  8
FACES
 10
24
 20
0
 30
1
 11
24
 21
0
 31
0
 12
25
 22
0
 32
0
 13
25
 23
0
 33
1
  0
3DFACE
  8
FACES
 10
24
 20
0
 30
2
 11
24
 21
0
 31
1
 12
25
 22
0
 32
1
 13
25
 23
0
 33
2
  0
3DFACE
  8
FACES
 10
24
 20
0
 30
2
 11
25
 21
0
 31
2
 12
25
 22
0
 32
3
 13
24
 23
0
 33
3
  0
3DFACE
  8
FACES
 10
25
 20
0
 30
1
 11
25
 21
0
 31
0
 12
26
 22
0
 32
0
 13
26
 23
0
 33
1
  0
3DFACE
  8
FACES
 10
25
 20
0
 30
1
 11
26
 21
0
 31
1
 12
26
 22
0
 32
2
 13
25
 23
0
 33
2
  0
3DFACE
  8
FACES
 10
25
 20
0
 30
2
 11
26
 21
0
 31
2
 12
26
 22
0
 32
3
 13
25
 23
0
 33
3
  0
3DFACE
  8
FACES
 10
26
 20
0
 30
1
 11
26
 21
0
 31
0
 12
27
 22
0
 32
0
 13
27
 23
0
 33
1
  0
3DFACE
  8
FACES
 10
27
 20
0
 30
1
 11
27
 21
0
 31
0
 12
28
 22
0
 32
0
 13
28
 23
0
 33
1
  0
3DFACE
  8
FACES
 10
28
 20
0
 30
1
 11
28
 21
0
 31
0
 12
29
 22
0
 32
0
 13
29
 23
0
 33
1
  0
3DFACE
  8
FACES
 10
28
 20
0
 30
1
 11
29
 21
0
 31
1
 12
29
 22
0
 32
2
 13
28
 23
0
 33
2
  0
3DFACE
  8
FACES
 10
28
 20
0
 30
2
 11
29
 21
0
 31
2
 12
29
 22
0
 32
3
 13
28
 23
0
 33
3
  0
3DFACE
  8
FACES
 10
29
 20
0
 30
1
 11
29
 21
0
 31
0
 12
30
 22
0
 32
0
 13
30
 23
0
 33
1
  0
3DFACE
  8
FACES
 10
29
 20
0
 30
2
 11
29
 21
0
 31
1
 12
30
 22
0
 32
1
 13
30
 23
0
 33
2
  0
3DFACE
  8
FACES
 10
29
 20
0
 30
2
 11
30
 21
0
 31
2
 12
30
 22
0
 32
3
 13
29
 23
0
 33
3
  0
3DFACE
  8
FACES
 10
30
 20
0
 30
1
 11
30
 21
0
 31
0
 12
31
 22
0
 32
0
 13
31
 23
0
 33
1
  0
3DFACE
  8
FACES
 10
30
 20
0
 30
2
 11
30
 21
0
 31
1
 12
31
 22
0
 32
1
 13
31
 23
0
 33
2
  0
3DFACE
  8
FACES
 10
30
 20
0
 30
2
 11
31
 21
0
 31
2
 12
31
 22
0
 32
3
 13
30
 23
0
 33
3
  0
3DFACE
  8
FACES
 10
31
 20
0
 30
1
 11
31
 21
0
 31
0
 12
32
 22
0
 32
0
 13
32
 23
0
 33
1
  0
3DFACE
  8
FACES
 10
31
 20
0
 30
1
 11
32
 21
0
 31
1
 12
32
 22
0
 32
2
 13
31
 23
0
 33
2
  0
3DFACE
  8
FACES
 10
31
 20
0
 30
2
 11
32
 21
0
 31
2
 12
32
 22
0
 32
3
 13
31
 23
0
 33
3
  0
3DFACE
  8
FACES
 10
32
 20
0
 30
2
 11
33
 21
0
 31
2
 12
33
 22
0
 32
3
 13
32
 23
0
 33
3
  0
3DFACE
  8
FACES
 10
33
 20
0
 30
2
 11
34
 21
0
 31
2
 12
34
 22
0
 32
3
 13
33
 23
0
 33
3
  0
3DFACE
  8
FACES
 10
34
 20
0
 30
1
 11
34
 21
0
 31
0
 12
35
 22
0
 32
0
 13
35
 23
0
 33
1
  0
3DFACE
  8
FACES
 10
34
 20
0
 30
1
 11
35
 21
0
 31
1
 12
35
 22
0
 32
2
 13
34
 23
0
 33
2
  0
3DFACE
  8
FACES
 10
34
 20
0
 30
2
 11
35
 21
0
 31
2
 12
35
 22
0
 32
3
 13
34
 23
0
 33
3
  0
3DFACE
  8
FACES
 10
35
 20
0
 30
1
 11
35
 21
0
 31
0
 12
36
 22
0
 32
0
 13
36
 23
0
 33
1
  0
3DFACE
  8
FACES
 10
35
 20
0
 30
2
 11
35
 21
0
 31
1
 12
36
 22
0
 32
1
 13
36
 23
0
 33
2
  0
3DFACE
  8
FACES
 10
35
 20
0
 30
3
 11
35
 21
0
 31
2
 12
36
 22
0
 32
2
 13
36
 23
0
 33
3
  0
3DFACE
  8
FACES
 10
1
 20
15
 30
0
 11
1
 21
15
 31
1
 12
0
 22
15
 32
1
 13
0
 23
15
 33
0
  0
3DFACE
  8
FACES
 10
1
 20
15
 30
1
 11
1
 21
15
 31
2
 12
0
 22
15
 32
2
 13
0
 23
15
 33
1
  0
3DFACE
  8
FACES
 10
1
 20
15
 30
2
 11
1
 21
15
 31
3
 12
0
 22
15
 32
3
 13
0
 23
15
 33
2
  0
3DFACE
  8
FACES
 10
2
 20
15
 30
1
 11
2
 21
15
 31
0
 12
3
 22
15
 32
0
 13
3
 23
15
 33
1
  0
3DFACE
  8
FACES
 10
1
 20
15
 30
2
 11
2
 21
15
 31
2
 12
2
 22
15
 32
3
 13
1
 23
15
 33
3
  0
3DFACE
  8
FACES
 10
2
 20
15
 30
1
 11
3
 21
15
 31
1
 12
3
 22
15
 32
2
 13
2
 23
15
 33
2
  0
3DFACE
  8
FACES
 10
3
 20
15
 30
1
 11
3
 21
15
 31
0
 12
4
 22
15
 32
0
 13
4
 23
15
 33
1
  0
3DFACE
  8
FACES
 10
2
 20
15
 30
2
 11
3
 21
15
 31
2
 12
3
 22
15
 32
3
 13
2
 23
15
 33
3
  0
3DFACE
  8
FACES
 10
3
 20
15
 30
2
 11
3
 21
15
 31
1
 12
4
 22
15
 32
1
 13
4
 23
15
 33
2
  0
3DFACE
  8
FACES
 10
3
 20
15
 30
2
 11
4
 21
15
 31
2
 12
4
 22
15
 32
3
 13
3
 23
15
 33
3
  0
3DFACE
  8
FACES
 10
4
 20
15
 30
1
 11
4
 21
15
 31
0
 12
5
 22
15
 32
0
 13
5
 23
15
 33
1
  0
3DFACE
  8
FACES
 10
4
 20
15
 30
1
 11
5
 21
15
 31
1
 12
5
 22
15
 32
2
 13
4
 23
15
 33
2
  0
3DFACE
  8
FACES
 10
4
 20
15
 30
2
 11
5
 21
15
 31
2
 12
5
 22
15
 32
3
 13
4
 23
15
 33
3
  0
3DFACE
  8
FACES
 10
5
 20
15
 30
2
 11
6
 21
15
 31
2
 12
6
 22
15
 32
3
 13
5
 23
15
 33
3
  0
3DFACE
  8
FACES
 10
6
 20
15
 30
2
 11
7
 21
15
 31
2
 12
7
 22
15
 32
3
 13
6
 23
15
 33
3
  0
3DFACE
  8
FACES
 10
7
 20
15
 30
1
 11
7
 21
15
 31
0
 12
8
 22
15
 32
0
 13
8
 23
15
 33
1
  0
3DFACE
  8
FACES
 10
7
 20
15
 30
1
 11
8
 21
15
 31
1
 12
8
 22
15
 32
2
 13
7
 23
15
 33
2
  0
3DFACE
  8
FACES
 10
7
 20
15
 30
2
 11
8
 21
15
 31
2
 12
8
 22
15
 32
3
 13
7
 23
15
 33
3
  0
3DFACE
  8
FACES
 10
8
 20
15
 30
1
 11
8
 21
15
 31
0
 12
9
 22
15
 32
0
 13
9
 23
15
 33
1
  0
3DFACE
  8
FACES
 10
8
 20
15
 30
1
 11
9
 21
15
 31
1
 12
9
 22
15
 32
2
 13
8
 23
15
 33
2
  0
3DFACE
  8
FACES
 10
8
 20
15
 30
2
 11
9
 21
15
 31
2
 12
9
 22
15
 32
3
 13
8
 23
15
 33
3
  0
3DFACE
  8
FACES
 10
9
 20
15
 30
1
 11
9
 21
15
 31
0
 12
10
 22
15
 32
0
 13
10
 23
15
 33
1
  0
3DFACE
  8
FACES
 10
9
 20
15
 30
2
 11
9
 21
15
 31
1
 12
10
 22
15
 32
1
 13
10
 23
15
 33
2
  0
3DFACE
  8
FACES
 10
9
 20
15
 30
2
 11
10
 21
15
 31
2
 12
10
 22
15
 32
3
 13
9
 23
15
 33
3
  0
3DFACE
  8
FACES
 10
10
 20
15
 30
1
 11
10
 21
15
 31
0
 12
11
 22
15
 32
0
 13
11
 23
15
 33
1
  0
3DFACE
  8
FACES
 10
10
 20
15
 30
1
 11
11
 21
15
 31
1
 12
11
 22
15
 32
2
 13
10
 23
15
 33
2
  0
3DFACE
  8
FACES
 10
10
 20
15
 30
2
 11
11
 21
15
 31
2
 12
11
 22
15
 32
3
 13
10
 23
15
 33
3
  0
3DFACE
  8
FACES
 10
11
 20
15
 30
2
 11
12
 21
15
 31
2
 12
12
 22
15
 32
3
 13
11
 23
15
 33
3
  0
3DFACE
  8
FACES
 10
12
 20
15
 30
1
 11
12
 21
15
 31
0
 12
13
 22
15
 32
0
 13
13
 23
15
 33
1
  0
3DFACE
  8
FACES
 10
12
 20
15
 30
1
 11
13
 21
15
 31
1
 12
13
 22
15
 32
2
 13
12
 23
15
 33
2
  0
3DFACE
  8
FACES
 10
12
 20
15
 30
2
 11
13
 21
15
 31
2
 12
13
 22
15
 32
3
 13
12
 23
15
 33
3
  0
3DFACE
  8
FACES
 10
13
 20
15
 30
1
 11
13
 21
15
 31
0
 12
14
 22
15
 32
0
 13
14
 23
15
 33
1
  0
3DFACE
  8
FACES
 10
13
 20
15
 30
1
 11
14
 21
15
 31
1
 12
14
 22
15
 32
2
 13
13
 23
15
 33
2
  0
3DFACE
  8
FACES
 10
13
 20
15
 30
2
 11
14
 21
15
 31
2
 12
14
 22
15
 32
3
 13
13
 23
15
 33
3
  0
3DFACE
  8
FACES
 10
14
 20
15
 30
1
 11
14
 21
15
 31
0
 12
15
 22
15
 32
0
 13
15
 23
15
 33
1
  0
3DFACE
  8
FACES
 10
14
 20
15
 30
1
 11
15
 21
15
 31
1
 12
15
 22
15
 32
2
 13
14
 23
15
 33
2
  0
3DFACE
  8
FACES
 10
14
 20
15
 30
2
 11
15
 21
15
 31
2
 12
15
 22
15
 32
3
 13
14
 23
15
 33
3
  0
3DFACE
  8
FACES
 10
15
 20
15
 30
1
 11
15
 21
15
 31
0
 12
16
 22
15
 32
0
 13
16
 23
15
 33
1
  0
3DFACE
  8
FACES
 10
15
 20
15
 30
2
 11
15
 21
15
 31
1
 12
16
 22
15
 32
1
 13
16
 23
15
 33
2
  0
3DFACE
  8
FACES
 10
15
 20
15
 30
2
 11
16
 21
15
 31
2
 12
16
 22
15
 32
3
 13
15
 23
15
 33
3
  0
3DFACE
  8
FACES
 10
16
 20
15
 30
1
 11
16
 21
15
 31
0
 12
17
 22
15
 32
0
 13
17
 23
15
 33
1
  0
3DFACE
  8
FACES
 10
16
 20
15
 30
1
 11
17
 21
15
 31
1
 12
17
 22
15
 32
2
 13
16
 23
15
 33
2
  0
3DFACE
  8
FACES
 10
16
 20
15
 30
2
 11
17
 21
15
 31
2
 12
17
 22
15
 32
3
 13
16
 23
15
 33
3
  0
3DFACE
  8
FACES
 10
17
 20
15
 30
2
 11
18
 21
15
 31
2
 12
18
 22
15
 32
3
 13
17
 23
15
 33
3
  0
3DFACE
  8
FACES
 10
18
 20
15
 30
2
 11
19
 21
15
 31
2
 12
19
 22
15
 32
3
 13
18
 23
15
 33
3
  0
3DFACE
  8
FACES
 10
19
 20
15
 30
1
 11
19
 21
15
 31
0
 12
20
 22
15
 32
0
 13
20
 23
15
 33
1
  0
3DFACE
  8
FACES
 10
19
 20
15
 30
1
 11
20
 21
15
 31
1
 12
20
 22
15
 32
2
 13
19
 23
15
 33
2
  0
3DFACE
  8
FACES
 10
19
 20
15
 30
2
 11
20
 21
15
 31
2
 12
20
 22
15
 32
3
 13
19
 23
15
 33
3
  0
3DFACE
  8
FACES
 10
20
 20
15
 30
1
 11
20
 21
15
 31
0
 12
21
 22
15
 32
0
 13
21
 23
15
 33
1
  0
3DFACE
  8
FACES
 10
20
 20
15
 30
1
 11
21
 21
15
 31
1
 12
21
 22
15
 32
2
 13
20
 23
15
 33
2
  0
3DFACE
  8
FACES
 10
20
 20
15
 30
2
 11
21
 21
15
 31
2
 12
21
 22
15
 32
3
 13
20
 23
15
 33
3
  0
3DFACE
  8
FACES
 10
21
 20
15
 30
2
 11
22
 21
15
 31
2
 12
22
 22
15
 32
3
 13
21
 23
15
 33
3
  0
3DFACE
  8
FACES
 10
22
 20
15
 30
1
 11
22
 21
15
 31
0
 12
23
 22
15
 32
0
 13
23
 23
15
 33
1
  0
3DFACE
  8
FACES
 10
22
 20
15
 30
1
 11
23
 21
15
 31
1
 12
23
 22
15
 32
2
 13
22
 23
15
 33
2
  0
3DFACE
  8
FACES
 10
22
 20
15
 30
2
 11
23
 21
15
 31
2
 12
23
 22
15
 32
3
 13
22
 23
15
 33
3
  0
3DFACE
  8
FACES
 10
23
 20
15
 30
1
 11
23
 21
15
 31
0
 12
24
 22
15
 32
0
 13
24
 23
15
 33
1
  0
3DFACE
  8
FACES
 10
23
 20
15
 30
1
 11
24
 21
15
 31
1
 12
24
 22
15
 32
2
 13
23
 23
15
 33
2
  0
3DFACE
  8
FACES
 10
23
 20
15
 30
2
 11
24
 21
15
 31
2
 12
24
 22
15
 32
3
 13
23
 23
15
 33
3
  0
3DFACE
  8
FACES
 10
24
 20
15
 30
1
 11
24
 21
15
 31
0
 12
25
 22
15
 32
0
 13
25
 23
15
 33
1
  0
3DFACE
  8
FACES
 10
24
 20
15
 30
2
 11
24
 21
15
 31
1
 12
25
 22
15
 32
1
 13
25
 23
15
 33
2
  0
3DFACE
  8
FACES
 10
24
 20
15
 30
2
 11
25
 21
15
 31
2
 12
25
 22
15
 32
3
 13
24
 23
15
 33
3
  0
3DFACE
  8
FACES
 10
25
 20
15
 30
1
 11
25
 21
15
 31
0
 12
26
 22
15
 32
0
 13
26
 23
15
 33
1
  0
3DFACE
  8
FACES
 10
25
 20
15
 30
1
 11
26
 21
15
 31
1
 12
26
 22
15
 32
2
 13
25
 23
15
 33
2
  0
3DFACE
  8
FACES
 10
25
 20
15
 30
2
 11
26
 21
15
 31
2
 12
26
 22
15
 32
3
 13
25
 23
15
 33
3
  0
3DFACE
  8
FACES
 10
26
 20
15
 30
2
 11
27
 21
15
 31
2
 12
27
 22
15
 32
3
 13
26
 23
15
 33
3
  0
3DFACE
  8
FACES
 10
27
 20
15
 30
2
 11
28
 21
15
 31
2
 12
28
 22
15
 32
3
 13
27
 23
15
 33
3
  0
3DFACE
  8
FACES
 10
28
 20
15
 30
1
 11
28
 21
15
 31
0
 12
29
 22
15
 32
0
 13
29
 23
15
 33
1
  0
3DFACE
  8
FACES
 10
28
 20
15
 30
1
 11
29
 21
15
 31
1
 12
29
 22
15
 32
2
 13
28
 23
15
 33
2
  0
3DFACE
  8
FACES
 10
28
 20
15
 30
2
 11
29
 21
15
 31
2
 12
29
 22
15
 32
3
 13
28
 23
15
 33
3
  0
3DFACE
  8
FACES
 10
29
 20
15
 30
1
 11
29
 21
15
 31
0
 12
30
 22
15
 32
0
 13
30
 23
15
 33
1
  0
3DFACE
  8
FACES
 10
29
 20
15
 30
2
 11
29
 21
15
 31
1
 12
30
 22
15
 32
1
 13
30
 23
15
 33
2
  0
3DFACE
  8
FACES
 10
29
 20
15
 30
2
 11
30
 21
15
 31
2
 12
30
 22
15
 32
3
 13
29
 23
15
 33
3
  0
3DFACE
  8
FACES
 10
30
 20
15
 30
1
 11
30
 21
15
 31
0
 12
31
 22
15
 32
0
 13
31
 23
15
 33
1
  0
3DFACE
  8
FACES
 10
30
 20
15
 30
2
 11
30
 21
15
 31
1
 12
31
 22
15
 32
1
 13
31
 23
15
 33
2
  0
3DFACE
  8
FACES
 10
30
 20
15
 30
2
 11
31
 21
15
 31
2
 12
31
 22
15
 32
3
 13
30
 23
15
 33
3
  0
3DFACE
  8
FACES
 10
31
 20
15
 30
1
 11
31
 21
15
 31
0
 12
32
 22
15
 32
0
 13
32
 23
15
 33
1
  0
3DFACE
  8
FACES
 10
31
 20
15
 30
1
 11
32
 21
15
 31
1
 12
32
 22
15
 32
2
 13
31
 23
15
 33
2
  0
3DFACE
  8
FACES
 10
31
 20
15
 30
2
 11
32
 21
15
 31
2
 12
32
 22
15
 32
3
 13
31
 23
15
 33
3
  0
3DFACE
  8
FACES
 10
32
 20
15
 30
2
 11
33
 21
15
 31
2
 12
33
 22
15
 32
3
 13
32
 23
15
 33
3
  0
3DFACE
  8
FACES
 10
33
 20
15
 30
1
 11
33
 21
15
 31
0
 12
34
 22
15
 32
0
 13
34
 23
15
 33
1
  0
3DFACE
  8
FACES
 10
33
 20
15
 30
1
 11
34
 21
15
 31
1
 12
34
 22
15
 32
2
 13
33
 23
15
 33
2
  0
3DFACE
  8
FACES
 10
33
 20
15
 30
2
 11
34
 21
15
 31
2
 12
34
 22
15
 32
3
 13
33
 23
15
 33
3
  0
3DFACE
  8
FACES
 10
34
 20
15
 30
1
 11
34
 21
15
 31
0
 12
35
 22
15
 32
0
 13
35
 23
15
 33
1
  0
3DFACE
  8
FACES
 10
34
 20
15
 30
1
 11
35
 21
15
 31
1
 12
35
 22
15
 32
2
 13
34
 23
15
 33
2
  0
3DFACE
  8
FACES
 10
34
 20
15
 30
2
 11
35
 21
15
 31
2
 12
35
 22
15
 32
3
 13
34
 23
15
 33
3
  0
3DFACE
  8
FACES
 10
35
 20
15
 30
1
 11
35
 21
15
 31
0
 12
36
 22
15
 32
0
 13
36
 23
15
 33
1
  0
3DFACE
  8
FACES
 10
35
 20
15
 30
2
 11
35
 21
15
 31
1
 12
36
 22
15
 32
1
 13
36
 23
15
 33
2
  0
3DFACE
  8
FACES
 10
35
 20
15
 30
3
 11
35
 21
15
 31
2
 12
36
 22
15
 32
2
 13
36
 23
15
 33
3
  0
3DFACE
  8
FACES
 10
1
 20
21
 30
0
 11
1
 21
21
 31
1
 12
0
 22
21
 32
1
 13
0
 23
21
 33
0
  0
3DFACE
  8
FACES
 10
1
 20
21
 30
1
 11
1
 21
21
 31
2
 12
0
 22
21
 32
2
 13
0
 23
21
 33
1
  0
3DFACE
  8
FACES
 10
1
 20
21
 30
2
 11
1
 21
21
 31
3
 12
0
 22
21
 32
3
 13
0
 23
21
 33
2
  0
3DFACE
  8
FACES
 10
2
 20
21
 30
1
 11
2
 21
21
 31
0
 12
3
 22
21
 32
0
 13
3
 23
21
 33
1
  0
3DFACE
  8
FACES
 10
1
 20
21
 30
2
 11
2
 21
21
 31
2
 12
2
 22
21
 32
3
 13
1
 23
21
 33
3
  0
3DFACE
  8
FACES
 10
2
 20
21
 30
1
 11
3
 21
21
 31
1
 12
3
 22
21
 32
2
 13
2
 23
21
 33
2
  0
3DFACE
  8
FACES
 10
3
 20
21
 30
1
 11
3
 21
21
 31
0
 12
4
 22
21
 32
0
 13
4
 23
21
 33
1
  0
3DFACE
  8
FACES
 10
2
 20
21
 30
2
 11
3
 21
21
 31
2
 12
3
 22
21
 32
3
 13
2
 23
21
 33
3
  0
3DFACE
  8
FACES
 10
3
 20
21
 30
2
 11
3
 21
21
 31
1
 12
4
 22
21
 32
1
 13
4
 23
21
 33
2
  0
3DFACE
  8
FACES
 10
3
 20
21
 30
2
 11
4
 21
21
 31
2
 12
4
 22
21
 32
3
 13
3
 23
21
 33
3
  0
3DFACE
  8
FACES
 10
4
 20
21
 30
1
 11
4
 21
21
 31
0
 12
5
 22
21
 32
0
 13
5
 23
21
 33
1
  0
3DFACE
  8
FACES
 10
4
 20
21
 30
1
 11
5
 21
21
 31
1
 12
5
 22
21
 32
2
 13
4
 23
21
 33
2
  0
3DFACE
  8
FACES
 10
4
 20
21
 30
2
 11
5
 21
21
 31
2
 12
5
 22
21
 32
3
 13
4
 23
21
 33
3
  0
3DFACE
  8
FACES
 10
5
 20
21
 30
2
 11
6
 21
21
 31
2
 12
6
 22
21
 32
3
 13
5
 23
21
 33
3
  0
3DFACE
  8
FACES
 10
6
 20
21
 30
2
 11
7
 21
21
 31
2
 12
7
 22
21
 32
3
 13
6
 23
21
 33
3
  0
3DFACE
  8
FACES
 10
7
 20
21
 30
1
 11
7
 21
21
 31
0
 12
8
 22
21
 32
0
 13
8
 23
21
 33
1
  0
3DFACE
  8
FACES
 10
7
 20
21
 30
1
 11
8
 21
21
 31
1
 12
8
 22
21
 32
2
 13
7
 23
21
 33
2
  0
3DFACE
  8
FACES
 10
7
 20
21
 30
2
 11
8
 21
21
 31
2
 12
8
 22
21
 32
3
 13
7
 23
21
 33
3
  0
3DFACE
  8
FACES
 10
8
 20
21
 30
1
 11
8
 21
21
 31
0
 12
9
 22
21
 32
0
 13
9
 23
21
 33
1
  0
3DFACE
  8
FACES
 10
8
 20
21
 30
1
 11
9
 21
21
 31
1
 12
9
 22
21
 32
2
 13
8
 23
21
 33
2
  0
3DFACE
  8
FACES
 10
8
 20
21
 30
2
 11
9
 21
21
 31
2
 12
9
 22
21
 32
3
 13
8
 23
21
 33
3
  0
3DFACE
  8
FACES
 10
9
 20
21
 30
1
 11
9
 21
21
 31
0
 12
10
 22
21
 32
0
 13
10
 23
21
 33
1
  0
3DFACE
  8
FACES
 10
9
 20
21
 30
2
 11
9
 21
21
 31
1
 12
10
 22
21
 32
1
 13
10
 23
21
 33
2
  0
3DFACE
  8
FACES
 10
9
 20
21
 30
2
 11
10
 21
21
 31
2
 12
10
 22
21
 32
3
 13
9
 23
21
 33
3
  0
3DFACE
  8
FACES
 10
10
 20
21
 30
1
 11
10
 21
21
 31
0
 12
11
 22
21
 32
0
 13
11
 23
21
 33
1
  0
3DFACE
  8
FACES
 10
10
 20
21
 30
1
 11
11
 21
21
 31
1
 12
11
 22
21
 32
2
 13
10
 23
21
 33
2
  0
3DFACE
  8
FACES
 10
10
 20
21
 30
2
 11
11
 21
21
 31
2
 12
11
 22
21
 32
3
 13
10
 23
21
 33
3
  0
3DFACE
  8
FACES
 10
11
 20
21
 30
2
 11
12
 21
21
 31
2
 12
12
 22
21
 32
3
 13
11
 23
21
 33
3
  0
3DFACE
  8
FACES
 10
12
 20
21
 30
1
 11
12
 21
21
 31
0
 12
13
 22
21
 32
0
 13
13
 23
21
 33
1
  0
3DFACE
  8
FACES
 10
12
 20
21
 30
1
 11
13
 21
21
 31
1
 12
13
 22
21
 32
2
 13
12
 23
21
 33
2
  0
3DFACE
  8
FACES
 10
12
 20
21
 30
2
 11
13
 21
21
 31
2
 12
13
 22
21
 32
3
 13
12
 23
21
 33
3
  0
3DFACE
  8
FACES
 10
13
 20
21
 30
1
 11
13
 21
21
 31
0
 12
14
 22
21
 32
0
 13
14
 23
21
 33
1
  0
3DFACE
  8
FACES
 10
13
 20
21
 30
1
 11
14
 21
21
 31
1
 12
14
 22
21
 32
2
 13
13
 23
21
 33
2
  0
3DFACE
  8
FACES
 10
13
 20
21
 30
2
 11
14
 21
21
 31
2
 12
14
 22
21
 32
3
 13
13
 23
21
 33
3
  0
3DFACE
  8
FACES
 10
14
 20
21
 30
1
 11
14
 21
21
 31
0
 12
15
 22
21
 32
0
 13
15
 23
21
 33
1
  0
3DFACE
  8
FACES
 10
14
 20
21
 30
1
 11
15
 21
21
 31
1
 12
15
 22
21
 32
2
 13
14
 23
21
 33
2
  0
3DFACE
  8
FACES
 10
14
 20
21
 30
2
 11
15
 21
21
 31
2
 12
15
 22
21
 32
3
 13
14
 23
21
 33
3
  0
3DFACE
  8
FACES
 10
1
 20
28
 30
0
 11
1
 21
28
 31
1
 12
0
 22
28
 32
1
 13
0
 23
28
 33
0
  0
3DFACE
  8
FACES
 10
1
 20
28
 30
1
 11
1
 21
28
 31
2
 12
0
 22
28
 32
2
 13
0
 23
28
 33
1
  0
3DFACE
  8
FACES
 10
1
 20
28
 30
2
 11
1
 21
28
 31
3
 12
0
 22
28
 32
3
 13
0
 23
28
 33
2
  0
3DFACE
  8
FACES
 10
2
 20
28
 30
1
 11
2
 21
28
 31
0
 12
3
 22
28
 32
0
 13
3
 23
28
 33
1
  0
3DFACE
  8
FACES
 10
1
 20
28
 30
2
 11
2
 21
28
 31
2
 12
2
 22
28
 32
3
 13
1
 23
28
 33
3
  0
3DFACE
  8
FACES
 10
2
 20
28
 30
1
 11
3
 21
28
 31
1
 12
3
 22
28
 32
2
 13
2
 23
28
 33
2
  0
3DFACE
  8
FACES
 10
3
 20
28
 30
1
 11
3
 21
28
 31
0
 12
4
 22
28
 32
0
 13
4
 23
28
 33
1
  0
3DFACE
  8
FACES
 10
2
 20
28
 30
2
 11
3
 21
28
 31
2
 12
3
 22
28
 32
3
 13
2
 23
28
 33
3
  0
3DFACE
  8
FACES
 10
3
 20
28
 30
2
 11
3
 21
28
 31
1
 12
4
 22
28
 32
1
 13
4
 23
28
 33
2
  0
3DFACE
  8
FACES
 10
3
 20
28
 30
2
 11
4
 21
28
 31
2
 12
4
 22
28
 32
3
 13
3
 23
28
 33
3
  0
3DFACE
  8
FACES
 10
4
 20
28
 30
1
 11
4
 21
28
 31
0
 12
5
 22
28
 32
0
 13
5
 23
28
 33
1
  0
3DFACE
  8
FACES
 10
4
 20
28
 30
1
 11
5
 21
28
 31
1
 12
5
 22
28
 32
2
 13
4
 23
28
 33
2
  0
3DFACE
  8
FACES
 10
4
 20
28
 30
2
 11
5
 21
28
 31
2
 12
5
 22
28
 32
3
 13
4
 23
28
 33
3
  0
3DFACE
  8
FACES
 10
5
 20
28
 30
2
 11
6
 21
28
 31
2
 12
6
 22
28
 32
3
 13
5
 23
28
 33
3
  0
3DFACE
  8
FACES
 10
6
 20
28
 30
2
 11
7
 21
28
 31
2
 12
7
 22
28
 32
3
 13
6
 23
28
 33
3
  0
3DFACE
  8
FACES
 10
7
 20
28
 30
1
 11
7
 21
28
 31
0
 12
8
 22
28
 32
0
 13
8
 23
28
 33
1
  0
3DFACE
  8
FACES
 10
7
 20
28
 30
1
 11
8
 21
28
 31
1
 12
8
 22
28
 32
2
 13
7
 23
28
 33
2
  0
3DFACE
  8
FACES
 10
7
 20
28
 30
2
 11
8
 21
28
 31
2
 12
8
 22
28
 32
3
 13
7
 23
28
 33
3
  0
3DFACE
  8
FACES
 10
8
 20
28
 30
1
 11
8
 21
28
 31
0
 12
9
 22
28
 32
0
 13
9
 23
28
 33
1
  0
3DFACE
  8
FACES
 10
8
 20
28
 30
1
 11
9
 21
28
 31
1
 12
9
 22
28
 32
2
 13
8
 23
28
 33
2
  0
3DFACE
  8
FACES
 10
8
 20
28
 30
2
 11
9
 21
28
 31
2
 12
9
 22
28
 32
3
 13
8
 23
28
 33
3
  0
3DFACE
  8
FACES
 10
9
 20
28
 30
1
 11
9
 21
28
 31
0
 12
10
 22
28
 32
0
 13
10
 23
28
 33
1
  0
3DFACE
  8
FACES
 10
9
 20
28
 30
2
 11
9
 21
28
 31
1
 12
10
 22
28
 32
1
 13
10
 23
28
 33
2
  0
3DFACE
  8
FACES
 10
9
 20
28
 30
2
 11
10
 21
28
 31
2
 12
10
 22
28
 32
3
 13
9
 23
28
 33
3
  0
3DFACE
  8
FACES
 10
10
 20
28
 30
1
 11
10
 21
28
 31
0
 12
11
 22
28
 32
0
 13
11
 23
28
 33
1
  0
3DFACE
  8
FACES
 10
10
 20
28
 30
1
 11
11
 21
28
 31
1
 12
11
 22
28
 32
2
 13
10
 23
28
 33
2
  0
3DFACE
  8
FACES
 10
10
 20
28
 30
2
 11
11
 21
28
 31
2
 12
11
 22
28
 32
3
 13
10
 23
28
 33
3
  0
3DFACE
  8
FACES
 10
11
 20
28
 30
2
 11
12
 21
28
 31
2
 12
12
 22
28
 32
3
 13
11
 23
28
 33
3
  0
3DFACE
  8
FACES
 10
12
 20
28
 30
1
 11
12
 21
28
 31
0
 12
13
 22
28
 32
0
 13
13
 23
28
 33
1
  0
3DFACE
  8
FACES
 10
12
 20
28
 30
1
 11
13
 21
28
 31
1
 12
13
 22
28
 32
2
 13
12
 23
28
 33
2
  0
3DFACE
  8
FACES
 10
12
 20
28
 30
2
 11
13
 21
28
 31
2
 12
13
 22
28
 32
3
 13
12
 23
28
 33
3
  0
3DFACE
  8
FACES
 10
13
 20
28
 30
1
 11
13
 21
28
 31
0
 12
14
 22
28
 32
0
 13
14
 23
28
 33
1
  0
3DFACE
  8
FACES
 10
13
 20
28
 30
1
 11
14
 21
28
 31
1
 12
14
 22
28
 32
2
 13
13
 23
28
 33
2
  0
3DFACE
  8
FACES
 10
13
 20
28
 30
2
 11
14
 21
28
 31
2
 12
14
 22
28
 32
3
 13
13
 23
28
 33
3
  0
3DFACE
  8
FACES
 10
14
 20
28
 30
1
 11
14
 21
28
 31
0
 12
15
 22
28
 32
0
 13
15
 23
28
 33
1
  0
3DFACE
  8
FACES
 10
14
 20
28
 30
1
 11
15
 21
28
 31
1
 12
15
 22
28
 32
2
 13
14
 23
28
 33
2
  0
3DFACE
  8
FACES
 10
14
 20
28
 30
2
 11
15
 21
28
 31
2
 12
15
 22
28
 32
3
 13
14
 23
28
 33
3
  0
3DFACE
  8
FACES
 10
15
 20
28
 30
1
 11
15
 21
28
 31
0
 12
16
 22
28
 32
0
 13
16
 23
28
 33
1
  0
3DFACE
  8
FACES
 10
15
 20
28
 30
2
 11
15
 21
28
 31
1
 12
16
 22
28
 32
1
 13
16
 23
28
 33
2
  0
3DFACE
  8
FACES
 10
15
 20
28
 30
2
 11
16
 21
28
 31
2
 12
16
 22
28
 32
3
 13
15
 23
28
 33
3
  0
3DFACE
  8
FACES
 10
16
 20
28
 30
1
 11
16
 21
28
 31
0
 12
17
 22
28
 32
0
 13
17
 23
28
 33
1
  0
3DFACE
  8
FACES
 10
16
 20
28
 30
1
 11
17
 21
28
 31
1
 12
17
 22
28
 32
2
 13
16
 23
28
 33
2
  0
3DFACE
  8
FACES
 10
16
 20
28
 30
2
 11
17
 21
28
 31
2
 12
17
 22
28
 32
3
 13
16
 23
28
 33
3
  0
3DFACE
  8
FACES
 10
17
 20
28
 30
2
 11
18
 21
28
 31
2
 12
18
 22
28
 32
3
 13
17
 23
28
 33
3
  0
3DFACE
  8
FACES
 10
18
 20
28
 30
2
 11
19
 21
28
 31
2
 12
19
 22
28
 32
3
 13
18
 23
28
 33
3
  0
3DFACE
  8
FACES
 10
19
 20
28
 30
1
 11
19
 21
28
 31
0
 12
20
 22
28
 32
0
 13
20
 23
28
 33
1
  0
3DFACE
  8
FACES
 10
19
 20
28
 30
1
 11
20
 21
28
 31
1
 12
20
 22
28
 32
2
 13
19
 23
28
 33
2
  0
3DFACE
  8
FACES
 10
19
 20
28
 30
2
 11
20
 21
28
 31
2
 12
20
 22
28
 32
3
 13
19
 23
28
 33
3
  0
3DFACE
  8
FACES
 10
20
 20
28
 30
1
 11
20
 21
28
 31
0
 12
21
 22
28
 32
0
 13
21
 23
28
 33
1
  0
3DFACE
  8
FACES
 10
20
 20
28
 30
1
 11
21
 21
28
 31
1
 12
21
 22
28
 32
2
 13
20
 23
28
 33
2
  0
3DFACE
  8
FACES
 10
20
 20
28
 30
2
 11
21
 21
28
 31
2
 12
21
 22
28
 32
3
 13
20
 23
28
 33
3
  0
3DFACE
  8
FACES
 10
21
 20
28
 30
2
 11
22
 21
28
 31
2
 12
22
 22
28
 32
3
 13
21
 23
28
 33
3
  0
3DFACE
  8
FACES
 10
22
 20
28
 30
1
 11
22
 21
28
 31
0
 12
23
 22
28
 32
0
 13
23
 23
28
 33
1
  0
3DFACE
  8
FACES
 10
22
 20
28
 30
1
 11
23
 21
28
 31
1
 12
23
 22
28
 32
2
 13
22
 23
28
 33
2
  0
3DFACE
  8
FACES
 10
22
 20
28
 30
2
 11
23
 21
28
 31
2
 12
23
 22
28
 32
3
 13
22
 23
28
 33
3
  0
3DFACE
  8
FACES
 10
23
 20
28
 30
1
 11
23
 21
28
 31
0
 12
24
 22
28
 32
0
 13
24
 23
28
 33
1
  0
3DFACE
  8
FACES
 10
23
 20
28
 30
1
 11
24
 21
28
 31
1
 12
24
 22
28
 32
2
 13
23
 23
28
 33
2
  0
3DFACE
  8
FACES
 10
23
 20
28
 30
2
 11
24
 21
28
 31
2
 12
24
 22
28
 32
3
 13
23
 23
28
 33
3
  0
3DFACE
  8
FACES
 10
24
 20
28
 30
1
 11
24
 21
28
 31
0
 12
25
 22
28
 32
0
 13
25
 23
28
 33
1
  0
3DFACE
  8
FACES
 10
24
 20
28
 30
2
 11
24
 21
28
 31
1
 12
25
 22
28
 32
1
 13
25
 23
28
 33
2
  0
3DFACE
  8
FACES
 10
24
 20
28
 30
2
 11
25
 21
28
 31
2
 12
25
 22
28
 32
3
 13
24
 23
28
 33
3
  0
3DFACE
  8
FACES
 10
25
 20
28
 30
1
 11
25
 21
28
 31
0
 12
26
 22
28
 32
0
 13
26
 23
28
 33
1
  0
3DFACE
  8
FACES
 10
25
 20
28
 30
1
 11
26
 21
28
 31
1
 12
26
 22
28
 32
2
 13
25
 23
28
 33
2
  0
3DFACE
  8
FACES
 10
25
 20
28
 30
2
 11
26
 21
28
 31
2
 12
26
 22
28
 32
3
 13
25
 23
28
 33
3
  0
3DFACE
  8
FACES
 10
26
 20
28
 30
2
 11
27
 21
28
 31
2
 12
27
 22
28
 32
3
 13
26
 23
28
 33
3
  0
3DFACE
  8
FACES
 10
27
 20
28
 30
2
 11
28
 21
28
 31
2
 12
28
 22
28
 32
3
 13
27
 23
28
 33
3
  0
3DFACE
  8
FACES
 10
28
 20
28
 30
1
 11
28
 21
28
 31
0
 12
29
 22
28
 32
0
 13
29
 23
28
 33
1
  0
3DFACE
  8
FACES
 10
28
 20
28
 30
1
 11
29
 21
28
 31
1
 12
29
 22
28
 32
2
 13
28
 23
28
 33
2
  0
3DFACE
  8
FACES
 10
28
 20
28
 30
2
 11
29
 21
28
 31
2
 12
29
 22
28
 32
3
 13
28
 23
28
 33
3
  0
3DFACE
  8
FACES
 10
29
 20
28
 30
1
 11
29
 21
28
 31
0
 12
30
 22
28
 32
0
 13
30
 23
28
 33
1
  0
3DFACE
  8
FACES
 10
29
 20
28
 30
2
 11
29
 21
28
 31
1
 12
30
 22
28
 32
1
 13
30
 23
28
 33
2
  0
3DFACE
  8
FACES
 10
29
 20
28
 30
2
 11
30
 21
28
 31
2
 12
30
 22
28
 32
3
 13
29
 23
28
 33
3
  0
3DFACE
  8
FACES
 10
30
 20
28
 30
1
 11
30
 21
28
 31
0
 12
31
 22
28
 32
0
 13
31
 23
28
 33
1
  0
3DFACE
  8
FACES
 10
30
 20
28
 30
2
 11
30
 21
28
 31
1
 12
31
 22
28
 32
1
 13
31
 23
28
 33
2
  0
3DFACE
  8
FACES
 10
30
 20
28
 30
2
 11
31
 21
28
 31
2
 12
31
 22
28
 32
3
 13
30
 23
28
 33
3
  0
3DFACE
  8
FACES
 10
31
 20
28
 30
1
 11
31
 21
28
 31
0
 12
32
 22
28
 32
0
 13
32
 23
28
 33
1
  0
3DFACE
  8
FACES
 10
31
 20
28
 30
1
 11
32
 21
28
 31
1
 12
32
 22
28
 32
2
 13
31
 23
28
 33
2
  0
3DFACE
  8
FACES
 10
31
 20
28
 30
2
 11
32
 21
28
 31
2
 12
32
 22
28
 32
3
 13
31
 23
28
 33
3
  0
3DFACE
  8
FACES
 10
32
 20
28
 30
2
 11
33
 21
28
 31
2
 12
33
 22
28
 32
3
 13
32
 23
28
 33
3
  0
3DFACE
  8
FACES
 10
33
 20
28
 30
1
 11
33
 21
28
 31
0
 12
34
 22
28
 32
0
 13
34
 23
28
 33
1
  0
3DFACE
  8
FACES
 10
33
 20
28
 30
1
 11
34
 21
28
 31
1
 12
34
 22
28
 32
2
 13
33
 23
28
 33
2
  0
3DFACE
  8
FACES
 10
33
 20
28
 30
2
 11
34
 21
28
 31
2
 12
34
 22
28
 32
3
 13
33
 23
28
 33
3
  0
3DFACE
  8
FACES
 10
34
 20
28
 30
1
 11
34
 21
28
 31
0
 12
35
 22
28
 32
0
 13
35
 23
28
 33
1
  0
3DFACE
  8
FACES
 10
34
 20
28
 30
1
 11
35
 21
28
 31
1
 12
35
 22
28
 32
2
 13
34
 23
28
 33
2
  0
3DFACE
  8
FACES
 10
34
 20
28
 30
2
 11
35
 21
28
 31
2
 12
35
 22
28
 32
3
 13
34
 23
28
 33
3
  0
3DFACE
  8
FACES
 10
35
 20
28
 30
1
 11
35
 21
28
 31
0
 12
36
 22
28
 32
0
 13
36
 23
28
 33
1
  0
3DFACE
  8
FACES
 10
35
 20
28
 30
2
 11
35
 21
28
 31
1
 12
36
 22
28
 32
1
 13
36
 23
28
 33
2
  0
3DFACE
  8
FACES
 10
35
 20
28
 30
3
 11
35
 21
28
 31
2
 12
36
 22
28
 32
2
 13
36
 23
28
 33
3
  0
3DFACE
  8
FACES
 10
1
 20
36
 30
0
 11
1
 21
36
 31
1
 12
0
 22
36
 32
1
 13
0
 23
36
 33
0
  0
3DFACE
  8
FACES
 10
1
 20
36
 30
1
 11
1
 21
36
 31
2
 12
0
 22
36
 32
2
 13
0
 23
36
 33
1
  0
3DFACE
  8
FACES
 10
1
 20
36
 30
1
 11
1
 21
36
 31
0
 12
2
 22
36
 32
0
 13
2
 23
36
 33
1
  0
3DFACE
  8
FACES
 10
1
 20
36
 30
2
 11
1
 21
36
 31
3
 12
0
 22
36
 32
3
 13
0
 23
36
 33
2
  0
3DFACE
  8
FACES
 10
1
 20
36
 30
1
 11
2
 21
36
 31
1
 12
2
 22
36
 32
2
 13
1
 23
36
 33
2
  0
3DFACE
  8
FACES
 10
2
 20
36
 30
1
 11
2
 21
36
 31
0
 12
3
 22
36
 32
0
 13
3
 23
36
 33
1
  0
3DFACE
  8
FACES
 10
1
 20
36
 30
2
 11
2
 21
36
 31
2
 12
2
 22
36
 32
3
 13
1
 23
36
 33
3
  0
3DFACE
  8
FACES
 10
2
 20
36
 30
1
 11
3
 21
36
 31
1
 12
3
 22
36
 32
2
 13
2
 23
36
 33
2
  0
3DFACE
  8
FACES
 10
3
 20
36
 30
1
 11
3
 21
36
 31
0
 12
4
 22
36
 32
0
 13
4
 23
36
 33
1
  0
3DFACE
  8
FACES
 10
2
 20
36
 30
2
 11
3
 21
36
 31
2
 12
3
 22
36
 32
3
 13
2
 23
36
 33
3
  0
3DFACE
  8
FACES
 10
3
 20
36
 30
2
 11
3
 21
36
 31
1
 12
4
 22
36
 32
1
 13
4
 23
36
 33
2
  0
3DFACE
  8
FACES
 10
3
 20
36
 30
2
 11
4
 21
36
 31
2
 12
4
 22
36
 32
3
 13
3
 23
36
 33
3
  0
3DFACE
  8
FACES
 10
4
 20
36
 30
1
 11
4
 21
36
 31
0
 12
5
 22
36
 32
0
 13
5
 23
36
 33
1
  0
3DFACE
  8
FACES
 10
4
 20
36
 30
1
 11
5
 21
36
 31
1
 12
5
 22
36
 32
2
 13
4
 23
36
 33
2
  0
3DFACE
  8
FACES
 10
4
 20
36
 30
2
 11
5
 21
36
 31
2
 12
5
 22
36
 32
3
 13
4
 23
36
 33
3
  0
3DFACE
  8
FACES
 10
5
 20
36
 30
1
 11
5
 21
36
 31
0
 12
6
 22
36
 32
0
 13
6
 23
36
 33
1
  0
3DFACE
  8
FACES
 10
5
 20
36
 30
1
 11
6
 21
36
 31
1
 12
6
 22
36
 32
2
 13
5
 23
36
 33
2
  0
3DFACE
  8
FACES
 10
5
 20
36
 30
2
 11
6
 21
36
 31
2
 12
6
 22
36
 32
3
 13
5
 23
36
 33
3
  0
3DFACE
  8
FACES
 10
6
 20
36
 30
1
 11
6
 21
36
 31
0
 12
7
 22
36
 32
0
 13
7
 23
36
 33
1
  0
3DFACE
  8
FACES
 10
6
 20
36
 30
1
 11
7
 21
36
 31
1
 12
7
 22
36
 32
2
 13
6
 23
36
 33
2
  0
3DFACE
  8
FACES
 10
6
 20
36
 30
2
 11
7
 21
36
 31
2
 12
7
 22
36
 32
3
 13
6
 23
36
 33
3
  0
3DFACE
  8
FACES
 10
7
 20
36
 30
1
 11
7
 21
36
 31
0
 12
8
 22
36
 32
0
 13
8
 23
36
 33
1
  0
3DFACE
  8
FACES
 10
7
 20
36
 30
1
 11
8
 21
36
 31
1
 12
8
 22
36
 32
2
 13
7
 23
36
 33
2
  0
3DFACE
  8
FACES
 10
7
 20
36
 30
2
 11
8
 21
36
 31
2
 12
8
 22
36
 32
3
 13
7
 23
36
 33
3
  0
3DFACE
  8
FACES
 10
8
 20
36
 30
1
 11
8
 21
36
 31
0
 12
9
 22
36
 32
0
 13
9
 23
36
 33
1
  0
3DFACE
  8
FACES
 10
8
 20
36
 30
1
 11
9
 21
36
 31
1
 12
9
 22
36
 32
2
 13
8
 23
36
 33
2
  0
3DFACE
  8
FACES
 10
8
 20
36
 30
2
 11
9
 21
36
 31
2
 12
9
 22
36
 32
3
 13
8
 23
36
 33
3
  0
3DFACE
  8
FACES
 10
9
 20
36
 30
1
 11
9
 21
36
 31
0
 12
10
 22
36
 32
0
 13
10
 23
36
 33
1
  0
3DFACE
  8
FACES
 10
9
 20
36
 30
2
 11
9
 21
36
 31
1
 12
10
 22
36
 32
1
 13
10
 23
36
 33
2
  0
3DFACE
  8
FACES
 10
9
 20
36
 30
2
 11
10
 21
36
 31
2
 12
10
 22
36
 32
3
 13
9
 23
36
 33
3
  0
3DFACE
  8
FACES
 10
10
 20
36
 30
1
 11
10
 21
36
 31
0
 12
11
 22
36
 32
0
 13
11
 23
36
 33
1
  0
3DFACE
  8
FACES
 10
10
 20
36
 30
1
 11
11
 21
36
 31
1
 12
11
 22
36
 32
2
 13
10
 23
36
 33
2
  0
3DFACE
  8
FACES
 10
10
 20
36
 30
2
 11
11
 21
36
 31
2
 12
11
 22
36
 32
3
 13
10
 23
36
 33
3
  0
3DFACE
  8
FACES
 10
11
 20
36
 30
1
 11
11
 21
36
 31
0
 12
12
 22
36
 32
0
 13
12
 23
36
 33
1
  0
3DFACE
  8
FACES
 10
11
 20
36
 30
1
 11
12
 21
36
 31
1
 12
12
 22
36
 32
2
 13
11
 23
36
 33
2
  0
3DFACE
  8
FACES
 10
11
 20
36
 30
2
 11
12
 21
36
 31
2
 12
12
 22
36
 32
3
 13
11
 23
36
 33
3
  0
3DFACE
  8
FACES
 10
12
 20
36
 30
1
 11
12
 21
36
 31
0
 12
13
 22
36
 32
0
 13
13
 23
36
 33
1
  0
3DFACE
  8
FACES
 10
12
 20
36
 30
1
 11
13
 21
36
 31
1
 12
13
 22
36
 32
2
 13
12
 23
36
 33
2
  0
3DFACE
  8
FACES
 10
12
 20
36
 30
2
 11
13
 21
36
 31
2
 12
13
 22
36
 32
3
 13
12
 23
36
 33
3
  0
3DFACE
  8
FACES
 10
13
 20
36
 30
1
 11
13
 21
36
 31
0
 12
14
 22
36
 32
0
 13
14
 23
36
 33
1
  0
3DFACE
  8
FACES
 10
13
 20
36
 30
1
 11
14
 21
36
 31
1
 12
14
 22
36
 32
2
 13
13
 23
36
 33
2
  0
3DFACE
  8
FACES
 10
13
 20
36
 30
2
 11
14
 21
36
 31
2
 12
14
 22
36
 32
3
 13
13
 23
36
 33
3
  0
3DFACE
  8
FACES
 10
14
 20
36
 30
1
 11
14
 21
36
 31
0
 12
15
 22
36
 32
0
 13
15
 23
36
 33
1
  0
3DFACE
  8
FACES
 10
14
 20
36
 30
1
 11
15
 21
36
 31
1
 12
15
 22
36
 32
2
 13
14
 23
36
 33
2
  0
3DFACE
  8
FACES
 10
14
 20
36
 30
2
 11
15
 21
36
 31
2
 12
15
 22
36
 32
3
 13
14
 23
36
 33
3
  0
3DFACE
  8
FACES
 10
15
 20
36
 30
1
 11
15
 21
36
 31
0
 12
16
 22
36
 32
0
 13
16
 23
36
 33
1
  0
3DFACE
  8
FACES
 10
15
 20
36
 30
2
 11
15
 21
36
 31
1
 12
16
 22
36
 32
1
 13
16
 23
36
 33
2
  0
3DFACE
  8
FACES
 10
15
 20
36
 30
2
 11
16
 21
36
 31
2
 12
16
 22
36
 32
3
 13
15
 23
36
 33
3
  0
3DFACE
  8
FACES
 10
16
 20
36
 30
1
 11
16
 21
36
 31
0
 12
17
 22
36
 32
0
 13
17
 23
36
 33
1
  0
3DFACE
  8
FACES
 10
16
 20
36
 30
1
 11
17
 21
36
 31
1
 12
17
 22
36
 32
2
 13
16
 23
36
 33
2
  0
3DFACE
  8
FACES
 10
16
 20
36
 30
2
 11
17
 21
36
 31
2
 12
17
 22
36
 32
3
 13
16
 23
36
 33
3
  0
3DFACE
  8
FACES
 10
17
 20
36
 30
1
 11
17
 21
36
 31
0
 12
18
 22
36
 32
0
 13
18
 23
36
 33
1
  0
3DFACE
  8
FACES
 10
17
 20
36
 30
1
 11
18
 21
36
 31
1
 12
18
 22
36
 32
2
 13
17
 23
36
 33
2
  0
3DFACE
  8
FACES
 10
17
 20
36
 30
2
 11
18
 21
36
 31
2
 12
18
 22
36
 32
3
 13
17
 23
36
 33
3
  0
3DFACE
  8
FACES
 10
18
 20
36
 30
1
 11
18
 21
36
 31
0
 12
19
 22
36
 32
0
 13
19
 23
36
 33
1
  0
3DFACE
  8
FACES
 10
18
 20
36
 30
1
 11
19
 21
36
 31
1
 12
19
 22
36
 32
2
 13
18
 23
36
 33
2
  0
3DFACE
  8
FACES
 10
18
 20
36
 30
2
 11
19
 21
36
 31
2
 12
19
 22
36
 32
3
 13
18
 23
36
 33
3
  0
3DFACE
  8
FACES
 10
19
 20
36
 30
1
 11
19
 21
36
 31
0
 12
20
 22
36
 32
0
 13
20
 23
36
 33
1
  0
3DFACE
  8
FACES
 10
19
 20
36
 30
1
 11
20
 21
36
 31
1
 12
20
 22
36
 32
2
 13
19
 23
36
 33
2
  0
3DFACE
  8
FACES
 10
19
 20
36
 30
2
 11
20
 21
36
 31
2
 12
20
 22
36
 32
3
 13
19
 23
36
 33
3
  0
3DFACE
  8
FACES
 10
20
 20
36
 30
1
 11
20
 21
36
 31
0
 12
21
 22
36
 32
0
 13
21
 23
36
 33
1
  0
3DFACE
  8
FACES
 10
20
 20
36
 30
1
 11
21
 21
36
 31
1
 12
21
 22
36
 32
2
 13
20
 23
36
 33
2
  0
3DFACE
  8
FACES
 10
20
 20
36
 30
2
 11
21
 21
36
 31
2
 12
21
 22
36
 32
3
 13
20
 23
36
 33
3
  0
3DFACE
  8
FACES
 10
21
 20
36
 30
1
 11
21
 21
36
 31
0
 12
22
 22
36
 32
0
 13
22
 23
36
 33
1
  0
3DFACE
  8
FACES
 10
21
 20
36
 30
1
 11
22
 21
36
 31
1
 12
22
 22
36
 32
2
 13
21
 23
36
 33
2
  0
3DFACE
  8
FACES
 10
21
 20
36
 30
2
 11
22
 21
36
 31
2
 12
22
 22
36
 32
3
 13
21
 23
36
 33
3
  0
3DFACE
  8
FACES
 10
22
 20
36
 30
1
 11
22
 21
36
 31
0
 12
23
 22
36
 32
0
 13
23
 23
36
 33
1
  0
3DFACE
  8
FACES
 10
22
 20
36
 30
1
 11
23
 21
36
 31
1
 12
23
 22
36
 32
2
 13
22
 23
36
 33
2
  0
3DFACE
  8
FACES
 10
22
 20
36
 30
2
 11
23
 21
36
 31
2
 12
23
 22
36
 32
3
 13
22
 23
36
 33
3
  0
3DFACE
  8
FACES
 10
23
 20
36
 30
1
 11
23
 21
36
 31
0
 12
24
 22
36
 32
0
 13
24
 23
36
 33
1
  0
3DFACE
  8
FACES
 10
23
 20
36
 30
1
 11
24
 21
36
 31
1
 12
24
 22
36
 32
2
 13
23
 23
36
 33
2
  0
3DFACE
  8
FACES
 10
23
 20
36
 30
2
 11
24
 21
36
 31
2
 12
24
 22
36
 32
3
 13
23
 23
36
 33
3
  0
3DFACE
  8
FACES
 10
24
 20
36
 30
1
 11
24
 21
36
 31
0
 12
25
 22
36
 32
0
 13
25
 23
36
 33
1
  0
3DFACE
  8
FACES
 10
24
 20
36
 30
2
 11
24
 21
36
 31
1
 12
25
 22
36
 32
1
 13
25
 23
36
 33
2
  0
3DFACE
  8
FACES
 10
24
 20
36
 30
2
 11
25
 21
36
 31
2
 12
25
 22
36
 32
3
 13
24
 23
36
 33
3
  0
3DFACE
  8
FACES
 10
25
 20
36
 30
1
 11
25
 21
36
 31
0
 12
26
 22
36
 32
0
 13
26
 23
36
 33
1
  0
3DFACE
  8
FACES
 10
25
 20
36
 30
1
 11
26
 21
36
 31
1
 12
26
 22
36
 32
2
 13
25
 23
36
 33
2
  0
3DFACE
  8
FACES
 10
25
 20
36
 30
2
 11
26
 21
36
 31
2
 12
26
 22
36
 32
3
 13
25
 23
36
 33
3
  0
3DFACE
  8
FACES
 10
26
 20
36
 30
1
 11
26
 21
36
 31
0
 12
27
 22
36
 32
0
 13
27
 23
36
 33
1
  0
3DFACE
  8
FACES
 10
26
 20
36
 30
1
 11
27
 21
36
 31
1
 12
27
 22
36
 32
2
 13
26
 23
36
 33
2
  0
3DFACE
  8
FACES
 10
26
 20
36
 30
2
 11
27
 21
36
 31
2
 12
27
 22
36
 32
3
 13
26
 23
36
 33
3
  0
3DFACE
  8
FACES
 10
27
 20
36
 30
1
 11
27
 21
36
 31
0
 12
28
 22
36
 32
0
 13
28
 23
36
 33
1
  0
3DFACE
  8
FACES
 10
27
 20
36
 30
1
 11
28
 21
36
 31
1
 12
28
 22
36
 32
2
 13
27
 23
36
 33
2
  0
3DFACE
  8
FACES
 10
27
 20
36
 30
2
 11
28
 21
36
 31
2
 12
28
 22
36
 32
3
 13
27
 23
36
 33
3
  0
3DFACE
  8
FACES
 10
28
 20
36
 30
1
 11
28
 21
36
 31
0
 12
29
 22
36
 32
0
 13
29
 23
36
 33
1
  0
3DFACE
  8
FACES
 10
28
 20
36
 30
1
 11
29
 21
36
 31
1
 12
29
 22
36
 32
2
 13
28
 23
36
 33
2
  0
3DFACE
  8
FACES
 10
28
 20
36
 30
2
 11
29
 21
36
 31
2
 12
29
 22
36
 32
3
 13
28
 23
36
 33
3
  0
3DFACE
  8
FACES
 10
29
 20
36
 30
1
 11
29
 21
36
 31
0
 12
30
 22
36
 32
0
 13
30
 23
36
 33
1
  0
3DFACE
  8
FACES
 10
29
 20
36
 30
2
 11
29
 21
36
 31
1
 12
30
 22
36
 32
1
 13
30
 23
36
 33
2
  0
3DFACE
  8
FACES
 10
29
 20
36
 30
2
 11
30
 21
36
 31
2
 12
30
 22
36
 32
3
 13
29
 23
36
 33
3
  0
3DFACE
  8
FACES
 10
30
 20
36
 30
1
 11
30
 21
36
 31
0
 12
31
 22
36
 32
0
 13
31
 23
36
 33
1
  0
3DFACE
  8
FACES
 10
30
 20
36
 30
2
 11
30
 21
36
 31
1
 12
31
 22
36
 32
1
 13
31
 23
36
 33
2
  0
3DFACE
  8
FACES
 10
30
 20
36
 30
2
 11
31
 21
36
 31
2
 12
31
 22
36
 32
3
 13
30
 23
36
 33
3
  0
3DFACE
  8
FACES
 10
31
 20
36
 30
1
 11
31
 21
36
 31
0
 12
32
 22
36
 32
0
 13
32
 23
36
 33
1
  0
3DFACE
  8
FACES
 10
31
 20
36
 30
1
 11
32
 21
36
 31
1
 12
32
 22
36
 32
2
 13
31
 23
36
 33
2
  0
3DFACE
  8
FACES
 10
31
 20
36
 30
2
 11
32
 21
36
 31
2
 12
32
 22
36
 32
3
 13
31
 23
36
 33
3
  0
3DFACE
  8
FACES
 10
32
 20
36
 30
1
 11
32
 21
36
 31
0
 12
33
 22
36
 32
0
 13
33
 23
36
 33
1
  0
3DFACE
  8
FACES
 10
32
 20
36
 30
1
 11
33
 21
36
 31
1
 12
33
 22
36
 32
2
 13
32
 23
36
 33
2
  0
3DFACE
  8
FACES
 10
32
 20
36
 30
2
 11
33
 21
36
 31
2
 12
33
 22
36
 32
3
 13
32
 23
36
 33
3
  0
3DFACE
  8
FACES
 10
33
 20
36
 30
1
 11
33
 21
36
 31
0
 12
34
 22
36
 32
0
 13
34
 23
36
 33
1
  0
3DFACE
  8
FACES
 10
33
 20
36
 30
1
 11
34
 21
36
 31
1
 12
34
 22
36
 32
2
 13
33
 23
36
 33
2
  0
3DFACE
  8
FACES
 10
33
 20
36
 30
2
 11
34
 21
36
 31
2
 12
34
 22
36
 32
3
 13
33
 23
36
 33
3
  0
3DFACE
  8
FACES
 10
34
 20
36
 30
1
 11
34
 21
36
 31
0
 12
35
 22
36
 32
0
 13
35
 23
36
 33
1
  0
3DFACE
  8
FACES
 10
34
 20
36
 30
1
 11
35
 21
36
 31
1
 12
35
 22
36
 32
2
 13
34
 23
36
 33
2
  0
3DFACE
  8
FACES
 10
34
 20
36
 30
2
 11
35
 21
36
 31
2
 12
35
 22
36
 32
3
 13
34
 23
36
 33
3
  0
3DFACE
  8
FACES
 10
35
 20
36
 30
1
 11
35
 21
36
 31
0
 12
36
 22
36
 32
0
 13
36
 23
36
 33
1
  0
3DFACE
  8
FACES
 10
35
 20
36
 30
2
 11
35
 21
36
 31
1
 12
36
 22
36
 32
1
 13
36
 23
36
 33
2
  0
3DFACE
  8
FACES
 10
35
 20
36
 30
3
 11
35
 21
36
 31
2
 12
36
 22
36
 32
2
 13
36
 23
36
 33
3
  0
LINE
  8
BARS
 10
0
 20
0
 30
0
 11
0
 21
0
 31
1
  0
LINE
  8
BARS
 10
0
 20
0
 30
1
 11
0
 21
0
 31
2
  0
LINE
  8
BARS
 10
0
 20
0
 30
2
 11
0
 21
0
 31
3
  0
LINE
  8
BARS
 10
0
 20
3
 30
0
 11
0
 21
3
 31
1
  0
LINE
  8
BARS
 10
0
 20
3
 30
1
 11
0
 21
3
 31
2
  0
LINE
  8
BARS
 10
0
 20
3
 30
2
 11
0
 21
3
 31
3
  0
LINE
  8
BARS
 10
0
 20
9
 30
0
 11
0
 21
9
 31
1
  0
LINE
  8
BARS
 10
0
 20
9
 30
1
 11
0
 21
9
 31
2
  0
LINE
  8
BARS
 10
0
 20
9
 30
2
 11
0
 21
9
 31
3
  0
LINE
  8
BARS
 10
0
 20
15
 30
0
 11
0
 21
15
 31
1
  0
LINE
  8
BARS
 10
0
 20
15
 30
1
 11
0
 21
15
 31
2
  0
LINE
  8
BARS
 10
0
 20
15
 30
2
 11
0
 21
15
 31
3
  0
LINE
  8
BARS
 10
0
 20
21
 30
0
 11
0
 21
21
 31
1
  0
LINE
  8
BARS
 10
0
 20
21
 30
1
 11
0
 21
21
 31
2
  0
LINE
  8
BARS
 10
0
 20
21
 30
2
 11
0
 21
21
 31
3
  0
LINE
  8
BARS
 10
0
 20
24
 30
0
 11
0
 21
24
 31
1
  0
LINE
  8
BARS
 10
0
 20
24
 30
1
 11
0
 21
24
 31
2
  0
LINE
  8
BARS
 10
0
 20
24
 30
2
 11
0
 21
24
 31
3
  0
LINE
  8
BARS
 10
0
 20
30
 30
0
 11
0
 21
30
 31
1
  0
LINE
  8
BARS
 10
0
 20
30
 30
1
 11
0
 21
30
 31
2
  0
LINE
  8
BARS
 10
0
 20
30
 30
2
 11
0
 21
30
 31
3
  0
LINE
  8
BARS
 10
0
 20
36
 30
0
 11
0
 21
36
 31
1
  0
LINE
  8
BARS
 10
0
 20
36
 30
1
 11
0
 21
36
 31
2
  0
LINE
  8
BARS
 10
0
 20
36
 30
2
 11
0
 21
36
 31
3
  0
LINE
  8
BARS
 10
3
 20
0
 30
0
 11
3
 21
0
 31
1
  0
LINE
  8
BARS
 10
3
 20
0
 30
1
 11
3
 21
0
 31
2
  0
LINE
  8
BARS
 10
3
 20
0
 30
2
 11
3
 21
0
 31
3
  0
LINE
  8
BARS
 10
3
 20
3
 30
0
 11
3
 21
3
 31
1
  0
LINE
  8
BARS
 10
3
 20
3
 30
1
 11
3
 21
3
 31
2
  0
LINE
  8
BARS
 10
3
 20
3
 30
2
 11
3
 21
3
 31
3
  0
LINE
  8
BARS
 10
3
 20
9
 30
0
 11
3
 21
9
 31
1
  0
LINE
  8
BARS
 10
3
 20
9
 30
1
 11
3
 21
9
 31
2
  0
LINE
  8
BARS
 10
3
 20
9
 30
2
 11
3
 21
9
 31
3
  0
LINE
  8
BARS
 10
3
 20
15
 30
0
 11
3
 21
15
 31
1
  0
LINE
  8
BARS
 10
3
 20
15
 30
1
 11
3
 21
15
 31
2
  0
LINE
  8
BARS
 10
3
 20
15
 30
2
 11
3
 21
15
 31
3
  0
LINE
  8
BARS
 10
3
 20
21
 30
0
 11
3
 21
21
 31
1
  0
LINE
  8
BARS
 10
3
 20
21
 30
1
 11
3
 21
21
 31
2
  0
LINE
  8
BARS
 10
3
 20
21
 30
2
 11
3
 21
21
 31
3
  0
LINE
  8
BARS
 10
3
 20
24
 30
0
 11
3
 21
24
 31
1
  0
LINE
  8
BARS
 10
3
 20
24
 30
1
 11
3
 21
24
 31
2
  0
LINE
  8
BARS
 10
3
 20
24
 30
2
 11
3
 21
24
 31
3
  0
LINE
  8
BARS
 10
3
 20
30
 30
0
 11
3
 21
30
 31
1
  0
LINE
  8
BARS
 10
3
 20
30
 30
1
 11
3
 21
30
 31
2
  0
LINE
  8
BARS
 10
3
 20
30
 30
2
 11
3
 21
30
 31
3
  0
LINE
  8
BARS
 10
3
 20
36
 30
0
 11
3
 21
36
 31
1
  0
LINE
  8
BARS
 10
3
 20
36
 30
1
 11
3
 21
36
 31
2
  0
LINE
  8
BARS
 10
3
 20
36
 30
2
 11
3
 21
36
 31
3
  0
LINE
  8
BARS
 10
9
 20
0
 30
0
 11
9
 21
0
 31
1
  0
LINE
  8
BARS
 10
9
 20
0
 30
1
 11
9
 21
0
 31
2
  0
LINE
  8
BARS
 10
9
 20
0
 30
2
 11
9
 21
0
 31
3
  0
LINE
  8
BARS
 10
9
 20
3
 30
0
 11
9
 21
3
 31
1
  0
LINE
  8
BARS
 10
9
 20
3
 30
1
 11
9
 21
3
 31
2
  0
LINE
  8
BARS
 10
9
 20
3
 30
2
 11
9
 21
3
 31
3
  0
LINE
  8
BARS
 10
9
 20
9
 30
0
 11
9
 21
9
 31
1
  0
LINE
  8
BARS
 10
9
 20
9
 30
1
 11
9
 21
9
 31
2
  0
LINE
  8
BARS
 10
9
 20
9
 30
2
 11
9
 21
9
 31
3
  0
LINE
  8
BARS
 10
9
 20
15
 30
0
 11
9
 21
15
 31
1
  0
LINE
  8
BARS
 10
9
 20
15
 30
1
 11
9
 21
15
 31
2
  0
LINE
  8
BARS
 10
9
 20
15
 30
2
 11
9
 21
15
 31
3
  0
LINE
  8
BARS
 10
9
 20
21
 30
0
 11
9
 21
21
 31
1
  0
LINE
  8
BARS
 10
9
 20
21
 30
1
 11
9
 21
21
 31
2
  0
LINE
  8
BARS
 10
9
 20
21
 30
2
 11
9
 21
21
 31
3
  0
LINE
  8
BARS
 10
9
 20
24
 30
0
 11
9
 21
24
 31
1
  0
LINE
  8
BARS
 10
9
 20
24
 30
1
 11
9
 21
24
 31
2
  0
LINE
  8
BARS
 10
9
 20
24
 30
2
 11
9
 21
24
 31
3
  0
LINE
  8
BARS
 10
9
 20
30
 30
0
 11
9
 21
30
 31
1
  0
LINE
  8
BARS
 10
9
 20
30
 30
1
 11
9
 21
30
 31
2
  0
LINE
  8
BARS
 10
9
 20
30
 30
2
 11
9
 21
30
 31
3
  0
LINE
  8
BARS
 10
9
 20
36
 30
0
 11
9
 21
36
 31
1
  0
LINE
  8
BARS
 10
9
 20
36
 30
1
 11
9
 21
36
 31
2
  0
LINE
  8
BARS
 10
9
 20
36
 30
2
 11
9
 21
36
 31
3
  0
LINE
  8
BARS
 10
15
 20
0
 30
0
 11
15
 21
0
 31
1
  0
LINE
  8
BARS
 10
15
 20
0
 30
1
 11
15
 21
0
 31
2
  0
LINE
  8
BARS
 10
15
 20
0
 30
2
 11
15
 21
0
 31
3
  0
LINE
  8
BARS
 10
15
 20
3
 30
0
 11
15
 21
3
 31
1
  0
LINE
  8
BARS
 10
15
 20
3
 30
1
 11
15
 21
3
 31
2
  0
LINE
  8
BARS
 10
15
 20
3
 30
2
 11
15
 21
3
 31
3
  0
LINE
  8
BARS
 10
15
 20
9
 30
0
 11
15
 21
9
 31
1
  0
LINE
  8
BARS
 10
15
 20
9
 30
1
 11
15
 21
9
 31
2
  0
LINE
  8
BARS
 10
15
 20
9
 30
2
 11
15
 21
9
 31
3
  0
LINE
  8
BARS
 10
15
 20
15
 30
0
 11
15
 21
15
 31
1
  0
LINE
  8
BARS
 10
15
 20
15
 30
1
 11
15
 21
15
 31
2
  0
LINE
  8
BARS
 10
15
 20
15
 30
2
 11
15
 21
15
 31
3
  0
LINE
  8
BARS
 10
15
 20
21
 30
0
 11
15
 21
21
 31
1
  0
LINE
  8
BARS
 10
15
 20
21
 30
1
 11
15
 21
21
 31
2
  0
LINE
  8
BARS
 10
15
 20
21
 30
2
 11
15
 21
21
 31
3
  0
LINE
  8
BARS
 10
15
 20
24
 30
0
 11
15
 21
24
 31
1
  0
LINE
  8
BARS
 10
15
 20
24
 30
1
 11
15
 21
24
 31
2
  0
LINE
  8
BARS
 10
15
 20
24
 30
2
 11
15
 21
24
 31
3
  0
LINE
  8
BARS
 10
15
 20
30
 30
0
 11
15
 21
30
 31
1
  0
LINE
  8
BARS
 10
15
 20
30
 30
1
 11
15
 21
30
 31
2
  0
LINE
  8
BARS
 10
15
 20
30
 30
2
 11
15
 21
30
 31
3
  0
LINE
  8
BARS
 10
15
 20
36
 30
0
 11
15
 21
36
 31
1
  0
LINE
  8
BARS
 10
15
 20
36
 30
1
 11
15
 21
36
 31
2
  0
LINE
  8
BARS
 10
15
 20
36
 30
2
 11
15
 21
36
 31
3
  0
LINE
  8
BARS
 10
21
 20
36
 30
0
 11
21
 21
36
 31
1
  0
LINE
  8
BARS
 10
21
 20
36
 30
1
 11
21
 21
36
 31
2
  0
LINE
  8
BARS
 10
21
 20
36
 30
2
 11
21
 21
36
 31
3
  0
LINE
  8
BARS
 10
24
 20
0
 30
0
 11
24
 21
0
 31
1
  0
LINE
  8
BARS
 10
24
 20
0
 30
1
 11
24
 21
0
 31
2
  0
LINE
  8
BARS
 10
24
 20
0
 30
2
 11
24
 21
0
 31
3
  0
LINE
  8
BARS
 10
24
 20
3
 30
0
 11
24
 21
3
 31
1
  0
LINE
  8
BARS
 10
24
 20
3
 30
1
 11
24
 21
3
 31
2
  0
LINE
  8
BARS
 10
24
 20
3
 30
2
 11
24
 21
3
 31
3
  0
LINE
  8
BARS
 10
24
 20
9
 30
0
 11
24
 21
9
 31
1
  0
LINE
  8
BARS
 10
24
 20
9
 30
1
 11
24
 21
9
 31
2
  0
LINE
  8
BARS
 10
24
 20
9
 30
2
 11
24
 21
9
 31
3
  0
LINE
  8
BARS
 10
24
 20
15
 30
0
 11
24
 21
15
 31
1
  0
LINE
  8
BARS
 10
24
 20
15
 30
1
 11
24
 21
15
 31
2
  0
LINE
  8
BARS
 10
24
 20
15
 30
2
 11
24
 21
15
 31
3
  0
LINE
  8
BARS
 10
24
 20
30
 30
0
 11
24
 21
30
 31
1
  0
LINE
  8
BARS
 10
24
 20
30
 30
1
 11
24
 21
30
 31
2
  0
LINE
  8
BARS
 10
24
 20
30
 30
2
 11
24
 21
30
 31
3
  0
LINE
  8
BARS
 10
24
 20
36
 30
0
 11
24
 21
36
 31
1
  0
LINE
  8
BARS
 10
24
 20
36
 30
1
 11
24
 21
36
 31
2
  0
LINE
  8
BARS
 10
24
 20
36
 30
2
 11
24
 21
36
 31
3
  0
LINE
  8
BARS
 10
30
 20
0
 30
0
 11
30
 21
0
 31
1
  0
LINE
  8
BARS
 10
30
 20
0
 30
1
 11
30
 21
0
 31
2
  0
LINE
  8
BARS
 10
30
 20
0
 30
2
 11
30
 21
0
 31
3
  0
LINE
  8
BARS
 10
30
 20
3
 30
0
 11
30
 21
3
 31
1
  0
LINE
  8
BARS
 10
30
 20
3
 30
1
 11
30
 21
3
 31
2
  0
LINE
  8
BARS
 10
30
 20
3
 30
2
 11
30
 21
3
 31
3
  0
LINE
  8
BARS
 10
30
 20
9
 30
0
 11
30
 21
9
 31
1
  0
LINE
  8
BARS
 10
30
 20
9
 30
1
 11
30
 21
9
 31
2
  0
LINE
  8
BARS
 10
30
 20
9
 30
2
 11
30
 21
9
 31
3
  0
LINE
  8
BARS
 10
30
 20
15
 30
0
 11
30
 21
15
 31
1
  0
LINE
  8
BARS
 10
30
 20
15
 30
1
 11
30
 21
15
 31
2
  0
LINE
  8
BARS
 10
30
 20
15
 30
2
 11
30
 21
15
 31
3
  0
LINE
  8
BARS
 10
30
 20
30
 30
0
 11
30
 21
30
 31
1
  0
LINE
  8
BARS
 10
30
 20
30
 30
1
 11
30
 21
30
 31
2
  0
LINE
  8
BARS
 10
30
 20
30
 30
2
 11
30
 21
30
 31
3
  0
LINE
  8
BARS
 10
30
 20
36
 30
0
 11
30
 21
36
 31
1
  0
LINE
  8
BARS
 10
30
 20
36
 30
1
 11
30
 21
36
 31
2
  0
LINE
  8
BARS
 10
30
 20
36
 30
2
 11
30
 21
36
 31
3
  0
LINE
  8
BARS
 10
36
 20
0
 30
0
 11
36
 21
0
 31
1
  0
LINE
  8
BARS
 10
36
 20
0
 30
1
 11
36
 21
0
 31
2
  0
LINE
  8
BARS
 10
36
 20
0
 30
2
 11
36
 21
0
 31
3
  0
LINE
  8
BARS
 10
36
 20
3
 30
0
 11
36
 21
3
 31
1
  0
LINE
  8
BARS
 10
36
 20
3
 30
1
 11
36
 21
3
 31
2
  0
LINE
  8
BARS
 10
36
 20
3
 30
2
 11
36
 21
3
 31
3
  0
LINE
  8
BARS
 10
36
 20
9
 30
0
 11
36
 21
9
 31
1
  0
LINE
  8
BARS
 10
36
 20
9
 30
1
 11
36
 21
9
 31
2
  0
LINE
  8
BARS
 10
36
 20
9
 30
2
 11
36
 21
9
 31
3
  0
LINE
  8
BARS
 10
36
 20
15
 30
0
 11
36
 21
15
 31
1
  0
LINE
  8
BARS
 10
36
 20
15
 30
1
 11
36
 21
15
 31
2
  0
LINE
  8
BARS
 10
36
 20
15
 30
2
 11
36
 21
15
 31
3
  0
LINE
  8
BARS
 10
36
 20
30
 30
0
 11
36
 21
30
 31
1
  0
LINE
  8
BARS
 10
36
 20
30
 30
1
 11
36
 21
30
 31
2
  0
LINE
  8
BARS
 10
36
 20
30
 30
2
 11
36
 21
30
 31
3
  0
LINE
  8
BARS
 10
36
 20
36
 30
0
 11
36
 21
36
 31
1
  0
LINE
  8
BARS
 10
36
 20
36
 30
1
 11
36
 21
36
 31
2
  0
LINE
  8
BARS
 10
36
 20
36
 30
2
 11
36
 21
36
 31
3
  0
LINE
  8
BARS
 10
36
 20
15
 30
3
 11
36
 21
16
 31
3
  0
LINE
  8
BARS
 10
36
 20
16
 30
3
 11
36
 21
18
 31
3
  0
LINE
  8
BARS
 10
36
 20
18
 30
3
 11
36
 21
19
 31
3
  0
LINE
  8
BARS
 10
36
 20
19
 30
3
 11
36
 21
20
 31
3
  0
LINE
  8
BARS
 10
36
 20
20
 30
3
 11
36
 21
21
 31
3
  0
LINE
  8
BARS
 10
36
 20
21
 30
3
 11
36
 21
22
 31
3
  0
LINE
  8
BARS
 10
36
 20
22
 30
3
 11
36
 21
23
 31
3
  0
LINE
  8
BARS
 10
36
 20
23
 30
3
 11
36
 21
24
 31
3
  0
LINE
  8
BARS
 10
36
 20
24
 30
3
 11
36
 21
25
 31
3
  0
LINE
  8
BARS
 10
36
 20
25
 30
3
 11
36
 21
26
 31
3
  0
LINE
  8
BARS
 10
36
 20
26
 30
3
 11
36
 21
27
 31
3
  0
LINE
  8
BARS
 10
36
 20
27
 30
3
 11
36
 21
28
 31
3
  0
LINE
  8
BARS
 10
15
 20
28
 30
0
 11
16
 21
28
 31
0
  0
LINE
  8
BARS
 10
16
 20
28
 30
0
 11
17
 21
28
 31
0
  0
LINE
  8
BARS
 10
17
 20
28
 30
0
 11
19
 21
28
 31
0
  0
LINE
  8
BARS
 10
19
 20
28
 30
0
 11
20
 21
28
 31
0
  0
LINE
  8
BARS
 10
20
 20
28
 30
0
 11
21
 21
28
 31
0
  0
LINE
  8
BARS
 10
21
 20
28
 30
0
 11
22
 21
28
 31
0
  0
LINE
  8
BARS
 10
22
 20
28
 30
0
 11
23
 21
28
 31
0
  0
LINE
  8
BARS
 10
23
 20
28
 30
0
 11
24
 21
28
 31
0
  0
LINE
  8
BARS
 10
24
 20
28
 30
0
 11
25
 21
28
 31
0
  0
LINE
  8
BARS
 10
25
 20
28
 30
0
 11
26
 21
28
 31
0
  0
LINE
  8
BARS
 10
26
 20
28
 30
0
 11
28
 21
28
 31
0
  0
LINE
  8
BARS
 10
28
 20
28
 30
0
 11
29
 21
28
 31
0
  0
LINE
  8
BARS
 10
29
 20
28
 30
0
 11
30
 21
28
 31
0
  0
LINE
  8
BARS
 10
30
 20
28
 30
0
 11
31
 21
28
 31
0
  0
LINE
  8
BARS
 10
31
 20
28
 30
0
 11
32
 21
28
 31
0
  0
LINE
  8
BARS
 10
32
 20
28
 30
0
 11
33
 21
28
 31
0
  0
LINE
  8
BARS
 10
33
 20
28
 30
0
 11
34
 21
28
 31
0
  0
LINE
  8
BARS
 10
34
 20
28
 30
0
 11
35
 21
28
 31
0
  0
LINE
  8
BARS
 10
35
 20
28
 30
0
 11
36
 21
28
 31
0
  0
LINE
  8
BARS
 10
36
 20
28
 30
3
 11
36
 21
29
 31
3
  0
LINE
  8
BARS
 10
36
 20
29
 30
3
 11
36
 21
30
 31
3
  0
ENDSEC
  0
EOF
