  0
SECTION
  2
HEADER
  9
$EXTMAX
 10
0.0
 20
0.0
  9
$EXTMIN
 10
297.0
 20
297.0
  0
ENDSEC
  0
SECTION
  2
TABLES
  0
TABLE
  2
LAYER
  0
LAYER
  2
BARS
 70
64
 62
1
  6
CONTINUOUS
  0
LAYER
  2
FACES
 70
64
 62
5
  6
CONTINUOUS
  0
ENDTAB
  0
ENDSEC
  0
SECTION
  2
ENTITIES
  0
LINE
  8
BARS
 10
0
 20
0
 30
0
 11
0
 21
0
 31
3.2
  0
LINE
  8
BARS
 10
0
 20
0
 30
3.2
 11
0
 21
0
 31
6.4
  0
LINE
  8
BARS
 10
0
 20
0
 30
6.4
 11
0
 21
0
 31
9.6
  0
LINE
  8
BARS
 10
0
 20
0
 30
9.6
 11
0
 21
0
 31
12.8
  0
LINE
  8
BARS
 10
0
 20
0
 30
12.8
 11
0
 21
0
 31
16
  0
LINE
  8
BARS
 10
0
 20
0
 30
16
 11
0
 21
0
 31
19.2
  0
LINE
  8
BARS
 10
0
 20
0
 30
19.2
 11
0
 21
0
 31
22.4
  0
LINE
  8
BARS
 10
0
 20
0
 30
22.4
 11
0
 21
0
 31
25.6
  0
LINE
  8
BARS
 10
0
 20
0
 30
25.6
 11
0
 21
0
 31
28.8
  0
LINE
  8
BARS
 10
0
 20
0
 30
28.8
 11
0
 21
0
 31
32
  0
LINE
  8
BARS
 10
0
 20
0
 30
32
 11
0
 21
0
 31
35.2
  0
LINE
  8
BARS
 10
0
 20
0
 30
35.2
 11
0
 21
0
 31
38.4
  0
LINE
  8
BARS
 10
6
 20
0
 30
0
 11
6
 21
0
 31
3.2
  0
LINE
  8
BARS
 10
6
 20
0
 30
3.2
 11
6
 21
0
 31
6.4
  0
LINE
  8
BARS
 10
6
 20
0
 30
6.4
 11
6
 21
0
 31
9.6
  0
LINE
  8
BARS
 10
6
 20
0
 30
9.6
 11
6
 21
0
 31
12.8
  0
LINE
  8
BARS
 10
6
 20
0
 30
12.8
 11
6
 21
0
 31
16
  0
LINE
  8
BARS
 10
6
 20
0
 30
16
 11
6
 21
0
 31
19.2
  0
LINE
  8
BARS
 10
6
 20
0
 30
19.2
 11
6
 21
0
 31
22.4
  0
LINE
  8
BARS
 10
6
 20
0
 30
22.4
 11
6
 21
0
 31
25.6
  0
LINE
  8
BARS
 10
6
 20
0
 30
25.6
 11
6
 21
0
 31
28.8
  0
LINE
  8
BARS
 10
6
 20
0
 30
28.8
 11
6
 21
0
 31
32
  0
LINE
  8
BARS
 10
6
 20
0
 30
32
 11
6
 21
0
 31
35.2
  0
LINE
  8
BARS
 10
6
 20
0
 30
35.2
 11
6
 21
0
 31
38.4
  0
LINE
  8
BARS
 10
12
 20
0
 30
0
 11
12
 21
0
 31
3.2
  0
LINE
  8
BARS
 10
12
 20
0
 30
3.2
 11
12
 21
0
 31
6.4
  0
LINE
  8
BARS
 10
12
 20
0
 30
6.4
 11
12
 21
0
 31
9.6
  0
LINE
  8
BARS
 10
12
 20
0
 30
9.6
 11
12
 21
0
 31
12.8
  0
LINE
  8
BARS
 10
12
 20
0
 30
12.8
 11
12
 21
0
 31
16
  0
LINE
  8
BARS
 10
12
 20
0
 30
16
 11
12
 21
0
 31
19.2
  0
LINE
  8
BARS
 10
12
 20
0
 30
19.2
 11
12
 21
0
 31
22.4
  0
LINE
  8
BARS
 10
12
 20
0
 30
22.4
 11
12
 21
0
 31
25.6
  0
LINE
  8
BARS
 10
12
 20
0
 30
25.6
 11
12
 21
0
 31
28.8
  0
LINE
  8
BARS
 10
12
 20
0
 30
28.8
 11
12
 21
0
 31
32
  0
LINE
  8
BARS
 10
12
 20
0
 30
32
 11
12
 21
0
 31
35.2
  0
LINE
  8
BARS
 10
12
 20
0
 30
35.2
 11
12
 21
0
 31
38.4
  0
LINE
  8
BARS
 10
18
 20
0
 30
0
 11
18
 21
0
 31
3.2
  0
LINE
  8
BARS
 10
18
 20
0
 30
3.2
 11
18
 21
0
 31
6.4
  0
LINE
  8
BARS
 10
18
 20
0
 30
6.4
 11
18
 21
0
 31
9.6
  0
LINE
  8
BARS
 10
18
 20
0
 30
9.6
 11
18
 21
0
 31
12.8
  0
LINE
  8
BARS
 10
18
 20
0
 30
12.8
 11
18
 21
0
 31
16
  0
LINE
  8
BARS
 10
24
 20
0
 30
0
 11
24
 21
0
 31
3.2
  0
LINE
  8
BARS
 10
24
 20
0
 30
3.2
 11
24
 21
0
 31
6.4
  0
LINE
  8
BARS
 10
24
 20
0
 30
6.4
 11
24
 21
0
 31
9.6
  0
LINE
  8
BARS
 10
24
 20
0
 30
9.6
 11
24
 21
0
 31
12.8
  0
LINE
  8
BARS
 10
24
 20
0
 30
12.8
 11
24
 21
0
 31
16
  0
LINE
  8
BARS
 10
84
 20
0
 30
0
 11
84
 21
0
 31
3.2
  0
LINE
  8
BARS
 10
84
 20
0
 30
3.2
 11
84
 21
0
 31
6.4
  0
LINE
  8
BARS
 10
84
 20
0
 30
6.4
 11
84
 21
0
 31
9.6
  0
LINE
  8
BARS
 10
84
 20
0
 30
9.6
 11
84
 21
0
 31
12.8
  0
LINE
  8
BARS
 10
84
 20
0
 30
12.8
 11
84
 21
0
 31
16
  0
LINE
  8
BARS
 10
90
 20
0
 30
0
 11
90
 21
0
 31
3.2
  0
LINE
  8
BARS
 10
90
 20
0
 30
3.2
 11
90
 21
0
 31
6.4
  0
LINE
  8
BARS
 10
90
 20
0
 30
6.4
 11
90
 21
0
 31
9.6
  0
LINE
  8
BARS
 10
90
 20
0
 30
9.6
 11
90
 21
0
 31
12.8
  0
LINE
  8
BARS
 10
90
 20
0
 30
12.8
 11
90
 21
0
 31
16
  0
LINE
  8
BARS
 10
96
 20
0
 30
0
 11
96
 21
0
 31
3.2
  0
LINE
  8
BARS
 10
96
 20
0
 30
3.2
 11
96
 21
0
 31
6.4
  0
LINE
  8
BARS
 10
96
 20
0
 30
6.4
 11
96
 21
0
 31
9.6
  0
LINE
  8
BARS
 10
96
 20
0
 30
9.6
 11
96
 21
0
 31
12.8
  0
LINE
  8
BARS
 10
96
 20
0
 30
12.8
 11
96
 21
0
 31
16
  0
LINE
  8
BARS
 10
102
 20
0
 30
0
 11
102
 21
0
 31
3.2
  0
LINE
  8
BARS
 10
102
 20
0
 30
3.2
 11
102
 21
0
 31
6.4
  0
LINE
  8
BARS
 10
108
 20
0
 30
0
 11
108
 21
0
 31
3.2
  0
LINE
  8
BARS
 10
108
 20
0
 30
3.2
 11
108
 21
0
 31
6.4
  0
LINE
  8
BARS
 10
114
 20
0
 30
0
 11
114
 21
0
 31
3.2
  0
LINE
  8
BARS
 10
114
 20
0
 30
3.2
 11
114
 21
0
 31
6.4
  0
LINE
  8
BARS
 10
120
 20
0
 30
0
 11
120
 21
0
 31
3.2
  0
LINE
  8
BARS
 10
120
 20
0
 30
3.2
 11
120
 21
0
 31
6.4
  0
LINE
  8
BARS
 10
126
 20
0
 30
0
 11
126
 21
0
 31
3.2
  0
LINE
  8
BARS
 10
126
 20
0
 30
3.2
 11
126
 21
0
 31
6.4
  0
LINE
  8
BARS
 10
132
 20
0
 30
0
 11
132
 21
0
 31
3.2
  0
LINE
  8
BARS
 10
132
 20
0
 30
3.2
 11
132
 21
0
 31
6.4
  0
LINE
  8
BARS
 10
0
 20
0
 30
3.2
 11
6
 21
0
 31
3.2
  0
LINE
  8
BARS
 10
6
 20
0
 30
3.2
 11
12
 21
0
 31
3.2
  0
LINE
  8
BARS
 10
12
 20
0
 30
3.2
 11
18
 21
0
 31
3.2
  0
LINE
  8
BARS
 10
18
 20
0
 30
3.2
 11
24
 21
0
 31
3.2
  0
LINE
  8
BARS
 10
84
 20
0
 30
3.2
 11
90
 21
0
 31
3.2
  0
LINE
  8
BARS
 10
90
 20
0
 30
3.2
 11
96
 21
0
 31
3.2
  0
LINE
  8
BARS
 10
96
 20
0
 30
3.2
 11
102
 21
0
 31
3.2
  0
LINE
  8
BARS
 10
102
 20
0
 30
3.2
 11
108
 21
0
 31
3.2
  0
LINE
  8
BARS
 10
108
 20
0
 30
3.2
 11
114
 21
0
 31
3.2
  0
LINE
  8
BARS
 10
114
 20
0
 30
3.2
 11
120
 21
0
 31
3.2
  0
LINE
  8
BARS
 10
120
 20
0
 30
3.2
 11
126
 21
0
 31
3.2
  0
LINE
  8
BARS
 10
126
 20
0
 30
3.2
 11
132
 21
0
 31
3.2
  0
LINE
  8
BARS
 10
0
 20
0
 30
6.4
 11
6
 21
0
 31
6.4
  0
LINE
  8
BARS
 10
6
 20
0
 30
6.4
 11
12
 21
0
 31
6.4
  0
LINE
  8
BARS
 10
12
 20
0
 30
6.4
 11
18
 21
0
 31
6.4
  0
LINE
  8
BARS
 10
18
 20
0
 30
6.4
 11
24
 21
0
 31
6.4
  0
LINE
  8
BARS
 10
84
 20
0
 30
6.4
 11
90
 21
0
 31
6.4
  0
LINE
  8
BARS
 10
90
 20
0
 30
6.4
 11
96
 21
0
 31
6.4
  0
LINE
  8
BARS
 10
96
 20
0
 30
6.4
 11
102
 21
0
 31
6.4
  0
LINE
  8
BARS
 10
102
 20
0
 30
6.4
 11
108
 21
0
 31
6.4
  0
LINE
  8
BARS
 10
108
 20
0
 30
6.4
 11
114
 21
0
 31
6.4
  0
LINE
  8
BARS
 10
114
 20
0
 30
6.4
 11
120
 21
0
 31
6.4
  0
LINE
  8
BARS
 10
120
 20
0
 30
6.4
 11
126
 21
0
 31
6.4
  0
LINE
  8
BARS
 10
126
 20
0
 30
6.4
 11
132
 21
0
 31
6.4
  0
LINE
  8
BARS
 10
0
 20
0
 30
9.6
 11
6
 21
0
 31
9.6
  0
LINE
  8
BARS
 10
6
 20
0
 30
9.6
 11
12
 21
0
 31
9.6
  0
LINE
  8
BARS
 10
12
 20
0
 30
9.6
 11
18
 21
0
 31
9.6
  0
LINE
  8
BARS
 10
18
 20
0
 30
9.6
 11
24
 21
0
 31
9.6
  0
LINE
  8
BARS
 10
84
 20
0
 30
9.6
 11
90
 21
0
 31
9.6
  0
LINE
  8
BARS
 10
90
 20
0
 30
9.6
 11
96
 21
0
 31
9.6
  0
LINE
  8
BARS
 10
0
 20
0
 30
12.8
 11
6
 21
0
 31
12.8
  0
LINE
  8
BARS
 10
6
 20
0
 30
12.8
 11
12
 21
0
 31
12.8
  0
LINE
  8
BARS
 10
12
 20
0
 30
12.8
 11
18
 21
0
 31
12.8
  0
LINE
  8
BARS
 10
18
 20
0
 30
12.8
 11
24
 21
0
 31
12.8
  0
LINE
  8
BARS
 10
84
 20
0
 30
12.8
 11
90
 21
0
 31
12.8
  0
LINE
  8
BARS
 10
90
 20
0
 30
12.8
 11
96
 21
0
 31
12.8
  0
LINE
  8
BARS
 10
0
 20
0
 30
16
 11
6
 21
0
 31
16
  0
LINE
  8
BARS
 10
6
 20
0
 30
16
 11
12
 21
0
 31
16
  0
LINE
  8
BARS
 10
12
 20
0
 30
16
 11
18
 21
0
 31
16
  0
LINE
  8
BARS
 10
18
 20
0
 30
16
 11
24
 21
0
 31
16
  0
LINE
  8
BARS
 10
84
 20
0
 30
16
 11
90
 21
0
 31
16
  0
LINE
  8
BARS
 10
90
 20
0
 30
16
 11
96
 21
0
 31
16
  0
LINE
  8
BARS
 10
0
 20
0
 30
19.2
 11
6
 21
0
 31
19.2
  0
LINE
  8
BARS
 10
6
 20
0
 30
19.2
 11
12
 21
0
 31
19.2
  0
LINE
  8
BARS
 10
0
 20
0
 30
22.4
 11
6
 21
0
 31
22.4
  0
LINE
  8
BARS
 10
6
 20
0
 30
22.4
 11
12
 21
0
 31
22.4
  0
LINE
  8
BARS
 10
0
 20
0
 30
25.6
 11
6
 21
0
 31
25.6
  0
LINE
  8
BARS
 10
6
 20
0
 30
25.6
 11
12
 21
0
 31
25.6
  0
LINE
  8
BARS
 10
0
 20
0
 30
28.8
 11
6
 21
0
 31
28.8
  0
LINE
  8
BARS
 10
6
 20
0
 30
28.8
 11
12
 21
0
 31
28.8
  0
LINE
  8
BARS
 10
0
 20
0
 30
32
 11
6
 21
0
 31
32
  0
LINE
  8
BARS
 10
6
 20
0
 30
32
 11
12
 21
0
 31
32
  0
LINE
  8
BARS
 10
0
 20
0
 30
35.2
 11
6
 21
0
 31
35.2
  0
LINE
  8
BARS
 10
6
 20
0
 30
35.2
 11
12
 21
0
 31
35.2
  0
LINE
  8
BARS
 10
0
 20
0
 30
38.4
 11
6
 21
0
 31
38.4
  0
LINE
  8
BARS
 10
6
 20
0
 30
38.4
 11
12
 21
0
 31
38.4
  0
LINE
  8
BARS
 10
24
 20
0
 30
16
 11
31.5
 21
0
 31
19
  0
LINE
  8
BARS
 10
31.5
 20
0
 30
19
 11
39
 21
0
 31
21
  0
LINE
  8
BARS
 10
39
 20
0
 30
21
 11
46.5
 21
0
 31
22
  0
LINE
  8
BARS
 10
46.5
 20
0
 30
22
 11
54
 21
0
 31
22
  0
LINE
  8
BARS
 10
54
 20
0
 30
22
 11
61.5
 21
0
 31
22
  0
LINE
  8
BARS
 10
61.5
 20
0
 30
22
 11
69
 21
0
 31
21
  0
LINE
  8
BARS
 10
69
 20
0
 30
21
 11
76.5
 21
0
 31
19
  0
LINE
  8
BARS
 10
76.5
 20
0
 30
19
 11
84
 21
0
 31
16
  0
LINE
  8
BARS
 10
0
 20
6
 30
0
 11
0
 21
6
 31
3.2
  0
LINE
  8
BARS
 10
0
 20
6
 30
3.2
 11
0
 21
6
 31
6.4
  0
LINE
  8
BARS
 10
0
 20
6
 30
6.4
 11
0
 21
6
 31
9.6
  0
LINE
  8
BARS
 10
0
 20
6
 30
9.6
 11
0
 21
6
 31
12.8
  0
LINE
  8
BARS
 10
0
 20
6
 30
12.8
 11
0
 21
6
 31
16
  0
LINE
  8
BARS
 10
0
 20
6
 30
16
 11
0
 21
6
 31
19.2
  0
LINE
  8
BARS
 10
0
 20
6
 30
19.2
 11
0
 21
6
 31
22.4
  0
LINE
  8
BARS
 10
0
 20
6
 30
22.4
 11
0
 21
6
 31
25.6
  0
LINE
  8
BARS
 10
0
 20
6
 30
25.6
 11
0
 21
6
 31
28.8
  0
LINE
  8
BARS
 10
0
 20
6
 30
28.8
 11
0
 21
6
 31
32
  0
LINE
  8
BARS
 10
0
 20
6
 30
32
 11
0
 21
6
 31
35.2
  0
LINE
  8
BARS
 10
0
 20
6
 30
35.2
 11
0
 21
6
 31
38.4
  0
LINE
  8
BARS
 10
6
 20
6
 30
0
 11
6
 21
6
 31
3.2
  0
LINE
  8
BARS
 10
6
 20
6
 30
3.2
 11
6
 21
6
 31
6.4
  0
LINE
  8
BARS
 10
6
 20
6
 30
6.4
 11
6
 21
6
 31
9.6
  0
LINE
  8
BARS
 10
6
 20
6
 30
9.6
 11
6
 21
6
 31
12.8
  0
LINE
  8
BARS
 10
6
 20
6
 30
12.8
 11
6
 21
6
 31
16
  0
LINE
  8
BARS
 10
6
 20
6
 30
16
 11
6
 21
6
 31
19.2
  0
LINE
  8
BARS
 10
6
 20
6
 30
19.2
 11
6
 21
6
 31
22.4
  0
LINE
  8
BARS
 10
6
 20
6
 30
22.4
 11
6
 21
6
 31
25.6
  0
LINE
  8
BARS
 10
6
 20
6
 30
25.6
 11
6
 21
6
 31
28.8
  0
LINE
  8
BARS
 10
6
 20
6
 30
28.8
 11
6
 21
6
 31
32
  0
LINE
  8
BARS
 10
6
 20
6
 30
32
 11
6
 21
6
 31
35.2
  0
LINE
  8
BARS
 10
6
 20
6
 30
35.2
 11
6
 21
6
 31
38.4
  0
LINE
  8
BARS
 10
12
 20
6
 30
0
 11
12
 21
6
 31
3.2
  0
LINE
  8
BARS
 10
12
 20
6
 30
3.2
 11
12
 21
6
 31
6.4
  0
LINE
  8
BARS
 10
12
 20
6
 30
6.4
 11
12
 21
6
 31
9.6
  0
LINE
  8
BARS
 10
12
 20
6
 30
9.6
 11
12
 21
6
 31
12.8
  0
LINE
  8
BARS
 10
12
 20
6
 30
12.8
 11
12
 21
6
 31
16
  0
LINE
  8
BARS
 10
12
 20
6
 30
16
 11
12
 21
6
 31
19.2
  0
LINE
  8
BARS
 10
12
 20
6
 30
19.2
 11
12
 21
6
 31
22.4
  0
LINE
  8
BARS
 10
12
 20
6
 30
22.4
 11
12
 21
6
 31
25.6
  0
LINE
  8
BARS
 10
12
 20
6
 30
25.6
 11
12
 21
6
 31
28.8
  0
LINE
  8
BARS
 10
12
 20
6
 30
28.8
 11
12
 21
6
 31
32
  0
LINE
  8
BARS
 10
12
 20
6
 30
32
 11
12
 21
6
 31
35.2
  0
LINE
  8
BARS
 10
12
 20
6
 30
35.2
 11
12
 21
6
 31
38.4
  0
LINE
  8
BARS
 10
18
 20
6
 30
0
 11
18
 21
6
 31
3.2
  0
LINE
  8
BARS
 10
18
 20
6
 30
3.2
 11
18
 21
6
 31
6.4
  0
LINE
  8
BARS
 10
18
 20
6
 30
6.4
 11
18
 21
6
 31
9.6
  0
LINE
  8
BARS
 10
18
 20
6
 30
9.6
 11
18
 21
6
 31
12.8
  0
LINE
  8
BARS
 10
18
 20
6
 30
12.8
 11
18
 21
6
 31
16
  0
LINE
  8
BARS
 10
24
 20
6
 30
0
 11
24
 21
6
 31
3.2
  0
LINE
  8
BARS
 10
24
 20
6
 30
3.2
 11
24
 21
6
 31
6.4
  0
LINE
  8
BARS
 10
24
 20
6
 30
6.4
 11
24
 21
6
 31
9.6
  0
LINE
  8
BARS
 10
24
 20
6
 30
9.6
 11
24
 21
6
 31
12.8
  0
LINE
  8
BARS
 10
24
 20
6
 30
12.8
 11
24
 21
6
 31
16
  0
LINE
  8
BARS
 10
84
 20
6
 30
0
 11
84
 21
6
 31
3.2
  0
LINE
  8
BARS
 10
84
 20
6
 30
3.2
 11
84
 21
6
 31
6.4
  0
LINE
  8
BARS
 10
84
 20
6
 30
6.4
 11
84
 21
6
 31
9.6
  0
LINE
  8
BARS
 10
84
 20
6
 30
9.6
 11
84
 21
6
 31
12.8
  0
LINE
  8
BARS
 10
84
 20
6
 30
12.8
 11
84
 21
6
 31
16
  0
LINE
  8
BARS
 10
90
 20
6
 30
0
 11
90
 21
6
 31
3.2
  0
LINE
  8
BARS
 10
90
 20
6
 30
3.2
 11
90
 21
6
 31
6.4
  0
LINE
  8
BARS
 10
90
 20
6
 30
6.4
 11
90
 21
6
 31
9.6
  0
LINE
  8
BARS
 10
90
 20
6
 30
9.6
 11
90
 21
6
 31
12.8
  0
LINE
  8
BARS
 10
90
 20
6
 30
12.8
 11
90
 21
6
 31
16
  0
LINE
  8
BARS
 10
96
 20
6
 30
0
 11
96
 21
6
 31
3.2
  0
LINE
  8
BARS
 10
96
 20
6
 30
3.2
 11
96
 21
6
 31
6.4
  0
LINE
  8
BARS
 10
96
 20
6
 30
6.4
 11
96
 21
6
 31
9.6
  0
LINE
  8
BARS
 10
96
 20
6
 30
9.6
 11
96
 21
6
 31
12.8
  0
LINE
  8
BARS
 10
96
 20
6
 30
12.8
 11
96
 21
6
 31
16
  0
LINE
  8
BARS
 10
102
 20
6
 30
0
 11
102
 21
6
 31
3.2
  0
LINE
  8
BARS
 10
102
 20
6
 30
3.2
 11
102
 21
6
 31
6.4
  0
LINE
  8
BARS
 10
108
 20
6
 30
0
 11
108
 21
6
 31
3.2
  0
LINE
  8
BARS
 10
108
 20
6
 30
3.2
 11
108
 21
6
 31
6.4
  0
LINE
  8
BARS
 10
114
 20
6
 30
0
 11
114
 21
6
 31
3.2
  0
LINE
  8
BARS
 10
114
 20
6
 30
3.2
 11
114
 21
6
 31
6.4
  0
LINE
  8
BARS
 10
120
 20
6
 30
0
 11
120
 21
6
 31
3.2
  0
LINE
  8
BARS
 10
120
 20
6
 30
3.2
 11
120
 21
6
 31
6.4
  0
LINE
  8
BARS
 10
126
 20
6
 30
0
 11
126
 21
6
 31
3.2
  0
LINE
  8
BARS
 10
126
 20
6
 30
3.2
 11
126
 21
6
 31
6.4
  0
LINE
  8
BARS
 10
132
 20
6
 30
0
 11
132
 21
6
 31
3.2
  0
LINE
  8
BARS
 10
132
 20
6
 30
3.2
 11
132
 21
6
 31
6.4
  0
LINE
  8
BARS
 10
0
 20
6
 30
3.2
 11
6
 21
6
 31
3.2
  0
LINE
  8
BARS
 10
6
 20
6
 30
3.2
 11
12
 21
6
 31
3.2
  0
LINE
  8
BARS
 10
12
 20
6
 30
3.2
 11
18
 21
6
 31
3.2
  0
LINE
  8
BARS
 10
18
 20
6
 30
3.2
 11
24
 21
6
 31
3.2
  0
LINE
  8
BARS
 10
84
 20
6
 30
3.2
 11
90
 21
6
 31
3.2
  0
LINE
  8
BARS
 10
90
 20
6
 30
3.2
 11
96
 21
6
 31
3.2
  0
LINE
  8
BARS
 10
96
 20
6
 30
3.2
 11
102
 21
6
 31
3.2
  0
LINE
  8
BARS
 10
102
 20
6
 30
3.2
 11
108
 21
6
 31
3.2
  0
LINE
  8
BARS
 10
108
 20
6
 30
3.2
 11
114
 21
6
 31
3.2
  0
LINE
  8
BARS
 10
114
 20
6
 30
3.2
 11
120
 21
6
 31
3.2
  0
LINE
  8
BARS
 10
120
 20
6
 30
3.2
 11
126
 21
6
 31
3.2
  0
LINE
  8
BARS
 10
126
 20
6
 30
3.2
 11
132
 21
6
 31
3.2
  0
LINE
  8
BARS
 10
0
 20
6
 30
6.4
 11
6
 21
6
 31
6.4
  0
LINE
  8
BARS
 10
6
 20
6
 30
6.4
 11
12
 21
6
 31
6.4
  0
LINE
  8
BARS
 10
12
 20
6
 30
6.4
 11
18
 21
6
 31
6.4
  0
LINE
  8
BARS
 10
18
 20
6
 30
6.4
 11
24
 21
6
 31
6.4
  0
LINE
  8
BARS
 10
84
 20
6
 30
6.4
 11
90
 21
6
 31
6.4
  0
LINE
  8
BARS
 10
90
 20
6
 30
6.4
 11
96
 21
6
 31
6.4
  0
LINE
  8
BARS
 10
96
 20
6
 30
6.4
 11
102
 21
6
 31
6.4
  0
LINE
  8
BARS
 10
102
 20
6
 30
6.4
 11
108
 21
6
 31
6.4
  0
LINE
  8
BARS
 10
108
 20
6
 30
6.4
 11
114
 21
6
 31
6.4
  0
LINE
  8
BARS
 10
114
 20
6
 30
6.4
 11
120
 21
6
 31
6.4
  0
LINE
  8
BARS
 10
120
 20
6
 30
6.4
 11
126
 21
6
 31
6.4
  0
LINE
  8
BARS
 10
126
 20
6
 30
6.4
 11
132
 21
6
 31
6.4
  0
LINE
  8
BARS
 10
0
 20
6
 30
9.6
 11
6
 21
6
 31
9.6
  0
LINE
  8
BARS
 10
6
 20
6
 30
9.6
 11
12
 21
6
 31
9.6
  0
LINE
  8
BARS
 10
12
 20
6
 30
9.6
 11
18
 21
6
 31
9.6
  0
LINE
  8
BARS
 10
18
 20
6
 30
9.6
 11
24
 21
6
 31
9.6
  0
LINE
  8
BARS
 10
84
 20
6
 30
9.6
 11
90
 21
6
 31
9.6
  0
LINE
  8
BARS
 10
90
 20
6
 30
9.6
 11
96
 21
6
 31
9.6
  0
LINE
  8
BARS
 10
0
 20
6
 30
12.8
 11
6
 21
6
 31
12.8
  0
LINE
  8
BARS
 10
6
 20
6
 30
12.8
 11
12
 21
6
 31
12.8
  0
LINE
  8
BARS
 10
12
 20
6
 30
12.8
 11
18
 21
6
 31
12.8
  0
LINE
  8
BARS
 10
18
 20
6
 30
12.8
 11
24
 21
6
 31
12.8
  0
LINE
  8
BARS
 10
84
 20
6
 30
12.8
 11
90
 21
6
 31
12.8
  0
LINE
  8
BARS
 10
90
 20
6
 30
12.8
 11
96
 21
6
 31
12.8
  0
LINE
  8
BARS
 10
0
 20
6
 30
16
 11
6
 21
6
 31
16
  0
LINE
  8
BARS
 10
6
 20
6
 30
16
 11
12
 21
6
 31
16
  0
LINE
  8
BARS
 10
12
 20
6
 30
16
 11
18
 21
6
 31
16
  0
LINE
  8
BARS
 10
18
 20
6
 30
16
 11
24
 21
6
 31
16
  0
LINE
  8
BARS
 10
84
 20
6
 30
16
 11
90
 21
6
 31
16
  0
LINE
  8
BARS
 10
90
 20
6
 30
16
 11
96
 21
6
 31
16
  0
LINE
  8
BARS
 10
0
 20
6
 30
19.2
 11
6
 21
6
 31
19.2
  0
LINE
  8
BARS
 10
6
 20
6
 30
19.2
 11
12
 21
6
 31
19.2
  0
LINE
  8
BARS
 10
0
 20
6
 30
22.4
 11
6
 21
6
 31
22.4
  0
LINE
  8
BARS
 10
6
 20
6
 30
22.4
 11
12
 21
6
 31
22.4
  0
LINE
  8
BARS
 10
0
 20
6
 30
25.6
 11
6
 21
6
 31
25.6
  0
LINE
  8
BARS
 10
6
 20
6
 30
25.6
 11
12
 21
6
 31
25.6
  0
LINE
  8
BARS
 10
0
 20
6
 30
28.8
 11
6
 21
6
 31
28.8
  0
LINE
  8
BARS
 10
6
 20
6
 30
28.8
 11
12
 21
6
 31
28.8
  0
LINE
  8
BARS
 10
0
 20
6
 30
32
 11
6
 21
6
 31
32
  0
LINE
  8
BARS
 10
6
 20
6
 30
32
 11
12
 21
6
 31
32
  0
LINE
  8
BARS
 10
0
 20
6
 30
35.2
 11
6
 21
6
 31
35.2
  0
LINE
  8
BARS
 10
6
 20
6
 30
35.2
 11
12
 21
6
 31
35.2
  0
LINE
  8
BARS
 10
0
 20
6
 30
38.4
 11
6
 21
6
 31
38.4
  0
LINE
  8
BARS
 10
6
 20
6
 30
38.4
 11
12
 21
6
 31
38.4
  0
LINE
  8
BARS
 10
24
 20
6
 30
16
 11
31.5
 21
6
 31
19
  0
LINE
  8
BARS
 10
31.5
 20
6
 30
19
 11
39
 21
6
 31
21
  0
LINE
  8
BARS
 10
39
 20
6
 30
21
 11
46.5
 21
6
 31
22
  0
LINE
  8
BARS
 10
46.5
 20
6
 30
22
 11
54
 21
6
 31
22
  0
LINE
  8
BARS
 10
54
 20
6
 30
22
 11
61.5
 21
6
 31
22
  0
LINE
  8
BARS
 10
61.5
 20
6
 30
22
 11
69
 21
6
 31
21
  0
LINE
  8
BARS
 10
69
 20
6
 30
21
 11
76.5
 21
6
 31
19
  0
LINE
  8
BARS
 10
76.5
 20
6
 30
19
 11
84
 21
6
 31
16
  0
LINE
  8
BARS
 10
0
 20
12
 30
0
 11
0
 21
12
 31
3.2
  0
LINE
  8
BARS
 10
0
 20
12
 30
3.2
 11
0
 21
12
 31
6.4
  0
LINE
  8
BARS
 10
0
 20
12
 30
6.4
 11
0
 21
12
 31
9.6
  0
LINE
  8
BARS
 10
0
 20
12
 30
9.6
 11
0
 21
12
 31
12.8
  0
LINE
  8
BARS
 10
0
 20
12
 30
12.8
 11
0
 21
12
 31
16
  0
LINE
  8
BARS
 10
0
 20
12
 30
16
 11
0
 21
12
 31
19.2
  0
LINE
  8
BARS
 10
0
 20
12
 30
19.2
 11
0
 21
12
 31
22.4
  0
LINE
  8
BARS
 10
0
 20
12
 30
22.4
 11
0
 21
12
 31
25.6
  0
LINE
  8
BARS
 10
0
 20
12
 30
25.6
 11
0
 21
12
 31
28.8
  0
LINE
  8
BARS
 10
0
 20
12
 30
28.8
 11
0
 21
12
 31
32
  0
LINE
  8
BARS
 10
0
 20
12
 30
32
 11
0
 21
12
 31
35.2
  0
LINE
  8
BARS
 10
0
 20
12
 30
35.2
 11
0
 21
12
 31
38.4
  0
LINE
  8
BARS
 10
6
 20
12
 30
0
 11
6
 21
12
 31
3.2
  0
LINE
  8
BARS
 10
6
 20
12
 30
3.2
 11
6
 21
12
 31
6.4
  0
LINE
  8
BARS
 10
6
 20
12
 30
6.4
 11
6
 21
12
 31
9.6
  0
LINE
  8
BARS
 10
6
 20
12
 30
9.6
 11
6
 21
12
 31
12.8
  0
LINE
  8
BARS
 10
6
 20
12
 30
12.8
 11
6
 21
12
 31
16
  0
LINE
  8
BARS
 10
6
 20
12
 30
16
 11
6
 21
12
 31
19.2
  0
LINE
  8
BARS
 10
6
 20
12
 30
19.2
 11
6
 21
12
 31
22.4
  0
LINE
  8
BARS
 10
6
 20
12
 30
22.4
 11
6
 21
12
 31
25.6
  0
LINE
  8
BARS
 10
6
 20
12
 30
25.6
 11
6
 21
12
 31
28.8
  0
LINE
  8
BARS
 10
6
 20
12
 30
28.8
 11
6
 21
12
 31
32
  0
LINE
  8
BARS
 10
6
 20
12
 30
32
 11
6
 21
12
 31
35.2
  0
LINE
  8
BARS
 10
6
 20
12
 30
35.2
 11
6
 21
12
 31
38.4
  0
LINE
  8
BARS
 10
12
 20
12
 30
0
 11
12
 21
12
 31
3.2
  0
LINE
  8
BARS
 10
12
 20
12
 30
3.2
 11
12
 21
12
 31
6.4
  0
LINE
  8
BARS
 10
12
 20
12
 30
6.4
 11
12
 21
12
 31
9.6
  0
LINE
  8
BARS
 10
12
 20
12
 30
9.6
 11
12
 21
12
 31
12.8
  0
LINE
  8
BARS
 10
12
 20
12
 30
12.8
 11
12
 21
12
 31
16
  0
LINE
  8
BARS
 10
12
 20
12
 30
16
 11
12
 21
12
 31
19.2
  0
LINE
  8
BARS
 10
12
 20
12
 30
19.2
 11
12
 21
12
 31
22.4
  0
LINE
  8
BARS
 10
12
 20
12
 30
22.4
 11
12
 21
12
 31
25.6
  0
LINE
  8
BARS
 10
12
 20
12
 30
25.6
 11
12
 21
12
 31
28.8
  0
LINE
  8
BARS
 10
12
 20
12
 30
28.8
 11
12
 21
12
 31
32
  0
LINE
  8
BARS
 10
12
 20
12
 30
32
 11
12
 21
12
 31
35.2
  0
LINE
  8
BARS
 10
12
 20
12
 30
35.2
 11
12
 21
12
 31
38.4
  0
LINE
  8
BARS
 10
18
 20
12
 30
0
 11
18
 21
12
 31
3.2
  0
LINE
  8
BARS
 10
18
 20
12
 30
3.2
 11
18
 21
12
 31
6.4
  0
LINE
  8
BARS
 10
18
 20
12
 30
6.4
 11
18
 21
12
 31
9.6
  0
LINE
  8
BARS
 10
18
 20
12
 30
9.6
 11
18
 21
12
 31
12.8
  0
LINE
  8
BARS
 10
18
 20
12
 30
12.8
 11
18
 21
12
 31
16
  0
LINE
  8
BARS
 10
24
 20
12
 30
0
 11
24
 21
12
 31
3.2
  0
LINE
  8
BARS
 10
24
 20
12
 30
3.2
 11
24
 21
12
 31
6.4
  0
LINE
  8
BARS
 10
24
 20
12
 30
6.4
 11
24
 21
12
 31
9.6
  0
LINE
  8
BARS
 10
24
 20
12
 30
9.6
 11
24
 21
12
 31
12.8
  0
LINE
  8
BARS
 10
24
 20
12
 30
12.8
 11
24
 21
12
 31
16
  0
LINE
  8
BARS
 10
84
 20
12
 30
0
 11
84
 21
12
 31
3.2
  0
LINE
  8
BARS
 10
84
 20
12
 30
3.2
 11
84
 21
12
 31
6.4
  0
LINE
  8
BARS
 10
84
 20
12
 30
6.4
 11
84
 21
12
 31
9.6
  0
LINE
  8
BARS
 10
84
 20
12
 30
9.6
 11
84
 21
12
 31
12.8
  0
LINE
  8
BARS
 10
84
 20
12
 30
12.8
 11
84
 21
12
 31
16
  0
LINE
  8
BARS
 10
90
 20
12
 30
0
 11
90
 21
12
 31
3.2
  0
LINE
  8
BARS
 10
90
 20
12
 30
3.2
 11
90
 21
12
 31
6.4
  0
LINE
  8
BARS
 10
90
 20
12
 30
6.4
 11
90
 21
12
 31
9.6
  0
LINE
  8
BARS
 10
90
 20
12
 30
9.6
 11
90
 21
12
 31
12.8
  0
LINE
  8
BARS
 10
90
 20
12
 30
12.8
 11
90
 21
12
 31
16
  0
LINE
  8
BARS
 10
96
 20
12
 30
0
 11
96
 21
12
 31
3.2
  0
LINE
  8
BARS
 10
96
 20
12
 30
3.2
 11
96
 21
12
 31
6.4
  0
LINE
  8
BARS
 10
96
 20
12
 30
6.4
 11
96
 21
12
 31
9.6
  0
LINE
  8
BARS
 10
96
 20
12
 30
9.6
 11
96
 21
12
 31
12.8
  0
LINE
  8
BARS
 10
96
 20
12
 30
12.8
 11
96
 21
12
 31
16
  0
LINE
  8
BARS
 10
102
 20
12
 30
0
 11
102
 21
12
 31
3.2
  0
LINE
  8
BARS
 10
102
 20
12
 30
3.2
 11
102
 21
12
 31
6.4
  0
LINE
  8
BARS
 10
108
 20
12
 30
0
 11
108
 21
12
 31
3.2
  0
LINE
  8
BARS
 10
108
 20
12
 30
3.2
 11
108
 21
12
 31
6.4
  0
LINE
  8
BARS
 10
114
 20
12
 30
0
 11
114
 21
12
 31
3.2
  0
LINE
  8
BARS
 10
114
 20
12
 30
3.2
 11
114
 21
12
 31
6.4
  0
LINE
  8
BARS
 10
120
 20
12
 30
0
 11
120
 21
12
 31
3.2
  0
LINE
  8
BARS
 10
120
 20
12
 30
3.2
 11
120
 21
12
 31
6.4
  0
LINE
  8
BARS
 10
126
 20
12
 30
0
 11
126
 21
12
 31
3.2
  0
LINE
  8
BARS
 10
126
 20
12
 30
3.2
 11
126
 21
12
 31
6.4
  0
LINE
  8
BARS
 10
132
 20
12
 30
0
 11
132
 21
12
 31
3.2
  0
LINE
  8
BARS
 10
132
 20
12
 30
3.2
 11
132
 21
12
 31
6.4
  0
LINE
  8
BARS
 10
0
 20
12
 30
3.2
 11
6
 21
12
 31
3.2
  0
LINE
  8
BARS
 10
6
 20
12
 30
3.2
 11
12
 21
12
 31
3.2
  0
LINE
  8
BARS
 10
12
 20
12
 30
3.2
 11
18
 21
12
 31
3.2
  0
LINE
  8
BARS
 10
18
 20
12
 30
3.2
 11
24
 21
12
 31
3.2
  0
LINE
  8
BARS
 10
84
 20
12
 30
3.2
 11
90
 21
12
 31
3.2
  0
LINE
  8
BARS
 10
90
 20
12
 30
3.2
 11
96
 21
12
 31
3.2
  0
LINE
  8
BARS
 10
96
 20
12
 30
3.2
 11
102
 21
12
 31
3.2
  0
LINE
  8
BARS
 10
102
 20
12
 30
3.2
 11
108
 21
12
 31
3.2
  0
LINE
  8
BARS
 10
108
 20
12
 30
3.2
 11
114
 21
12
 31
3.2
  0
LINE
  8
BARS
 10
114
 20
12
 30
3.2
 11
120
 21
12
 31
3.2
  0
LINE
  8
BARS
 10
120
 20
12
 30
3.2
 11
126
 21
12
 31
3.2
  0
LINE
  8
BARS
 10
126
 20
12
 30
3.2
 11
132
 21
12
 31
3.2
  0
LINE
  8
BARS
 10
0
 20
12
 30
6.4
 11
6
 21
12
 31
6.4
  0
LINE
  8
BARS
 10
6
 20
12
 30
6.4
 11
12
 21
12
 31
6.4
  0
LINE
  8
BARS
 10
12
 20
12
 30
6.4
 11
18
 21
12
 31
6.4
  0
LINE
  8
BARS
 10
18
 20
12
 30
6.4
 11
24
 21
12
 31
6.4
  0
LINE
  8
BARS
 10
84
 20
12
 30
6.4
 11
90
 21
12
 31
6.4
  0
LINE
  8
BARS
 10
90
 20
12
 30
6.4
 11
96
 21
12
 31
6.4
  0
LINE
  8
BARS
 10
96
 20
12
 30
6.4
 11
102
 21
12
 31
6.4
  0
LINE
  8
BARS
 10
102
 20
12
 30
6.4
 11
108
 21
12
 31
6.4
  0
LINE
  8
BARS
 10
108
 20
12
 30
6.4
 11
114
 21
12
 31
6.4
  0
LINE
  8
BARS
 10
114
 20
12
 30
6.4
 11
120
 21
12
 31
6.4
  0
LINE
  8
BARS
 10
120
 20
12
 30
6.4
 11
126
 21
12
 31
6.4
  0
LINE
  8
BARS
 10
126
 20
12
 30
6.4
 11
132
 21
12
 31
6.4
  0
LINE
  8
BARS
 10
0
 20
12
 30
9.6
 11
6
 21
12
 31
9.6
  0
LINE
  8
BARS
 10
6
 20
12
 30
9.6
 11
12
 21
12
 31
9.6
  0
LINE
  8
BARS
 10
12
 20
12
 30
9.6
 11
18
 21
12
 31
9.6
  0
LINE
  8
BARS
 10
18
 20
12
 30
9.6
 11
24
 21
12
 31
9.6
  0
LINE
  8
BARS
 10
84
 20
12
 30
9.6
 11
90
 21
12
 31
9.6
  0
LINE
  8
BARS
 10
90
 20
12
 30
9.6
 11
96
 21
12
 31
9.6
  0
LINE
  8
BARS
 10
0
 20
12
 30
12.8
 11
6
 21
12
 31
12.8
  0
LINE
  8
BARS
 10
6
 20
12
 30
12.8
 11
12
 21
12
 31
12.8
  0
LINE
  8
BARS
 10
12
 20
12
 30
12.8
 11
18
 21
12
 31
12.8
  0
LINE
  8
BARS
 10
18
 20
12
 30
12.8
 11
24
 21
12
 31
12.8
  0
LINE
  8
BARS
 10
84
 20
12
 30
12.8
 11
90
 21
12
 31
12.8
  0
LINE
  8
BARS
 10
90
 20
12
 30
12.8
 11
96
 21
12
 31
12.8
  0
LINE
  8
BARS
 10
0
 20
12
 30
16
 11
6
 21
12
 31
16
  0
LINE
  8
BARS
 10
6
 20
12
 30
16
 11
12
 21
12
 31
16
  0
LINE
  8
BARS
 10
12
 20
12
 30
16
 11
18
 21
12
 31
16
  0
LINE
  8
BARS
 10
18
 20
12
 30
16
 11
24
 21
12
 31
16
  0
LINE
  8
BARS
 10
84
 20
12
 30
16
 11
90
 21
12
 31
16
  0
LINE
  8
BARS
 10
90
 20
12
 30
16
 11
96
 21
12
 31
16
  0
LINE
  8
BARS
 10
0
 20
12
 30
19.2
 11
6
 21
12
 31
19.2
  0
LINE
  8
BARS
 10
6
 20
12
 30
19.2
 11
12
 21
12
 31
19.2
  0
LINE
  8
BARS
 10
0
 20
12
 30
22.4
 11
6
 21
12
 31
22.4
  0
LINE
  8
BARS
 10
6
 20
12
 30
22.4
 11
12
 21
12
 31
22.4
  0
LINE
  8
BARS
 10
0
 20
12
 30
25.6
 11
6
 21
12
 31
25.6
  0
LINE
  8
BARS
 10
6
 20
12
 30
25.6
 11
12
 21
12
 31
25.6
  0
LINE
  8
BARS
 10
0
 20
12
 30
28.8
 11
6
 21
12
 31
28.8
  0
LINE
  8
BARS
 10
6
 20
12
 30
28.8
 11
12
 21
12
 31
28.8
  0
LINE
  8
BARS
 10
0
 20
12
 30
32
 11
6
 21
12
 31
32
  0
LINE
  8
BARS
 10
6
 20
12
 30
32
 11
12
 21
12
 31
32
  0
LINE
  8
BARS
 10
0
 20
12
 30
35.2
 11
6
 21
12
 31
35.2
  0
LINE
  8
BARS
 10
6
 20
12
 30
35.2
 11
12
 21
12
 31
35.2
  0
LINE
  8
BARS
 10
0
 20
12
 30
38.4
 11
6
 21
12
 31
38.4
  0
LINE
  8
BARS
 10
6
 20
12
 30
38.4
 11
12
 21
12
 31
38.4
  0
LINE
  8
BARS
 10
24
 20
12
 30
16
 11
31.5
 21
12
 31
19
  0
LINE
  8
BARS
 10
31.5
 20
12
 30
19
 11
39
 21
12
 31
21
  0
LINE
  8
BARS
 10
39
 20
12
 30
21
 11
46.5
 21
12
 31
22
  0
LINE
  8
BARS
 10
46.5
 20
12
 30
22
 11
54
 21
12
 31
22
  0
LINE
  8
BARS
 10
54
 20
12
 30
22
 11
61.5
 21
12
 31
22
  0
LINE
  8
BARS
 10
61.5
 20
12
 30
22
 11
69
 21
12
 31
21
  0
LINE
  8
BARS
 10
69
 20
12
 30
21
 11
76.5
 21
12
 31
19
  0
LINE
  8
BARS
 10
76.5
 20
12
 30
19
 11
84
 21
12
 31
16
  0
LINE
  8
BARS
 10
0
 20
18
 30
0
 11
0
 21
18
 31
3.2
  0
LINE
  8
BARS
 10
0
 20
18
 30
3.2
 11
0
 21
18
 31
6.4
  0
LINE
  8
BARS
 10
0
 20
18
 30
6.4
 11
0
 21
18
 31
9.6
  0
LINE
  8
BARS
 10
0
 20
18
 30
9.6
 11
0
 21
18
 31
12.8
  0
LINE
  8
BARS
 10
0
 20
18
 30
12.8
 11
0
 21
18
 31
16
  0
LINE
  8
BARS
 10
0
 20
18
 30
16
 11
0
 21
18
 31
19.2
  0
LINE
  8
BARS
 10
0
 20
18
 30
19.2
 11
0
 21
18
 31
22.4
  0
LINE
  8
BARS
 10
0
 20
18
 30
22.4
 11
0
 21
18
 31
25.6
  0
LINE
  8
BARS
 10
0
 20
18
 30
25.6
 11
0
 21
18
 31
28.8
  0
LINE
  8
BARS
 10
0
 20
18
 30
28.8
 11
0
 21
18
 31
32
  0
LINE
  8
BARS
 10
0
 20
18
 30
32
 11
0
 21
18
 31
35.2
  0
LINE
  8
BARS
 10
0
 20
18
 30
35.2
 11
0
 21
18
 31
38.4
  0
LINE
  8
BARS
 10
6
 20
18
 30
0
 11
6
 21
18
 31
3.2
  0
LINE
  8
BARS
 10
6
 20
18
 30
3.2
 11
6
 21
18
 31
6.4
  0
LINE
  8
BARS
 10
6
 20
18
 30
6.4
 11
6
 21
18
 31
9.6
  0
LINE
  8
BARS
 10
6
 20
18
 30
9.6
 11
6
 21
18
 31
12.8
  0
LINE
  8
BARS
 10
6
 20
18
 30
12.8
 11
6
 21
18
 31
16
  0
LINE
  8
BARS
 10
6
 20
18
 30
16
 11
6
 21
18
 31
19.2
  0
LINE
  8
BARS
 10
6
 20
18
 30
19.2
 11
6
 21
18
 31
22.4
  0
LINE
  8
BARS
 10
6
 20
18
 30
22.4
 11
6
 21
18
 31
25.6
  0
LINE
  8
BARS
 10
6
 20
18
 30
25.6
 11
6
 21
18
 31
28.8
  0
LINE
  8
BARS
 10
6
 20
18
 30
28.8
 11
6
 21
18
 31
32
  0
LINE
  8
BARS
 10
6
 20
18
 30
32
 11
6
 21
18
 31
35.2
  0
LINE
  8
BARS
 10
6
 20
18
 30
35.2
 11
6
 21
18
 31
38.4
  0
LINE
  8
BARS
 10
12
 20
18
 30
0
 11
12
 21
18
 31
3.2
  0
LINE
  8
BARS
 10
12
 20
18
 30
3.2
 11
12
 21
18
 31
6.4
  0
LINE
  8
BARS
 10
12
 20
18
 30
6.4
 11
12
 21
18
 31
9.6
  0
LINE
  8
BARS
 10
12
 20
18
 30
9.6
 11
12
 21
18
 31
12.8
  0
LINE
  8
BARS
 10
12
 20
18
 30
12.8
 11
12
 21
18
 31
16
  0
LINE
  8
BARS
 10
12
 20
18
 30
16
 11
12
 21
18
 31
19.2
  0
LINE
  8
BARS
 10
12
 20
18
 30
19.2
 11
12
 21
18
 31
22.4
  0
LINE
  8
BARS
 10
12
 20
18
 30
22.4
 11
12
 21
18
 31
25.6
  0
LINE
  8
BARS
 10
12
 20
18
 30
25.6
 11
12
 21
18
 31
28.8
  0
LINE
  8
BARS
 10
12
 20
18
 30
28.8
 11
12
 21
18
 31
32
  0
LINE
  8
BARS
 10
12
 20
18
 30
32
 11
12
 21
18
 31
35.2
  0
LINE
  8
BARS
 10
12
 20
18
 30
35.2
 11
12
 21
18
 31
38.4
  0
LINE
  8
BARS
 10
18
 20
18
 30
0
 11
18
 21
18
 31
3.2
  0
LINE
  8
BARS
 10
18
 20
18
 30
3.2
 11
18
 21
18
 31
6.4
  0
LINE
  8
BARS
 10
18
 20
18
 30
6.4
 11
18
 21
18
 31
9.6
  0
LINE
  8
BARS
 10
18
 20
18
 30
9.6
 11
18
 21
18
 31
12.8
  0
LINE
  8
BARS
 10
18
 20
18
 30
12.8
 11
18
 21
18
 31
16
  0
LINE
  8
BARS
 10
24
 20
18
 30
0
 11
24
 21
18
 31
3.2
  0
LINE
  8
BARS
 10
24
 20
18
 30
3.2
 11
24
 21
18
 31
6.4
  0
LINE
  8
BARS
 10
24
 20
18
 30
6.4
 11
24
 21
18
 31
9.6
  0
LINE
  8
BARS
 10
24
 20
18
 30
9.6
 11
24
 21
18
 31
12.8
  0
LINE
  8
BARS
 10
24
 20
18
 30
12.8
 11
24
 21
18
 31
16
  0
LINE
  8
BARS
 10
84
 20
18
 30
0
 11
84
 21
18
 31
3.2
  0
LINE
  8
BARS
 10
84
 20
18
 30
3.2
 11
84
 21
18
 31
6.4
  0
LINE
  8
BARS
 10
84
 20
18
 30
6.4
 11
84
 21
18
 31
9.6
  0
LINE
  8
BARS
 10
84
 20
18
 30
9.6
 11
84
 21
18
 31
12.8
  0
LINE
  8
BARS
 10
84
 20
18
 30
12.8
 11
84
 21
18
 31
16
  0
LINE
  8
BARS
 10
90
 20
18
 30
0
 11
90
 21
18
 31
3.2
  0
LINE
  8
BARS
 10
90
 20
18
 30
3.2
 11
90
 21
18
 31
6.4
  0
LINE
  8
BARS
 10
90
 20
18
 30
6.4
 11
90
 21
18
 31
9.6
  0
LINE
  8
BARS
 10
90
 20
18
 30
9.6
 11
90
 21
18
 31
12.8
  0
LINE
  8
BARS
 10
90
 20
18
 30
12.8
 11
90
 21
18
 31
16
  0
LINE
  8
BARS
 10
96
 20
18
 30
0
 11
96
 21
18
 31
3.2
  0
LINE
  8
BARS
 10
96
 20
18
 30
3.2
 11
96
 21
18
 31
6.4
  0
LINE
  8
BARS
 10
96
 20
18
 30
6.4
 11
96
 21
18
 31
9.6
  0
LINE
  8
BARS
 10
96
 20
18
 30
9.6
 11
96
 21
18
 31
12.8
  0
LINE
  8
BARS
 10
96
 20
18
 30
12.8
 11
96
 21
18
 31
16
  0
LINE
  8
BARS
 10
102
 20
18
 30
0
 11
102
 21
18
 31
3.2
  0
LINE
  8
BARS
 10
102
 20
18
 30
3.2
 11
102
 21
18
 31
6.4
  0
LINE
  8
BARS
 10
108
 20
18
 30
0
 11
108
 21
18
 31
3.2
  0
LINE
  8
BARS
 10
108
 20
18
 30
3.2
 11
108
 21
18
 31
6.4
  0
LINE
  8
BARS
 10
114
 20
18
 30
0
 11
114
 21
18
 31
3.2
  0
LINE
  8
BARS
 10
114
 20
18
 30
3.2
 11
114
 21
18
 31
6.4
  0
LINE
  8
BARS
 10
120
 20
18
 30
0
 11
120
 21
18
 31
3.2
  0
LINE
  8
BARS
 10
120
 20
18
 30
3.2
 11
120
 21
18
 31
6.4
  0
LINE
  8
BARS
 10
126
 20
18
 30
0
 11
126
 21
18
 31
3.2
  0
LINE
  8
BARS
 10
126
 20
18
 30
3.2
 11
126
 21
18
 31
6.4
  0
LINE
  8
BARS
 10
132
 20
18
 30
0
 11
132
 21
18
 31
3.2
  0
LINE
  8
BARS
 10
132
 20
18
 30
3.2
 11
132
 21
18
 31
6.4
  0
LINE
  8
BARS
 10
0
 20
18
 30
3.2
 11
6
 21
18
 31
3.2
  0
LINE
  8
BARS
 10
6
 20
18
 30
3.2
 11
12
 21
18
 31
3.2
  0
LINE
  8
BARS
 10
12
 20
18
 30
3.2
 11
18
 21
18
 31
3.2
  0
LINE
  8
BARS
 10
18
 20
18
 30
3.2
 11
24
 21
18
 31
3.2
  0
LINE
  8
BARS
 10
84
 20
18
 30
3.2
 11
90
 21
18
 31
3.2
  0
LINE
  8
BARS
 10
90
 20
18
 30
3.2
 11
96
 21
18
 31
3.2
  0
LINE
  8
BARS
 10
96
 20
18
 30
3.2
 11
102
 21
18
 31
3.2
  0
LINE
  8
BARS
 10
102
 20
18
 30
3.2
 11
108
 21
18
 31
3.2
  0
LINE
  8
BARS
 10
108
 20
18
 30
3.2
 11
114
 21
18
 31
3.2
  0
LINE
  8
BARS
 10
114
 20
18
 30
3.2
 11
120
 21
18
 31
3.2
  0
LINE
  8
BARS
 10
120
 20
18
 30
3.2
 11
126
 21
18
 31
3.2
  0
LINE
  8
BARS
 10
126
 20
18
 30
3.2
 11
132
 21
18
 31
3.2
  0
LINE
  8
BARS
 10
0
 20
18
 30
6.4
 11
6
 21
18
 31
6.4
  0
LINE
  8
BARS
 10
6
 20
18
 30
6.4
 11
12
 21
18
 31
6.4
  0
LINE
  8
BARS
 10
12
 20
18
 30
6.4
 11
18
 21
18
 31
6.4
  0
LINE
  8
BARS
 10
18
 20
18
 30
6.4
 11
24
 21
18
 31
6.4
  0
LINE
  8
BARS
 10
84
 20
18
 30
6.4
 11
90
 21
18
 31
6.4
  0
LINE
  8
BARS
 10
90
 20
18
 30
6.4
 11
96
 21
18
 31
6.4
  0
LINE
  8
BARS
 10
96
 20
18
 30
6.4
 11
102
 21
18
 31
6.4
  0
LINE
  8
BARS
 10
102
 20
18
 30
6.4
 11
108
 21
18
 31
6.4
  0
LINE
  8
BARS
 10
108
 20
18
 30
6.4
 11
114
 21
18
 31
6.4
  0
LINE
  8
BARS
 10
114
 20
18
 30
6.4
 11
120
 21
18
 31
6.4
  0
LINE
  8
BARS
 10
120
 20
18
 30
6.4
 11
126
 21
18
 31
6.4
  0
LINE
  8
BARS
 10
126
 20
18
 30
6.4
 11
132
 21
18
 31
6.4
  0
LINE
  8
BARS
 10
0
 20
18
 30
9.6
 11
6
 21
18
 31
9.6
  0
LINE
  8
BARS
 10
6
 20
18
 30
9.6
 11
12
 21
18
 31
9.6
  0
LINE
  8
BARS
 10
12
 20
18
 30
9.6
 11
18
 21
18
 31
9.6
  0
LINE
  8
BARS
 10
18
 20
18
 30
9.6
 11
24
 21
18
 31
9.6
  0
LINE
  8
BARS
 10
84
 20
18
 30
9.6
 11
90
 21
18
 31
9.6
  0
LINE
  8
BARS
 10
90
 20
18
 30
9.6
 11
96
 21
18
 31
9.6
  0
LINE
  8
BARS
 10
0
 20
18
 30
12.8
 11
6
 21
18
 31
12.8
  0
LINE
  8
BARS
 10
6
 20
18
 30
12.8
 11
12
 21
18
 31
12.8
  0
LINE
  8
BARS
 10
12
 20
18
 30
12.8
 11
18
 21
18
 31
12.8
  0
LINE
  8
BARS
 10
18
 20
18
 30
12.8
 11
24
 21
18
 31
12.8
  0
LINE
  8
BARS
 10
84
 20
18
 30
12.8
 11
90
 21
18
 31
12.8
  0
LINE
  8
BARS
 10
90
 20
18
 30
12.8
 11
96
 21
18
 31
12.8
  0
LINE
  8
BARS
 10
0
 20
18
 30
16
 11
6
 21
18
 31
16
  0
LINE
  8
BARS
 10
6
 20
18
 30
16
 11
12
 21
18
 31
16
  0
LINE
  8
BARS
 10
12
 20
18
 30
16
 11
18
 21
18
 31
16
  0
LINE
  8
BARS
 10
18
 20
18
 30
16
 11
24
 21
18
 31
16
  0
LINE
  8
BARS
 10
84
 20
18
 30
16
 11
90
 21
18
 31
16
  0
LINE
  8
BARS
 10
90
 20
18
 30
16
 11
96
 21
18
 31
16
  0
LINE
  8
BARS
 10
0
 20
18
 30
19.2
 11
6
 21
18
 31
19.2
  0
LINE
  8
BARS
 10
6
 20
18
 30
19.2
 11
12
 21
18
 31
19.2
  0
LINE
  8
BARS
 10
0
 20
18
 30
22.4
 11
6
 21
18
 31
22.4
  0
LINE
  8
BARS
 10
6
 20
18
 30
22.4
 11
12
 21
18
 31
22.4
  0
LINE
  8
BARS
 10
0
 20
18
 30
25.6
 11
6
 21
18
 31
25.6
  0
LINE
  8
BARS
 10
6
 20
18
 30
25.6
 11
12
 21
18
 31
25.6
  0
LINE
  8
BARS
 10
0
 20
18
 30
28.8
 11
6
 21
18
 31
28.8
  0
LINE
  8
BARS
 10
6
 20
18
 30
28.8
 11
12
 21
18
 31
28.8
  0
LINE
  8
BARS
 10
0
 20
18
 30
32
 11
6
 21
18
 31
32
  0
LINE
  8
BARS
 10
6
 20
18
 30
32
 11
12
 21
18
 31
32
  0
LINE
  8
BARS
 10
0
 20
18
 30
35.2
 11
6
 21
18
 31
35.2
  0
LINE
  8
BARS
 10
6
 20
18
 30
35.2
 11
12
 21
18
 31
35.2
  0
LINE
  8
BARS
 10
0
 20
18
 30
38.4
 11
6
 21
18
 31
38.4
  0
LINE
  8
BARS
 10
6
 20
18
 30
38.4
 11
12
 21
18
 31
38.4
  0
LINE
  8
BARS
 10
24
 20
18
 30
16
 11
31.5
 21
18
 31
19
  0
LINE
  8
BARS
 10
31.5
 20
18
 30
19
 11
39
 21
18
 31
21
  0
LINE
  8
BARS
 10
39
 20
18
 30
21
 11
46.5
 21
18
 31
22
  0
LINE
  8
BARS
 10
46.5
 20
18
 30
22
 11
54
 21
18
 31
22
  0
LINE
  8
BARS
 10
54
 20
18
 30
22
 11
61.5
 21
18
 31
22
  0
LINE
  8
BARS
 10
61.5
 20
18
 30
22
 11
69
 21
18
 31
21
  0
LINE
  8
BARS
 10
69
 20
18
 30
21
 11
76.5
 21
18
 31
19
  0
LINE
  8
BARS
 10
76.5
 20
18
 30
19
 11
84
 21
18
 31
16
  0
LINE
  8
BARS
 10
0
 20
24
 30
0
 11
0
 21
24
 31
3.2
  0
LINE
  8
BARS
 10
0
 20
24
 30
3.2
 11
0
 21
24
 31
6.4
  0
LINE
  8
BARS
 10
0
 20
24
 30
6.4
 11
0
 21
24
 31
9.6
  0
LINE
  8
BARS
 10
0
 20
24
 30
9.6
 11
0
 21
24
 31
12.8
  0
LINE
  8
BARS
 10
0
 20
24
 30
12.8
 11
0
 21
24
 31
16
  0
LINE
  8
BARS
 10
0
 20
24
 30
16
 11
0
 21
24
 31
19.2
  0
LINE
  8
BARS
 10
0
 20
24
 30
19.2
 11
0
 21
24
 31
22.4
  0
LINE
  8
BARS
 10
0
 20
24
 30
22.4
 11
0
 21
24
 31
25.6
  0
LINE
  8
BARS
 10
0
 20
24
 30
25.6
 11
0
 21
24
 31
28.8
  0
LINE
  8
BARS
 10
0
 20
24
 30
28.8
 11
0
 21
24
 31
32
  0
LINE
  8
BARS
 10
0
 20
24
 30
32
 11
0
 21
24
 31
35.2
  0
LINE
  8
BARS
 10
0
 20
24
 30
35.2
 11
0
 21
24
 31
38.4
  0
LINE
  8
BARS
 10
6
 20
24
 30
0
 11
6
 21
24
 31
3.2
  0
LINE
  8
BARS
 10
6
 20
24
 30
3.2
 11
6
 21
24
 31
6.4
  0
LINE
  8
BARS
 10
6
 20
24
 30
6.4
 11
6
 21
24
 31
9.6
  0
LINE
  8
BARS
 10
6
 20
24
 30
9.6
 11
6
 21
24
 31
12.8
  0
LINE
  8
BARS
 10
6
 20
24
 30
12.8
 11
6
 21
24
 31
16
  0
LINE
  8
BARS
 10
6
 20
24
 30
16
 11
6
 21
24
 31
19.2
  0
LINE
  8
BARS
 10
6
 20
24
 30
19.2
 11
6
 21
24
 31
22.4
  0
LINE
  8
BARS
 10
6
 20
24
 30
22.4
 11
6
 21
24
 31
25.6
  0
LINE
  8
BARS
 10
6
 20
24
 30
25.6
 11
6
 21
24
 31
28.8
  0
LINE
  8
BARS
 10
6
 20
24
 30
28.8
 11
6
 21
24
 31
32
  0
LINE
  8
BARS
 10
6
 20
24
 30
32
 11
6
 21
24
 31
35.2
  0
LINE
  8
BARS
 10
6
 20
24
 30
35.2
 11
6
 21
24
 31
38.4
  0
LINE
  8
BARS
 10
12
 20
24
 30
0
 11
12
 21
24
 31
3.2
  0
LINE
  8
BARS
 10
12
 20
24
 30
3.2
 11
12
 21
24
 31
6.4
  0
LINE
  8
BARS
 10
12
 20
24
 30
6.4
 11
12
 21
24
 31
9.6
  0
LINE
  8
BARS
 10
12
 20
24
 30
9.6
 11
12
 21
24
 31
12.8
  0
LINE
  8
BARS
 10
12
 20
24
 30
12.8
 11
12
 21
24
 31
16
  0
LINE
  8
BARS
 10
12
 20
24
 30
16
 11
12
 21
24
 31
19.2
  0
LINE
  8
BARS
 10
12
 20
24
 30
19.2
 11
12
 21
24
 31
22.4
  0
LINE
  8
BARS
 10
12
 20
24
 30
22.4
 11
12
 21
24
 31
25.6
  0
LINE
  8
BARS
 10
12
 20
24
 30
25.6
 11
12
 21
24
 31
28.8
  0
LINE
  8
BARS
 10
12
 20
24
 30
28.8
 11
12
 21
24
 31
32
  0
LINE
  8
BARS
 10
12
 20
24
 30
32
 11
12
 21
24
 31
35.2
  0
LINE
  8
BARS
 10
12
 20
24
 30
35.2
 11
12
 21
24
 31
38.4
  0
LINE
  8
BARS
 10
18
 20
24
 30
0
 11
18
 21
24
 31
3.2
  0
LINE
  8
BARS
 10
18
 20
24
 30
3.2
 11
18
 21
24
 31
6.4
  0
LINE
  8
BARS
 10
18
 20
24
 30
6.4
 11
18
 21
24
 31
9.6
  0
LINE
  8
BARS
 10
18
 20
24
 30
9.6
 11
18
 21
24
 31
12.8
  0
LINE
  8
BARS
 10
18
 20
24
 30
12.8
 11
18
 21
24
 31
16
  0
LINE
  8
BARS
 10
24
 20
24
 30
0
 11
24
 21
24
 31
3.2
  0
LINE
  8
BARS
 10
24
 20
24
 30
3.2
 11
24
 21
24
 31
6.4
  0
LINE
  8
BARS
 10
24
 20
24
 30
6.4
 11
24
 21
24
 31
9.6
  0
LINE
  8
BARS
 10
24
 20
24
 30
9.6
 11
24
 21
24
 31
12.8
  0
LINE
  8
BARS
 10
24
 20
24
 30
12.8
 11
24
 21
24
 31
16
  0
LINE
  8
BARS
 10
84
 20
24
 30
0
 11
84
 21
24
 31
3.2
  0
LINE
  8
BARS
 10
84
 20
24
 30
3.2
 11
84
 21
24
 31
6.4
  0
LINE
  8
BARS
 10
84
 20
24
 30
6.4
 11
84
 21
24
 31
9.6
  0
LINE
  8
BARS
 10
84
 20
24
 30
9.6
 11
84
 21
24
 31
12.8
  0
LINE
  8
BARS
 10
84
 20
24
 30
12.8
 11
84
 21
24
 31
16
  0
LINE
  8
BARS
 10
90
 20
24
 30
0
 11
90
 21
24
 31
3.2
  0
LINE
  8
BARS
 10
90
 20
24
 30
3.2
 11
90
 21
24
 31
6.4
  0
LINE
  8
BARS
 10
90
 20
24
 30
6.4
 11
90
 21
24
 31
9.6
  0
LINE
  8
BARS
 10
90
 20
24
 30
9.6
 11
90
 21
24
 31
12.8
  0
LINE
  8
BARS
 10
90
 20
24
 30
12.8
 11
90
 21
24
 31
16
  0
LINE
  8
BARS
 10
96
 20
24
 30
0
 11
96
 21
24
 31
3.2
  0
LINE
  8
BARS
 10
96
 20
24
 30
3.2
 11
96
 21
24
 31
6.4
  0
LINE
  8
BARS
 10
96
 20
24
 30
6.4
 11
96
 21
24
 31
9.6
  0
LINE
  8
BARS
 10
96
 20
24
 30
9.6
 11
96
 21
24
 31
12.8
  0
LINE
  8
BARS
 10
96
 20
24
 30
12.8
 11
96
 21
24
 31
16
  0
LINE
  8
BARS
 10
102
 20
24
 30
0
 11
102
 21
24
 31
3.2
  0
LINE
  8
BARS
 10
102
 20
24
 30
3.2
 11
102
 21
24
 31
6.4
  0
LINE
  8
BARS
 10
108
 20
24
 30
0
 11
108
 21
24
 31
3.2
  0
LINE
  8
BARS
 10
108
 20
24
 30
3.2
 11
108
 21
24
 31
6.4
  0
LINE
  8
BARS
 10
114
 20
24
 30
0
 11
114
 21
24
 31
3.2
  0
LINE
  8
BARS
 10
114
 20
24
 30
3.2
 11
114
 21
24
 31
6.4
  0
LINE
  8
BARS
 10
120
 20
24
 30
0
 11
120
 21
24
 31
3.2
  0
LINE
  8
BARS
 10
120
 20
24
 30
3.2
 11
120
 21
24
 31
6.4
  0
LINE
  8
BARS
 10
126
 20
24
 30
0
 11
126
 21
24
 31
3.2
  0
LINE
  8
BARS
 10
126
 20
24
 30
3.2
 11
126
 21
24
 31
6.4
  0
LINE
  8
BARS
 10
132
 20
24
 30
0
 11
132
 21
24
 31
3.2
  0
LINE
  8
BARS
 10
132
 20
24
 30
3.2
 11
132
 21
24
 31
6.4
  0
LINE
  8
BARS
 10
0
 20
24
 30
3.2
 11
6
 21
24
 31
3.2
  0
LINE
  8
BARS
 10
6
 20
24
 30
3.2
 11
12
 21
24
 31
3.2
  0
LINE
  8
BARS
 10
12
 20
24
 30
3.2
 11
18
 21
24
 31
3.2
  0
LINE
  8
BARS
 10
18
 20
24
 30
3.2
 11
24
 21
24
 31
3.2
  0
LINE
  8
BARS
 10
84
 20
24
 30
3.2
 11
90
 21
24
 31
3.2
  0
LINE
  8
BARS
 10
90
 20
24
 30
3.2
 11
96
 21
24
 31
3.2
  0
LINE
  8
BARS
 10
96
 20
24
 30
3.2
 11
102
 21
24
 31
3.2
  0
LINE
  8
BARS
 10
102
 20
24
 30
3.2
 11
108
 21
24
 31
3.2
  0
LINE
  8
BARS
 10
108
 20
24
 30
3.2
 11
114
 21
24
 31
3.2
  0
LINE
  8
BARS
 10
114
 20
24
 30
3.2
 11
120
 21
24
 31
3.2
  0
LINE
  8
BARS
 10
120
 20
24
 30
3.2
 11
126
 21
24
 31
3.2
  0
LINE
  8
BARS
 10
126
 20
24
 30
3.2
 11
132
 21
24
 31
3.2
  0
LINE
  8
BARS
 10
0
 20
24
 30
6.4
 11
6
 21
24
 31
6.4
  0
LINE
  8
BARS
 10
6
 20
24
 30
6.4
 11
12
 21
24
 31
6.4
  0
LINE
  8
BARS
 10
12
 20
24
 30
6.4
 11
18
 21
24
 31
6.4
  0
LINE
  8
BARS
 10
18
 20
24
 30
6.4
 11
24
 21
24
 31
6.4
  0
LINE
  8
BARS
 10
84
 20
24
 30
6.4
 11
90
 21
24
 31
6.4
  0
LINE
  8
BARS
 10
90
 20
24
 30
6.4
 11
96
 21
24
 31
6.4
  0
LINE
  8
BARS
 10
96
 20
24
 30
6.4
 11
102
 21
24
 31
6.4
  0
LINE
  8
BARS
 10
102
 20
24
 30
6.4
 11
108
 21
24
 31
6.4
  0
LINE
  8
BARS
 10
108
 20
24
 30
6.4
 11
114
 21
24
 31
6.4
  0
LINE
  8
BARS
 10
114
 20
24
 30
6.4
 11
120
 21
24
 31
6.4
  0
LINE
  8
BARS
 10
120
 20
24
 30
6.4
 11
126
 21
24
 31
6.4
  0
LINE
  8
BARS
 10
126
 20
24
 30
6.4
 11
132
 21
24
 31
6.4
  0
LINE
  8
BARS
 10
0
 20
24
 30
9.6
 11
6
 21
24
 31
9.6
  0
LINE
  8
BARS
 10
6
 20
24
 30
9.6
 11
12
 21
24
 31
9.6
  0
LINE
  8
BARS
 10
12
 20
24
 30
9.6
 11
18
 21
24
 31
9.6
  0
LINE
  8
BARS
 10
18
 20
24
 30
9.6
 11
24
 21
24
 31
9.6
  0
LINE
  8
BARS
 10
84
 20
24
 30
9.6
 11
90
 21
24
 31
9.6
  0
LINE
  8
BARS
 10
90
 20
24
 30
9.6
 11
96
 21
24
 31
9.6
  0
LINE
  8
BARS
 10
0
 20
24
 30
12.8
 11
6
 21
24
 31
12.8
  0
LINE
  8
BARS
 10
6
 20
24
 30
12.8
 11
12
 21
24
 31
12.8
  0
LINE
  8
BARS
 10
12
 20
24
 30
12.8
 11
18
 21
24
 31
12.8
  0
LINE
  8
BARS
 10
18
 20
24
 30
12.8
 11
24
 21
24
 31
12.8
  0
LINE
  8
BARS
 10
84
 20
24
 30
12.8
 11
90
 21
24
 31
12.8
  0
LINE
  8
BARS
 10
90
 20
24
 30
12.8
 11
96
 21
24
 31
12.8
  0
LINE
  8
BARS
 10
0
 20
24
 30
16
 11
6
 21
24
 31
16
  0
LINE
  8
BARS
 10
6
 20
24
 30
16
 11
12
 21
24
 31
16
  0
LINE
  8
BARS
 10
12
 20
24
 30
16
 11
18
 21
24
 31
16
  0
LINE
  8
BARS
 10
18
 20
24
 30
16
 11
24
 21
24
 31
16
  0
LINE
  8
BARS
 10
84
 20
24
 30
16
 11
90
 21
24
 31
16
  0
LINE
  8
BARS
 10
90
 20
24
 30
16
 11
96
 21
24
 31
16
  0
LINE
  8
BARS
 10
0
 20
24
 30
19.2
 11
6
 21
24
 31
19.2
  0
LINE
  8
BARS
 10
6
 20
24
 30
19.2
 11
12
 21
24
 31
19.2
  0
LINE
  8
BARS
 10
0
 20
24
 30
22.4
 11
6
 21
24
 31
22.4
  0
LINE
  8
BARS
 10
6
 20
24
 30
22.4
 11
12
 21
24
 31
22.4
  0
LINE
  8
BARS
 10
0
 20
24
 30
25.6
 11
6
 21
24
 31
25.6
  0
LINE
  8
BARS
 10
6
 20
24
 30
25.6
 11
12
 21
24
 31
25.6
  0
LINE
  8
BARS
 10
0
 20
24
 30
28.8
 11
6
 21
24
 31
28.8
  0
LINE
  8
BARS
 10
6
 20
24
 30
28.8
 11
12
 21
24
 31
28.8
  0
LINE
  8
BARS
 10
0
 20
24
 30
32
 11
6
 21
24
 31
32
  0
LINE
  8
BARS
 10
6
 20
24
 30
32
 11
12
 21
24
 31
32
  0
LINE
  8
BARS
 10
0
 20
24
 30
35.2
 11
6
 21
24
 31
35.2
  0
LINE
  8
BARS
 10
6
 20
24
 30
35.2
 11
12
 21
24
 31
35.2
  0
LINE
  8
BARS
 10
0
 20
24
 30
38.4
 11
6
 21
24
 31
38.4
  0
LINE
  8
BARS
 10
6
 20
24
 30
38.4
 11
12
 21
24
 31
38.4
  0
LINE
  8
BARS
 10
24
 20
24
 30
16
 11
31.5
 21
24
 31
19
  0
LINE
  8
BARS
 10
31.5
 20
24
 30
19
 11
39
 21
24
 31
21
  0
LINE
  8
BARS
 10
39
 20
24
 30
21
 11
46.5
 21
24
 31
22
  0
LINE
  8
BARS
 10
46.5
 20
24
 30
22
 11
54
 21
24
 31
22
  0
LINE
  8
BARS
 10
54
 20
24
 30
22
 11
61.5
 21
24
 31
22
  0
LINE
  8
BARS
 10
61.5
 20
24
 30
22
 11
69
 21
24
 31
21
  0
LINE
  8
BARS
 10
69
 20
24
 30
21
 11
76.5
 21
24
 31
19
  0
LINE
  8
BARS
 10
76.5
 20
24
 30
19
 11
84
 21
24
 31
16
  0
LINE
  8
BARS
 10
6
 20
30
 30
0
 11
6
 21
30
 31
3.2
  0
LINE
  8
BARS
 10
6
 20
30
 30
3.2
 11
6
 21
30
 31
6.4
  0
LINE
  8
BARS
 10
6
 20
30
 30
6.4
 11
6
 21
30
 31
9.6
  0
LINE
  8
BARS
 10
6
 20
30
 30
9.6
 11
6
 21
30
 31
12.8
  0
LINE
  8
BARS
 10
6
 20
30
 30
12.8
 11
6
 21
30
 31
16
  0
LINE
  8
BARS
 10
6
 20
30
 30
16
 11
6
 21
30
 31
19.2
  0
LINE
  8
BARS
 10
6
 20
30
 30
19.2
 11
6
 21
30
 31
22.4
  0
LINE
  8
BARS
 10
6
 20
30
 30
22.4
 11
6
 21
30
 31
25.6
  0
LINE
  8
BARS
 10
6
 20
30
 30
25.6
 11
6
 21
30
 31
28.8
  0
LINE
  8
BARS
 10
6
 20
30
 30
28.8
 11
6
 21
30
 31
32
  0
LINE
  8
BARS
 10
6
 20
30
 30
32
 11
6
 21
30
 31
35.2
  0
LINE
  8
BARS
 10
6
 20
30
 30
35.2
 11
6
 21
30
 31
38.4
  0
LINE
  8
BARS
 10
12
 20
30
 30
0
 11
12
 21
30
 31
3.2
  0
LINE
  8
BARS
 10
12
 20
30
 30
3.2
 11
12
 21
30
 31
6.4
  0
LINE
  8
BARS
 10
12
 20
30
 30
6.4
 11
12
 21
30
 31
9.6
  0
LINE
  8
BARS
 10
12
 20
30
 30
9.6
 11
12
 21
30
 31
12.8
  0
LINE
  8
BARS
 10
12
 20
30
 30
12.8
 11
12
 21
30
 31
16
  0
LINE
  8
BARS
 10
12
 20
30
 30
16
 11
12
 21
30
 31
19.2
  0
LINE
  8
BARS
 10
12
 20
30
 30
19.2
 11
12
 21
30
 31
22.4
  0
LINE
  8
BARS
 10
12
 20
30
 30
22.4
 11
12
 21
30
 31
25.6
  0
LINE
  8
BARS
 10
12
 20
30
 30
25.6
 11
12
 21
30
 31
28.8
  0
LINE
  8
BARS
 10
12
 20
30
 30
28.8
 11
12
 21
30
 31
32
  0
LINE
  8
BARS
 10
12
 20
30
 30
32
 11
12
 21
30
 31
35.2
  0
LINE
  8
BARS
 10
12
 20
30
 30
35.2
 11
12
 21
30
 31
38.4
  0
LINE
  8
BARS
 10
18
 20
30
 30
0
 11
18
 21
30
 31
3.2
  0
LINE
  8
BARS
 10
18
 20
30
 30
3.2
 11
18
 21
30
 31
6.4
  0
LINE
  8
BARS
 10
18
 20
30
 30
6.4
 11
18
 21
30
 31
9.6
  0
LINE
  8
BARS
 10
18
 20
30
 30
9.6
 11
18
 21
30
 31
12.8
  0
LINE
  8
BARS
 10
18
 20
30
 30
12.8
 11
18
 21
30
 31
16
  0
LINE
  8
BARS
 10
24
 20
30
 30
0
 11
24
 21
30
 31
3.2
  0
LINE
  8
BARS
 10
24
 20
30
 30
3.2
 11
24
 21
30
 31
6.4
  0
LINE
  8
BARS
 10
24
 20
30
 30
6.4
 11
24
 21
30
 31
9.6
  0
LINE
  8
BARS
 10
24
 20
30
 30
9.6
 11
24
 21
30
 31
12.8
  0
LINE
  8
BARS
 10
24
 20
30
 30
12.8
 11
24
 21
30
 31
16
  0
LINE
  8
BARS
 10
84
 20
30
 30
0
 11
84
 21
30
 31
3.2
  0
LINE
  8
BARS
 10
84
 20
30
 30
3.2
 11
84
 21
30
 31
6.4
  0
LINE
  8
BARS
 10
84
 20
30
 30
6.4
 11
84
 21
30
 31
9.6
  0
LINE
  8
BARS
 10
84
 20
30
 30
9.6
 11
84
 21
30
 31
12.8
  0
LINE
  8
BARS
 10
84
 20
30
 30
12.8
 11
84
 21
30
 31
16
  0
LINE
  8
BARS
 10
90
 20
30
 30
0
 11
90
 21
30
 31
3.2
  0
LINE
  8
BARS
 10
90
 20
30
 30
3.2
 11
90
 21
30
 31
6.4
  0
LINE
  8
BARS
 10
90
 20
30
 30
6.4
 11
90
 21
30
 31
9.6
  0
LINE
  8
BARS
 10
90
 20
30
 30
9.6
 11
90
 21
30
 31
12.8
  0
LINE
  8
BARS
 10
90
 20
30
 30
12.8
 11
90
 21
30
 31
16
  0
LINE
  8
BARS
 10
96
 20
30
 30
0
 11
96
 21
30
 31
3.2
  0
LINE
  8
BARS
 10
96
 20
30
 30
3.2
 11
96
 21
30
 31
6.4
  0
LINE
  8
BARS
 10
96
 20
30
 30
6.4
 11
96
 21
30
 31
9.6
  0
LINE
  8
BARS
 10
96
 20
30
 30
9.6
 11
96
 21
30
 31
12.8
  0
LINE
  8
BARS
 10
96
 20
30
 30
12.8
 11
96
 21
30
 31
16
  0
LINE
  8
BARS
 10
102
 20
30
 30
0
 11
102
 21
30
 31
3.2
  0
LINE
  8
BARS
 10
102
 20
30
 30
3.2
 11
102
 21
30
 31
6.4
  0
LINE
  8
BARS
 10
108
 20
30
 30
0
 11
108
 21
30
 31
3.2
  0
LINE
  8
BARS
 10
108
 20
30
 30
3.2
 11
108
 21
30
 31
6.4
  0
LINE
  8
BARS
 10
114
 20
30
 30
0
 11
114
 21
30
 31
3.2
  0
LINE
  8
BARS
 10
114
 20
30
 30
3.2
 11
114
 21
30
 31
6.4
  0
LINE
  8
BARS
 10
120
 20
30
 30
0
 11
120
 21
30
 31
3.2
  0
LINE
  8
BARS
 10
120
 20
30
 30
3.2
 11
120
 21
30
 31
6.4
  0
LINE
  8
BARS
 10
126
 20
30
 30
0
 11
126
 21
30
 31
3.2
  0
LINE
  8
BARS
 10
126
 20
30
 30
3.2
 11
126
 21
30
 31
6.4
  0
LINE
  8
BARS
 10
132
 20
30
 30
0
 11
132
 21
30
 31
3.2
  0
LINE
  8
BARS
 10
132
 20
30
 30
3.2
 11
132
 21
30
 31
6.4
  0
LINE
  8
BARS
 10
6
 20
30
 30
3.2
 11
12
 21
30
 31
3.2
  0
LINE
  8
BARS
 10
12
 20
30
 30
3.2
 11
18
 21
30
 31
3.2
  0
LINE
  8
BARS
 10
18
 20
30
 30
3.2
 11
24
 21
30
 31
3.2
  0
LINE
  8
BARS
 10
84
 20
30
 30
3.2
 11
90
 21
30
 31
3.2
  0
LINE
  8
BARS
 10
90
 20
30
 30
3.2
 11
96
 21
30
 31
3.2
  0
LINE
  8
BARS
 10
96
 20
30
 30
3.2
 11
102
 21
30
 31
3.2
  0
LINE
  8
BARS
 10
102
 20
30
 30
3.2
 11
108
 21
30
 31
3.2
  0
LINE
  8
BARS
 10
108
 20
30
 30
3.2
 11
114
 21
30
 31
3.2
  0
LINE
  8
BARS
 10
114
 20
30
 30
3.2
 11
120
 21
30
 31
3.2
  0
LINE
  8
BARS
 10
120
 20
30
 30
3.2
 11
126
 21
30
 31
3.2
  0
LINE
  8
BARS
 10
126
 20
30
 30
3.2
 11
132
 21
30
 31
3.2
  0
LINE
  8
BARS
 10
6
 20
30
 30
6.4
 11
12
 21
30
 31
6.4
  0
LINE
  8
BARS
 10
12
 20
30
 30
6.4
 11
18
 21
30
 31
6.4
  0
LINE
  8
BARS
 10
18
 20
30
 30
6.4
 11
24
 21
30
 31
6.4
  0
LINE
  8
BARS
 10
84
 20
30
 30
6.4
 11
90
 21
30
 31
6.4
  0
LINE
  8
BARS
 10
90
 20
30
 30
6.4
 11
96
 21
30
 31
6.4
  0
LINE
  8
BARS
 10
96
 20
30
 30
6.4
 11
102
 21
30
 31
6.4
  0
LINE
  8
BARS
 10
102
 20
30
 30
6.4
 11
108
 21
30
 31
6.4
  0
LINE
  8
BARS
 10
108
 20
30
 30
6.4
 11
114
 21
30
 31
6.4
  0
LINE
  8
BARS
 10
114
 20
30
 30
6.4
 11
120
 21
30
 31
6.4
  0
LINE
  8
BARS
 10
120
 20
30
 30
6.4
 11
126
 21
30
 31
6.4
  0
LINE
  8
BARS
 10
126
 20
30
 30
6.4
 11
132
 21
30
 31
6.4
  0
LINE
  8
BARS
 10
6
 20
30
 30
9.6
 11
12
 21
30
 31
9.6
  0
LINE
  8
BARS
 10
12
 20
30
 30
9.6
 11
18
 21
30
 31
9.6
  0
LINE
  8
BARS
 10
18
 20
30
 30
9.6
 11
24
 21
30
 31
9.6
  0
LINE
  8
BARS
 10
84
 20
30
 30
9.6
 11
90
 21
30
 31
9.6
  0
LINE
  8
BARS
 10
90
 20
30
 30
9.6
 11
96
 21
30
 31
9.6
  0
LINE
  8
BARS
 10
6
 20
30
 30
12.8
 11
12
 21
30
 31
12.8
  0
LINE
  8
BARS
 10
12
 20
30
 30
12.8
 11
18
 21
30
 31
12.8
  0
LINE
  8
BARS
 10
18
 20
30
 30
12.8
 11
24
 21
30
 31
12.8
  0
LINE
  8
BARS
 10
84
 20
30
 30
12.8
 11
90
 21
30
 31
12.8
  0
LINE
  8
BARS
 10
90
 20
30
 30
12.8
 11
96
 21
30
 31
12.8
  0
LINE
  8
BARS
 10
6
 20
30
 30
16
 11
12
 21
30
 31
16
  0
LINE
  8
BARS
 10
12
 20
30
 30
16
 11
18
 21
30
 31
16
  0
LINE
  8
BARS
 10
18
 20
30
 30
16
 11
24
 21
30
 31
16
  0
LINE
  8
BARS
 10
84
 20
30
 30
16
 11
90
 21
30
 31
16
  0
LINE
  8
BARS
 10
90
 20
30
 30
16
 11
96
 21
30
 31
16
  0
LINE
  8
BARS
 10
6
 20
30
 30
19.2
 11
12
 21
30
 31
19.2
  0
LINE
  8
BARS
 10
6
 20
30
 30
22.4
 11
12
 21
30
 31
22.4
  0
LINE
  8
BARS
 10
6
 20
30
 30
25.6
 11
12
 21
30
 31
25.6
  0
LINE
  8
BARS
 10
6
 20
30
 30
28.8
 11
12
 21
30
 31
28.8
  0
LINE
  8
BARS
 10
6
 20
30
 30
32
 11
12
 21
30
 31
32
  0
LINE
  8
BARS
 10
6
 20
30
 30
35.2
 11
12
 21
30
 31
35.2
  0
LINE
  8
BARS
 10
6
 20
30
 30
38.4
 11
12
 21
30
 31
38.4
  0
LINE
  8
BARS
 10
24
 20
30
 30
16
 11
31.5
 21
30
 31
19
  0
LINE
  8
BARS
 10
31.5
 20
30
 30
19
 11
39
 21
30
 31
21
  0
LINE
  8
BARS
 10
39
 20
30
 30
21
 11
46.5
 21
30
 31
22
  0
LINE
  8
BARS
 10
46.5
 20
30
 30
22
 11
54
 21
30
 31
22
  0
LINE
  8
BARS
 10
54
 20
30
 30
22
 11
61.5
 21
30
 31
22
  0
LINE
  8
BARS
 10
61.5
 20
30
 30
22
 11
69
 21
30
 31
21
  0
LINE
  8
BARS
 10
69
 20
30
 30
21
 11
76.5
 21
30
 31
19
  0
LINE
  8
BARS
 10
76.5
 20
30
 30
19
 11
84
 21
30
 31
16
  0
LINE
  8
BARS
 10
6
 20
36
 30
0
 11
6
 21
36
 31
3.2
  0
LINE
  8
BARS
 10
6
 20
36
 30
3.2
 11
6
 21
36
 31
6.4
  0
LINE
  8
BARS
 10
6
 20
36
 30
6.4
 11
6
 21
36
 31
9.6
  0
LINE
  8
BARS
 10
6
 20
36
 30
9.6
 11
6
 21
36
 31
12.8
  0
LINE
  8
BARS
 10
6
 20
36
 30
12.8
 11
6
 21
36
 31
16
  0
LINE
  8
BARS
 10
6
 20
36
 30
16
 11
6
 21
36
 31
19.2
  0
LINE
  8
BARS
 10
6
 20
36
 30
19.2
 11
6
 21
36
 31
22.4
  0
LINE
  8
BARS
 10
6
 20
36
 30
22.4
 11
6
 21
36
 31
25.6
  0
LINE
  8
BARS
 10
6
 20
36
 30
25.6
 11
6
 21
36
 31
28.8
  0
LINE
  8
BARS
 10
6
 20
36
 30
28.8
 11
6
 21
36
 31
32
  0
LINE
  8
BARS
 10
6
 20
36
 30
32
 11
6
 21
36
 31
35.2
  0
LINE
  8
BARS
 10
6
 20
36
 30
35.2
 11
6
 21
36
 31
38.4
  0
LINE
  8
BARS
 10
12
 20
36
 30
0
 11
12
 21
36
 31
3.2
  0
LINE
  8
BARS
 10
12
 20
36
 30
3.2
 11
12
 21
36
 31
6.4
  0
LINE
  8
BARS
 10
12
 20
36
 30
6.4
 11
12
 21
36
 31
9.6
  0
LINE
  8
BARS
 10
12
 20
36
 30
9.6
 11
12
 21
36
 31
12.8
  0
LINE
  8
BARS
 10
12
 20
36
 30
12.8
 11
12
 21
36
 31
16
  0
LINE
  8
BARS
 10
12
 20
36
 30
16
 11
12
 21
36
 31
19.2
  0
LINE
  8
BARS
 10
12
 20
36
 30
19.2
 11
12
 21
36
 31
22.4
  0
LINE
  8
BARS
 10
12
 20
36
 30
22.4
 11
12
 21
36
 31
25.6
  0
LINE
  8
BARS
 10
12
 20
36
 30
25.6
 11
12
 21
36
 31
28.8
  0
LINE
  8
BARS
 10
12
 20
36
 30
28.8
 11
12
 21
36
 31
32
  0
LINE
  8
BARS
 10
12
 20
36
 30
32
 11
12
 21
36
 31
35.2
  0
LINE
  8
BARS
 10
12
 20
36
 30
35.2
 11
12
 21
36
 31
38.4
  0
LINE
  8
BARS
 10
18
 20
36
 30
0
 11
18
 21
36
 31
3.2
  0
LINE
  8
BARS
 10
18
 20
36
 30
3.2
 11
18
 21
36
 31
6.4
  0
LINE
  8
BARS
 10
18
 20
36
 30
6.4
 11
18
 21
36
 31
9.6
  0
LINE
  8
BARS
 10
18
 20
36
 30
9.6
 11
18
 21
36
 31
12.8
  0
LINE
  8
BARS
 10
18
 20
36
 30
12.8
 11
18
 21
36
 31
16
  0
LINE
  8
BARS
 10
24
 20
36
 30
0
 11
24
 21
36
 31
3.2
  0
LINE
  8
BARS
 10
24
 20
36
 30
3.2
 11
24
 21
36
 31
6.4
  0
LINE
  8
BARS
 10
24
 20
36
 30
6.4
 11
24
 21
36
 31
9.6
  0
LINE
  8
BARS
 10
24
 20
36
 30
9.6
 11
24
 21
36
 31
12.8
  0
LINE
  8
BARS
 10
24
 20
36
 30
12.8
 11
24
 21
36
 31
16
  0
LINE
  8
BARS
 10
84
 20
36
 30
0
 11
84
 21
36
 31
3.2
  0
LINE
  8
BARS
 10
84
 20
36
 30
3.2
 11
84
 21
36
 31
6.4
  0
LINE
  8
BARS
 10
84
 20
36
 30
6.4
 11
84
 21
36
 31
9.6
  0
LINE
  8
BARS
 10
84
 20
36
 30
9.6
 11
84
 21
36
 31
12.8
  0
LINE
  8
BARS
 10
84
 20
36
 30
12.8
 11
84
 21
36
 31
16
  0
LINE
  8
BARS
 10
90
 20
36
 30
0
 11
90
 21
36
 31
3.2
  0
LINE
  8
BARS
 10
90
 20
36
 30
3.2
 11
90
 21
36
 31
6.4
  0
LINE
  8
BARS
 10
90
 20
36
 30
6.4
 11
90
 21
36
 31
9.6
  0
LINE
  8
BARS
 10
90
 20
36
 30
9.6
 11
90
 21
36
 31
12.8
  0
LINE
  8
BARS
 10
90
 20
36
 30
12.8
 11
90
 21
36
 31
16
  0
LINE
  8
BARS
 10
96
 20
36
 30
0
 11
96
 21
36
 31
3.2
  0
LINE
  8
BARS
 10
96
 20
36
 30
3.2
 11
96
 21
36
 31
6.4
  0
LINE
  8
BARS
 10
96
 20
36
 30
6.4
 11
96
 21
36
 31
9.6
  0
LINE
  8
BARS
 10
96
 20
36
 30
9.6
 11
96
 21
36
 31
12.8
  0
LINE
  8
BARS
 10
96
 20
36
 30
12.8
 11
96
 21
36
 31
16
  0
LINE
  8
BARS
 10
102
 20
36
 30
0
 11
102
 21
36
 31
3.2
  0
LINE
  8
BARS
 10
102
 20
36
 30
3.2
 11
102
 21
36
 31
6.4
  0
LINE
  8
BARS
 10
108
 20
36
 30
0
 11
108
 21
36
 31
3.2
  0
LINE
  8
BARS
 10
108
 20
36
 30
3.2
 11
108
 21
36
 31
6.4
  0
LINE
  8
BARS
 10
114
 20
36
 30
0
 11
114
 21
36
 31
3.2
  0
LINE
  8
BARS
 10
114
 20
36
 30
3.2
 11
114
 21
36
 31
6.4
  0
LINE
  8
BARS
 10
120
 20
36
 30
0
 11
120
 21
36
 31
3.2
  0
LINE
  8
BARS
 10
120
 20
36
 30
3.2
 11
120
 21
36
 31
6.4
  0
LINE
  8
BARS
 10
126
 20
36
 30
0
 11
126
 21
36
 31
3.2
  0
LINE
  8
BARS
 10
126
 20
36
 30
3.2
 11
126
 21
36
 31
6.4
  0
LINE
  8
BARS
 10
132
 20
36
 30
0
 11
132
 21
36
 31
3.2
  0
LINE
  8
BARS
 10
132
 20
36
 30
3.2
 11
132
 21
36
 31
6.4
  0
LINE
  8
BARS
 10
6
 20
36
 30
3.2
 11
12
 21
36
 31
3.2
  0
LINE
  8
BARS
 10
12
 20
36
 30
3.2
 11
18
 21
36
 31
3.2
  0
LINE
  8
BARS
 10
18
 20
36
 30
3.2
 11
24
 21
36
 31
3.2
  0
LINE
  8
BARS
 10
84
 20
36
 30
3.2
 11
90
 21
36
 31
3.2
  0
LINE
  8
BARS
 10
90
 20
36
 30
3.2
 11
96
 21
36
 31
3.2
  0
LINE
  8
BARS
 10
96
 20
36
 30
3.2
 11
102
 21
36
 31
3.2
  0
LINE
  8
BARS
 10
102
 20
36
 30
3.2
 11
108
 21
36
 31
3.2
  0
LINE
  8
BARS
 10
108
 20
36
 30
3.2
 11
114
 21
36
 31
3.2
  0
LINE
  8
BARS
 10
114
 20
36
 30
3.2
 11
120
 21
36
 31
3.2
  0
LINE
  8
BARS
 10
120
 20
36
 30
3.2
 11
126
 21
36
 31
3.2
  0
LINE
  8
BARS
 10
126
 20
36
 30
3.2
 11
132
 21
36
 31
3.2
  0
LINE
  8
BARS
 10
6
 20
36
 30
6.4
 11
12
 21
36
 31
6.4
  0
LINE
  8
BARS
 10
12
 20
36
 30
6.4
 11
18
 21
36
 31
6.4
  0
LINE
  8
BARS
 10
18
 20
36
 30
6.4
 11
24
 21
36
 31
6.4
  0
LINE
  8
BARS
 10
84
 20
36
 30
6.4
 11
90
 21
36
 31
6.4
  0
LINE
  8
BARS
 10
90
 20
36
 30
6.4
 11
96
 21
36
 31
6.4
  0
LINE
  8
BARS
 10
96
 20
36
 30
6.4
 11
102
 21
36
 31
6.4
  0
LINE
  8
BARS
 10
102
 20
36
 30
6.4
 11
108
 21
36
 31
6.4
  0
LINE
  8
BARS
 10
108
 20
36
 30
6.4
 11
114
 21
36
 31
6.4
  0
LINE
  8
BARS
 10
114
 20
36
 30
6.4
 11
120
 21
36
 31
6.4
  0
LINE
  8
BARS
 10
120
 20
36
 30
6.4
 11
126
 21
36
 31
6.4
  0
LINE
  8
BARS
 10
126
 20
36
 30
6.4
 11
132
 21
36
 31
6.4
  0
LINE
  8
BARS
 10
6
 20
36
 30
9.6
 11
12
 21
36
 31
9.6
  0
LINE
  8
BARS
 10
12
 20
36
 30
9.6
 11
18
 21
36
 31
9.6
  0
LINE
  8
BARS
 10
18
 20
36
 30
9.6
 11
24
 21
36
 31
9.6
  0
LINE
  8
BARS
 10
84
 20
36
 30
9.6
 11
90
 21
36
 31
9.6
  0
LINE
  8
BARS
 10
90
 20
36
 30
9.6
 11
96
 21
36
 31
9.6
  0
LINE
  8
BARS
 10
6
 20
36
 30
12.8
 11
12
 21
36
 31
12.8
  0
LINE
  8
BARS
 10
12
 20
36
 30
12.8
 11
18
 21
36
 31
12.8
  0
LINE
  8
BARS
 10
18
 20
36
 30
12.8
 11
24
 21
36
 31
12.8
  0
LINE
  8
BARS
 10
84
 20
36
 30
12.8
 11
90
 21
36
 31
12.8
  0
LINE
  8
BARS
 10
90
 20
36
 30
12.8
 11
96
 21
36
 31
12.8
  0
LINE
  8
BARS
 10
6
 20
36
 30
16
 11
12
 21
36
 31
16
  0
LINE
  8
BARS
 10
12
 20
36
 30
16
 11
18
 21
36
 31
16
  0
LINE
  8
BARS
 10
18
 20
36
 30
16
 11
24
 21
36
 31
16
  0
LINE
  8
BARS
 10
84
 20
36
 30
16
 11
90
 21
36
 31
16
  0
LINE
  8
BARS
 10
90
 20
36
 30
16
 11
96
 21
36
 31
16
  0
LINE
  8
BARS
 10
6
 20
36
 30
19.2
 11
12
 21
36
 31
19.2
  0
LINE
  8
BARS
 10
6
 20
36
 30
22.4
 11
12
 21
36
 31
22.4
  0
LINE
  8
BARS
 10
6
 20
36
 30
25.6
 11
12
 21
36
 31
25.6
  0
LINE
  8
BARS
 10
6
 20
36
 30
28.8
 11
12
 21
36
 31
28.8
  0
LINE
  8
BARS
 10
6
 20
36
 30
32
 11
12
 21
36
 31
32
  0
LINE
  8
BARS
 10
6
 20
36
 30
35.2
 11
12
 21
36
 31
35.2
  0
LINE
  8
BARS
 10
6
 20
36
 30
38.4
 11
12
 21
36
 31
38.4
  0
LINE
  8
BARS
 10
24
 20
36
 30
16
 11
31.5
 21
36
 31
19
  0
LINE
  8
BARS
 10
31.5
 20
36
 30
19
 11
39
 21
36
 31
21
  0
LINE
  8
BARS
 10
39
 20
36
 30
21
 11
46.5
 21
36
 31
22
  0
LINE
  8
BARS
 10
46.5
 20
36
 30
22
 11
54
 21
36
 31
22
  0
LINE
  8
BARS
 10
54
 20
36
 30
22
 11
61.5
 21
36
 31
22
  0
LINE
  8
BARS
 10
61.5
 20
36
 30
22
 11
69
 21
36
 31
21
  0
LINE
  8
BARS
 10
69
 20
36
 30
21
 11
76.5
 21
36
 31
19
  0
LINE
  8
BARS
 10
76.5
 20
36
 30
19
 11
84
 21
36
 31
16
  0
LINE
  8
BARS
 10
6
 20
42
 30
0
 11
6
 21
42
 31
3.2
  0
LINE
  8
BARS
 10
6
 20
42
 30
3.2
 11
6
 21
42
 31
6.4
  0
LINE
  8
BARS
 10
6
 20
42
 30
6.4
 11
6
 21
42
 31
9.6
  0
LINE
  8
BARS
 10
6
 20
42
 30
9.6
 11
6
 21
42
 31
12.8
  0
LINE
  8
BARS
 10
6
 20
42
 30
12.8
 11
6
 21
42
 31
16
  0
LINE
  8
BARS
 10
6
 20
42
 30
16
 11
6
 21
42
 31
19.2
  0
LINE
  8
BARS
 10
6
 20
42
 30
19.2
 11
6
 21
42
 31
22.4
  0
LINE
  8
BARS
 10
6
 20
42
 30
22.4
 11
6
 21
42
 31
25.6
  0
LINE
  8
BARS
 10
6
 20
42
 30
25.6
 11
6
 21
42
 31
28.8
  0
LINE
  8
BARS
 10
6
 20
42
 30
28.8
 11
6
 21
42
 31
32
  0
LINE
  8
BARS
 10
6
 20
42
 30
32
 11
6
 21
42
 31
35.2
  0
LINE
  8
BARS
 10
6
 20
42
 30
35.2
 11
6
 21
42
 31
38.4
  0
LINE
  8
BARS
 10
12
 20
42
 30
0
 11
12
 21
42
 31
3.2
  0
LINE
  8
BARS
 10
12
 20
42
 30
3.2
 11
12
 21
42
 31
6.4
  0
LINE
  8
BARS
 10
12
 20
42
 30
6.4
 11
12
 21
42
 31
9.6
  0
LINE
  8
BARS
 10
12
 20
42
 30
9.6
 11
12
 21
42
 31
12.8
  0
LINE
  8
BARS
 10
12
 20
42
 30
12.8
 11
12
 21
42
 31
16
  0
LINE
  8
BARS
 10
12
 20
42
 30
16
 11
12
 21
42
 31
19.2
  0
LINE
  8
BARS
 10
12
 20
42
 30
19.2
 11
12
 21
42
 31
22.4
  0
LINE
  8
BARS
 10
12
 20
42
 30
22.4
 11
12
 21
42
 31
25.6
  0
LINE
  8
BARS
 10
12
 20
42
 30
25.6
 11
12
 21
42
 31
28.8
  0
LINE
  8
BARS
 10
12
 20
42
 30
28.8
 11
12
 21
42
 31
32
  0
LINE
  8
BARS
 10
12
 20
42
 30
32
 11
12
 21
42
 31
35.2
  0
LINE
  8
BARS
 10
12
 20
42
 30
35.2
 11
12
 21
42
 31
38.4
  0
LINE
  8
BARS
 10
18
 20
42
 30
0
 11
18
 21
42
 31
3.2
  0
LINE
  8
BARS
 10
18
 20
42
 30
3.2
 11
18
 21
42
 31
6.4
  0
LINE
  8
BARS
 10
18
 20
42
 30
6.4
 11
18
 21
42
 31
9.6
  0
LINE
  8
BARS
 10
18
 20
42
 30
9.6
 11
18
 21
42
 31
12.8
  0
LINE
  8
BARS
 10
18
 20
42
 30
12.8
 11
18
 21
42
 31
16
  0
LINE
  8
BARS
 10
24
 20
42
 30
0
 11
24
 21
42
 31
3.2
  0
LINE
  8
BARS
 10
24
 20
42
 30
3.2
 11
24
 21
42
 31
6.4
  0
LINE
  8
BARS
 10
24
 20
42
 30
6.4
 11
24
 21
42
 31
9.6
  0
LINE
  8
BARS
 10
24
 20
42
 30
9.6
 11
24
 21
42
 31
12.8
  0
LINE
  8
BARS
 10
24
 20
42
 30
12.8
 11
24
 21
42
 31
16
  0
LINE
  8
BARS
 10
84
 20
42
 30
0
 11
84
 21
42
 31
3.2
  0
LINE
  8
BARS
 10
84
 20
42
 30
3.2
 11
84
 21
42
 31
6.4
  0
LINE
  8
BARS
 10
84
 20
42
 30
6.4
 11
84
 21
42
 31
9.6
  0
LINE
  8
BARS
 10
84
 20
42
 30
9.6
 11
84
 21
42
 31
12.8
  0
LINE
  8
BARS
 10
84
 20
42
 30
12.8
 11
84
 21
42
 31
16
  0
LINE
  8
BARS
 10
90
 20
42
 30
0
 11
90
 21
42
 31
3.2
  0
LINE
  8
BARS
 10
90
 20
42
 30
3.2
 11
90
 21
42
 31
6.4
  0
LINE
  8
BARS
 10
90
 20
42
 30
6.4
 11
90
 21
42
 31
9.6
  0
LINE
  8
BARS
 10
90
 20
42
 30
9.6
 11
90
 21
42
 31
12.8
  0
LINE
  8
BARS
 10
90
 20
42
 30
12.8
 11
90
 21
42
 31
16
  0
LINE
  8
BARS
 10
96
 20
42
 30
0
 11
96
 21
42
 31
3.2
  0
LINE
  8
BARS
 10
96
 20
42
 30
3.2
 11
96
 21
42
 31
6.4
  0
LINE
  8
BARS
 10
96
 20
42
 30
6.4
 11
96
 21
42
 31
9.6
  0
LINE
  8
BARS
 10
96
 20
42
 30
9.6
 11
96
 21
42
 31
12.8
  0
LINE
  8
BARS
 10
96
 20
42
 30
12.8
 11
96
 21
42
 31
16
  0
LINE
  8
BARS
 10
102
 20
42
 30
0
 11
102
 21
42
 31
3.2
  0
LINE
  8
BARS
 10
102
 20
42
 30
3.2
 11
102
 21
42
 31
6.4
  0
LINE
  8
BARS
 10
108
 20
42
 30
0
 11
108
 21
42
 31
3.2
  0
LINE
  8
BARS
 10
108
 20
42
 30
3.2
 11
108
 21
42
 31
6.4
  0
LINE
  8
BARS
 10
114
 20
42
 30
0
 11
114
 21
42
 31
3.2
  0
LINE
  8
BARS
 10
114
 20
42
 30
3.2
 11
114
 21
42
 31
6.4
  0
LINE
  8
BARS
 10
120
 20
42
 30
0
 11
120
 21
42
 31
3.2
  0
LINE
  8
BARS
 10
120
 20
42
 30
3.2
 11
120
 21
42
 31
6.4
  0
LINE
  8
BARS
 10
126
 20
42
 30
0
 11
126
 21
42
 31
3.2
  0
LINE
  8
BARS
 10
126
 20
42
 30
3.2
 11
126
 21
42
 31
6.4
  0
LINE
  8
BARS
 10
132
 20
42
 30
0
 11
132
 21
42
 31
3.2
  0
LINE
  8
BARS
 10
132
 20
42
 30
3.2
 11
132
 21
42
 31
6.4
  0
LINE
  8
BARS
 10
6
 20
42
 30
3.2
 11
12
 21
42
 31
3.2
  0
LINE
  8
BARS
 10
12
 20
42
 30
3.2
 11
18
 21
42
 31
3.2
  0
LINE
  8
BARS
 10
18
 20
42
 30
3.2
 11
24
 21
42
 31
3.2
  0
LINE
  8
BARS
 10
84
 20
42
 30
3.2
 11
90
 21
42
 31
3.2
  0
LINE
  8
BARS
 10
90
 20
42
 30
3.2
 11
96
 21
42
 31
3.2
  0
LINE
  8
BARS
 10
96
 20
42
 30
3.2
 11
102
 21
42
 31
3.2
  0
LINE
  8
BARS
 10
102
 20
42
 30
3.2
 11
108
 21
42
 31
3.2
  0
LINE
  8
BARS
 10
108
 20
42
 30
3.2
 11
114
 21
42
 31
3.2
  0
LINE
  8
BARS
 10
114
 20
42
 30
3.2
 11
120
 21
42
 31
3.2
  0
LINE
  8
BARS
 10
120
 20
42
 30
3.2
 11
126
 21
42
 31
3.2
  0
LINE
  8
BARS
 10
126
 20
42
 30
3.2
 11
132
 21
42
 31
3.2
  0
LINE
  8
BARS
 10
6
 20
42
 30
6.4
 11
12
 21
42
 31
6.4
  0
LINE
  8
BARS
 10
12
 20
42
 30
6.4
 11
18
 21
42
 31
6.4
  0
LINE
  8
BARS
 10
18
 20
42
 30
6.4
 11
24
 21
42
 31
6.4
  0
LINE
  8
BARS
 10
84
 20
42
 30
6.4
 11
90
 21
42
 31
6.4
  0
LINE
  8
BARS
 10
90
 20
42
 30
6.4
 11
96
 21
42
 31
6.4
  0
LINE
  8
BARS
 10
96
 20
42
 30
6.4
 11
102
 21
42
 31
6.4
  0
LINE
  8
BARS
 10
102
 20
42
 30
6.4
 11
108
 21
42
 31
6.4
  0
LINE
  8
BARS
 10
108
 20
42
 30
6.4
 11
114
 21
42
 31
6.4
  0
LINE
  8
BARS
 10
114
 20
42
 30
6.4
 11
120
 21
42
 31
6.4
  0
LINE
  8
BARS
 10
120
 20
42
 30
6.4
 11
126
 21
42
 31
6.4
  0
LINE
  8
BARS
 10
126
 20
42
 30
6.4
 11
132
 21
42
 31
6.4
  0
LINE
  8
BARS
 10
6
 20
42
 30
9.6
 11
12
 21
42
 31
9.6
  0
LINE
  8
BARS
 10
12
 20
42
 30
9.6
 11
18
 21
42
 31
9.6
  0
LINE
  8
BARS
 10
18
 20
42
 30
9.6
 11
24
 21
42
 31
9.6
  0
LINE
  8
BARS
 10
84
 20
42
 30
9.6
 11
90
 21
42
 31
9.6
  0
LINE
  8
BARS
 10
90
 20
42
 30
9.6
 11
96
 21
42
 31
9.6
  0
LINE
  8
BARS
 10
6
 20
42
 30
12.8
 11
12
 21
42
 31
12.8
  0
LINE
  8
BARS
 10
12
 20
42
 30
12.8
 11
18
 21
42
 31
12.8
  0
LINE
  8
BARS
 10
18
 20
42
 30
12.8
 11
24
 21
42
 31
12.8
  0
LINE
  8
BARS
 10
84
 20
42
 30
12.8
 11
90
 21
42
 31
12.8
  0
LINE
  8
BARS
 10
90
 20
42
 30
12.8
 11
96
 21
42
 31
12.8
  0
LINE
  8
BARS
 10
6
 20
42
 30
16
 11
12
 21
42
 31
16
  0
LINE
  8
BARS
 10
12
 20
42
 30
16
 11
18
 21
42
 31
16
  0
LINE
  8
BARS
 10
18
 20
42
 30
16
 11
24
 21
42
 31
16
  0
LINE
  8
BARS
 10
84
 20
42
 30
16
 11
90
 21
42
 31
16
  0
LINE
  8
BARS
 10
90
 20
42
 30
16
 11
96
 21
42
 31
16
  0
LINE
  8
BARS
 10
6
 20
42
 30
19.2
 11
12
 21
42
 31
19.2
  0
LINE
  8
BARS
 10
6
 20
42
 30
22.4
 11
12
 21
42
 31
22.4
  0
LINE
  8
BARS
 10
6
 20
42
 30
25.6
 11
12
 21
42
 31
25.6
  0
LINE
  8
BARS
 10
6
 20
42
 30
28.8
 11
12
 21
42
 31
28.8
  0
LINE
  8
BARS
 10
6
 20
42
 30
32
 11
12
 21
42
 31
32
  0
LINE
  8
BARS
 10
6
 20
42
 30
35.2
 11
12
 21
42
 31
35.2
  0
LINE
  8
BARS
 10
6
 20
42
 30
38.4
 11
12
 21
42
 31
38.4
  0
LINE
  8
BARS
 10
24
 20
42
 30
16
 11
31.5
 21
42
 31
19
  0
LINE
  8
BARS
 10
31.5
 20
42
 30
19
 11
39
 21
42
 31
21
  0
LINE
  8
BARS
 10
39
 20
42
 30
21
 11
46.5
 21
42
 31
22
  0
LINE
  8
BARS
 10
46.5
 20
42
 30
22
 11
54
 21
42
 31
22
  0
LINE
  8
BARS
 10
54
 20
42
 30
22
 11
61.5
 21
42
 31
22
  0
LINE
  8
BARS
 10
61.5
 20
42
 30
22
 11
69
 21
42
 31
21
  0
LINE
  8
BARS
 10
69
 20
42
 30
21
 11
76.5
 21
42
 31
19
  0
LINE
  8
BARS
 10
76.5
 20
42
 30
19
 11
84
 21
42
 31
16
  0
LINE
  8
BARS
 10
6
 20
48
 30
0
 11
6
 21
48
 31
3.2
  0
LINE
  8
BARS
 10
6
 20
48
 30
3.2
 11
6
 21
48
 31
6.4
  0
LINE
  8
BARS
 10
6
 20
48
 30
6.4
 11
6
 21
48
 31
9.6
  0
LINE
  8
BARS
 10
6
 20
48
 30
9.6
 11
6
 21
48
 31
12.8
  0
LINE
  8
BARS
 10
6
 20
48
 30
12.8
 11
6
 21
48
 31
16
  0
LINE
  8
BARS
 10
6
 20
48
 30
16
 11
6
 21
48
 31
19.2
  0
LINE
  8
BARS
 10
6
 20
48
 30
19.2
 11
6
 21
48
 31
22.4
  0
LINE
  8
BARS
 10
6
 20
48
 30
22.4
 11
6
 21
48
 31
25.6
  0
LINE
  8
BARS
 10
6
 20
48
 30
25.6
 11
6
 21
48
 31
28.8
  0
LINE
  8
BARS
 10
6
 20
48
 30
28.8
 11
6
 21
48
 31
32
  0
LINE
  8
BARS
 10
6
 20
48
 30
32
 11
6
 21
48
 31
35.2
  0
LINE
  8
BARS
 10
6
 20
48
 30
35.2
 11
6
 21
48
 31
38.4
  0
LINE
  8
BARS
 10
12
 20
48
 30
0
 11
12
 21
48
 31
3.2
  0
LINE
  8
BARS
 10
12
 20
48
 30
3.2
 11
12
 21
48
 31
6.4
  0
LINE
  8
BARS
 10
12
 20
48
 30
6.4
 11
12
 21
48
 31
9.6
  0
LINE
  8
BARS
 10
12
 20
48
 30
9.6
 11
12
 21
48
 31
12.8
  0
LINE
  8
BARS
 10
12
 20
48
 30
12.8
 11
12
 21
48
 31
16
  0
LINE
  8
BARS
 10
12
 20
48
 30
16
 11
12
 21
48
 31
19.2
  0
LINE
  8
BARS
 10
12
 20
48
 30
19.2
 11
12
 21
48
 31
22.4
  0
LINE
  8
BARS
 10
12
 20
48
 30
22.4
 11
12
 21
48
 31
25.6
  0
LINE
  8
BARS
 10
12
 20
48
 30
25.6
 11
12
 21
48
 31
28.8
  0
LINE
  8
BARS
 10
12
 20
48
 30
28.8
 11
12
 21
48
 31
32
  0
LINE
  8
BARS
 10
12
 20
48
 30
32
 11
12
 21
48
 31
35.2
  0
LINE
  8
BARS
 10
12
 20
48
 30
35.2
 11
12
 21
48
 31
38.4
  0
LINE
  8
BARS
 10
18
 20
48
 30
0
 11
18
 21
48
 31
3.2
  0
LINE
  8
BARS
 10
18
 20
48
 30
3.2
 11
18
 21
48
 31
6.4
  0
LINE
  8
BARS
 10
18
 20
48
 30
6.4
 11
18
 21
48
 31
9.6
  0
LINE
  8
BARS
 10
18
 20
48
 30
9.6
 11
18
 21
48
 31
12.8
  0
LINE
  8
BARS
 10
18
 20
48
 30
12.8
 11
18
 21
48
 31
16
  0
LINE
  8
BARS
 10
24
 20
48
 30
0
 11
24
 21
48
 31
3.2
  0
LINE
  8
BARS
 10
24
 20
48
 30
3.2
 11
24
 21
48
 31
6.4
  0
LINE
  8
BARS
 10
24
 20
48
 30
6.4
 11
24
 21
48
 31
9.6
  0
LINE
  8
BARS
 10
24
 20
48
 30
9.6
 11
24
 21
48
 31
12.8
  0
LINE
  8
BARS
 10
24
 20
48
 30
12.8
 11
24
 21
48
 31
16
  0
LINE
  8
BARS
 10
84
 20
48
 30
0
 11
84
 21
48
 31
3.2
  0
LINE
  8
BARS
 10
84
 20
48
 30
3.2
 11
84
 21
48
 31
6.4
  0
LINE
  8
BARS
 10
84
 20
48
 30
6.4
 11
84
 21
48
 31
9.6
  0
LINE
  8
BARS
 10
84
 20
48
 30
9.6
 11
84
 21
48
 31
12.8
  0
LINE
  8
BARS
 10
84
 20
48
 30
12.8
 11
84
 21
48
 31
16
  0
LINE
  8
BARS
 10
90
 20
48
 30
0
 11
90
 21
48
 31
3.2
  0
LINE
  8
BARS
 10
90
 20
48
 30
3.2
 11
90
 21
48
 31
6.4
  0
LINE
  8
BARS
 10
90
 20
48
 30
6.4
 11
90
 21
48
 31
9.6
  0
LINE
  8
BARS
 10
90
 20
48
 30
9.6
 11
90
 21
48
 31
12.8
  0
LINE
  8
BARS
 10
90
 20
48
 30
12.8
 11
90
 21
48
 31
16
  0
LINE
  8
BARS
 10
96
 20
48
 30
0
 11
96
 21
48
 31
3.2
  0
LINE
  8
BARS
 10
96
 20
48
 30
3.2
 11
96
 21
48
 31
6.4
  0
LINE
  8
BARS
 10
96
 20
48
 30
6.4
 11
96
 21
48
 31
9.6
  0
LINE
  8
BARS
 10
96
 20
48
 30
9.6
 11
96
 21
48
 31
12.8
  0
LINE
  8
BARS
 10
96
 20
48
 30
12.8
 11
96
 21
48
 31
16
  0
LINE
  8
BARS
 10
102
 20
48
 30
0
 11
102
 21
48
 31
3.2
  0
LINE
  8
BARS
 10
102
 20
48
 30
3.2
 11
102
 21
48
 31
6.4
  0
LINE
  8
BARS
 10
108
 20
48
 30
0
 11
108
 21
48
 31
3.2
  0
LINE
  8
BARS
 10
108
 20
48
 30
3.2
 11
108
 21
48
 31
6.4
  0
LINE
  8
BARS
 10
114
 20
48
 30
0
 11
114
 21
48
 31
3.2
  0
LINE
  8
BARS
 10
114
 20
48
 30
3.2
 11
114
 21
48
 31
6.4
  0
LINE
  8
BARS
 10
120
 20
48
 30
0
 11
120
 21
48
 31
3.2
  0
LINE
  8
BARS
 10
120
 20
48
 30
3.2
 11
120
 21
48
 31
6.4
  0
LINE
  8
BARS
 10
126
 20
48
 30
0
 11
126
 21
48
 31
3.2
  0
LINE
  8
BARS
 10
126
 20
48
 30
3.2
 11
126
 21
48
 31
6.4
  0
LINE
  8
BARS
 10
132
 20
48
 30
0
 11
132
 21
48
 31
3.2
  0
LINE
  8
BARS
 10
132
 20
48
 30
3.2
 11
132
 21
48
 31
6.4
  0
LINE
  8
BARS
 10
6
 20
48
 30
3.2
 11
12
 21
48
 31
3.2
  0
LINE
  8
BARS
 10
12
 20
48
 30
3.2
 11
18
 21
48
 31
3.2
  0
LINE
  8
BARS
 10
18
 20
48
 30
3.2
 11
24
 21
48
 31
3.2
  0
LINE
  8
BARS
 10
84
 20
48
 30
3.2
 11
90
 21
48
 31
3.2
  0
LINE
  8
BARS
 10
90
 20
48
 30
3.2
 11
96
 21
48
 31
3.2
  0
LINE
  8
BARS
 10
96
 20
48
 30
3.2
 11
102
 21
48
 31
3.2
  0
LINE
  8
BARS
 10
102
 20
48
 30
3.2
 11
108
 21
48
 31
3.2
  0
LINE
  8
BARS
 10
108
 20
48
 30
3.2
 11
114
 21
48
 31
3.2
  0
LINE
  8
BARS
 10
114
 20
48
 30
3.2
 11
120
 21
48
 31
3.2
  0
LINE
  8
BARS
 10
120
 20
48
 30
3.2
 11
126
 21
48
 31
3.2
  0
LINE
  8
BARS
 10
126
 20
48
 30
3.2
 11
132
 21
48
 31
3.2
  0
LINE
  8
BARS
 10
6
 20
48
 30
6.4
 11
12
 21
48
 31
6.4
  0
LINE
  8
BARS
 10
12
 20
48
 30
6.4
 11
18
 21
48
 31
6.4
  0
LINE
  8
BARS
 10
18
 20
48
 30
6.4
 11
24
 21
48
 31
6.4
  0
LINE
  8
BARS
 10
84
 20
48
 30
6.4
 11
90
 21
48
 31
6.4
  0
LINE
  8
BARS
 10
90
 20
48
 30
6.4
 11
96
 21
48
 31
6.4
  0
LINE
  8
BARS
 10
96
 20
48
 30
6.4
 11
102
 21
48
 31
6.4
  0
LINE
  8
BARS
 10
102
 20
48
 30
6.4
 11
108
 21
48
 31
6.4
  0
LINE
  8
BARS
 10
108
 20
48
 30
6.4
 11
114
 21
48
 31
6.4
  0
LINE
  8
BARS
 10
114
 20
48
 30
6.4
 11
120
 21
48
 31
6.4
  0
LINE
  8
BARS
 10
120
 20
48
 30
6.4
 11
126
 21
48
 31
6.4
  0
LINE
  8
BARS
 10
126
 20
48
 30
6.4
 11
132
 21
48
 31
6.4
  0
LINE
  8
BARS
 10
6
 20
48
 30
9.6
 11
12
 21
48
 31
9.6
  0
LINE
  8
BARS
 10
12
 20
48
 30
9.6
 11
18
 21
48
 31
9.6
  0
LINE
  8
BARS
 10
18
 20
48
 30
9.6
 11
24
 21
48
 31
9.6
  0
LINE
  8
BARS
 10
84
 20
48
 30
9.6
 11
90
 21
48
 31
9.6
  0
LINE
  8
BARS
 10
90
 20
48
 30
9.6
 11
96
 21
48
 31
9.6
  0
LINE
  8
BARS
 10
6
 20
48
 30
12.8
 11
12
 21
48
 31
12.8
  0
LINE
  8
BARS
 10
12
 20
48
 30
12.8
 11
18
 21
48
 31
12.8
  0
LINE
  8
BARS
 10
18
 20
48
 30
12.8
 11
24
 21
48
 31
12.8
  0
LINE
  8
BARS
 10
84
 20
48
 30
12.8
 11
90
 21
48
 31
12.8
  0
LINE
  8
BARS
 10
90
 20
48
 30
12.8
 11
96
 21
48
 31
12.8
  0
LINE
  8
BARS
 10
6
 20
48
 30
16
 11
12
 21
48
 31
16
  0
LINE
  8
BARS
 10
12
 20
48
 30
16
 11
18
 21
48
 31
16
  0
LINE
  8
BARS
 10
18
 20
48
 30
16
 11
24
 21
48
 31
16
  0
LINE
  8
BARS
 10
84
 20
48
 30
16
 11
90
 21
48
 31
16
  0
LINE
  8
BARS
 10
90
 20
48
 30
16
 11
96
 21
48
 31
16
  0
LINE
  8
BARS
 10
6
 20
48
 30
19.2
 11
12
 21
48
 31
19.2
  0
LINE
  8
BARS
 10
6
 20
48
 30
22.4
 11
12
 21
48
 31
22.4
  0
LINE
  8
BARS
 10
6
 20
48
 30
25.6
 11
12
 21
48
 31
25.6
  0
LINE
  8
BARS
 10
6
 20
48
 30
28.8
 11
12
 21
48
 31
28.8
  0
LINE
  8
BARS
 10
6
 20
48
 30
32
 11
12
 21
48
 31
32
  0
LINE
  8
BARS
 10
6
 20
48
 30
35.2
 11
12
 21
48
 31
35.2
  0
LINE
  8
BARS
 10
6
 20
48
 30
38.4
 11
12
 21
48
 31
38.4
  0
LINE
  8
BARS
 10
24
 20
48
 30
16
 11
31.5
 21
48
 31
19
  0
LINE
  8
BARS
 10
31.5
 20
48
 30
19
 11
39
 21
48
 31
21
  0
LINE
  8
BARS
 10
39
 20
48
 30
21
 11
46.5
 21
48
 31
22
  0
LINE
  8
BARS
 10
46.5
 20
48
 30
22
 11
54
 21
48
 31
22
  0
LINE
  8
BARS
 10
54
 20
48
 30
22
 11
61.5
 21
48
 31
22
  0
LINE
  8
BARS
 10
61.5
 20
48
 30
22
 11
69
 21
48
 31
21
  0
LINE
  8
BARS
 10
69
 20
48
 30
21
 11
76.5
 21
48
 31
19
  0
LINE
  8
BARS
 10
76.5
 20
48
 30
19
 11
84
 21
48
 31
16
  0
LINE
  8
BARS
 10
0
 20
54
 30
0
 11
0
 21
54
 31
3.2
  0
LINE
  8
BARS
 10
0
 20
54
 30
3.2
 11
0
 21
54
 31
6.4
  0
LINE
  8
BARS
 10
0
 20
54
 30
6.4
 11
0
 21
54
 31
9.6
  0
LINE
  8
BARS
 10
0
 20
54
 30
9.6
 11
0
 21
54
 31
12.8
  0
LINE
  8
BARS
 10
0
 20
54
 30
12.8
 11
0
 21
54
 31
16
  0
LINE
  8
BARS
 10
0
 20
54
 30
16
 11
0
 21
54
 31
19.2
  0
LINE
  8
BARS
 10
0
 20
54
 30
19.2
 11
0
 21
54
 31
22.4
  0
LINE
  8
BARS
 10
0
 20
54
 30
22.4
 11
0
 21
54
 31
25.6
  0
LINE
  8
BARS
 10
0
 20
54
 30
25.6
 11
0
 21
54
 31
28.8
  0
LINE
  8
BARS
 10
0
 20
54
 30
28.8
 11
0
 21
54
 31
32
  0
LINE
  8
BARS
 10
0
 20
54
 30
32
 11
0
 21
54
 31
35.2
  0
LINE
  8
BARS
 10
0
 20
54
 30
35.2
 11
0
 21
54
 31
38.4
  0
LINE
  8
BARS
 10
6
 20
54
 30
0
 11
6
 21
54
 31
3.2
  0
LINE
  8
BARS
 10
6
 20
54
 30
3.2
 11
6
 21
54
 31
6.4
  0
LINE
  8
BARS
 10
6
 20
54
 30
6.4
 11
6
 21
54
 31
9.6
  0
LINE
  8
BARS
 10
6
 20
54
 30
9.6
 11
6
 21
54
 31
12.8
  0
LINE
  8
BARS
 10
6
 20
54
 30
12.8
 11
6
 21
54
 31
16
  0
LINE
  8
BARS
 10
6
 20
54
 30
16
 11
6
 21
54
 31
19.2
  0
LINE
  8
BARS
 10
6
 20
54
 30
19.2
 11
6
 21
54
 31
22.4
  0
LINE
  8
BARS
 10
6
 20
54
 30
22.4
 11
6
 21
54
 31
25.6
  0
LINE
  8
BARS
 10
6
 20
54
 30
25.6
 11
6
 21
54
 31
28.8
  0
LINE
  8
BARS
 10
6
 20
54
 30
28.8
 11
6
 21
54
 31
32
  0
LINE
  8
BARS
 10
6
 20
54
 30
32
 11
6
 21
54
 31
35.2
  0
LINE
  8
BARS
 10
6
 20
54
 30
35.2
 11
6
 21
54
 31
38.4
  0
LINE
  8
BARS
 10
12
 20
54
 30
0
 11
12
 21
54
 31
3.2
  0
LINE
  8
BARS
 10
12
 20
54
 30
3.2
 11
12
 21
54
 31
6.4
  0
LINE
  8
BARS
 10
12
 20
54
 30
6.4
 11
12
 21
54
 31
9.6
  0
LINE
  8
BARS
 10
12
 20
54
 30
9.6
 11
12
 21
54
 31
12.8
  0
LINE
  8
BARS
 10
12
 20
54
 30
12.8
 11
12
 21
54
 31
16
  0
LINE
  8
BARS
 10
12
 20
54
 30
16
 11
12
 21
54
 31
19.2
  0
LINE
  8
BARS
 10
12
 20
54
 30
19.2
 11
12
 21
54
 31
22.4
  0
LINE
  8
BARS
 10
12
 20
54
 30
22.4
 11
12
 21
54
 31
25.6
  0
LINE
  8
BARS
 10
12
 20
54
 30
25.6
 11
12
 21
54
 31
28.8
  0
LINE
  8
BARS
 10
12
 20
54
 30
28.8
 11
12
 21
54
 31
32
  0
LINE
  8
BARS
 10
12
 20
54
 30
32
 11
12
 21
54
 31
35.2
  0
LINE
  8
BARS
 10
12
 20
54
 30
35.2
 11
12
 21
54
 31
38.4
  0
LINE
  8
BARS
 10
18
 20
54
 30
0
 11
18
 21
54
 31
3.2
  0
LINE
  8
BARS
 10
18
 20
54
 30
3.2
 11
18
 21
54
 31
6.4
  0
LINE
  8
BARS
 10
18
 20
54
 30
6.4
 11
18
 21
54
 31
9.6
  0
LINE
  8
BARS
 10
18
 20
54
 30
9.6
 11
18
 21
54
 31
12.8
  0
LINE
  8
BARS
 10
18
 20
54
 30
12.8
 11
18
 21
54
 31
16
  0
LINE
  8
BARS
 10
24
 20
54
 30
0
 11
24
 21
54
 31
3.2
  0
LINE
  8
BARS
 10
24
 20
54
 30
3.2
 11
24
 21
54
 31
6.4
  0
LINE
  8
BARS
 10
24
 20
54
 30
6.4
 11
24
 21
54
 31
9.6
  0
LINE
  8
BARS
 10
24
 20
54
 30
9.6
 11
24
 21
54
 31
12.8
  0
LINE
  8
BARS
 10
24
 20
54
 30
12.8
 11
24
 21
54
 31
16
  0
LINE
  8
BARS
 10
84
 20
54
 30
0
 11
84
 21
54
 31
3.2
  0
LINE
  8
BARS
 10
84
 20
54
 30
3.2
 11
84
 21
54
 31
6.4
  0
LINE
  8
BARS
 10
84
 20
54
 30
6.4
 11
84
 21
54
 31
9.6
  0
LINE
  8
BARS
 10
84
 20
54
 30
9.6
 11
84
 21
54
 31
12.8
  0
LINE
  8
BARS
 10
84
 20
54
 30
12.8
 11
84
 21
54
 31
16
  0
LINE
  8
BARS
 10
90
 20
54
 30
0
 11
90
 21
54
 31
3.2
  0
LINE
  8
BARS
 10
90
 20
54
 30
3.2
 11
90
 21
54
 31
6.4
  0
LINE
  8
BARS
 10
90
 20
54
 30
6.4
 11
90
 21
54
 31
9.6
  0
LINE
  8
BARS
 10
90
 20
54
 30
9.6
 11
90
 21
54
 31
12.8
  0
LINE
  8
BARS
 10
90
 20
54
 30
12.8
 11
90
 21
54
 31
16
  0
LINE
  8
BARS
 10
96
 20
54
 30
0
 11
96
 21
54
 31
3.2
  0
LINE
  8
BARS
 10
96
 20
54
 30
3.2
 11
96
 21
54
 31
6.4
  0
LINE
  8
BARS
 10
96
 20
54
 30
6.4
 11
96
 21
54
 31
9.6
  0
LINE
  8
BARS
 10
96
 20
54
 30
9.6
 11
96
 21
54
 31
12.8
  0
LINE
  8
BARS
 10
96
 20
54
 30
12.8
 11
96
 21
54
 31
16
  0
LINE
  8
BARS
 10
102
 20
54
 30
0
 11
102
 21
54
 31
3.2
  0
LINE
  8
BARS
 10
102
 20
54
 30
3.2
 11
102
 21
54
 31
6.4
  0
LINE
  8
BARS
 10
108
 20
54
 30
0
 11
108
 21
54
 31
3.2
  0
LINE
  8
BARS
 10
108
 20
54
 30
3.2
 11
108
 21
54
 31
6.4
  0
LINE
  8
BARS
 10
114
 20
54
 30
0
 11
114
 21
54
 31
3.2
  0
LINE
  8
BARS
 10
114
 20
54
 30
3.2
 11
114
 21
54
 31
6.4
  0
LINE
  8
BARS
 10
120
 20
54
 30
0
 11
120
 21
54
 31
3.2
  0
LINE
  8
BARS
 10
120
 20
54
 30
3.2
 11
120
 21
54
 31
6.4
  0
LINE
  8
BARS
 10
126
 20
54
 30
0
 11
126
 21
54
 31
3.2
  0
LINE
  8
BARS
 10
126
 20
54
 30
3.2
 11
126
 21
54
 31
6.4
  0
LINE
  8
BARS
 10
132
 20
54
 30
0
 11
132
 21
54
 31
3.2
  0
LINE
  8
BARS
 10
132
 20
54
 30
3.2
 11
132
 21
54
 31
6.4
  0
LINE
  8
BARS
 10
0
 20
54
 30
3.2
 11
6
 21
54
 31
3.2
  0
LINE
  8
BARS
 10
6
 20
54
 30
3.2
 11
12
 21
54
 31
3.2
  0
LINE
  8
BARS
 10
12
 20
54
 30
3.2
 11
18
 21
54
 31
3.2
  0
LINE
  8
BARS
 10
18
 20
54
 30
3.2
 11
24
 21
54
 31
3.2
  0
LINE
  8
BARS
 10
84
 20
54
 30
3.2
 11
90
 21
54
 31
3.2
  0
LINE
  8
BARS
 10
90
 20
54
 30
3.2
 11
96
 21
54
 31
3.2
  0
LINE
  8
BARS
 10
96
 20
54
 30
3.2
 11
102
 21
54
 31
3.2
  0
LINE
  8
BARS
 10
102
 20
54
 30
3.2
 11
108
 21
54
 31
3.2
  0
LINE
  8
BARS
 10
108
 20
54
 30
3.2
 11
114
 21
54
 31
3.2
  0
LINE
  8
BARS
 10
114
 20
54
 30
3.2
 11
120
 21
54
 31
3.2
  0
LINE
  8
BARS
 10
120
 20
54
 30
3.2
 11
126
 21
54
 31
3.2
  0
LINE
  8
BARS
 10
126
 20
54
 30
3.2
 11
132
 21
54
 31
3.2
  0
LINE
  8
BARS
 10
0
 20
54
 30
6.4
 11
6
 21
54
 31
6.4
  0
LINE
  8
BARS
 10
6
 20
54
 30
6.4
 11
12
 21
54
 31
6.4
  0
LINE
  8
BARS
 10
12
 20
54
 30
6.4
 11
18
 21
54
 31
6.4
  0
LINE
  8
BARS
 10
18
 20
54
 30
6.4
 11
24
 21
54
 31
6.4
  0
LINE
  8
BARS
 10
84
 20
54
 30
6.4
 11
90
 21
54
 31
6.4
  0
LINE
  8
BARS
 10
90
 20
54
 30
6.4
 11
96
 21
54
 31
6.4
  0
LINE
  8
BARS
 10
96
 20
54
 30
6.4
 11
102
 21
54
 31
6.4
  0
LINE
  8
BARS
 10
102
 20
54
 30
6.4
 11
108
 21
54
 31
6.4
  0
LINE
  8
BARS
 10
108
 20
54
 30
6.4
 11
114
 21
54
 31
6.4
  0
LINE
  8
BARS
 10
114
 20
54
 30
6.4
 11
120
 21
54
 31
6.4
  0
LINE
  8
BARS
 10
120
 20
54
 30
6.4
 11
126
 21
54
 31
6.4
  0
LINE
  8
BARS
 10
126
 20
54
 30
6.4
 11
132
 21
54
 31
6.4
  0
LINE
  8
BARS
 10
0
 20
54
 30
9.6
 11
6
 21
54
 31
9.6
  0
LINE
  8
BARS
 10
6
 20
54
 30
9.6
 11
12
 21
54
 31
9.6
  0
LINE
  8
BARS
 10
12
 20
54
 30
9.6
 11
18
 21
54
 31
9.6
  0
LINE
  8
BARS
 10
18
 20
54
 30
9.6
 11
24
 21
54
 31
9.6
  0
LINE
  8
BARS
 10
84
 20
54
 30
9.6
 11
90
 21
54
 31
9.6
  0
LINE
  8
BARS
 10
90
 20
54
 30
9.6
 11
96
 21
54
 31
9.6
  0
LINE
  8
BARS
 10
0
 20
54
 30
12.8
 11
6
 21
54
 31
12.8
  0
LINE
  8
BARS
 10
6
 20
54
 30
12.8
 11
12
 21
54
 31
12.8
  0
LINE
  8
BARS
 10
12
 20
54
 30
12.8
 11
18
 21
54
 31
12.8
  0
LINE
  8
BARS
 10
18
 20
54
 30
12.8
 11
24
 21
54
 31
12.8
  0
LINE
  8
BARS
 10
84
 20
54
 30
12.8
 11
90
 21
54
 31
12.8
  0
LINE
  8
BARS
 10
90
 20
54
 30
12.8
 11
96
 21
54
 31
12.8
  0
LINE
  8
BARS
 10
0
 20
54
 30
16
 11
6
 21
54
 31
16
  0
LINE
  8
BARS
 10
6
 20
54
 30
16
 11
12
 21
54
 31
16
  0
LINE
  8
BARS
 10
12
 20
54
 30
16
 11
18
 21
54
 31
16
  0
LINE
  8
BARS
 10
18
 20
54
 30
16
 11
24
 21
54
 31
16
  0
LINE
  8
BARS
 10
84
 20
54
 30
16
 11
90
 21
54
 31
16
  0
LINE
  8
BARS
 10
90
 20
54
 30
16
 11
96
 21
54
 31
16
  0
LINE
  8
BARS
 10
0
 20
54
 30
19.2
 11
6
 21
54
 31
19.2
  0
LINE
  8
BARS
 10
6
 20
54
 30
19.2
 11
12
 21
54
 31
19.2
  0
LINE
  8
BARS
 10
0
 20
54
 30
22.4
 11
6
 21
54
 31
22.4
  0
LINE
  8
BARS
 10
6
 20
54
 30
22.4
 11
12
 21
54
 31
22.4
  0
LINE
  8
BARS
 10
0
 20
54
 30
25.6
 11
6
 21
54
 31
25.6
  0
LINE
  8
BARS
 10
6
 20
54
 30
25.6
 11
12
 21
54
 31
25.6
  0
LINE
  8
BARS
 10
0
 20
54
 30
28.8
 11
6
 21
54
 31
28.8
  0
LINE
  8
BARS
 10
6
 20
54
 30
28.8
 11
12
 21
54
 31
28.8
  0
LINE
  8
BARS
 10
0
 20
54
 30
32
 11
6
 21
54
 31
32
  0
LINE
  8
BARS
 10
6
 20
54
 30
32
 11
12
 21
54
 31
32
  0
LINE
  8
BARS
 10
0
 20
54
 30
35.2
 11
6
 21
54
 31
35.2
  0
LINE
  8
BARS
 10
6
 20
54
 30
35.2
 11
12
 21
54
 31
35.2
  0
LINE
  8
BARS
 10
0
 20
54
 30
38.4
 11
6
 21
54
 31
38.4
  0
LINE
  8
BARS
 10
6
 20
54
 30
38.4
 11
12
 21
54
 31
38.4
  0
LINE
  8
BARS
 10
24
 20
54
 30
16
 11
31.5
 21
54
 31
19
  0
LINE
  8
BARS
 10
31.5
 20
54
 30
19
 11
39
 21
54
 31
21
  0
LINE
  8
BARS
 10
39
 20
54
 30
21
 11
46.5
 21
54
 31
22
  0
LINE
  8
BARS
 10
46.5
 20
54
 30
22
 11
54
 21
54
 31
22
  0
LINE
  8
BARS
 10
54
 20
54
 30
22
 11
61.5
 21
54
 31
22
  0
LINE
  8
BARS
 10
61.5
 20
54
 30
22
 11
69
 21
54
 31
21
  0
LINE
  8
BARS
 10
69
 20
54
 30
21
 11
76.5
 21
54
 31
19
  0
LINE
  8
BARS
 10
76.5
 20
54
 30
19
 11
84
 21
54
 31
16
  0
LINE
  8
BARS
 10
0
 20
60
 30
0
 11
0
 21
60
 31
3.2
  0
LINE
  8
BARS
 10
0
 20
60
 30
3.2
 11
0
 21
60
 31
6.4
  0
LINE
  8
BARS
 10
0
 20
60
 30
6.4
 11
0
 21
60
 31
9.6
  0
LINE
  8
BARS
 10
0
 20
60
 30
9.6
 11
0
 21
60
 31
12.8
  0
LINE
  8
BARS
 10
0
 20
60
 30
12.8
 11
0
 21
60
 31
16
  0
LINE
  8
BARS
 10
0
 20
60
 30
16
 11
0
 21
60
 31
19.2
  0
LINE
  8
BARS
 10
0
 20
60
 30
19.2
 11
0
 21
60
 31
22.4
  0
LINE
  8
BARS
 10
0
 20
60
 30
22.4
 11
0
 21
60
 31
25.6
  0
LINE
  8
BARS
 10
0
 20
60
 30
25.6
 11
0
 21
60
 31
28.8
  0
LINE
  8
BARS
 10
0
 20
60
 30
28.8
 11
0
 21
60
 31
32
  0
LINE
  8
BARS
 10
0
 20
60
 30
32
 11
0
 21
60
 31
35.2
  0
LINE
  8
BARS
 10
0
 20
60
 30
35.2
 11
0
 21
60
 31
38.4
  0
LINE
  8
BARS
 10
6
 20
60
 30
0
 11
6
 21
60
 31
3.2
  0
LINE
  8
BARS
 10
6
 20
60
 30
3.2
 11
6
 21
60
 31
6.4
  0
LINE
  8
BARS
 10
6
 20
60
 30
6.4
 11
6
 21
60
 31
9.6
  0
LINE
  8
BARS
 10
6
 20
60
 30
9.6
 11
6
 21
60
 31
12.8
  0
LINE
  8
BARS
 10
6
 20
60
 30
12.8
 11
6
 21
60
 31
16
  0
LINE
  8
BARS
 10
6
 20
60
 30
16
 11
6
 21
60
 31
19.2
  0
LINE
  8
BARS
 10
6
 20
60
 30
19.2
 11
6
 21
60
 31
22.4
  0
LINE
  8
BARS
 10
6
 20
60
 30
22.4
 11
6
 21
60
 31
25.6
  0
LINE
  8
BARS
 10
6
 20
60
 30
25.6
 11
6
 21
60
 31
28.8
  0
LINE
  8
BARS
 10
6
 20
60
 30
28.8
 11
6
 21
60
 31
32
  0
LINE
  8
BARS
 10
6
 20
60
 30
32
 11
6
 21
60
 31
35.2
  0
LINE
  8
BARS
 10
6
 20
60
 30
35.2
 11
6
 21
60
 31
38.4
  0
LINE
  8
BARS
 10
12
 20
60
 30
0
 11
12
 21
60
 31
3.2
  0
LINE
  8
BARS
 10
12
 20
60
 30
3.2
 11
12
 21
60
 31
6.4
  0
LINE
  8
BARS
 10
12
 20
60
 30
6.4
 11
12
 21
60
 31
9.6
  0
LINE
  8
BARS
 10
12
 20
60
 30
9.6
 11
12
 21
60
 31
12.8
  0
LINE
  8
BARS
 10
12
 20
60
 30
12.8
 11
12
 21
60
 31
16
  0
LINE
  8
BARS
 10
12
 20
60
 30
16
 11
12
 21
60
 31
19.2
  0
LINE
  8
BARS
 10
12
 20
60
 30
19.2
 11
12
 21
60
 31
22.4
  0
LINE
  8
BARS
 10
12
 20
60
 30
22.4
 11
12
 21
60
 31
25.6
  0
LINE
  8
BARS
 10
12
 20
60
 30
25.6
 11
12
 21
60
 31
28.8
  0
LINE
  8
BARS
 10
12
 20
60
 30
28.8
 11
12
 21
60
 31
32
  0
LINE
  8
BARS
 10
12
 20
60
 30
32
 11
12
 21
60
 31
35.2
  0
LINE
  8
BARS
 10
12
 20
60
 30
35.2
 11
12
 21
60
 31
38.4
  0
LINE
  8
BARS
 10
18
 20
60
 30
0
 11
18
 21
60
 31
3.2
  0
LINE
  8
BARS
 10
18
 20
60
 30
3.2
 11
18
 21
60
 31
6.4
  0
LINE
  8
BARS
 10
18
 20
60
 30
6.4
 11
18
 21
60
 31
9.6
  0
LINE
  8
BARS
 10
18
 20
60
 30
9.6
 11
18
 21
60
 31
12.8
  0
LINE
  8
BARS
 10
18
 20
60
 30
12.8
 11
18
 21
60
 31
16
  0
LINE
  8
BARS
 10
24
 20
60
 30
0
 11
24
 21
60
 31
3.2
  0
LINE
  8
BARS
 10
24
 20
60
 30
3.2
 11
24
 21
60
 31
6.4
  0
LINE
  8
BARS
 10
24
 20
60
 30
6.4
 11
24
 21
60
 31
9.6
  0
LINE
  8
BARS
 10
24
 20
60
 30
9.6
 11
24
 21
60
 31
12.8
  0
LINE
  8
BARS
 10
24
 20
60
 30
12.8
 11
24
 21
60
 31
16
  0
LINE
  8
BARS
 10
84
 20
60
 30
0
 11
84
 21
60
 31
3.2
  0
LINE
  8
BARS
 10
84
 20
60
 30
3.2
 11
84
 21
60
 31
6.4
  0
LINE
  8
BARS
 10
84
 20
60
 30
6.4
 11
84
 21
60
 31
9.6
  0
LINE
  8
BARS
 10
84
 20
60
 30
9.6
 11
84
 21
60
 31
12.8
  0
LINE
  8
BARS
 10
84
 20
60
 30
12.8
 11
84
 21
60
 31
16
  0
LINE
  8
BARS
 10
90
 20
60
 30
0
 11
90
 21
60
 31
3.2
  0
LINE
  8
BARS
 10
90
 20
60
 30
3.2
 11
90
 21
60
 31
6.4
  0
LINE
  8
BARS
 10
90
 20
60
 30
6.4
 11
90
 21
60
 31
9.6
  0
LINE
  8
BARS
 10
90
 20
60
 30
9.6
 11
90
 21
60
 31
12.8
  0
LINE
  8
BARS
 10
90
 20
60
 30
12.8
 11
90
 21
60
 31
16
  0
LINE
  8
BARS
 10
96
 20
60
 30
0
 11
96
 21
60
 31
3.2
  0
LINE
  8
BARS
 10
96
 20
60
 30
3.2
 11
96
 21
60
 31
6.4
  0
LINE
  8
BARS
 10
96
 20
60
 30
6.4
 11
96
 21
60
 31
9.6
  0
LINE
  8
BARS
 10
96
 20
60
 30
9.6
 11
96
 21
60
 31
12.8
  0
LINE
  8
BARS
 10
96
 20
60
 30
12.8
 11
96
 21
60
 31
16
  0
LINE
  8
BARS
 10
102
 20
60
 30
0
 11
102
 21
60
 31
3.2
  0
LINE
  8
BARS
 10
102
 20
60
 30
3.2
 11
102
 21
60
 31
6.4
  0
LINE
  8
BARS
 10
108
 20
60
 30
0
 11
108
 21
60
 31
3.2
  0
LINE
  8
BARS
 10
108
 20
60
 30
3.2
 11
108
 21
60
 31
6.4
  0
LINE
  8
BARS
 10
114
 20
60
 30
0
 11
114
 21
60
 31
3.2
  0
LINE
  8
BARS
 10
114
 20
60
 30
3.2
 11
114
 21
60
 31
6.4
  0
LINE
  8
BARS
 10
120
 20
60
 30
0
 11
120
 21
60
 31
3.2
  0
LINE
  8
BARS
 10
120
 20
60
 30
3.2
 11
120
 21
60
 31
6.4
  0
LINE
  8
BARS
 10
126
 20
60
 30
0
 11
126
 21
60
 31
3.2
  0
LINE
  8
BARS
 10
126
 20
60
 30
3.2
 11
126
 21
60
 31
6.4
  0
LINE
  8
BARS
 10
132
 20
60
 30
0
 11
132
 21
60
 31
3.2
  0
LINE
  8
BARS
 10
132
 20
60
 30
3.2
 11
132
 21
60
 31
6.4
  0
LINE
  8
BARS
 10
0
 20
60
 30
3.2
 11
6
 21
60
 31
3.2
  0
LINE
  8
BARS
 10
6
 20
60
 30
3.2
 11
12
 21
60
 31
3.2
  0
LINE
  8
BARS
 10
12
 20
60
 30
3.2
 11
18
 21
60
 31
3.2
  0
LINE
  8
BARS
 10
18
 20
60
 30
3.2
 11
24
 21
60
 31
3.2
  0
LINE
  8
BARS
 10
84
 20
60
 30
3.2
 11
90
 21
60
 31
3.2
  0
LINE
  8
BARS
 10
90
 20
60
 30
3.2
 11
96
 21
60
 31
3.2
  0
LINE
  8
BARS
 10
96
 20
60
 30
3.2
 11
102
 21
60
 31
3.2
  0
LINE
  8
BARS
 10
102
 20
60
 30
3.2
 11
108
 21
60
 31
3.2
  0
LINE
  8
BARS
 10
108
 20
60
 30
3.2
 11
114
 21
60
 31
3.2
  0
LINE
  8
BARS
 10
114
 20
60
 30
3.2
 11
120
 21
60
 31
3.2
  0
LINE
  8
BARS
 10
120
 20
60
 30
3.2
 11
126
 21
60
 31
3.2
  0
LINE
  8
BARS
 10
126
 20
60
 30
3.2
 11
132
 21
60
 31
3.2
  0
LINE
  8
BARS
 10
0
 20
60
 30
6.4
 11
6
 21
60
 31
6.4
  0
LINE
  8
BARS
 10
6
 20
60
 30
6.4
 11
12
 21
60
 31
6.4
  0
LINE
  8
BARS
 10
12
 20
60
 30
6.4
 11
18
 21
60
 31
6.4
  0
LINE
  8
BARS
 10
18
 20
60
 30
6.4
 11
24
 21
60
 31
6.4
  0
LINE
  8
BARS
 10
84
 20
60
 30
6.4
 11
90
 21
60
 31
6.4
  0
LINE
  8
BARS
 10
90
 20
60
 30
6.4
 11
96
 21
60
 31
6.4
  0
LINE
  8
BARS
 10
96
 20
60
 30
6.4
 11
102
 21
60
 31
6.4
  0
LINE
  8
BARS
 10
102
 20
60
 30
6.4
 11
108
 21
60
 31
6.4
  0
LINE
  8
BARS
 10
108
 20
60
 30
6.4
 11
114
 21
60
 31
6.4
  0
LINE
  8
BARS
 10
114
 20
60
 30
6.4
 11
120
 21
60
 31
6.4
  0
LINE
  8
BARS
 10
120
 20
60
 30
6.4
 11
126
 21
60
 31
6.4
  0
LINE
  8
BARS
 10
126
 20
60
 30
6.4
 11
132
 21
60
 31
6.4
  0
LINE
  8
BARS
 10
0
 20
60
 30
9.6
 11
6
 21
60
 31
9.6
  0
LINE
  8
BARS
 10
6
 20
60
 30
9.6
 11
12
 21
60
 31
9.6
  0
LINE
  8
BARS
 10
12
 20
60
 30
9.6
 11
18
 21
60
 31
9.6
  0
LINE
  8
BARS
 10
18
 20
60
 30
9.6
 11
24
 21
60
 31
9.6
  0
LINE
  8
BARS
 10
84
 20
60
 30
9.6
 11
90
 21
60
 31
9.6
  0
LINE
  8
BARS
 10
90
 20
60
 30
9.6
 11
96
 21
60
 31
9.6
  0
LINE
  8
BARS
 10
0
 20
60
 30
12.8
 11
6
 21
60
 31
12.8
  0
LINE
  8
BARS
 10
6
 20
60
 30
12.8
 11
12
 21
60
 31
12.8
  0
LINE
  8
BARS
 10
12
 20
60
 30
12.8
 11
18
 21
60
 31
12.8
  0
LINE
  8
BARS
 10
18
 20
60
 30
12.8
 11
24
 21
60
 31
12.8
  0
LINE
  8
BARS
 10
84
 20
60
 30
12.8
 11
90
 21
60
 31
12.8
  0
LINE
  8
BARS
 10
90
 20
60
 30
12.8
 11
96
 21
60
 31
12.8
  0
LINE
  8
BARS
 10
0
 20
60
 30
16
 11
6
 21
60
 31
16
  0
LINE
  8
BARS
 10
6
 20
60
 30
16
 11
12
 21
60
 31
16
  0
LINE
  8
BARS
 10
12
 20
60
 30
16
 11
18
 21
60
 31
16
  0
LINE
  8
BARS
 10
18
 20
60
 30
16
 11
24
 21
60
 31
16
  0
LINE
  8
BARS
 10
84
 20
60
 30
16
 11
90
 21
60
 31
16
  0
LINE
  8
BARS
 10
90
 20
60
 30
16
 11
96
 21
60
 31
16
  0
LINE
  8
BARS
 10
0
 20
60
 30
19.2
 11
6
 21
60
 31
19.2
  0
LINE
  8
BARS
 10
6
 20
60
 30
19.2
 11
12
 21
60
 31
19.2
  0
LINE
  8
BARS
 10
0
 20
60
 30
22.4
 11
6
 21
60
 31
22.4
  0
LINE
  8
BARS
 10
6
 20
60
 30
22.4
 11
12
 21
60
 31
22.4
  0
LINE
  8
BARS
 10
0
 20
60
 30
25.6
 11
6
 21
60
 31
25.6
  0
LINE
  8
BARS
 10
6
 20
60
 30
25.6
 11
12
 21
60
 31
25.6
  0
LINE
  8
BARS
 10
0
 20
60
 30
28.8
 11
6
 21
60
 31
28.8
  0
LINE
  8
BARS
 10
6
 20
60
 30
28.8
 11
12
 21
60
 31
28.8
  0
LINE
  8
BARS
 10
0
 20
60
 30
32
 11
6
 21
60
 31
32
  0
LINE
  8
BARS
 10
6
 20
60
 30
32
 11
12
 21
60
 31
32
  0
LINE
  8
BARS
 10
0
 20
60
 30
35.2
 11
6
 21
60
 31
35.2
  0
LINE
  8
BARS
 10
6
 20
60
 30
35.2
 11
12
 21
60
 31
35.2
  0
LINE
  8
BARS
 10
0
 20
60
 30
38.4
 11
6
 21
60
 31
38.4
  0
LINE
  8
BARS
 10
6
 20
60
 30
38.4
 11
12
 21
60
 31
38.4
  0
LINE
  8
BARS
 10
24
 20
60
 30
16
 11
31.5
 21
60
 31
19
  0
LINE
  8
BARS
 10
31.5
 20
60
 30
19
 11
39
 21
60
 31
21
  0
LINE
  8
BARS
 10
39
 20
60
 30
21
 11
46.5
 21
60
 31
22
  0
LINE
  8
BARS
 10
46.5
 20
60
 30
22
 11
54
 21
60
 31
22
  0
LINE
  8
BARS
 10
54
 20
60
 30
22
 11
61.5
 21
60
 31
22
  0
LINE
  8
BARS
 10
61.5
 20
60
 30
22
 11
69
 21
60
 31
21
  0
LINE
  8
BARS
 10
69
 20
60
 30
21
 11
76.5
 21
60
 31
19
  0
LINE
  8
BARS
 10
76.5
 20
60
 30
19
 11
84
 21
60
 31
16
  0
LINE
  8
BARS
 10
0
 20
0
 30
3.2
 11
0
 21
6
 31
3.2
  0
LINE
  8
BARS
 10
0
 20
6
 30
3.2
 11
0
 21
12
 31
3.2
  0
LINE
  8
BARS
 10
0
 20
12
 30
3.2
 11
0
 21
18
 31
3.2
  0
LINE
  8
BARS
 10
0
 20
18
 30
3.2
 11
0
 21
24
 31
3.2
  0
LINE
  8
BARS
 10
0
 20
54
 30
3.2
 11
0
 21
60
 31
3.2
  0
LINE
  8
BARS
 10
6
 20
0
 30
3.2
 11
6
 21
6
 31
3.2
  0
LINE
  8
BARS
 10
6
 20
6
 30
3.2
 11
6
 21
12
 31
3.2
  0
LINE
  8
BARS
 10
6
 20
12
 30
3.2
 11
6
 21
18
 31
3.2
  0
LINE
  8
BARS
 10
6
 20
18
 30
3.2
 11
6
 21
24
 31
3.2
  0
LINE
  8
BARS
 10
6
 20
24
 30
3.2
 11
6
 21
30
 31
3.2
  0
LINE
  8
BARS
 10
6
 20
30
 30
3.2
 11
6
 21
36
 31
3.2
  0
LINE
  8
BARS
 10
6
 20
36
 30
3.2
 11
6
 21
42
 31
3.2
  0
LINE
  8
BARS
 10
6
 20
42
 30
3.2
 11
6
 21
48
 31
3.2
  0
LINE
  8
BARS
 10
6
 20
48
 30
3.2
 11
6
 21
54
 31
3.2
  0
LINE
  8
BARS
 10
6
 20
54
 30
3.2
 11
6
 21
60
 31
3.2
  0
LINE
  8
BARS
 10
12
 20
0
 30
3.2
 11
12
 21
6
 31
3.2
  0
LINE
  8
BARS
 10
12
 20
6
 30
3.2
 11
12
 21
12
 31
3.2
  0
LINE
  8
BARS
 10
12
 20
12
 30
3.2
 11
12
 21
18
 31
3.2
  0
LINE
  8
BARS
 10
12
 20
18
 30
3.2
 11
12
 21
24
 31
3.2
  0
LINE
  8
BARS
 10
12
 20
24
 30
3.2
 11
12
 21
30
 31
3.2
  0
LINE
  8
BARS
 10
12
 20
30
 30
3.2
 11
12
 21
36
 31
3.2
  0
LINE
  8
BARS
 10
12
 20
36
 30
3.2
 11
12
 21
42
 31
3.2
  0
LINE
  8
BARS
 10
12
 20
42
 30
3.2
 11
12
 21
48
 31
3.2
  0
LINE
  8
BARS
 10
12
 20
48
 30
3.2
 11
12
 21
54
 31
3.2
  0
LINE
  8
BARS
 10
12
 20
54
 30
3.2
 11
12
 21
60
 31
3.2
  0
LINE
  8
BARS
 10
18
 20
0
 30
3.2
 11
18
 21
6
 31
3.2
  0
LINE
  8
BARS
 10
18
 20
6
 30
3.2
 11
18
 21
12
 31
3.2
  0
LINE
  8
BARS
 10
18
 20
12
 30
3.2
 11
18
 21
18
 31
3.2
  0
LINE
  8
BARS
 10
18
 20
18
 30
3.2
 11
18
 21
24
 31
3.2
  0
LINE
  8
BARS
 10
18
 20
24
 30
3.2
 11
18
 21
30
 31
3.2
  0
LINE
  8
BARS
 10
18
 20
30
 30
3.2
 11
18
 21
36
 31
3.2
  0
LINE
  8
BARS
 10
18
 20
36
 30
3.2
 11
18
 21
42
 31
3.2
  0
LINE
  8
BARS
 10
18
 20
42
 30
3.2
 11
18
 21
48
 31
3.2
  0
LINE
  8
BARS
 10
18
 20
48
 30
3.2
 11
18
 21
54
 31
3.2
  0
LINE
  8
BARS
 10
18
 20
54
 30
3.2
 11
18
 21
60
 31
3.2
  0
LINE
  8
BARS
 10
24
 20
0
 30
3.2
 11
24
 21
6
 31
3.2
  0
LINE
  8
BARS
 10
24
 20
6
 30
3.2
 11
24
 21
12
 31
3.2
  0
LINE
  8
BARS
 10
24
 20
12
 30
3.2
 11
24
 21
18
 31
3.2
  0
LINE
  8
BARS
 10
24
 20
18
 30
3.2
 11
24
 21
24
 31
3.2
  0
LINE
  8
BARS
 10
24
 20
24
 30
3.2
 11
24
 21
30
 31
3.2
  0
LINE
  8
BARS
 10
24
 20
30
 30
3.2
 11
24
 21
36
 31
3.2
  0
LINE
  8
BARS
 10
24
 20
36
 30
3.2
 11
24
 21
42
 31
3.2
  0
LINE
  8
BARS
 10
24
 20
42
 30
3.2
 11
24
 21
48
 31
3.2
  0
LINE
  8
BARS
 10
24
 20
48
 30
3.2
 11
24
 21
54
 31
3.2
  0
LINE
  8
BARS
 10
24
 20
54
 30
3.2
 11
24
 21
60
 31
3.2
  0
LINE
  8
BARS
 10
84
 20
0
 30
3.2
 11
84
 21
6
 31
3.2
  0
LINE
  8
BARS
 10
84
 20
6
 30
3.2
 11
84
 21
12
 31
3.2
  0
LINE
  8
BARS
 10
84
 20
12
 30
3.2
 11
84
 21
18
 31
3.2
  0
LINE
  8
BARS
 10
84
 20
18
 30
3.2
 11
84
 21
24
 31
3.2
  0
LINE
  8
BARS
 10
84
 20
24
 30
3.2
 11
84
 21
30
 31
3.2
  0
LINE
  8
BARS
 10
84
 20
30
 30
3.2
 11
84
 21
36
 31
3.2
  0
LINE
  8
BARS
 10
84
 20
36
 30
3.2
 11
84
 21
42
 31
3.2
  0
LINE
  8
BARS
 10
84
 20
42
 30
3.2
 11
84
 21
48
 31
3.2
  0
LINE
  8
BARS
 10
84
 20
48
 30
3.2
 11
84
 21
54
 31
3.2
  0
LINE
  8
BARS
 10
84
 20
54
 30
3.2
 11
84
 21
60
 31
3.2
  0
LINE
  8
BARS
 10
90
 20
0
 30
3.2
 11
90
 21
6
 31
3.2
  0
LINE
  8
BARS
 10
90
 20
6
 30
3.2
 11
90
 21
12
 31
3.2
  0
LINE
  8
BARS
 10
90
 20
12
 30
3.2
 11
90
 21
18
 31
3.2
  0
LINE
  8
BARS
 10
90
 20
18
 30
3.2
 11
90
 21
24
 31
3.2
  0
LINE
  8
BARS
 10
90
 20
24
 30
3.2
 11
90
 21
30
 31
3.2
  0
LINE
  8
BARS
 10
90
 20
30
 30
3.2
 11
90
 21
36
 31
3.2
  0
LINE
  8
BARS
 10
90
 20
36
 30
3.2
 11
90
 21
42
 31
3.2
  0
LINE
  8
BARS
 10
90
 20
42
 30
3.2
 11
90
 21
48
 31
3.2
  0
LINE
  8
BARS
 10
90
 20
48
 30
3.2
 11
90
 21
54
 31
3.2
  0
LINE
  8
BARS
 10
90
 20
54
 30
3.2
 11
90
 21
60
 31
3.2
  0
LINE
  8
BARS
 10
96
 20
0
 30
3.2
 11
96
 21
6
 31
3.2
  0
LINE
  8
BARS
 10
96
 20
6
 30
3.2
 11
96
 21
12
 31
3.2
  0
LINE
  8
BARS
 10
96
 20
12
 30
3.2
 11
96
 21
18
 31
3.2
  0
LINE
  8
BARS
 10
96
 20
18
 30
3.2
 11
96
 21
24
 31
3.2
  0
LINE
  8
BARS
 10
96
 20
24
 30
3.2
 11
96
 21
30
 31
3.2
  0
LINE
  8
BARS
 10
96
 20
30
 30
3.2
 11
96
 21
36
 31
3.2
  0
LINE
  8
BARS
 10
96
 20
36
 30
3.2
 11
96
 21
42
 31
3.2
  0
LINE
  8
BARS
 10
96
 20
42
 30
3.2
 11
96
 21
48
 31
3.2
  0
LINE
  8
BARS
 10
96
 20
48
 30
3.2
 11
96
 21
54
 31
3.2
  0
LINE
  8
BARS
 10
96
 20
54
 30
3.2
 11
96
 21
60
 31
3.2
  0
LINE
  8
BARS
 10
102
 20
0
 30
3.2
 11
102
 21
6
 31
3.2
  0
LINE
  8
BARS
 10
102
 20
6
 30
3.2
 11
102
 21
12
 31
3.2
  0
LINE
  8
BARS
 10
102
 20
12
 30
3.2
 11
102
 21
18
 31
3.2
  0
LINE
  8
BARS
 10
102
 20
18
 30
3.2
 11
102
 21
24
 31
3.2
  0
LINE
  8
BARS
 10
102
 20
24
 30
3.2
 11
102
 21
30
 31
3.2
  0
LINE
  8
BARS
 10
102
 20
30
 30
3.2
 11
102
 21
36
 31
3.2
  0
LINE
  8
BARS
 10
102
 20
36
 30
3.2
 11
102
 21
42
 31
3.2
  0
LINE
  8
BARS
 10
102
 20
42
 30
3.2
 11
102
 21
48
 31
3.2
  0
LINE
  8
BARS
 10
102
 20
48
 30
3.2
 11
102
 21
54
 31
3.2
  0
LINE
  8
BARS
 10
102
 20
54
 30
3.2
 11
102
 21
60
 31
3.2
  0
LINE
  8
BARS
 10
108
 20
0
 30
3.2
 11
108
 21
6
 31
3.2
  0
LINE
  8
BARS
 10
108
 20
6
 30
3.2
 11
108
 21
12
 31
3.2
  0
LINE
  8
BARS
 10
108
 20
12
 30
3.2
 11
108
 21
18
 31
3.2
  0
LINE
  8
BARS
 10
108
 20
18
 30
3.2
 11
108
 21
24
 31
3.2
  0
LINE
  8
BARS
 10
108
 20
24
 30
3.2
 11
108
 21
30
 31
3.2
  0
LINE
  8
BARS
 10
108
 20
30
 30
3.2
 11
108
 21
36
 31
3.2
  0
LINE
  8
BARS
 10
108
 20
36
 30
3.2
 11
108
 21
42
 31
3.2
  0
LINE
  8
BARS
 10
108
 20
42
 30
3.2
 11
108
 21
48
 31
3.2
  0
LINE
  8
BARS
 10
108
 20
48
 30
3.2
 11
108
 21
54
 31
3.2
  0
LINE
  8
BARS
 10
108
 20
54
 30
3.2
 11
108
 21
60
 31
3.2
  0
LINE
  8
BARS
 10
114
 20
0
 30
3.2
 11
114
 21
6
 31
3.2
  0
LINE
  8
BARS
 10
114
 20
6
 30
3.2
 11
114
 21
12
 31
3.2
  0
LINE
  8
BARS
 10
114
 20
12
 30
3.2
 11
114
 21
18
 31
3.2
  0
LINE
  8
BARS
 10
114
 20
18
 30
3.2
 11
114
 21
24
 31
3.2
  0
LINE
  8
BARS
 10
114
 20
24
 30
3.2
 11
114
 21
30
 31
3.2
  0
LINE
  8
BARS
 10
114
 20
30
 30
3.2
 11
114
 21
36
 31
3.2
  0
LINE
  8
BARS
 10
114
 20
36
 30
3.2
 11
114
 21
42
 31
3.2
  0
LINE
  8
BARS
 10
114
 20
42
 30
3.2
 11
114
 21
48
 31
3.2
  0
LINE
  8
BARS
 10
114
 20
48
 30
3.2
 11
114
 21
54
 31
3.2
  0
LINE
  8
BARS
 10
114
 20
54
 30
3.2
 11
114
 21
60
 31
3.2
  0
LINE
  8
BARS
 10
120
 20
0
 30
3.2
 11
120
 21
6
 31
3.2
  0
LINE
  8
BARS
 10
120
 20
6
 30
3.2
 11
120
 21
12
 31
3.2
  0
LINE
  8
BARS
 10
120
 20
12
 30
3.2
 11
120
 21
18
 31
3.2
  0
LINE
  8
BARS
 10
120
 20
18
 30
3.2
 11
120
 21
24
 31
3.2
  0
LINE
  8
BARS
 10
120
 20
24
 30
3.2
 11
120
 21
30
 31
3.2
  0
LINE
  8
BARS
 10
120
 20
30
 30
3.2
 11
120
 21
36
 31
3.2
  0
LINE
  8
BARS
 10
120
 20
36
 30
3.2
 11
120
 21
42
 31
3.2
  0
LINE
  8
BARS
 10
120
 20
42
 30
3.2
 11
120
 21
48
 31
3.2
  0
LINE
  8
BARS
 10
120
 20
48
 30
3.2
 11
120
 21
54
 31
3.2
  0
LINE
  8
BARS
 10
120
 20
54
 30
3.2
 11
120
 21
60
 31
3.2
  0
LINE
  8
BARS
 10
126
 20
0
 30
3.2
 11
126
 21
6
 31
3.2
  0
LINE
  8
BARS
 10
126
 20
6
 30
3.2
 11
126
 21
12
 31
3.2
  0
LINE
  8
BARS
 10
126
 20
12
 30
3.2
 11
126
 21
18
 31
3.2
  0
LINE
  8
BARS
 10
126
 20
18
 30
3.2
 11
126
 21
24
 31
3.2
  0
LINE
  8
BARS
 10
126
 20
24
 30
3.2
 11
126
 21
30
 31
3.2
  0
LINE
  8
BARS
 10
126
 20
30
 30
3.2
 11
126
 21
36
 31
3.2
  0
LINE
  8
BARS
 10
126
 20
36
 30
3.2
 11
126
 21
42
 31
3.2
  0
LINE
  8
BARS
 10
126
 20
42
 30
3.2
 11
126
 21
48
 31
3.2
  0
LINE
  8
BARS
 10
126
 20
48
 30
3.2
 11
126
 21
54
 31
3.2
  0
LINE
  8
BARS
 10
126
 20
54
 30
3.2
 11
126
 21
60
 31
3.2
  0
LINE
  8
BARS
 10
132
 20
0
 30
3.2
 11
132
 21
6
 31
3.2
  0
LINE
  8
BARS
 10
132
 20
6
 30
3.2
 11
132
 21
12
 31
3.2
  0
LINE
  8
BARS
 10
132
 20
12
 30
3.2
 11
132
 21
18
 31
3.2
  0
LINE
  8
BARS
 10
132
 20
18
 30
3.2
 11
132
 21
24
 31
3.2
  0
LINE
  8
BARS
 10
132
 20
24
 30
3.2
 11
132
 21
30
 31
3.2
  0
LINE
  8
BARS
 10
132
 20
30
 30
3.2
 11
132
 21
36
 31
3.2
  0
LINE
  8
BARS
 10
132
 20
36
 30
3.2
 11
132
 21
42
 31
3.2
  0
LINE
  8
BARS
 10
132
 20
42
 30
3.2
 11
132
 21
48
 31
3.2
  0
LINE
  8
BARS
 10
132
 20
48
 30
3.2
 11
132
 21
54
 31
3.2
  0
LINE
  8
BARS
 10
132
 20
54
 30
3.2
 11
132
 21
60
 31
3.2
  0
LINE
  8
BARS
 10
0
 20
0
 30
6.4
 11
0
 21
6
 31
6.4
  0
LINE
  8
BARS
 10
0
 20
6
 30
6.4
 11
0
 21
12
 31
6.4
  0
LINE
  8
BARS
 10
0
 20
12
 30
6.4
 11
0
 21
18
 31
6.4
  0
LINE
  8
BARS
 10
0
 20
18
 30
6.4
 11
0
 21
24
 31
6.4
  0
LINE
  8
BARS
 10
0
 20
54
 30
6.4
 11
0
 21
60
 31
6.4
  0
LINE
  8
BARS
 10
6
 20
0
 30
6.4
 11
6
 21
6
 31
6.4
  0
LINE
  8
BARS
 10
6
 20
6
 30
6.4
 11
6
 21
12
 31
6.4
  0
LINE
  8
BARS
 10
6
 20
12
 30
6.4
 11
6
 21
18
 31
6.4
  0
LINE
  8
BARS
 10
6
 20
18
 30
6.4
 11
6
 21
24
 31
6.4
  0
LINE
  8
BARS
 10
6
 20
24
 30
6.4
 11
6
 21
30
 31
6.4
  0
LINE
  8
BARS
 10
6
 20
30
 30
6.4
 11
6
 21
36
 31
6.4
  0
LINE
  8
BARS
 10
6
 20
36
 30
6.4
 11
6
 21
42
 31
6.4
  0
LINE
  8
BARS
 10
6
 20
42
 30
6.4
 11
6
 21
48
 31
6.4
  0
LINE
  8
BARS
 10
6
 20
48
 30
6.4
 11
6
 21
54
 31
6.4
  0
LINE
  8
BARS
 10
6
 20
54
 30
6.4
 11
6
 21
60
 31
6.4
  0
LINE
  8
BARS
 10
12
 20
0
 30
6.4
 11
12
 21
6
 31
6.4
  0
LINE
  8
BARS
 10
12
 20
6
 30
6.4
 11
12
 21
12
 31
6.4
  0
LINE
  8
BARS
 10
12
 20
12
 30
6.4
 11
12
 21
18
 31
6.4
  0
LINE
  8
BARS
 10
12
 20
18
 30
6.4
 11
12
 21
24
 31
6.4
  0
LINE
  8
BARS
 10
12
 20
24
 30
6.4
 11
12
 21
30
 31
6.4
  0
LINE
  8
BARS
 10
12
 20
30
 30
6.4
 11
12
 21
36
 31
6.4
  0
LINE
  8
BARS
 10
12
 20
36
 30
6.4
 11
12
 21
42
 31
6.4
  0
LINE
  8
BARS
 10
12
 20
42
 30
6.4
 11
12
 21
48
 31
6.4
  0
LINE
  8
BARS
 10
12
 20
48
 30
6.4
 11
12
 21
54
 31
6.4
  0
LINE
  8
BARS
 10
12
 20
54
 30
6.4
 11
12
 21
60
 31
6.4
  0
LINE
  8
BARS
 10
18
 20
0
 30
6.4
 11
18
 21
6
 31
6.4
  0
LINE
  8
BARS
 10
18
 20
6
 30
6.4
 11
18
 21
12
 31
6.4
  0
LINE
  8
BARS
 10
18
 20
12
 30
6.4
 11
18
 21
18
 31
6.4
  0
LINE
  8
BARS
 10
18
 20
18
 30
6.4
 11
18
 21
24
 31
6.4
  0
LINE
  8
BARS
 10
18
 20
24
 30
6.4
 11
18
 21
30
 31
6.4
  0
LINE
  8
BARS
 10
18
 20
30
 30
6.4
 11
18
 21
36
 31
6.4
  0
LINE
  8
BARS
 10
18
 20
36
 30
6.4
 11
18
 21
42
 31
6.4
  0
LINE
  8
BARS
 10
18
 20
42
 30
6.4
 11
18
 21
48
 31
6.4
  0
LINE
  8
BARS
 10
18
 20
48
 30
6.4
 11
18
 21
54
 31
6.4
  0
LINE
  8
BARS
 10
18
 20
54
 30
6.4
 11
18
 21
60
 31
6.4
  0
LINE
  8
BARS
 10
24
 20
0
 30
6.4
 11
24
 21
6
 31
6.4
  0
LINE
  8
BARS
 10
24
 20
6
 30
6.4
 11
24
 21
12
 31
6.4
  0
LINE
  8
BARS
 10
24
 20
12
 30
6.4
 11
24
 21
18
 31
6.4
  0
LINE
  8
BARS
 10
24
 20
18
 30
6.4
 11
24
 21
24
 31
6.4
  0
LINE
  8
BARS
 10
24
 20
24
 30
6.4
 11
24
 21
30
 31
6.4
  0
LINE
  8
BARS
 10
24
 20
30
 30
6.4
 11
24
 21
36
 31
6.4
  0
LINE
  8
BARS
 10
24
 20
36
 30
6.4
 11
24
 21
42
 31
6.4
  0
LINE
  8
BARS
 10
24
 20
42
 30
6.4
 11
24
 21
48
 31
6.4
  0
LINE
  8
BARS
 10
24
 20
48
 30
6.4
 11
24
 21
54
 31
6.4
  0
LINE
  8
BARS
 10
24
 20
54
 30
6.4
 11
24
 21
60
 31
6.4
  0
LINE
  8
BARS
 10
84
 20
0
 30
6.4
 11
84
 21
6
 31
6.4
  0
LINE
  8
BARS
 10
84
 20
6
 30
6.4
 11
84
 21
12
 31
6.4
  0
LINE
  8
BARS
 10
84
 20
12
 30
6.4
 11
84
 21
18
 31
6.4
  0
LINE
  8
BARS
 10
84
 20
18
 30
6.4
 11
84
 21
24
 31
6.4
  0
LINE
  8
BARS
 10
84
 20
24
 30
6.4
 11
84
 21
30
 31
6.4
  0
LINE
  8
BARS
 10
84
 20
30
 30
6.4
 11
84
 21
36
 31
6.4
  0
LINE
  8
BARS
 10
84
 20
36
 30
6.4
 11
84
 21
42
 31
6.4
  0
LINE
  8
BARS
 10
84
 20
42
 30
6.4
 11
84
 21
48
 31
6.4
  0
LINE
  8
BARS
 10
84
 20
48
 30
6.4
 11
84
 21
54
 31
6.4
  0
LINE
  8
BARS
 10
84
 20
54
 30
6.4
 11
84
 21
60
 31
6.4
  0
LINE
  8
BARS
 10
90
 20
0
 30
6.4
 11
90
 21
6
 31
6.4
  0
LINE
  8
BARS
 10
90
 20
6
 30
6.4
 11
90
 21
12
 31
6.4
  0
LINE
  8
BARS
 10
90
 20
12
 30
6.4
 11
90
 21
18
 31
6.4
  0
LINE
  8
BARS
 10
90
 20
18
 30
6.4
 11
90
 21
24
 31
6.4
  0
LINE
  8
BARS
 10
90
 20
24
 30
6.4
 11
90
 21
30
 31
6.4
  0
LINE
  8
BARS
 10
90
 20
30
 30
6.4
 11
90
 21
36
 31
6.4
  0
LINE
  8
BARS
 10
90
 20
36
 30
6.4
 11
90
 21
42
 31
6.4
  0
LINE
  8
BARS
 10
90
 20
42
 30
6.4
 11
90
 21
48
 31
6.4
  0
LINE
  8
BARS
 10
90
 20
48
 30
6.4
 11
90
 21
54
 31
6.4
  0
LINE
  8
BARS
 10
90
 20
54
 30
6.4
 11
90
 21
60
 31
6.4
  0
LINE
  8
BARS
 10
96
 20
0
 30
6.4
 11
96
 21
6
 31
6.4
  0
LINE
  8
BARS
 10
96
 20
6
 30
6.4
 11
96
 21
12
 31
6.4
  0
LINE
  8
BARS
 10
96
 20
12
 30
6.4
 11
96
 21
18
 31
6.4
  0
LINE
  8
BARS
 10
96
 20
18
 30
6.4
 11
96
 21
24
 31
6.4
  0
LINE
  8
BARS
 10
96
 20
24
 30
6.4
 11
96
 21
30
 31
6.4
  0
LINE
  8
BARS
 10
96
 20
30
 30
6.4
 11
96
 21
36
 31
6.4
  0
LINE
  8
BARS
 10
96
 20
36
 30
6.4
 11
96
 21
42
 31
6.4
  0
LINE
  8
BARS
 10
96
 20
42
 30
6.4
 11
96
 21
48
 31
6.4
  0
LINE
  8
BARS
 10
96
 20
48
 30
6.4
 11
96
 21
54
 31
6.4
  0
LINE
  8
BARS
 10
96
 20
54
 30
6.4
 11
96
 21
60
 31
6.4
  0
LINE
  8
BARS
 10
102
 20
0
 30
6.4
 11
102
 21
6
 31
6.4
  0
LINE
  8
BARS
 10
102
 20
6
 30
6.4
 11
102
 21
12
 31
6.4
  0
LINE
  8
BARS
 10
102
 20
12
 30
6.4
 11
102
 21
18
 31
6.4
  0
LINE
  8
BARS
 10
102
 20
18
 30
6.4
 11
102
 21
24
 31
6.4
  0
LINE
  8
BARS
 10
102
 20
24
 30
6.4
 11
102
 21
30
 31
6.4
  0
LINE
  8
BARS
 10
102
 20
30
 30
6.4
 11
102
 21
36
 31
6.4
  0
LINE
  8
BARS
 10
102
 20
36
 30
6.4
 11
102
 21
42
 31
6.4
  0
LINE
  8
BARS
 10
102
 20
42
 30
6.4
 11
102
 21
48
 31
6.4
  0
LINE
  8
BARS
 10
102
 20
48
 30
6.4
 11
102
 21
54
 31
6.4
  0
LINE
  8
BARS
 10
102
 20
54
 30
6.4
 11
102
 21
60
 31
6.4
  0
LINE
  8
BARS
 10
108
 20
0
 30
6.4
 11
108
 21
6
 31
6.4
  0
LINE
  8
BARS
 10
108
 20
6
 30
6.4
 11
108
 21
12
 31
6.4
  0
LINE
  8
BARS
 10
108
 20
12
 30
6.4
 11
108
 21
18
 31
6.4
  0
LINE
  8
BARS
 10
108
 20
18
 30
6.4
 11
108
 21
24
 31
6.4
  0
LINE
  8
BARS
 10
108
 20
24
 30
6.4
 11
108
 21
30
 31
6.4
  0
LINE
  8
BARS
 10
108
 20
30
 30
6.4
 11
108
 21
36
 31
6.4
  0
LINE
  8
BARS
 10
108
 20
36
 30
6.4
 11
108
 21
42
 31
6.4
  0
LINE
  8
BARS
 10
108
 20
42
 30
6.4
 11
108
 21
48
 31
6.4
  0
LINE
  8
BARS
 10
108
 20
48
 30
6.4
 11
108
 21
54
 31
6.4
  0
LINE
  8
BARS
 10
108
 20
54
 30
6.4
 11
108
 21
60
 31
6.4
  0
LINE
  8
BARS
 10
114
 20
0
 30
6.4
 11
114
 21
6
 31
6.4
  0
LINE
  8
BARS
 10
114
 20
6
 30
6.4
 11
114
 21
12
 31
6.4
  0
LINE
  8
BARS
 10
114
 20
12
 30
6.4
 11
114
 21
18
 31
6.4
  0
LINE
  8
BARS
 10
114
 20
18
 30
6.4
 11
114
 21
24
 31
6.4
  0
LINE
  8
BARS
 10
114
 20
24
 30
6.4
 11
114
 21
30
 31
6.4
  0
LINE
  8
BARS
 10
114
 20
30
 30
6.4
 11
114
 21
36
 31
6.4
  0
LINE
  8
BARS
 10
114
 20
36
 30
6.4
 11
114
 21
42
 31
6.4
  0
LINE
  8
BARS
 10
114
 20
42
 30
6.4
 11
114
 21
48
 31
6.4
  0
LINE
  8
BARS
 10
114
 20
48
 30
6.4
 11
114
 21
54
 31
6.4
  0
LINE
  8
BARS
 10
114
 20
54
 30
6.4
 11
114
 21
60
 31
6.4
  0
LINE
  8
BARS
 10
120
 20
0
 30
6.4
 11
120
 21
6
 31
6.4
  0
LINE
  8
BARS
 10
120
 20
6
 30
6.4
 11
120
 21
12
 31
6.4
  0
LINE
  8
BARS
 10
120
 20
12
 30
6.4
 11
120
 21
18
 31
6.4
  0
LINE
  8
BARS
 10
120
 20
18
 30
6.4
 11
120
 21
24
 31
6.4
  0
LINE
  8
BARS
 10
120
 20
24
 30
6.4
 11
120
 21
30
 31
6.4
  0
LINE
  8
BARS
 10
120
 20
30
 30
6.4
 11
120
 21
36
 31
6.4
  0
LINE
  8
BARS
 10
120
 20
36
 30
6.4
 11
120
 21
42
 31
6.4
  0
LINE
  8
BARS
 10
120
 20
42
 30
6.4
 11
120
 21
48
 31
6.4
  0
LINE
  8
BARS
 10
120
 20
48
 30
6.4
 11
120
 21
54
 31
6.4
  0
LINE
  8
BARS
 10
120
 20
54
 30
6.4
 11
120
 21
60
 31
6.4
  0
LINE
  8
BARS
 10
126
 20
0
 30
6.4
 11
126
 21
6
 31
6.4
  0
LINE
  8
BARS
 10
126
 20
6
 30
6.4
 11
126
 21
12
 31
6.4
  0
LINE
  8
BARS
 10
126
 20
12
 30
6.4
 11
126
 21
18
 31
6.4
  0
LINE
  8
BARS
 10
126
 20
18
 30
6.4
 11
126
 21
24
 31
6.4
  0
LINE
  8
BARS
 10
126
 20
24
 30
6.4
 11
126
 21
30
 31
6.4
  0
LINE
  8
BARS
 10
126
 20
30
 30
6.4
 11
126
 21
36
 31
6.4
  0
LINE
  8
BARS
 10
126
 20
36
 30
6.4
 11
126
 21
42
 31
6.4
  0
LINE
  8
BARS
 10
126
 20
42
 30
6.4
 11
126
 21
48
 31
6.4
  0
LINE
  8
BARS
 10
126
 20
48
 30
6.4
 11
126
 21
54
 31
6.4
  0
LINE
  8
BARS
 10
126
 20
54
 30
6.4
 11
126
 21
60
 31
6.4
  0
LINE
  8
BARS
 10
132
 20
0
 30
6.4
 11
132
 21
6
 31
6.4
  0
LINE
  8
BARS
 10
132
 20
6
 30
6.4
 11
132
 21
12
 31
6.4
  0
LINE
  8
BARS
 10
132
 20
12
 30
6.4
 11
132
 21
18
 31
6.4
  0
LINE
  8
BARS
 10
132
 20
18
 30
6.4
 11
132
 21
24
 31
6.4
  0
LINE
  8
BARS
 10
132
 20
24
 30
6.4
 11
132
 21
30
 31
6.4
  0
LINE
  8
BARS
 10
132
 20
30
 30
6.4
 11
132
 21
36
 31
6.4
  0
LINE
  8
BARS
 10
132
 20
36
 30
6.4
 11
132
 21
42
 31
6.4
  0
LINE
  8
BARS
 10
132
 20
42
 30
6.4
 11
132
 21
48
 31
6.4
  0
LINE
  8
BARS
 10
132
 20
48
 30
6.4
 11
132
 21
54
 31
6.4
  0
LINE
  8
BARS
 10
132
 20
54
 30
6.4
 11
132
 21
60
 31
6.4
  0
LINE
  8
BARS
 10
0
 20
0
 30
9.6
 11
0
 21
6
 31
9.6
  0
LINE
  8
BARS
 10
0
 20
6
 30
9.6
 11
0
 21
12
 31
9.6
  0
LINE
  8
BARS
 10
0
 20
12
 30
9.6
 11
0
 21
18
 31
9.6
  0
LINE
  8
BARS
 10
0
 20
18
 30
9.6
 11
0
 21
24
 31
9.6
  0
LINE
  8
BARS
 10
0
 20
54
 30
9.6
 11
0
 21
60
 31
9.6
  0
LINE
  8
BARS
 10
6
 20
0
 30
9.6
 11
6
 21
6
 31
9.6
  0
LINE
  8
BARS
 10
6
 20
6
 30
9.6
 11
6
 21
12
 31
9.6
  0
LINE
  8
BARS
 10
6
 20
12
 30
9.6
 11
6
 21
18
 31
9.6
  0
LINE
  8
BARS
 10
6
 20
18
 30
9.6
 11
6
 21
24
 31
9.6
  0
LINE
  8
BARS
 10
6
 20
24
 30
9.6
 11
6
 21
30
 31
9.6
  0
LINE
  8
BARS
 10
6
 20
30
 30
9.6
 11
6
 21
36
 31
9.6
  0
LINE
  8
BARS
 10
6
 20
36
 30
9.6
 11
6
 21
42
 31
9.6
  0
LINE
  8
BARS
 10
6
 20
42
 30
9.6
 11
6
 21
48
 31
9.6
  0
LINE
  8
BARS
 10
6
 20
48
 30
9.6
 11
6
 21
54
 31
9.6
  0
LINE
  8
BARS
 10
6
 20
54
 30
9.6
 11
6
 21
60
 31
9.6
  0
LINE
  8
BARS
 10
12
 20
0
 30
9.6
 11
12
 21
6
 31
9.6
  0
LINE
  8
BARS
 10
12
 20
6
 30
9.6
 11
12
 21
12
 31
9.6
  0
LINE
  8
BARS
 10
12
 20
12
 30
9.6
 11
12
 21
18
 31
9.6
  0
LINE
  8
BARS
 10
12
 20
18
 30
9.6
 11
12
 21
24
 31
9.6
  0
LINE
  8
BARS
 10
12
 20
24
 30
9.6
 11
12
 21
30
 31
9.6
  0
LINE
  8
BARS
 10
12
 20
30
 30
9.6
 11
12
 21
36
 31
9.6
  0
LINE
  8
BARS
 10
12
 20
36
 30
9.6
 11
12
 21
42
 31
9.6
  0
LINE
  8
BARS
 10
12
 20
42
 30
9.6
 11
12
 21
48
 31
9.6
  0
LINE
  8
BARS
 10
12
 20
48
 30
9.6
 11
12
 21
54
 31
9.6
  0
LINE
  8
BARS
 10
12
 20
54
 30
9.6
 11
12
 21
60
 31
9.6
  0
LINE
  8
BARS
 10
18
 20
0
 30
9.6
 11
18
 21
6
 31
9.6
  0
LINE
  8
BARS
 10
18
 20
6
 30
9.6
 11
18
 21
12
 31
9.6
  0
LINE
  8
BARS
 10
18
 20
12
 30
9.6
 11
18
 21
18
 31
9.6
  0
LINE
  8
BARS
 10
18
 20
18
 30
9.6
 11
18
 21
24
 31
9.6
  0
LINE
  8
BARS
 10
18
 20
24
 30
9.6
 11
18
 21
30
 31
9.6
  0
LINE
  8
BARS
 10
18
 20
30
 30
9.6
 11
18
 21
36
 31
9.6
  0
LINE
  8
BARS
 10
18
 20
36
 30
9.6
 11
18
 21
42
 31
9.6
  0
LINE
  8
BARS
 10
18
 20
42
 30
9.6
 11
18
 21
48
 31
9.6
  0
LINE
  8
BARS
 10
18
 20
48
 30
9.6
 11
18
 21
54
 31
9.6
  0
LINE
  8
BARS
 10
18
 20
54
 30
9.6
 11
18
 21
60
 31
9.6
  0
LINE
  8
BARS
 10
24
 20
0
 30
9.6
 11
24
 21
6
 31
9.6
  0
LINE
  8
BARS
 10
24
 20
6
 30
9.6
 11
24
 21
12
 31
9.6
  0
LINE
  8
BARS
 10
24
 20
12
 30
9.6
 11
24
 21
18
 31
9.6
  0
LINE
  8
BARS
 10
24
 20
18
 30
9.6
 11
24
 21
24
 31
9.6
  0
LINE
  8
BARS
 10
24
 20
24
 30
9.6
 11
24
 21
30
 31
9.6
  0
LINE
  8
BARS
 10
24
 20
30
 30
9.6
 11
24
 21
36
 31
9.6
  0
LINE
  8
BARS
 10
24
 20
36
 30
9.6
 11
24
 21
42
 31
9.6
  0
LINE
  8
BARS
 10
24
 20
42
 30
9.6
 11
24
 21
48
 31
9.6
  0
LINE
  8
BARS
 10
24
 20
48
 30
9.6
 11
24
 21
54
 31
9.6
  0
LINE
  8
BARS
 10
24
 20
54
 30
9.6
 11
24
 21
60
 31
9.6
  0
LINE
  8
BARS
 10
84
 20
0
 30
9.6
 11
84
 21
6
 31
9.6
  0
LINE
  8
BARS
 10
84
 20
6
 30
9.6
 11
84
 21
12
 31
9.6
  0
LINE
  8
BARS
 10
84
 20
12
 30
9.6
 11
84
 21
18
 31
9.6
  0
LINE
  8
BARS
 10
84
 20
18
 30
9.6
 11
84
 21
24
 31
9.6
  0
LINE
  8
BARS
 10
84
 20
24
 30
9.6
 11
84
 21
30
 31
9.6
  0
LINE
  8
BARS
 10
84
 20
30
 30
9.6
 11
84
 21
36
 31
9.6
  0
LINE
  8
BARS
 10
84
 20
36
 30
9.6
 11
84
 21
42
 31
9.6
  0
LINE
  8
BARS
 10
84
 20
42
 30
9.6
 11
84
 21
48
 31
9.6
  0
LINE
  8
BARS
 10
84
 20
48
 30
9.6
 11
84
 21
54
 31
9.6
  0
LINE
  8
BARS
 10
84
 20
54
 30
9.6
 11
84
 21
60
 31
9.6
  0
LINE
  8
BARS
 10
90
 20
0
 30
9.6
 11
90
 21
6
 31
9.6
  0
LINE
  8
BARS
 10
90
 20
6
 30
9.6
 11
90
 21
12
 31
9.6
  0
LINE
  8
BARS
 10
90
 20
12
 30
9.6
 11
90
 21
18
 31
9.6
  0
LINE
  8
BARS
 10
90
 20
18
 30
9.6
 11
90
 21
24
 31
9.6
  0
LINE
  8
BARS
 10
90
 20
24
 30
9.6
 11
90
 21
30
 31
9.6
  0
LINE
  8
BARS
 10
90
 20
30
 30
9.6
 11
90
 21
36
 31
9.6
  0
LINE
  8
BARS
 10
90
 20
36
 30
9.6
 11
90
 21
42
 31
9.6
  0
LINE
  8
BARS
 10
90
 20
42
 30
9.6
 11
90
 21
48
 31
9.6
  0
LINE
  8
BARS
 10
90
 20
48
 30
9.6
 11
90
 21
54
 31
9.6
  0
LINE
  8
BARS
 10
90
 20
54
 30
9.6
 11
90
 21
60
 31
9.6
  0
LINE
  8
BARS
 10
96
 20
0
 30
9.6
 11
96
 21
6
 31
9.6
  0
LINE
  8
BARS
 10
96
 20
6
 30
9.6
 11
96
 21
12
 31
9.6
  0
LINE
  8
BARS
 10
96
 20
12
 30
9.6
 11
96
 21
18
 31
9.6
  0
LINE
  8
BARS
 10
96
 20
18
 30
9.6
 11
96
 21
24
 31
9.6
  0
LINE
  8
BARS
 10
96
 20
24
 30
9.6
 11
96
 21
30
 31
9.6
  0
LINE
  8
BARS
 10
96
 20
30
 30
9.6
 11
96
 21
36
 31
9.6
  0
LINE
  8
BARS
 10
96
 20
36
 30
9.6
 11
96
 21
42
 31
9.6
  0
LINE
  8
BARS
 10
96
 20
42
 30
9.6
 11
96
 21
48
 31
9.6
  0
LINE
  8
BARS
 10
96
 20
48
 30
9.6
 11
96
 21
54
 31
9.6
  0
LINE
  8
BARS
 10
96
 20
54
 30
9.6
 11
96
 21
60
 31
9.6
  0
LINE
  8
BARS
 10
0
 20
0
 30
12.8
 11
0
 21
6
 31
12.8
  0
LINE
  8
BARS
 10
0
 20
6
 30
12.8
 11
0
 21
12
 31
12.8
  0
LINE
  8
BARS
 10
0
 20
12
 30
12.8
 11
0
 21
18
 31
12.8
  0
LINE
  8
BARS
 10
0
 20
18
 30
12.8
 11
0
 21
24
 31
12.8
  0
LINE
  8
BARS
 10
0
 20
54
 30
12.8
 11
0
 21
60
 31
12.8
  0
LINE
  8
BARS
 10
6
 20
0
 30
12.8
 11
6
 21
6
 31
12.8
  0
LINE
  8
BARS
 10
6
 20
6
 30
12.8
 11
6
 21
12
 31
12.8
  0
LINE
  8
BARS
 10
6
 20
12
 30
12.8
 11
6
 21
18
 31
12.8
  0
LINE
  8
BARS
 10
6
 20
18
 30
12.8
 11
6
 21
24
 31
12.8
  0
LINE
  8
BARS
 10
6
 20
24
 30
12.8
 11
6
 21
30
 31
12.8
  0
LINE
  8
BARS
 10
6
 20
30
 30
12.8
 11
6
 21
36
 31
12.8
  0
LINE
  8
BARS
 10
6
 20
36
 30
12.8
 11
6
 21
42
 31
12.8
  0
LINE
  8
BARS
 10
6
 20
42
 30
12.8
 11
6
 21
48
 31
12.8
  0
LINE
  8
BARS
 10
6
 20
48
 30
12.8
 11
6
 21
54
 31
12.8
  0
LINE
  8
BARS
 10
6
 20
54
 30
12.8
 11
6
 21
60
 31
12.8
  0
LINE
  8
BARS
 10
12
 20
0
 30
12.8
 11
12
 21
6
 31
12.8
  0
LINE
  8
BARS
 10
12
 20
6
 30
12.8
 11
12
 21
12
 31
12.8
  0
LINE
  8
BARS
 10
12
 20
12
 30
12.8
 11
12
 21
18
 31
12.8
  0
LINE
  8
BARS
 10
12
 20
18
 30
12.8
 11
12
 21
24
 31
12.8
  0
LINE
  8
BARS
 10
12
 20
24
 30
12.8
 11
12
 21
30
 31
12.8
  0
LINE
  8
BARS
 10
12
 20
30
 30
12.8
 11
12
 21
36
 31
12.8
  0
LINE
  8
BARS
 10
12
 20
36
 30
12.8
 11
12
 21
42
 31
12.8
  0
LINE
  8
BARS
 10
12
 20
42
 30
12.8
 11
12
 21
48
 31
12.8
  0
LINE
  8
BARS
 10
12
 20
48
 30
12.8
 11
12
 21
54
 31
12.8
  0
LINE
  8
BARS
 10
12
 20
54
 30
12.8
 11
12
 21
60
 31
12.8
  0
LINE
  8
BARS
 10
18
 20
0
 30
12.8
 11
18
 21
6
 31
12.8
  0
LINE
  8
BARS
 10
18
 20
6
 30
12.8
 11
18
 21
12
 31
12.8
  0
LINE
  8
BARS
 10
18
 20
12
 30
12.8
 11
18
 21
18
 31
12.8
  0
LINE
  8
BARS
 10
18
 20
18
 30
12.8
 11
18
 21
24
 31
12.8
  0
LINE
  8
BARS
 10
18
 20
24
 30
12.8
 11
18
 21
30
 31
12.8
  0
LINE
  8
BARS
 10
18
 20
30
 30
12.8
 11
18
 21
36
 31
12.8
  0
LINE
  8
BARS
 10
18
 20
36
 30
12.8
 11
18
 21
42
 31
12.8
  0
LINE
  8
BARS
 10
18
 20
42
 30
12.8
 11
18
 21
48
 31
12.8
  0
LINE
  8
BARS
 10
18
 20
48
 30
12.8
 11
18
 21
54
 31
12.8
  0
LINE
  8
BARS
 10
18
 20
54
 30
12.8
 11
18
 21
60
 31
12.8
  0
LINE
  8
BARS
 10
24
 20
0
 30
12.8
 11
24
 21
6
 31
12.8
  0
LINE
  8
BARS
 10
24
 20
6
 30
12.8
 11
24
 21
12
 31
12.8
  0
LINE
  8
BARS
 10
24
 20
12
 30
12.8
 11
24
 21
18
 31
12.8
  0
LINE
  8
BARS
 10
24
 20
18
 30
12.8
 11
24
 21
24
 31
12.8
  0
LINE
  8
BARS
 10
24
 20
24
 30
12.8
 11
24
 21
30
 31
12.8
  0
LINE
  8
BARS
 10
24
 20
30
 30
12.8
 11
24
 21
36
 31
12.8
  0
LINE
  8
BARS
 10
24
 20
36
 30
12.8
 11
24
 21
42
 31
12.8
  0
LINE
  8
BARS
 10
24
 20
42
 30
12.8
 11
24
 21
48
 31
12.8
  0
LINE
  8
BARS
 10
24
 20
48
 30
12.8
 11
24
 21
54
 31
12.8
  0
LINE
  8
BARS
 10
24
 20
54
 30
12.8
 11
24
 21
60
 31
12.8
  0
LINE
  8
BARS
 10
84
 20
0
 30
12.8
 11
84
 21
6
 31
12.8
  0
LINE
  8
BARS
 10
84
 20
6
 30
12.8
 11
84
 21
12
 31
12.8
  0
LINE
  8
BARS
 10
84
 20
12
 30
12.8
 11
84
 21
18
 31
12.8
  0
LINE
  8
BARS
 10
84
 20
18
 30
12.8
 11
84
 21
24
 31
12.8
  0
LINE
  8
BARS
 10
84
 20
24
 30
12.8
 11
84
 21
30
 31
12.8
  0
LINE
  8
BARS
 10
84
 20
30
 30
12.8
 11
84
 21
36
 31
12.8
  0
LINE
  8
BARS
 10
84
 20
36
 30
12.8
 11
84
 21
42
 31
12.8
  0
LINE
  8
BARS
 10
84
 20
42
 30
12.8
 11
84
 21
48
 31
12.8
  0
LINE
  8
BARS
 10
84
 20
48
 30
12.8
 11
84
 21
54
 31
12.8
  0
LINE
  8
BARS
 10
84
 20
54
 30
12.8
 11
84
 21
60
 31
12.8
  0
LINE
  8
BARS
 10
90
 20
0
 30
12.8
 11
90
 21
6
 31
12.8
  0
LINE
  8
BARS
 10
90
 20
6
 30
12.8
 11
90
 21
12
 31
12.8
  0
LINE
  8
BARS
 10
90
 20
12
 30
12.8
 11
90
 21
18
 31
12.8
  0
LINE
  8
BARS
 10
90
 20
18
 30
12.8
 11
90
 21
24
 31
12.8
  0
LINE
  8
BARS
 10
90
 20
24
 30
12.8
 11
90
 21
30
 31
12.8
  0
LINE
  8
BARS
 10
90
 20
30
 30
12.8
 11
90
 21
36
 31
12.8
  0
LINE
  8
BARS
 10
90
 20
36
 30
12.8
 11
90
 21
42
 31
12.8
  0
LINE
  8
BARS
 10
90
 20
42
 30
12.8
 11
90
 21
48
 31
12.8
  0
LINE
  8
BARS
 10
90
 20
48
 30
12.8
 11
90
 21
54
 31
12.8
  0
LINE
  8
BARS
 10
90
 20
54
 30
12.8
 11
90
 21
60
 31
12.8
  0
LINE
  8
BARS
 10
96
 20
0
 30
12.8
 11
96
 21
6
 31
12.8
  0
LINE
  8
BARS
 10
96
 20
6
 30
12.8
 11
96
 21
12
 31
12.8
  0
LINE
  8
BARS
 10
96
 20
12
 30
12.8
 11
96
 21
18
 31
12.8
  0
LINE
  8
BARS
 10
96
 20
18
 30
12.8
 11
96
 21
24
 31
12.8
  0
LINE
  8
BARS
 10
96
 20
24
 30
12.8
 11
96
 21
30
 31
12.8
  0
LINE
  8
BARS
 10
96
 20
30
 30
12.8
 11
96
 21
36
 31
12.8
  0
LINE
  8
BARS
 10
96
 20
36
 30
12.8
 11
96
 21
42
 31
12.8
  0
LINE
  8
BARS
 10
96
 20
42
 30
12.8
 11
96
 21
48
 31
12.8
  0
LINE
  8
BARS
 10
96
 20
48
 30
12.8
 11
96
 21
54
 31
12.8
  0
LINE
  8
BARS
 10
96
 20
54
 30
12.8
 11
96
 21
60
 31
12.8
  0
LINE
  8
BARS
 10
0
 20
0
 30
16
 11
0
 21
6
 31
16
  0
LINE
  8
BARS
 10
0
 20
6
 30
16
 11
0
 21
12
 31
16
  0
LINE
  8
BARS
 10
0
 20
12
 30
16
 11
0
 21
18
 31
16
  0
LINE
  8
BARS
 10
0
 20
18
 30
16
 11
0
 21
24
 31
16
  0
LINE
  8
BARS
 10
0
 20
54
 30
16
 11
0
 21
60
 31
16
  0
LINE
  8
BARS
 10
6
 20
0
 30
16
 11
6
 21
6
 31
16
  0
LINE
  8
BARS
 10
6
 20
6
 30
16
 11
6
 21
12
 31
16
  0
LINE
  8
BARS
 10
6
 20
12
 30
16
 11
6
 21
18
 31
16
  0
LINE
  8
BARS
 10
6
 20
18
 30
16
 11
6
 21
24
 31
16
  0
LINE
  8
BARS
 10
6
 20
24
 30
16
 11
6
 21
30
 31
16
  0
LINE
  8
BARS
 10
6
 20
30
 30
16
 11
6
 21
36
 31
16
  0
LINE
  8
BARS
 10
6
 20
36
 30
16
 11
6
 21
42
 31
16
  0
LINE
  8
BARS
 10
6
 20
42
 30
16
 11
6
 21
48
 31
16
  0
LINE
  8
BARS
 10
6
 20
48
 30
16
 11
6
 21
54
 31
16
  0
LINE
  8
BARS
 10
6
 20
54
 30
16
 11
6
 21
60
 31
16
  0
LINE
  8
BARS
 10
12
 20
0
 30
16
 11
12
 21
6
 31
16
  0
LINE
  8
BARS
 10
12
 20
6
 30
16
 11
12
 21
12
 31
16
  0
LINE
  8
BARS
 10
12
 20
12
 30
16
 11
12
 21
18
 31
16
  0
LINE
  8
BARS
 10
12
 20
18
 30
16
 11
12
 21
24
 31
16
  0
LINE
  8
BARS
 10
12
 20
24
 30
16
 11
12
 21
30
 31
16
  0
LINE
  8
BARS
 10
12
 20
30
 30
16
 11
12
 21
36
 31
16
  0
LINE
  8
BARS
 10
12
 20
36
 30
16
 11
12
 21
42
 31
16
  0
LINE
  8
BARS
 10
12
 20
42
 30
16
 11
12
 21
48
 31
16
  0
LINE
  8
BARS
 10
12
 20
48
 30
16
 11
12
 21
54
 31
16
  0
LINE
  8
BARS
 10
12
 20
54
 30
16
 11
12
 21
60
 31
16
  0
LINE
  8
BARS
 10
18
 20
0
 30
16
 11
18
 21
6
 31
16
  0
LINE
  8
BARS
 10
18
 20
6
 30
16
 11
18
 21
12
 31
16
  0
LINE
  8
BARS
 10
18
 20
12
 30
16
 11
18
 21
18
 31
16
  0
LINE
  8
BARS
 10
18
 20
18
 30
16
 11
18
 21
24
 31
16
  0
LINE
  8
BARS
 10
18
 20
24
 30
16
 11
18
 21
30
 31
16
  0
LINE
  8
BARS
 10
18
 20
30
 30
16
 11
18
 21
36
 31
16
  0
LINE
  8
BARS
 10
18
 20
36
 30
16
 11
18
 21
42
 31
16
  0
LINE
  8
BARS
 10
18
 20
42
 30
16
 11
18
 21
48
 31
16
  0
LINE
  8
BARS
 10
18
 20
48
 30
16
 11
18
 21
54
 31
16
  0
LINE
  8
BARS
 10
18
 20
54
 30
16
 11
18
 21
60
 31
16
  0
LINE
  8
BARS
 10
24
 20
0
 30
16
 11
24
 21
6
 31
16
  0
LINE
  8
BARS
 10
24
 20
6
 30
16
 11
24
 21
12
 31
16
  0
LINE
  8
BARS
 10
24
 20
12
 30
16
 11
24
 21
18
 31
16
  0
LINE
  8
BARS
 10
24
 20
18
 30
16
 11
24
 21
24
 31
16
  0
LINE
  8
BARS
 10
24
 20
24
 30
16
 11
24
 21
30
 31
16
  0
LINE
  8
BARS
 10
24
 20
30
 30
16
 11
24
 21
36
 31
16
  0
LINE
  8
BARS
 10
24
 20
36
 30
16
 11
24
 21
42
 31
16
  0
LINE
  8
BARS
 10
24
 20
42
 30
16
 11
24
 21
48
 31
16
  0
LINE
  8
BARS
 10
24
 20
48
 30
16
 11
24
 21
54
 31
16
  0
LINE
  8
BARS
 10
24
 20
54
 30
16
 11
24
 21
60
 31
16
  0
LINE
  8
BARS
 10
84
 20
0
 30
16
 11
84
 21
6
 31
16
  0
LINE
  8
BARS
 10
84
 20
6
 30
16
 11
84
 21
12
 31
16
  0
LINE
  8
BARS
 10
84
 20
12
 30
16
 11
84
 21
18
 31
16
  0
LINE
  8
BARS
 10
84
 20
18
 30
16
 11
84
 21
24
 31
16
  0
LINE
  8
BARS
 10
84
 20
24
 30
16
 11
84
 21
30
 31
16
  0
LINE
  8
BARS
 10
84
 20
30
 30
16
 11
84
 21
36
 31
16
  0
LINE
  8
BARS
 10
84
 20
36
 30
16
 11
84
 21
42
 31
16
  0
LINE
  8
BARS
 10
84
 20
42
 30
16
 11
84
 21
48
 31
16
  0
LINE
  8
BARS
 10
84
 20
48
 30
16
 11
84
 21
54
 31
16
  0
LINE
  8
BARS
 10
84
 20
54
 30
16
 11
84
 21
60
 31
16
  0
LINE
  8
BARS
 10
90
 20
0
 30
16
 11
90
 21
6
 31
16
  0
LINE
  8
BARS
 10
90
 20
6
 30
16
 11
90
 21
12
 31
16
  0
LINE
  8
BARS
 10
90
 20
12
 30
16
 11
90
 21
18
 31
16
  0
LINE
  8
BARS
 10
90
 20
18
 30
16
 11
90
 21
24
 31
16
  0
LINE
  8
BARS
 10
90
 20
24
 30
16
 11
90
 21
30
 31
16
  0
LINE
  8
BARS
 10
90
 20
30
 30
16
 11
90
 21
36
 31
16
  0
LINE
  8
BARS
 10
90
 20
36
 30
16
 11
90
 21
42
 31
16
  0
LINE
  8
BARS
 10
90
 20
42
 30
16
 11
90
 21
48
 31
16
  0
LINE
  8
BARS
 10
90
 20
48
 30
16
 11
90
 21
54
 31
16
  0
LINE
  8
BARS
 10
90
 20
54
 30
16
 11
90
 21
60
 31
16
  0
LINE
  8
BARS
 10
96
 20
0
 30
16
 11
96
 21
6
 31
16
  0
LINE
  8
BARS
 10
96
 20
6
 30
16
 11
96
 21
12
 31
16
  0
LINE
  8
BARS
 10
96
 20
12
 30
16
 11
96
 21
18
 31
16
  0
LINE
  8
BARS
 10
96
 20
18
 30
16
 11
96
 21
24
 31
16
  0
LINE
  8
BARS
 10
96
 20
24
 30
16
 11
96
 21
30
 31
16
  0
LINE
  8
BARS
 10
96
 20
30
 30
16
 11
96
 21
36
 31
16
  0
LINE
  8
BARS
 10
96
 20
36
 30
16
 11
96
 21
42
 31
16
  0
LINE
  8
BARS
 10
96
 20
42
 30
16
 11
96
 21
48
 31
16
  0
LINE
  8
BARS
 10
96
 20
48
 30
16
 11
96
 21
54
 31
16
  0
LINE
  8
BARS
 10
96
 20
54
 30
16
 11
96
 21
60
 31
16
  0
LINE
  8
BARS
 10
0
 20
0
 30
19.2
 11
0
 21
6
 31
19.2
  0
LINE
  8
BARS
 10
0
 20
6
 30
19.2
 11
0
 21
12
 31
19.2
  0
LINE
  8
BARS
 10
0
 20
12
 30
19.2
 11
0
 21
18
 31
19.2
  0
LINE
  8
BARS
 10
0
 20
18
 30
19.2
 11
0
 21
24
 31
19.2
  0
LINE
  8
BARS
 10
0
 20
54
 30
19.2
 11
0
 21
60
 31
19.2
  0
LINE
  8
BARS
 10
6
 20
0
 30
19.2
 11
6
 21
6
 31
19.2
  0
LINE
  8
BARS
 10
6
 20
6
 30
19.2
 11
6
 21
12
 31
19.2
  0
LINE
  8
BARS
 10
6
 20
12
 30
19.2
 11
6
 21
18
 31
19.2
  0
LINE
  8
BARS
 10
6
 20
18
 30
19.2
 11
6
 21
24
 31
19.2
  0
LINE
  8
BARS
 10
6
 20
24
 30
19.2
 11
6
 21
30
 31
19.2
  0
LINE
  8
BARS
 10
6
 20
30
 30
19.2
 11
6
 21
36
 31
19.2
  0
LINE
  8
BARS
 10
6
 20
36
 30
19.2
 11
6
 21
42
 31
19.2
  0
LINE
  8
BARS
 10
6
 20
42
 30
19.2
 11
6
 21
48
 31
19.2
  0
LINE
  8
BARS
 10
6
 20
48
 30
19.2
 11
6
 21
54
 31
19.2
  0
LINE
  8
BARS
 10
6
 20
54
 30
19.2
 11
6
 21
60
 31
19.2
  0
LINE
  8
BARS
 10
12
 20
0
 30
19.2
 11
12
 21
6
 31
19.2
  0
LINE
  8
BARS
 10
12
 20
6
 30
19.2
 11
12
 21
12
 31
19.2
  0
LINE
  8
BARS
 10
12
 20
12
 30
19.2
 11
12
 21
18
 31
19.2
  0
LINE
  8
BARS
 10
12
 20
18
 30
19.2
 11
12
 21
24
 31
19.2
  0
LINE
  8
BARS
 10
12
 20
24
 30
19.2
 11
12
 21
30
 31
19.2
  0
LINE
  8
BARS
 10
12
 20
30
 30
19.2
 11
12
 21
36
 31
19.2
  0
LINE
  8
BARS
 10
12
 20
36
 30
19.2
 11
12
 21
42
 31
19.2
  0
LINE
  8
BARS
 10
12
 20
42
 30
19.2
 11
12
 21
48
 31
19.2
  0
LINE
  8
BARS
 10
12
 20
48
 30
19.2
 11
12
 21
54
 31
19.2
  0
LINE
  8
BARS
 10
12
 20
54
 30
19.2
 11
12
 21
60
 31
19.2
  0
LINE
  8
BARS
 10
0
 20
0
 30
22.4
 11
0
 21
6
 31
22.4
  0
LINE
  8
BARS
 10
0
 20
6
 30
22.4
 11
0
 21
12
 31
22.4
  0
LINE
  8
BARS
 10
0
 20
12
 30
22.4
 11
0
 21
18
 31
22.4
  0
LINE
  8
BARS
 10
0
 20
18
 30
22.4
 11
0
 21
24
 31
22.4
  0
LINE
  8
BARS
 10
0
 20
54
 30
22.4
 11
0
 21
60
 31
22.4
  0
LINE
  8
BARS
 10
6
 20
0
 30
22.4
 11
6
 21
6
 31
22.4
  0
LINE
  8
BARS
 10
6
 20
6
 30
22.4
 11
6
 21
12
 31
22.4
  0
LINE
  8
BARS
 10
6
 20
12
 30
22.4
 11
6
 21
18
 31
22.4
  0
LINE
  8
BARS
 10
6
 20
18
 30
22.4
 11
6
 21
24
 31
22.4
  0
LINE
  8
BARS
 10
6
 20
24
 30
22.4
 11
6
 21
30
 31
22.4
  0
LINE
  8
BARS
 10
6
 20
30
 30
22.4
 11
6
 21
36
 31
22.4
  0
LINE
  8
BARS
 10
6
 20
36
 30
22.4
 11
6
 21
42
 31
22.4
  0
LINE
  8
BARS
 10
6
 20
42
 30
22.4
 11
6
 21
48
 31
22.4
  0
LINE
  8
BARS
 10
6
 20
48
 30
22.4
 11
6
 21
54
 31
22.4
  0
LINE
  8
BARS
 10
6
 20
54
 30
22.4
 11
6
 21
60
 31
22.4
  0
LINE
  8
BARS
 10
12
 20
0
 30
22.4
 11
12
 21
6
 31
22.4
  0
LINE
  8
BARS
 10
12
 20
6
 30
22.4
 11
12
 21
12
 31
22.4
  0
LINE
  8
BARS
 10
12
 20
12
 30
22.4
 11
12
 21
18
 31
22.4
  0
LINE
  8
BARS
 10
12
 20
18
 30
22.4
 11
12
 21
24
 31
22.4
  0
LINE
  8
BARS
 10
12
 20
24
 30
22.4
 11
12
 21
30
 31
22.4
  0
LINE
  8
BARS
 10
12
 20
30
 30
22.4
 11
12
 21
36
 31
22.4
  0
LINE
  8
BARS
 10
12
 20
36
 30
22.4
 11
12
 21
42
 31
22.4
  0
LINE
  8
BARS
 10
12
 20
42
 30
22.4
 11
12
 21
48
 31
22.4
  0
LINE
  8
BARS
 10
12
 20
48
 30
22.4
 11
12
 21
54
 31
22.4
  0
LINE
  8
BARS
 10
12
 20
54
 30
22.4
 11
12
 21
60
 31
22.4
  0
LINE
  8
BARS
 10
0
 20
0
 30
25.6
 11
0
 21
6
 31
25.6
  0
LINE
  8
BARS
 10
0
 20
6
 30
25.6
 11
0
 21
12
 31
25.6
  0
LINE
  8
BARS
 10
0
 20
12
 30
25.6
 11
0
 21
18
 31
25.6
  0
LINE
  8
BARS
 10
0
 20
18
 30
25.6
 11
0
 21
24
 31
25.6
  0
LINE
  8
BARS
 10
0
 20
54
 30
25.6
 11
0
 21
60
 31
25.6
  0
LINE
  8
BARS
 10
6
 20
0
 30
25.6
 11
6
 21
6
 31
25.6
  0
LINE
  8
BARS
 10
6
 20
6
 30
25.6
 11
6
 21
12
 31
25.6
  0
LINE
  8
BARS
 10
6
 20
12
 30
25.6
 11
6
 21
18
 31
25.6
  0
LINE
  8
BARS
 10
6
 20
18
 30
25.6
 11
6
 21
24
 31
25.6
  0
LINE
  8
BARS
 10
6
 20
24
 30
25.6
 11
6
 21
30
 31
25.6
  0
LINE
  8
BARS
 10
6
 20
30
 30
25.6
 11
6
 21
36
 31
25.6
  0
LINE
  8
BARS
 10
6
 20
36
 30
25.6
 11
6
 21
42
 31
25.6
  0
LINE
  8
BARS
 10
6
 20
42
 30
25.6
 11
6
 21
48
 31
25.6
  0
LINE
  8
BARS
 10
6
 20
48
 30
25.6
 11
6
 21
54
 31
25.6
  0
LINE
  8
BARS
 10
6
 20
54
 30
25.6
 11
6
 21
60
 31
25.6
  0
LINE
  8
BARS
 10
12
 20
0
 30
25.6
 11
12
 21
6
 31
25.6
  0
LINE
  8
BARS
 10
12
 20
6
 30
25.6
 11
12
 21
12
 31
25.6
  0
LINE
  8
BARS
 10
12
 20
12
 30
25.6
 11
12
 21
18
 31
25.6
  0
LINE
  8
BARS
 10
12
 20
18
 30
25.6
 11
12
 21
24
 31
25.6
  0
LINE
  8
BARS
 10
12
 20
24
 30
25.6
 11
12
 21
30
 31
25.6
  0
LINE
  8
BARS
 10
12
 20
30
 30
25.6
 11
12
 21
36
 31
25.6
  0
LINE
  8
BARS
 10
12
 20
36
 30
25.6
 11
12
 21
42
 31
25.6
  0
LINE
  8
BARS
 10
12
 20
42
 30
25.6
 11
12
 21
48
 31
25.6
  0
LINE
  8
BARS
 10
12
 20
48
 30
25.6
 11
12
 21
54
 31
25.6
  0
LINE
  8
BARS
 10
12
 20
54
 30
25.6
 11
12
 21
60
 31
25.6
  0
LINE
  8
BARS
 10
0
 20
0
 30
28.8
 11
0
 21
6
 31
28.8
  0
LINE
  8
BARS
 10
0
 20
6
 30
28.8
 11
0
 21
12
 31
28.8
  0
LINE
  8
BARS
 10
0
 20
12
 30
28.8
 11
0
 21
18
 31
28.8
  0
LINE
  8
BARS
 10
0
 20
18
 30
28.8
 11
0
 21
24
 31
28.8
  0
LINE
  8
BARS
 10
0
 20
54
 30
28.8
 11
0
 21
60
 31
28.8
  0
LINE
  8
BARS
 10
6
 20
0
 30
28.8
 11
6
 21
6
 31
28.8
  0
LINE
  8
BARS
 10
6
 20
6
 30
28.8
 11
6
 21
12
 31
28.8
  0
LINE
  8
BARS
 10
6
 20
12
 30
28.8
 11
6
 21
18
 31
28.8
  0
LINE
  8
BARS
 10
6
 20
18
 30
28.8
 11
6
 21
24
 31
28.8
  0
LINE
  8
BARS
 10
6
 20
24
 30
28.8
 11
6
 21
30
 31
28.8
  0
LINE
  8
BARS
 10
6
 20
30
 30
28.8
 11
6
 21
36
 31
28.8
  0
LINE
  8
BARS
 10
6
 20
36
 30
28.8
 11
6
 21
42
 31
28.8
  0
LINE
  8
BARS
 10
6
 20
42
 30
28.8
 11
6
 21
48
 31
28.8
  0
LINE
  8
BARS
 10
6
 20
48
 30
28.8
 11
6
 21
54
 31
28.8
  0
LINE
  8
BARS
 10
6
 20
54
 30
28.8
 11
6
 21
60
 31
28.8
  0
LINE
  8
BARS
 10
12
 20
0
 30
28.8
 11
12
 21
6
 31
28.8
  0
LINE
  8
BARS
 10
12
 20
6
 30
28.8
 11
12
 21
12
 31
28.8
  0
LINE
  8
BARS
 10
12
 20
12
 30
28.8
 11
12
 21
18
 31
28.8
  0
LINE
  8
BARS
 10
12
 20
18
 30
28.8
 11
12
 21
24
 31
28.8
  0
LINE
  8
BARS
 10
12
 20
24
 30
28.8
 11
12
 21
30
 31
28.8
  0
LINE
  8
BARS
 10
12
 20
30
 30
28.8
 11
12
 21
36
 31
28.8
  0
LINE
  8
BARS
 10
12
 20
36
 30
28.8
 11
12
 21
42
 31
28.8
  0
LINE
  8
BARS
 10
12
 20
42
 30
28.8
 11
12
 21
48
 31
28.8
  0
LINE
  8
BARS
 10
12
 20
48
 30
28.8
 11
12
 21
54
 31
28.8
  0
LINE
  8
BARS
 10
12
 20
54
 30
28.8
 11
12
 21
60
 31
28.8
  0
LINE
  8
BARS
 10
0
 20
0
 30
32
 11
0
 21
6
 31
32
  0
LINE
  8
BARS
 10
0
 20
6
 30
32
 11
0
 21
12
 31
32
  0
LINE
  8
BARS
 10
0
 20
12
 30
32
 11
0
 21
18
 31
32
  0
LINE
  8
BARS
 10
0
 20
18
 30
32
 11
0
 21
24
 31
32
  0
LINE
  8
BARS
 10
0
 20
54
 30
32
 11
0
 21
60
 31
32
  0
LINE
  8
BARS
 10
6
 20
0
 30
32
 11
6
 21
6
 31
32
  0
LINE
  8
BARS
 10
6
 20
6
 30
32
 11
6
 21
12
 31
32
  0
LINE
  8
BARS
 10
6
 20
12
 30
32
 11
6
 21
18
 31
32
  0
LINE
  8
BARS
 10
6
 20
18
 30
32
 11
6
 21
24
 31
32
  0
LINE
  8
BARS
 10
6
 20
24
 30
32
 11
6
 21
30
 31
32
  0
LINE
  8
BARS
 10
6
 20
30
 30
32
 11
6
 21
36
 31
32
  0
LINE
  8
BARS
 10
6
 20
36
 30
32
 11
6
 21
42
 31
32
  0
LINE
  8
BARS
 10
6
 20
42
 30
32
 11
6
 21
48
 31
32
  0
LINE
  8
BARS
 10
6
 20
48
 30
32
 11
6
 21
54
 31
32
  0
LINE
  8
BARS
 10
6
 20
54
 30
32
 11
6
 21
60
 31
32
  0
LINE
  8
BARS
 10
12
 20
0
 30
32
 11
12
 21
6
 31
32
  0
LINE
  8
BARS
 10
12
 20
6
 30
32
 11
12
 21
12
 31
32
  0
LINE
  8
BARS
 10
12
 20
12
 30
32
 11
12
 21
18
 31
32
  0
LINE
  8
BARS
 10
12
 20
18
 30
32
 11
12
 21
24
 31
32
  0
LINE
  8
BARS
 10
12
 20
24
 30
32
 11
12
 21
30
 31
32
  0
LINE
  8
BARS
 10
12
 20
30
 30
32
 11
12
 21
36
 31
32
  0
LINE
  8
BARS
 10
12
 20
36
 30
32
 11
12
 21
42
 31
32
  0
LINE
  8
BARS
 10
12
 20
42
 30
32
 11
12
 21
48
 31
32
  0
LINE
  8
BARS
 10
12
 20
48
 30
32
 11
12
 21
54
 31
32
  0
LINE
  8
BARS
 10
12
 20
54
 30
32
 11
12
 21
60
 31
32
  0
LINE
  8
BARS
 10
0
 20
0
 30
35.2
 11
0
 21
6
 31
35.2
  0
LINE
  8
BARS
 10
0
 20
6
 30
35.2
 11
0
 21
12
 31
35.2
  0
LINE
  8
BARS
 10
0
 20
12
 30
35.2
 11
0
 21
18
 31
35.2
  0
LINE
  8
BARS
 10
0
 20
18
 30
35.2
 11
0
 21
24
 31
35.2
  0
LINE
  8
BARS
 10
0
 20
54
 30
35.2
 11
0
 21
60
 31
35.2
  0
LINE
  8
BARS
 10
6
 20
0
 30
35.2
 11
6
 21
6
 31
35.2
  0
LINE
  8
BARS
 10
6
 20
6
 30
35.2
 11
6
 21
12
 31
35.2
  0
LINE
  8
BARS
 10
6
 20
12
 30
35.2
 11
6
 21
18
 31
35.2
  0
LINE
  8
BARS
 10
6
 20
18
 30
35.2
 11
6
 21
24
 31
35.2
  0
LINE
  8
BARS
 10
6
 20
24
 30
35.2
 11
6
 21
30
 31
35.2
  0
LINE
  8
BARS
 10
6
 20
30
 30
35.2
 11
6
 21
36
 31
35.2
  0
LINE
  8
BARS
 10
6
 20
36
 30
35.2
 11
6
 21
42
 31
35.2
  0
LINE
  8
BARS
 10
6
 20
42
 30
35.2
 11
6
 21
48
 31
35.2
  0
LINE
  8
BARS
 10
6
 20
48
 30
35.2
 11
6
 21
54
 31
35.2
  0
LINE
  8
BARS
 10
6
 20
54
 30
35.2
 11
6
 21
60
 31
35.2
  0
LINE
  8
BARS
 10
12
 20
0
 30
35.2
 11
12
 21
6
 31
35.2
  0
LINE
  8
BARS
 10
12
 20
6
 30
35.2
 11
12
 21
12
 31
35.2
  0
LINE
  8
BARS
 10
12
 20
12
 30
35.2
 11
12
 21
18
 31
35.2
  0
LINE
  8
BARS
 10
12
 20
18
 30
35.2
 11
12
 21
24
 31
35.2
  0
LINE
  8
BARS
 10
12
 20
24
 30
35.2
 11
12
 21
30
 31
35.2
  0
LINE
  8
BARS
 10
12
 20
30
 30
35.2
 11
12
 21
36
 31
35.2
  0
LINE
  8
BARS
 10
12
 20
36
 30
35.2
 11
12
 21
42
 31
35.2
  0
LINE
  8
BARS
 10
12
 20
42
 30
35.2
 11
12
 21
48
 31
35.2
  0
LINE
  8
BARS
 10
12
 20
48
 30
35.2
 11
12
 21
54
 31
35.2
  0
LINE
  8
BARS
 10
12
 20
54
 30
35.2
 11
12
 21
60
 31
35.2
  0
LINE
  8
BARS
 10
0
 20
0
 30
38.4
 11
0
 21
6
 31
38.4
  0
LINE
  8
BARS
 10
0
 20
6
 30
38.4
 11
0
 21
12
 31
38.4
  0
LINE
  8
BARS
 10
0
 20
12
 30
38.4
 11
0
 21
18
 31
38.4
  0
LINE
  8
BARS
 10
0
 20
18
 30
38.4
 11
0
 21
24
 31
38.4
  0
LINE
  8
BARS
 10
0
 20
54
 30
38.4
 11
0
 21
60
 31
38.4
  0
LINE
  8
BARS
 10
6
 20
0
 30
38.4
 11
6
 21
6
 31
38.4
  0
LINE
  8
BARS
 10
6
 20
6
 30
38.4
 11
6
 21
12
 31
38.4
  0
LINE
  8
BARS
 10
6
 20
12
 30
38.4
 11
6
 21
18
 31
38.4
  0
LINE
  8
BARS
 10
6
 20
18
 30
38.4
 11
6
 21
24
 31
38.4
  0
LINE
  8
BARS
 10
6
 20
24
 30
38.4
 11
6
 21
30
 31
38.4
  0
LINE
  8
BARS
 10
6
 20
30
 30
38.4
 11
6
 21
36
 31
38.4
  0
LINE
  8
BARS
 10
6
 20
36
 30
38.4
 11
6
 21
42
 31
38.4
  0
LINE
  8
BARS
 10
6
 20
42
 30
38.4
 11
6
 21
48
 31
38.4
  0
LINE
  8
BARS
 10
6
 20
48
 30
38.4
 11
6
 21
54
 31
38.4
  0
LINE
  8
BARS
 10
6
 20
54
 30
38.4
 11
6
 21
60
 31
38.4
  0
LINE
  8
BARS
 10
12
 20
0
 30
38.4
 11
12
 21
6
 31
38.4
  0
LINE
  8
BARS
 10
12
 20
6
 30
38.4
 11
12
 21
12
 31
38.4
  0
LINE
  8
BARS
 10
12
 20
12
 30
38.4
 11
12
 21
18
 31
38.4
  0
LINE
  8
BARS
 10
12
 20
18
 30
38.4
 11
12
 21
24
 31
38.4
  0
LINE
  8
BARS
 10
12
 20
24
 30
38.4
 11
12
 21
30
 31
38.4
  0
LINE
  8
BARS
 10
12
 20
30
 30
38.4
 11
12
 21
36
 31
38.4
  0
LINE
  8
BARS
 10
12
 20
36
 30
38.4
 11
12
 21
42
 31
38.4
  0
LINE
  8
BARS
 10
12
 20
42
 30
38.4
 11
12
 21
48
 31
38.4
  0
LINE
  8
BARS
 10
12
 20
48
 30
38.4
 11
12
 21
54
 31
38.4
  0
LINE
  8
BARS
 10
12
 20
54
 30
38.4
 11
12
 21
60
 31
38.4
  0
LINE
  8
BARS
 10
31.5
 20
0
 30
19
 11
31.5
 21
6
 31
19
  0
LINE
  8
BARS
 10
31.5
 20
6
 30
19
 11
31.5
 21
12
 31
19
  0
LINE
  8
BARS
 10
31.5
 20
12
 30
19
 11
31.5
 21
18
 31
19
  0
LINE
  8
BARS
 10
31.5
 20
18
 30
19
 11
31.5
 21
24
 31
19
  0
LINE
  8
BARS
 10
31.5
 20
24
 30
19
 11
31.5
 21
30
 31
19
  0
LINE
  8
BARS
 10
31.5
 20
30
 30
19
 11
31.5
 21
36
 31
19
  0
LINE
  8
BARS
 10
31.5
 20
36
 30
19
 11
31.5
 21
42
 31
19
  0
LINE
  8
BARS
 10
31.5
 20
42
 30
19
 11
31.5
 21
48
 31
19
  0
LINE
  8
BARS
 10
31.5
 20
48
 30
19
 11
31.5
 21
54
 31
19
  0
LINE
  8
BARS
 10
31.5
 20
54
 30
19
 11
31.5
 21
60
 31
19
  0
LINE
  8
BARS
 10
39
 20
0
 30
21
 11
39
 21
6
 31
21
  0
LINE
  8
BARS
 10
39
 20
6
 30
21
 11
39
 21
12
 31
21
  0
LINE
  8
BARS
 10
39
 20
12
 30
21
 11
39
 21
18
 31
21
  0
LINE
  8
BARS
 10
39
 20
18
 30
21
 11
39
 21
24
 31
21
  0
LINE
  8
BARS
 10
39
 20
24
 30
21
 11
39
 21
30
 31
21
  0
LINE
  8
BARS
 10
39
 20
30
 30
21
 11
39
 21
36
 31
21
  0
LINE
  8
BARS
 10
39
 20
36
 30
21
 11
39
 21
42
 31
21
  0
LINE
  8
BARS
 10
39
 20
42
 30
21
 11
39
 21
48
 31
21
  0
LINE
  8
BARS
 10
39
 20
48
 30
21
 11
39
 21
54
 31
21
  0
LINE
  8
BARS
 10
39
 20
54
 30
21
 11
39
 21
60
 31
21
  0
LINE
  8
BARS
 10
46.5
 20
0
 30
22
 11
46.5
 21
6
 31
22
  0
LINE
  8
BARS
 10
46.5
 20
6
 30
22
 11
46.5
 21
12
 31
22
  0
LINE
  8
BARS
 10
46.5
 20
12
 30
22
 11
46.5
 21
18
 31
22
  0
LINE
  8
BARS
 10
46.5
 20
18
 30
22
 11
46.5
 21
24
 31
22
  0
LINE
  8
BARS
 10
46.5
 20
24
 30
22
 11
46.5
 21
30
 31
22
  0
LINE
  8
BARS
 10
46.5
 20
30
 30
22
 11
46.5
 21
36
 31
22
  0
LINE
  8
BARS
 10
46.5
 20
36
 30
22
 11
46.5
 21
42
 31
22
  0
LINE
  8
BARS
 10
46.5
 20
42
 30
22
 11
46.5
 21
48
 31
22
  0
LINE
  8
BARS
 10
46.5
 20
48
 30
22
 11
46.5
 21
54
 31
22
  0
LINE
  8
BARS
 10
46.5
 20
54
 30
22
 11
46.5
 21
60
 31
22
  0
LINE
  8
BARS
 10
54
 20
0
 30
22
 11
54
 21
6
 31
22
  0
LINE
  8
BARS
 10
54
 20
6
 30
22
 11
54
 21
12
 31
22
  0
LINE
  8
BARS
 10
54
 20
12
 30
22
 11
54
 21
18
 31
22
  0
LINE
  8
BARS
 10
54
 20
18
 30
22
 11
54
 21
24
 31
22
  0
LINE
  8
BARS
 10
54
 20
24
 30
22
 11
54
 21
30
 31
22
  0
LINE
  8
BARS
 10
54
 20
30
 30
22
 11
54
 21
36
 31
22
  0
LINE
  8
BARS
 10
54
 20
36
 30
22
 11
54
 21
42
 31
22
  0
LINE
  8
BARS
 10
54
 20
42
 30
22
 11
54
 21
48
 31
22
  0
LINE
  8
BARS
 10
54
 20
48
 30
22
 11
54
 21
54
 31
22
  0
LINE
  8
BARS
 10
54
 20
54
 30
22
 11
54
 21
60
 31
22
  0
LINE
  8
BARS
 10
61.5
 20
0
 30
22
 11
61.5
 21
6
 31
22
  0
LINE
  8
BARS
 10
61.5
 20
6
 30
22
 11
61.5
 21
12
 31
22
  0
LINE
  8
BARS
 10
61.5
 20
12
 30
22
 11
61.5
 21
18
 31
22
  0
LINE
  8
BARS
 10
61.5
 20
18
 30
22
 11
61.5
 21
24
 31
22
  0
LINE
  8
BARS
 10
61.5
 20
24
 30
22
 11
61.5
 21
30
 31
22
  0
LINE
  8
BARS
 10
61.5
 20
30
 30
22
 11
61.5
 21
36
 31
22
  0
LINE
  8
BARS
 10
61.5
 20
36
 30
22
 11
61.5
 21
42
 31
22
  0
LINE
  8
BARS
 10
61.5
 20
42
 30
22
 11
61.5
 21
48
 31
22
  0
LINE
  8
BARS
 10
61.5
 20
48
 30
22
 11
61.5
 21
54
 31
22
  0
LINE
  8
BARS
 10
61.5
 20
54
 30
22
 11
61.5
 21
60
 31
22
  0
LINE
  8
BARS
 10
69
 20
0
 30
21
 11
69
 21
6
 31
21
  0
LINE
  8
BARS
 10
69
 20
6
 30
21
 11
69
 21
12
 31
21
  0
LINE
  8
BARS
 10
69
 20
12
 30
21
 11
69
 21
18
 31
21
  0
LINE
  8
BARS
 10
69
 20
18
 30
21
 11
69
 21
24
 31
21
  0
LINE
  8
BARS
 10
69
 20
24
 30
21
 11
69
 21
30
 31
21
  0
LINE
  8
BARS
 10
69
 20
30
 30
21
 11
69
 21
36
 31
21
  0
LINE
  8
BARS
 10
69
 20
36
 30
21
 11
69
 21
42
 31
21
  0
LINE
  8
BARS
 10
69
 20
42
 30
21
 11
69
 21
48
 31
21
  0
LINE
  8
BARS
 10
69
 20
48
 30
21
 11
69
 21
54
 31
21
  0
LINE
  8
BARS
 10
69
 20
54
 30
21
 11
69
 21
60
 31
21
  0
LINE
  8
BARS
 10
76.5
 20
0
 30
19
 11
76.5
 21
6
 31
19
  0
LINE
  8
BARS
 10
76.5
 20
6
 30
19
 11
76.5
 21
12
 31
19
  0
LINE
  8
BARS
 10
76.5
 20
12
 30
19
 11
76.5
 21
18
 31
19
  0
LINE
  8
BARS
 10
76.5
 20
18
 30
19
 11
76.5
 21
24
 31
19
  0
LINE
  8
BARS
 10
76.5
 20
24
 30
19
 11
76.5
 21
30
 31
19
  0
LINE
  8
BARS
 10
76.5
 20
30
 30
19
 11
76.5
 21
36
 31
19
  0
LINE
  8
BARS
 10
76.5
 20
36
 30
19
 11
76.5
 21
42
 31
19
  0
LINE
  8
BARS
 10
76.5
 20
42
 30
19
 11
76.5
 21
48
 31
19
  0
LINE
  8
BARS
 10
76.5
 20
48
 30
19
 11
76.5
 21
54
 31
19
  0
LINE
  8
BARS
 10
76.5
 20
54
 30
19
 11
76.5
 21
60
 31
19
  0
3DFACE
  8
FACES
 10
24
 20
0
 30
16
 11
31.5
 21
0
 31
19
 12
31.5
 22
6
 32
19
 13
24
 23
6
 33
16
  0
3DFACE
  8
FACES
 10
31.5
 20
0
 30
19
 11
39
 21
0
 31
21
 12
39
 22
6
 32
21
 13
31.5
 23
6
 33
19
  0
3DFACE
  8
FACES
 10
39
 20
0
 30
21
 11
46.5
 21
0
 31
22
 12
46.5
 22
6
 32
22
 13
39
 23
6
 33
21
  0
3DFACE
  8
FACES
 10
46.5
 20
0
 30
22
 11
54
 21
0
 31
22
 12
54
 22
6
 32
22
 13
46.5
 23
6
 33
22
  0
3DFACE
  8
FACES
 10
54
 20
0
 30
22
 11
61.5
 21
0
 31
22
 12
61.5
 22
6
 32
22
 13
54
 23
6
 33
22
  0
3DFACE
  8
FACES
 10
61.5
 20
0
 30
22
 11
69
 21
0
 31
21
 12
69
 22
6
 32
21
 13
61.5
 23
6
 33
22
  0
3DFACE
  8
FACES
 10
69
 20
0
 30
21
 11
76.5
 21
0
 31
19
 12
76.5
 22
6
 32
19
 13
69
 23
6
 33
21
  0
3DFACE
  8
FACES
 10
84
 20
0
 30
16
 11
84
 21
6
 31
16
 12
76.5
 22
6
 32
19
 13
76.5
 23
0
 33
19
  0
3DFACE
  8
FACES
 10
24
 20
6
 30
16
 11
31.5
 21
6
 31
19
 12
31.5
 22
12
 32
19
 13
24
 23
12
 33
16
  0
3DFACE
  8
FACES
 10
31.5
 20
6
 30
19
 11
39
 21
6
 31
21
 12
39
 22
12
 32
21
 13
31.5
 23
12
 33
19
  0
3DFACE
  8
FACES
 10
39
 20
6
 30
21
 11
46.5
 21
6
 31
22
 12
46.5
 22
12
 32
22
 13
39
 23
12
 33
21
  0
3DFACE
  8
FACES
 10
46.5
 20
6
 30
22
 11
54
 21
6
 31
22
 12
54
 22
12
 32
22
 13
46.5
 23
12
 33
22
  0
3DFACE
  8
FACES
 10
54
 20
6
 30
22
 11
61.5
 21
6
 31
22
 12
61.5
 22
12
 32
22
 13
54
 23
12
 33
22
  0
3DFACE
  8
FACES
 10
61.5
 20
6
 30
22
 11
69
 21
6
 31
21
 12
69
 22
12
 32
21
 13
61.5
 23
12
 33
22
  0
3DFACE
  8
FACES
 10
69
 20
6
 30
21
 11
76.5
 21
6
 31
19
 12
76.5
 22
12
 32
19
 13
69
 23
12
 33
21
  0
3DFACE
  8
FACES
 10
84
 20
6
 30
16
 11
84
 21
12
 31
16
 12
76.5
 22
12
 32
19
 13
76.5
 23
6
 33
19
  0
3DFACE
  8
FACES
 10
24
 20
12
 30
16
 11
31.5
 21
12
 31
19
 12
31.5
 22
18
 32
19
 13
24
 23
18
 33
16
  0
3DFACE
  8
FACES
 10
31.5
 20
12
 30
19
 11
39
 21
12
 31
21
 12
39
 22
18
 32
21
 13
31.5
 23
18
 33
19
  0
3DFACE
  8
FACES
 10
39
 20
12
 30
21
 11
46.5
 21
12
 31
22
 12
46.5
 22
18
 32
22
 13
39
 23
18
 33
21
  0
3DFACE
  8
FACES
 10
46.5
 20
12
 30
22
 11
54
 21
12
 31
22
 12
54
 22
18
 32
22
 13
46.5
 23
18
 33
22
  0
3DFACE
  8
FACES
 10
54
 20
12
 30
22
 11
61.5
 21
12
 31
22
 12
61.5
 22
18
 32
22
 13
54
 23
18
 33
22
  0
3DFACE
  8
FACES
 10
61.5
 20
12
 30
22
 11
69
 21
12
 31
21
 12
69
 22
18
 32
21
 13
61.5
 23
18
 33
22
  0
3DFACE
  8
FACES
 10
69
 20
12
 30
21
 11
76.5
 21
12
 31
19
 12
76.5
 22
18
 32
19
 13
69
 23
18
 33
21
  0
3DFACE
  8
FACES
 10
84
 20
12
 30
16
 11
84
 21
18
 31
16
 12
76.5
 22
18
 32
19
 13
76.5
 23
12
 33
19
  0
3DFACE
  8
FACES
 10
24
 20
18
 30
16
 11
31.5
 21
18
 31
19
 12
31.5
 22
24
 32
19
 13
24
 23
24
 33
16
  0
3DFACE
  8
FACES
 10
31.5
 20
18
 30
19
 11
39
 21
18
 31
21
 12
39
 22
24
 32
21
 13
31.5
 23
24
 33
19
  0
3DFACE
  8
FACES
 10
39
 20
18
 30
21
 11
46.5
 21
18
 31
22
 12
46.5
 22
24
 32
22
 13
39
 23
24
 33
21
  0
3DFACE
  8
FACES
 10
46.5
 20
18
 30
22
 11
54
 21
18
 31
22
 12
54
 22
24
 32
22
 13
46.5
 23
24
 33
22
  0
3DFACE
  8
FACES
 10
54
 20
18
 30
22
 11
61.5
 21
18
 31
22
 12
61.5
 22
24
 32
22
 13
54
 23
24
 33
22
  0
3DFACE
  8
FACES
 10
61.5
 20
18
 30
22
 11
69
 21
18
 31
21
 12
69
 22
24
 32
21
 13
61.5
 23
24
 33
22
  0
3DFACE
  8
FACES
 10
69
 20
18
 30
21
 11
76.5
 21
18
 31
19
 12
76.5
 22
24
 32
19
 13
69
 23
24
 33
21
  0
3DFACE
  8
FACES
 10
84
 20
18
 30
16
 11
84
 21
24
 31
16
 12
76.5
 22
24
 32
19
 13
76.5
 23
18
 33
19
  0
3DFACE
  8
FACES
 10
24
 20
24
 30
16
 11
31.5
 21
24
 31
19
 12
31.5
 22
30
 32
19
 13
24
 23
30
 33
16
  0
3DFACE
  8
FACES
 10
31.5
 20
24
 30
19
 11
39
 21
24
 31
21
 12
39
 22
30
 32
21
 13
31.5
 23
30
 33
19
  0
3DFACE
  8
FACES
 10
39
 20
24
 30
21
 11
46.5
 21
24
 31
22
 12
46.5
 22
30
 32
22
 13
39
 23
30
 33
21
  0
3DFACE
  8
FACES
 10
46.5
 20
24
 30
22
 11
54
 21
24
 31
22
 12
54
 22
30
 32
22
 13
46.5
 23
30
 33
22
  0
3DFACE
  8
FACES
 10
54
 20
24
 30
22
 11
61.5
 21
24
 31
22
 12
61.5
 22
30
 32
22
 13
54
 23
30
 33
22
  0
3DFACE
  8
FACES
 10
61.5
 20
24
 30
22
 11
69
 21
24
 31
21
 12
69
 22
30
 32
21
 13
61.5
 23
30
 33
22
  0
3DFACE
  8
FACES
 10
69
 20
24
 30
21
 11
76.5
 21
24
 31
19
 12
76.5
 22
30
 32
19
 13
69
 23
30
 33
21
  0
3DFACE
  8
FACES
 10
84
 20
24
 30
16
 11
84
 21
30
 31
16
 12
76.5
 22
30
 32
19
 13
76.5
 23
24
 33
19
  0
3DFACE
  8
FACES
 10
24
 20
30
 30
16
 11
31.5
 21
30
 31
19
 12
31.5
 22
36
 32
19
 13
24
 23
36
 33
16
  0
3DFACE
  8
FACES
 10
31.5
 20
30
 30
19
 11
39
 21
30
 31
21
 12
39
 22
36
 32
21
 13
31.5
 23
36
 33
19
  0
3DFACE
  8
FACES
 10
39
 20
30
 30
21
 11
46.5
 21
30
 31
22
 12
46.5
 22
36
 32
22
 13
39
 23
36
 33
21
  0
3DFACE
  8
FACES
 10
46.5
 20
30
 30
22
 11
54
 21
30
 31
22
 12
54
 22
36
 32
22
 13
46.5
 23
36
 33
22
  0
3DFACE
  8
FACES
 10
54
 20
30
 30
22
 11
61.5
 21
30
 31
22
 12
61.5
 22
36
 32
22
 13
54
 23
36
 33
22
  0
3DFACE
  8
FACES
 10
61.5
 20
30
 30
22
 11
69
 21
30
 31
21
 12
69
 22
36
 32
21
 13
61.5
 23
36
 33
22
  0
3DFACE
  8
FACES
 10
69
 20
30
 30
21
 11
76.5
 21
30
 31
19
 12
76.5
 22
36
 32
19
 13
69
 23
36
 33
21
  0
3DFACE
  8
FACES
 10
84
 20
30
 30
16
 11
84
 21
36
 31
16
 12
76.5
 22
36
 32
19
 13
76.5
 23
30
 33
19
  0
3DFACE
  8
FACES
 10
24
 20
36
 30
16
 11
31.5
 21
36
 31
19
 12
31.5
 22
42
 32
19
 13
24
 23
42
 33
16
  0
3DFACE
  8
FACES
 10
31.5
 20
36
 30
19
 11
39
 21
36
 31
21
 12
39
 22
42
 32
21
 13
31.5
 23
42
 33
19
  0
3DFACE
  8
FACES
 10
39
 20
36
 30
21
 11
46.5
 21
36
 31
22
 12
46.5
 22
42
 32
22
 13
39
 23
42
 33
21
  0
3DFACE
  8
FACES
 10
46.5
 20
36
 30
22
 11
54
 21
36
 31
22
 12
54
 22
42
 32
22
 13
46.5
 23
42
 33
22
  0
3DFACE
  8
FACES
 10
54
 20
36
 30
22
 11
61.5
 21
36
 31
22
 12
61.5
 22
42
 32
22
 13
54
 23
42
 33
22
  0
3DFACE
  8
FACES
 10
61.5
 20
36
 30
22
 11
69
 21
36
 31
21
 12
69
 22
42
 32
21
 13
61.5
 23
42
 33
22
  0
3DFACE
  8
FACES
 10
69
 20
36
 30
21
 11
76.5
 21
36
 31
19
 12
76.5
 22
42
 32
19
 13
69
 23
42
 33
21
  0
3DFACE
  8
FACES
 10
84
 20
36
 30
16
 11
84
 21
42
 31
16
 12
76.5
 22
42
 32
19
 13
76.5
 23
36
 33
19
  0
3DFACE
  8
FACES
 10
24
 20
42
 30
16
 11
31.5
 21
42
 31
19
 12
31.5
 22
48
 32
19
 13
24
 23
48
 33
16
  0
3DFACE
  8
FACES
 10
31.5
 20
42
 30
19
 11
39
 21
42
 31
21
 12
39
 22
48
 32
21
 13
31.5
 23
48
 33
19
  0
3DFACE
  8
FACES
 10
39
 20
42
 30
21
 11
46.5
 21
42
 31
22
 12
46.5
 22
48
 32
22
 13
39
 23
48
 33
21
  0
3DFACE
  8
FACES
 10
46.5
 20
42
 30
22
 11
54
 21
42
 31
22
 12
54
 22
48
 32
22
 13
46.5
 23
48
 33
22
  0
3DFACE
  8
FACES
 10
54
 20
42
 30
22
 11
61.5
 21
42
 31
22
 12
61.5
 22
48
 32
22
 13
54
 23
48
 33
22
  0
3DFACE
  8
FACES
 10
61.5
 20
42
 30
22
 11
69
 21
42
 31
21
 12
69
 22
48
 32
21
 13
61.5
 23
48
 33
22
  0
3DFACE
  8
FACES
 10
69
 20
42
 30
21
 11
76.5
 21
42
 31
19
 12
76.5
 22
48
 32
19
 13
69
 23
48
 33
21
  0
3DFACE
  8
FACES
 10
84
 20
42
 30
16
 11
84
 21
48
 31
16
 12
76.5
 22
48
 32
19
 13
76.5
 23
42
 33
19
  0
3DFACE
  8
FACES
 10
24
 20
48
 30
16
 11
31.5
 21
48
 31
19
 12
31.5
 22
54
 32
19
 13
24
 23
54
 33
16
  0
3DFACE
  8
FACES
 10
31.5
 20
48
 30
19
 11
39
 21
48
 31
21
 12
39
 22
54
 32
21
 13
31.5
 23
54
 33
19
  0
3DFACE
  8
FACES
 10
39
 20
48
 30
21
 11
46.5
 21
48
 31
22
 12
46.5
 22
54
 32
22
 13
39
 23
54
 33
21
  0
3DFACE
  8
FACES
 10
46.5
 20
48
 30
22
 11
54
 21
48
 31
22
 12
54
 22
54
 32
22
 13
46.5
 23
54
 33
22
  0
3DFACE
  8
FACES
 10
54
 20
48
 30
22
 11
61.5
 21
48
 31
22
 12
61.5
 22
54
 32
22
 13
54
 23
54
 33
22
  0
3DFACE
  8
FACES
 10
61.5
 20
48
 30
22
 11
69
 21
48
 31
21
 12
69
 22
54
 32
21
 13
61.5
 23
54
 33
22
  0
3DFACE
  8
FACES
 10
69
 20
48
 30
21
 11
76.5
 21
48
 31
19
 12
76.5
 22
54
 32
19
 13
69
 23
54
 33
21
  0
3DFACE
  8
FACES
 10
84
 20
48
 30
16
 11
84
 21
54
 31
16
 12
76.5
 22
54
 32
19
 13
76.5
 23
48
 33
19
  0
3DFACE
  8
FACES
 10
24
 20
54
 30
16
 11
31.5
 21
54
 31
19
 12
31.5
 22
60
 32
19
 13
24
 23
60
 33
16
  0
3DFACE
  8
FACES
 10
31.5
 20
54
 30
19
 11
39
 21
54
 31
21
 12
39
 22
60
 32
21
 13
31.5
 23
60
 33
19
  0
3DFACE
  8
FACES
 10
39
 20
54
 30
21
 11
46.5
 21
54
 31
22
 12
46.5
 22
60
 32
22
 13
39
 23
60
 33
21
  0
3DFACE
  8
FACES
 10
46.5
 20
54
 30
22
 11
54
 21
54
 31
22
 12
54
 22
60
 32
22
 13
46.5
 23
60
 33
22
  0
3DFACE
  8
FACES
 10
54
 20
54
 30
22
 11
61.5
 21
54
 31
22
 12
61.5
 22
60
 32
22
 13
54
 23
60
 33
22
  0
3DFACE
  8
FACES
 10
61.5
 20
54
 30
22
 11
69
 21
54
 31
21
 12
69
 22
60
 32
21
 13
61.5
 23
60
 33
22
  0
3DFACE
  8
FACES
 10
69
 20
54
 30
21
 11
76.5
 21
54
 31
19
 12
76.5
 22
60
 32
19
 13
69
 23
60
 33
21
  0
3DFACE
  8
FACES
 10
84
 20
54
 30
16
 11
84
 21
60
 31
16
 12
76.5
 22
60
 32
19
 13
76.5
 23
54
 33
19
  0
ENDSEC
  0
EOF
